<?xml version="1.0" encoding="UTF-8"?>
<svg id="Layer_1" data-name="Layer 1" xmlns="http://www.w3.org/2000/svg" viewBox="0 0 200 24.23">
  <defs>
    <style>
      .cls-1 {
        fill: #414042;
      }
    </style>
  </defs>
  <polygon class="cls-1" points="16.24 8.39 25.37 9.05 18.53 15.14 20.72 24.03 12.82 19.4 5.04 24.23 7 15.29 0 9.38 9.11 8.48 12.57 0 16.24 8.39"/>
  <polygon class="cls-1" points="61.72 8.39 70.85 9.05 64.01 15.14 66.2 24.03 58.29 19.4 50.51 24.23 52.47 15.29 45.48 9.38 54.59 8.48 58.04 0 61.72 8.39"/>
  <polygon class="cls-1" points="106.83 8.39 115.96 9.05 109.12 15.14 111.31 24.03 103.41 19.4 95.63 24.23 97.59 15.29 90.59 9.38 99.7 8.48 103.16 0 106.83 8.39"/>
  <polygon class="cls-1" points="150.12 8.39 159.25 9.05 152.41 15.14 154.6 24.03 146.7 19.4 138.92 24.23 140.88 15.29 133.88 9.38 142.99 8.48 146.45 0 150.12 8.39"/>
  <polygon class="cls-1" points="190.87 8.39 200 9.05 193.16 15.14 195.35 24.03 187.45 19.4 179.67 24.23 181.62 15.29 174.63 9.38 183.74 8.48 187.19 0 190.87 8.39"/>
  <polygon points="16.24 8.39 25.37 9.05 18.53 15.14 20.72 24.03 12.82 19.4 5.04 24.23 7 15.29 0 9.38 9.11 8.48 12.57 0 16.24 8.39"/>
  <polygon points="61.72 8.39 70.85 9.05 64.01 15.14 66.2 24.03 58.29 19.4 50.51 24.23 52.47 15.29 45.48 9.38 54.59 8.48 58.04 0 61.72 8.39"/>
  <polygon points="106.83 8.39 115.96 9.05 109.12 15.14 111.31 24.03 103.41 19.4 95.63 24.23 97.59 15.29 90.59 9.38 99.7 8.48 103.16 0 106.83 8.39"/>
  <polygon points="150.12 8.39 159.25 9.05 152.41 15.14 154.6 24.03 146.7 19.4 138.92 24.23 140.88 15.29 133.88 9.38 142.99 8.48 146.45 0 150.12 8.39"/>
  <polygon points="190.87 8.39 200 9.05 193.16 15.14 195.35 24.03 187.45 19.4 179.67 24.23 181.62 15.29 174.63 9.38 183.74 8.48 187.19 0 190.87 8.39"/>
</svg>