<?xml version="1.0" encoding="UTF-8"?>
<svg id="Layer_1" data-name="Layer 1" xmlns="http://www.w3.org/2000/svg" viewBox="0 0 184.65 79.97">
  <defs>
    <style>
      .cls-1 {
        fill: #df5605;
        fill-rule: evenodd;
      }

      .cls-2 {
        fill: none;
      }
    </style>
  </defs>
  <path class="cls-2" d="m113.91,79.97c4.44-2.37,9.11-4.16,14.01-5.21,4.91-1.06,10.03-1.42,15.46-1.81,5.42-.41,11.27-1.03,16.91-3.02l2.08-.81,1.04-.41.97-.48c1.28-.64,2.56-1.27,3.87-1.96,2.68-1.44,5.27-3.45,7.37-5.74,4.26-4.62,6.86-10.38,8.1-16.22,1.24-5.86,1.23-11.9,0-17.75-1.25-5.82-3.74-11.6-8.11-16.27l-.83-.86c-.29-.28-.6-.54-.9-.81-.3-.26-.6-.54-.91-.79l-.98-.72c-.64-.5-1.34-.9-2.03-1.32-.35-.21-.69-.41-1.02-.58-.35-.18-.71-.36-1.06-.53-2.84-1.34-5.7-2.18-8.53-2.82-5.67-1.24-11.27-1.67-16.82-1.83-5.54-.15-11.05.04-16.47.34-1.33.07-2.73.16-3.9.19h-.35s-.04,0-.04,0c0-.22-.01.12-.06.97-.05.68-.09,1.19-.16,1.7.5-1.26-1.37,4.69,1.04-2.74.78-.55,0-.15.28-.28h.17c.02.11.23-.24.09.24-.12.43-.11.55-.03.5l.15.08c.03.22.66-1.57.25-.82h-.5s-3.64-.01-3.64-.01l-8.08-.02h-16.17c-10.78,0-21.57.09-32.34.23l-32.73.42c-6.08.77-11.77,3-16.78,6.39-2.49,1.72-4.81,3.75-6.82,6.12-1.99,2.39-3.66,5.13-4.8,8.12C.49,24.48-.05,27.72,0,30.91c.02,1.6.21,3.17.49,4.71.15.76.35,1.54.52,2.26-.02-.08-.04-.15-.05-.22,0-.07,0-.03,0,.04l.02.15.09.6c.07.4.12.81.21,1.2.68,3.14,1.84,5.97,3.23,8.61,1.39,2.64,3.01,5.08,4.82,7.38,1.84,2.3,3.77,4.47,6.23,6.47,2.63,2.16,5.46,3.41,8.24,4.46,2.8,1.02,5.6,1.77,8.38,2.31,2.79.59,5.56.97,8.33,1.31,11.06,1.22,21.99,1.21,32.85.93,21.73-.63,43.2-2.66,64.65-4.15,5.44-.38,10.93-.94,16.47-1.92,2.78-.5,5.58-1.13,8.41-2.07,2.81-.95,5.7-2.21,8.37-4.19,1.33-1,2.56-2.18,3.65-3.5,1.05-1.35,1.96-2.8,2.64-4.33,1.37-3.05,1.94-6.16,2.23-9.13.51-5.96-.08-11.52-.74-17.01l-8.18,1.05c.64,5.18,1.13,10.41.71,15.2-.23,2.37-.68,4.62-1.54,6.49-.41.95-.96,1.77-1.55,2.55-.63.75-1.34,1.45-2.17,2.07-3.36,2.48-8.28,3.85-13.29,4.75-5.06.89-10.31,1.44-15.6,1.81-21.51,1.5-42.94,3.51-64.28,4.13-10.65.28-21.32.27-31.67-.88-2.57-.31-5.14-.67-7.62-1.19-2.5-.49-4.91-1.15-7.17-1.97-2.24-.82-4.4-1.84-5.92-3.14-1.73-1.39-3.42-3.25-4.93-5.15-3.01-3.84-5.51-8.29-6.45-12.58-.06-.27-.08-.53-.13-.79l-.06-.39-.05-.31c-.03-.24-.08-.48-.15-.72-.13-.6-.28-1.12-.39-1.68-.19-1.1-.33-2.21-.34-3.31-.03-2.19.32-4.35,1.09-6.39.78-2.04,1.94-3.96,3.39-5.71,1.48-1.73,3.23-3.29,5.17-4.62,3.89-2.64,8.51-4.43,13.12-5.01,1.15-.12,2.3-.21,3.41-.16.28,0,.56,0,.83.04l1.18.1,2.19-.03,8.08-.1,16.15-.21c10.76-.14,21.5-.23,32.25-.24h16.13s8.07.04,8.07.04h.4s.27.1.27.1c.47.17.69.17.86.2l.37.04.47.02h.66c1.53-.05,2.81-.13,4.17-.2,5.33-.29,10.59-.47,15.81-.33,5.21.14,10.39.57,15.25,1.63,2.41.54,4.75,1.25,6.78,2.21,2.06,1.01,3.74,2.19,5.27,3.81,3.03,3.21,5.05,7.66,6.04,12.33.99,4.68,1,9.65,0,14.31-.99,4.66-3.03,9.04-6.1,12.35-1.55,1.67-3.26,3.01-5.31,4.12-1.06.56-2.21,1.12-3.33,1.68l-.84.42-.84.33-1.68.66c-4.54,1.6-9.51,2.18-14.8,2.58-5.31.39-10.96.75-16.59,1.97-5.64,1.21-11.12,3.3-16.17,6.01l3.91,7.26Z"/>
  <path class="cls-1" d="m175.22,32.99c-.04.44-.02.9.05,1.38-.02-.47.03-.9-.05-1.38Z"/>
  <path class="cls-1" d="m175.45,34.29c.04.47-.03.9.03,1.39.02-.46.08-.89-.03-1.39Z"/>
  <path class="cls-1" d="m175.19,37.86c-.05.48,0,.51,0,1.24.05-.24.04-.5.07-.74-.02-.31-.05-.16-.07-.5Z"/>
  <path class="cls-1" d="m170.98,49.9l-.32.4c-.12.27-.3.44-.43.7.3-.3.58-.65.76-1.1Z"/>
  <path class="cls-1" d="m175.49,36.91c-.05-.25-.1.76-.06,1.06.06.03.03-.36.1-.73-.02-.05-.05-.11-.04-.33Z"/>
  <path class="cls-1" d="m169.88,51.39c-.34.38-.38.34-.58.5-.11.21,0,.18.26-.04l.32-.46Z"/>
  <path class="cls-1" d="m174.1,45.77c0-.21-.32.79-.34,1.15.18-.33.19-.8.34-1.15Z"/>
  <path class="cls-1" d="m165.93,54.52c-.18.1-.52.32-.37.19-.25.09-.47.34-.72.48-.21.03-.64.2-1.15.42.03.15-.88.5-1.59.83.41-.15.8-.34,1.2-.43-.02-.1.24-.14.78-.46.04,0,.08.01.26-.05.34-.21.68-.36,1-.51.31-.22.59-.42.59-.47Z"/>
  <path class="cls-1" d="m173.48,47.58l-.27.5s0,.22-.12.45c-.04.25.35-.65.39-.95Z"/>
  <path class="cls-1" d="m173.12,49.61c-.2.4-.43.8-.63,1.24.13-.2.3-.48.45-.72.12-.26.21-.47.18-.51Z"/>
  <path class="cls-1" d="m154.47,57.97c-.42.02-1.18.18-1.19.25.4-.08.79-.14,1.19-.25Z"/>
  <path class="cls-1" d="m170.52,53.27c-.35.35-.76.59-1.09,1.04.37-.32.76-.64,1.09-1.04Z"/>
  <path class="cls-1" d="m156.44,58.72c-.64.11-.57.17-1.36.38.2-.04.4-.07.59-.09.24-.17.98-.23.77-.29Z"/>
  <path class="cls-1" d="m166.47,56.63c-.16.14.81-.37,1.08-.48.18-.17.02-.09-.24.06-.27.14-.64.32-.84.42Z"/>
  <path class="cls-1" d="m161.54,58.62c-.48.19-.98.28-1.48.49.59-.15,1.18-.32,1.76-.48.51-.21-.78.2-.28-.01Z"/>
  <path class="cls-1" d="m144.85,59.78c.22-.13-.9.07-1.21.09-.21.11.9-.07,1.21-.09Z"/>
  <path class="cls-1" d="m143.66,60.26c.34.03.73-.11,1.06-.05.29-.07.3-.12.04-.14-.45.13-1.09.11-1.1.19Z"/>
  <path class="cls-1" d="m135.09,59.92c-.56,0-1.12,0-1.71.1.57-.03,1.13-.03,1.71-.1Z"/>
  <path class="cls-1" d="m165.13,58.26c-.28.08-.58.24-.87.3-.53.26-.16.16.29.03.2-.1.39-.21.58-.33Z"/>
  <path class="cls-1" d="m161.19,59.31c-.39.04-.79.18-1.19.28-.19.11.86-.1,1.19-.28Z"/>
  <path class="cls-1" d="m162.04,59.41c-.1.02-.2.06-.3.1-1.19.29-2.41.73-3.62.95-.68.23-.26.19-.64.33.68-.11.55-.2,1.08-.32.57-.1.17.04.75-.1.04-.09.9-.32,1.38-.52.34-.04.7-.15,1.04-.23.67-.27-.36.05.31-.21Z"/>
  <path class="cls-1" d="m136.33,60.69c.32,0-.61.1-.8.1-.36.11.6-.05.76,0,.64-.08.27-.1.51-.15-.4,0-.81,0-1.22.01-.44.08.33.06.74.04Z"/>
  <path class="cls-1" d="m172.1,55.33c-.45.35-.87.7-1.31,1.14.47-.33.89-.7,1.31-1.14Z"/>
  <path class="cls-1" d="m172.27,55.33c.17-.25-.69.57-.9.83.33-.18.6-.57.9-.83Z"/>
  <path class="cls-1" d="m170.39,56.81c-.35.33-.19.25-.39.46.24-.16.46-.36.69-.52.17-.19-.02-.1-.31.07Z"/>
  <path class="cls-1" d="m134.45,60.84c.08-.11-1.22.05-1.68.03-.46.14,1.13.02,1.68-.03Z"/>
  <path class="cls-1" d="m175.33,53.05c-.14.24-.36.52-.59.88-.23.35-.48.77-.82,1.2.27-.32.52-.65.75-1,.23-.35.48-.69.66-1.08Z"/>
  <path class="cls-1" d="m128.58,61.14c-.02.06.74.08,1.22-.02.02-.05-.73-.1-1.22.02Z"/>
  <path class="cls-1" d="m161.31,60.72c-.5.09-2.25.64-1.4.5.48-.24.93-.32,1.4-.5Z"/>
  <path class="cls-1" d="m150.75,61.84c-.09-.08-1.51.11-2.17.29.31-.02.16.03-.02.07.7-.01,1.48-.32,2.19-.36Z"/>
  <path class="cls-1" d="m168.01,59.06c-.61.27-1.22.57-1.84.91.62-.31,1.24-.48,1.84-.91Z"/>
  <path class="cls-1" d="m125.65,61.3c-.23.01-.46.02-.3-.01-1.01.15-1.96.11-2.97.26,1.46-.11,2.11.04,3.27-.25Z"/>
  <path class="cls-1" d="m154.49,62.26c-.34-.01-.73.16-1.1.25.21-.03.41-.07.61-.08.03-.03.2-.09.49-.18Z"/>
  <path class="cls-1" d="m122.07,61.57c.39-.09-.47.01-.6-.03.26.09-.54.05-1.12.16.33.07.75-.13,1.08-.06.22-.04.44-.08.63-.08Z"/>
  <path class="cls-1" d="m120.22,61.66c-.99.04-1.16-.08-1.99.06.94,0-.3.14.56.13.06-.12.92-.09,1.43-.19Z"/>
  <path class="cls-1" d="m153.83,63.13c-.73.11-1.77.31-1.13.3.61-.15.85-.17,1.13-.3Z"/>
  <path class="cls-1" d="m114.94,62.04c-.59-.04-1.24.07-1.85.09-.3-.02.09-.09.51-.15-1.07.03-1.06.2-2.52.28.29.05.32.02.89.04.7-.11-.23,0-.43-.05,1.14-.09,2.24-.05,3.4-.2Z"/>
  <path class="cls-1" d="m129.91,63.33c-.66,0-1.46.13-1.74.21.68-.04,1.45-.09,1.74-.21Z"/>
  <path class="cls-1" d="m139.56,63.9c-.57.03-.17-.01-.6-.03-.28.06-.13.09-.2.13.25,0,.53-.06.8-.1Z"/>
  <path class="cls-1" d="m125.35,64.66c-.67.03-1.34.07-2.04.19.65-.08,1.85-.09,2.04-.19Z"/>
  <path class="cls-1" d="m134.4,66.03c-.35-.02-.72.02-1.07.02-.55.07.81.01.27.08.25,0,.53-.06.8-.1Z"/>
  <path class="cls-1" d="m142.19,66.4c-.62,0-1.27.11-1.94.23.62-.06,1.79-.15,1.94-.23Z"/>
  <path class="cls-1" d="m109.39,65.27c-.2,0-.4-.02-.59-.03-.05.03-.11.06-.32.06-.3.07.67.05.92-.03Z"/>
  <path class="cls-1" d="m130.54,66.66c-.65-.01-1.35.1-1.98.05-.29.06.07.07.11.11-.44.06-1.09.05-1.1.13.35,0,.74-.1,1.08-.06.32-.14,1.16-.1,1.9-.23Z"/>
  <path class="cls-1" d="m106.3,65.87c-.26.02-.5,0-.77.03-.51.08-.04.12.42.09.71-.08-.36-.04.35-.13Z"/>
  <path class="cls-1" d="m121.51,67.36c-.03-.08-2.06.04-2.18.15.73-.06,1.47-.17,2.18-.15Z"/>
  <path class="cls-1" d="m122.69,67.88c-.5-.02-1.02.04-1.57.15.52-.05,1.03-.06,1.57-.15Z"/>
  <path class="cls-1" d="m113.85,67.63c-.51.02-1.02.01-1.55.11.51-.01,1.02-.03,1.55-.11Z"/>
  <path class="cls-1" d="m108.3,67.88c-.35,0-.73.06-1.08.06-.17.04.24.04.43.06l.65-.11Z"/>
  <path class="cls-1" d="m105.95,68.09c-.39-.04-.83.05-1.23.05-.2.05.87.06,1.23-.05Z"/>
  <path class="cls-1" d="m84.12,66.98c-.17.02-.09.03-.01.03-.21.03-.41,0-.61,0-.38.04-.24.13-.81.12-.56.08.84-.01.28.06.49-.03,1.97-.16,1.15-.2Z"/>
  <path class="cls-1" d="m82.36,67.16c-.2-.03-.41,0-.62.02-.22-.01-.45-.03-.28-.06-.25,0-.53.05-.8.08l.74.06c.34-.08.63-.05.96-.11Z"/>
  <path class="cls-1" d="m78.91,66.97c-.41,0-.83.03-1.26.07.39.05.82,0,1.26-.07Z"/>
  <path class="cls-1" d="m97.47,68.4c-.67.02-.65.14-.36.16.79-.05.23-.1.36-.16Z"/>
  <path class="cls-1" d="m98.64,68.54c-.8.02-1.95.04-2.36.19.79-.08,1.53-.02,2.36-.19Z"/>
  <path class="cls-1" d="m96.37,68.48c-.53.05-1.03.04-1.57.12.51-.01,1.04-.06,1.54-.05.14-.03-.19-.03.03-.07Z"/>
  <path class="cls-1" d="m93.83,68.34c-1.38.11-1.69.07-.84.2.67-.09.61-.14.84-.2Z"/>
  <path class="cls-1" d="m74.23,67.14c-.5-.04-1.02-.03-1.56.04.51,0,1.01.04,1.56-.04Z"/>
  <path class="cls-1" d="m66.67,67.12c-1.5.1-2.75.02-3.65.16,1.14,0,2.29-.02,3.45-.07.15.02-.17.05-.34.07,1.04.06,1.12-.08.53-.15Z"/>
  <path class="cls-1" d="m84.41,68.99c-.81-.01-.33.15-.81.12-.08.12,1.06-.09.81-.12Z"/>
  <path class="cls-1" d="m83.61,69.07c-.46,0-.93.02-1.42.11.46,0,.94-.04,1.42-.11Z"/>
  <path class="cls-1" d="m59.45,67.21l-.59-.08c-.31.02-.17.05-.51.07.37,0,.71.05,1.1,0Z"/>
  <path class="cls-1" d="m73.31,68.98c-.25.05.13.08-.52.13.73,0,1.66-.15.52-.13Z"/>
  <path class="cls-1" d="m50.94,70.29c-.73-.15-1.38-.07-1.47,0,.48.03.98.01,1.47,0Z"/>
  <path class="cls-1" d="m34.95,68.53c-.65-.18-.65-.01-1.44-.24-.29-.12.64.08.85.07-.62-.14-1.18-.22-1.49-.2.42.09.57.14.59.19-.74-.07-1.35-.33-2.11-.39.37.08.76.14,1.08.28.95.12,1.77.31,2.23.43.05-.06-.65-.24.27-.14Z"/>
  <path class="cls-1" d="m28.88,67.25l-.59-.22c-.65-.1-.65-.15-1.03-.19.53.25,1.52.32.93.3.39.14.62.11.69.11Z"/>
  <path class="cls-1" d="m26.55,66.49s-.6-.09-1.05-.19l.44.19c.18.03.34.08.49.14.06-.05-.13-.09.54.08-.28-.12-.1-.09-.41-.22Z"/>
  <path class="cls-1" d="m24.08,65.57c-.58-.16-1.06-.38-1.63-.56.65.31,1.4.5,2.01.83.35.05-.21-.13-.38-.27Z"/>
  <path class="cls-1" d="m21.43,64.64c.49.19.68.23.26,0-.21-.09-.42-.19-.65-.27,0,.03.14.13.39.28Z"/>
  <path class="cls-1" d="m21,64.39c-.28-.16-.09-.11-.39-.28-.32-.13-.21,0-.51-.2-.19-.07.2.18.39.29l.52.19Z"/>
  <path class="cls-1" d="m19.95,64.02c.12.03-.99-.73-1.47-.93.48.32.94.65,1.47.93Z"/>
  <path class="cls-1" d="m12.27,57.56c-.34-.26-.56-.57-.86-.86.18.32.52.59.72.9.27.23.55.47.14-.04Z"/>
  <path class="cls-1" d="m8.99,53.55c-.21-.37-.48-.73-.77-1.08l.31.56.46.53Z"/>
  <path class="cls-1" d="m7.24,50.93c-.33-.58-.66-1.15-.99-1.72-.32-.46.44.9.12.44.19.36.2.28.31.43.19.28.3.58.55.85Z"/>
  <path class="cls-1" d="m5.92,49.09c-.15-.35-.42-.69-.57-1.04-.03.08.17.48.46,1.05.18.26-.13-.39.11,0Z"/>
  <path class="cls-1" d="m4.46,45.61c-.51-.94-.8-1.88-1.12-2.86-.16-.33-.1-.03.02.41.12.43.32.97.35,1.18.16.15.07-.09.53.97.23.66.13.57.51,1.38.17.13.01-.24-.29-1.07Z"/>
  <path class="cls-1" d="m4.14,45.45c-.26-.68-.58-1.38-.81-2.07-.03.05.45,1.48.81,2.07Z"/>
  <path class="cls-1" d="m2.79,42.04c-.05-.27-.17-.54-.2-.83-.17-.49,0,.41-.21-.21.06.35.19.69.33,1.02-.17-.69-.21-.7.07.01Z"/>
  <path class="cls-1" d="m1.77,37.49c-.02-.27-.1-.56-.14-.84-.01.13-.15-.31-.09.14.08.07.08.24.23.7Z"/>
  <path class="cls-1" d="m37.92,2.2c.75.05,1.55,0,2.36-.07-.66-.02-1.32-.07-1.99-.07-.25.05-.22.09-.37.14Z"/>
  <path class="cls-1" d="m53.15,1.77c.33.07.73-.01,1.08,0,.26-.05-.77-.08-1.08,0Z"/>
  <path class="cls-1" d="m69.01,1.72c-.02.07,1.31.06,1.87,0-.61-.02-1.25,0-1.87,0Z"/>
  <path class="cls-1" d="m76.63,1.7c.76-.05,2.13-.06,2.39-.13-.73,0-2.11.02-2.39.13Z"/>
  <path class="cls-1" d="m91.97,1.53c.56.04,1.14,0,1.71.02.06-.05-1.19-.1-1.71-.02Z"/>
  <path class="cls-1" d="m108.08,1.82c.07-.04.46-.08.52-.11-.31-.01-.63,0-.95.03.29.03.11.06.43.09Z"/>
  <path class="cls-1" d="m158.36,9.32c1.1.31,2.31.49,3.35.89-.44-.3-2.27-.7-3.35-.89Z"/>
  <path class="cls-1" d="m161.87,10.21c.41.2.86.35,1.34.46-.42-.18-.87-.34-1.34-.46Z"/>
  <path class="cls-1" d="m136.19,1.41c.14-.03.15-.06-.12-.08,1.06,0,1.33,0,2.55-.04-1.04-.05-2.09-.04-3.16.01.58.03.38.08.74.11Z"/>
  <path class="cls-1" d="m141.15,1.67c0-.05.75-.08.23-.15-.64-.01-.7.08-.23.15Z"/>
  <path class="cls-1" d="m139.87,1.33c-.18.03.24.06.44.09.43-.03.62-.06.68-.09-.36-.04-.77.06-1.12,0Z"/>
  <path class="cls-1" d="m176.56,13.07c.38.52.59.74.8.98-.19-.29-.4-.58-.64-.85.08.13-.09-.06-.17-.13Z"/>
  <path class="cls-1" d="m178.29,15.19c.2.4.62.91.64.89-.38-.65-.58-.91-.64-.89Z"/>
  <path class="cls-1" d="m179.68,17.91c.33.66.62,1.34.92,2.03.32.68.58,1.38.83,2.08-.03-.3.29.56.51,1.15-.64-1.95-1.21-3.22-2.26-5.25Z"/>
  <path class="cls-1" d="m181.69,22.67c.14.59.38,1.2.58,1.8-.14-.59-.31-1.2-.58-1.8Z"/>
  <path class="cls-1" d="m182.45,25.12c.15.66.26,1.31.45,1.98.04-.11-.21-1.33-.45-1.98Z"/>
  <path class="cls-1" d="m182.74,26.91c.16.82.16,1.15.22,1.64.15.47.21.81.24.38-.15-.16-.26-1.37-.46-2.02Z"/>
  <path class="cls-1" d="m183.93,28.19c-.12-.23.15.98.21,1.36.02-.27-.04-.56-.07-.84-.08-.33-.1-.17-.14-.52Z"/>
  <path class="cls-1" d="m183.89,35.91c-.01-.18-.02-.1-.03-.01-.01.11-.02.21-.04.32.05.5-.06,2.22-.09,3.27.04-.21.06-.24.07-.14.05-.81.09-1.6.06-2.42.12-.81.04.42.12.41.07-.37-.07-.84,0-1.21-.01-.27-.14.7-.08-.21Z"/>
  <path class="cls-1" d="m184.38,31.27c.08,1.07.17,2.12.26,3.3,0-1.09-.13-2.19-.26-3.3Z"/>
  <path class="cls-1" d="m183.66,40.33c-.05.55-.18.49-.29,1.28.11-.26.12-.09.02.76.13-.65.22-1.35.27-2.04Z"/>
  <path class="cls-1" d="m183.61,41.58c-.15.76-.22,1.59-.37,2.4.28-1.13.24-1.37.37-2.4Z"/>
  <path class="cls-1" d="m181.75,49.05c-.05.22.19-.39.12-.1.19-.54.35-1.12.5-1.69.13-.57.27-1.14.46-1.65-.08-.05-.24.56-.42,1.3-.17.75-.46,1.62-.66,2.13Z"/>
  <path class="cls-1" d="m182.97,45.34c-.35,1.12-.58,2.36-.95,3.55.47-1.09.69-2.35.95-3.55Z"/>
  <path class="cls-1" d="m182.42,48.19c-.04-.16-.39,1.2-.55,1.67.25-.51.33-1.14.55-1.67Z"/>
  <path class="cls-1" d="m182.12,48.76c-.31.92-.76,1.77-1.04,2.79.31-.98.81-1.79,1.04-2.79Z"/>
  <path class="cls-1" d="m180.04,53.29c.5-.86.04.32-.33.88-.29.35.17-.43.33-.88-.25.35-.41.85-.69,1.19-.04.2-.3.85-.67,1.55-.39.69-.83,1.46-1.14,1.93.12.08,1.32-2.07,1.32-2.22.13-.02.69-1.13.52-.65.61-1.23,1.03-2.32,1.63-4.1-.33.71-.67,1.48-.97,2.29Z"/>
  <path class="cls-1" d="m177.67,57.51c.09-.18-.19.19-.36.35-.29.38-.55.82-.86,1.18-.03.08.17-.12-.07.23.23-.27.45-.53.69-.8.27-.43,0-.21.6-.95Z"/>
  <path class="cls-1" d="m176.29,59.05c-.31.45-1.17,1.38-.53.8.45-.53.27-.44.53-.8Z"/>
  <path class="cls-1" d="m175.67,60.07c.19-.32-.56.58-.76.71-.09.18.06.04-.46.63.44-.37.81-.91,1.22-1.34Z"/>
  <path class="cls-1" d="m174.84,26.27c.01-.22.14.5.11-.12-.06-.27-.07-.52-.14-.79.13,1.25-.38-.6,0,.75.15,1.33.32,2.68.35,3.99.14.62.11.82.07,1.08.03.14.03-.19.07.02.08.6-.05.17-.03.74.09.16.12.48.29,1.31.01-.55-.12-1.15-.2-1.74.06-.43-.03-.92-.09-1.39.06-.96-.17-2.53-.17-3.05-.16-.71-.04.75,0,1.04-.15-.64-.09-1.22-.25-1.86Z"/>
  <path class="cls-1" d="m174.89,39.43c-.1.79-.11,1.61-.2,2.42.09-.53.08-.14.16-.55-.09-.34.03-1.16.03-1.87Z"/>
  <path class="cls-1" d="m174.5,43.19c-.07.43-.06.61.05.2-.02.21-.08.39-.13.58-.06.59,0,.44-.04.81-.19.89-.46,1.73-.69,2.63-.52.9-.82,2.02-1.42,2.9-.02-.14.73-1.5.69-1.7-.66,1.52-1.22,2.26-2.27,3.75-.34.25-.52.44-1.02,1.02-.32.2-.2-.03.24-.48-.19.12-.35.34-.53.47.23-.14-.42.56.06.17-.76.61-1.56,1.34-2.44,1.88,1.13-.8,1.72-1.44,1.96-1.62-.19.07-.6.41-1.06.81-.49.35-1.01.8-1.42,1.04-.09-.07-.94.49-1.44.71-.11.08.18-.03,0,.07-.14.08-.27.13-.4.21-.05,0,.17-.14-.14-.03-1.12.53-2.3,1.03-3.49,1.45-.09.01,0-.04-.14,0,1.27-.47,1.69-.67,2.82-1.19-.96.33-1.95.74-2.94,1.03-.34.17.44-.12.56-.12-.24.13-.47.2-.72.29-.67.14-.18-.09-.85.11-.28.11-.13.1-.44.22.14-.02.29-.09.43-.15.33-.06.24.11.57-.1.85-.15-.18.19-.74.34.73-.27-.83.18-.27-.06-.38.08-.8.3-1.19.38-.43.04.64-.27,1.05-.39.36-.15-.34,0,.02-.15-.53.1-1.08.31-1.61.39.04-.09.59-.2.9-.37-.52.03-1.08.31-1.61.34-.28.13.66-.12.86-.1-.44.11-.88.23-1.32.29.65-.07.29.05.11.17-.15.04-.3.06-.45.11-.66.11.38-.15-.28-.05-.66.29-4.18.79-3.88.6-.42.13-.93.17-.94.25-.79.07-.24-.07-.72-.05.76-.09,1.53-.29,2.28-.36-.44,0-2.19.27-3.17.42-.29,0,.24-.1-.27-.07-.66.15-1.34.29-2.29.3-.11.1-.75.16-.36.21-.43-.02-1.04.16-1.83.16.41.08-1.28.18-1.27.26-1.1.06.68-.17-.1-.14-.49.12-.95.16-1.4.18-.05-.04.13-.09.19-.14,1.59-.19,3.1-.27,4.31-.5-.34-.03-.72.12-1.06.07-2.07.4-3.94.28-5.99.59-1.9-.05-5.57.37-6.46.25-.62.03-1.23.06-1.85.09-.37.16-1.41.13-2.2.22-.05-.03.22-.07-.12-.08-.09.1-1.2.18-1.09.09-1.75.23-3.4.19-5.13.38.48.01-.4.11-.66.15-.27-.02.67-.13.51-.16-1.42.02-2.91.23-4.36.34.08-.13-1.66-.02-2,.09-.29-.04-.61.02-.9,0-.83.25-3.94.2-5.77.49-1.31-.1-3.92.39-4.94.26.46-.01.93-.07,1.4-.11-.32-.07-1.91.16-3.1.2-.49.02-2.22.02-2.32.13-.33.06-.6-.02-.9-.01-1.11.14-2.18.15-3.29.28-1.26,0-4.01.19-6.02.28-13.02.57-26.08.94-39,.27-6.44-.37-12.87-1.01-19.01-2.4-3.04-.72-6.01-1.64-8.65-2.94-.68-.3-1.25-.7-1.89-1.04-.59-.36-1.1-.75-1.66-1.22-1.1-.93-2.18-2-3.2-3.14-2.02-2.29-3.85-4.81-5.34-7.46-1.45-2.65-2.68-5.46-3.12-8.21l-.23-1.37-.29-1.2c-.2-.7-.25-1.42-.39-2.13-.13-1.42-.23-2.85-.06-4.25.27-2.81,1.21-5.53,2.71-7.98,3-4.92,8.08-8.7,13.67-10.89,2.8-1.1,5.76-1.8,8.69-2.01.73-.03,1.46-.07,2.18-.04.36,0,.72.03,1.08.06l.69.06c.17.02.36.01.52.01h.31s4.94-.08,4.94-.08c.44.04.04.08-.21.12-.98-.02-1.96-.02-2.95,0l-1.49.02-.83.02c-.11,0-.22,0-.32-.02l-.3-.02-.32-.02c-1.72-.12-3.48-.02-5.23.17-.26.11-.45.11-.99.23-.14,0,.23-.07.43-.12-.55.05-1.13.29-1.66.31-.42.15.07.08-.3.21-1.48.15-3.81.94-5.62,1.87-1.47.61-2.9,1.33-4.23,2.3-.16.08-.19.08-.13.02-2.11,1.4-4.73,3.67-5.65,5-.28.25-.07-.03-.39.35-.07.13.1-.07.21-.15-1.02,1.15-1.78,2.31-2.45,3.52-.63,1.23-1.16,2.5-1.66,3.96.02.16-.08.6-.22,1.08-.13.48-.21,1.03-.28,1.39-.09.61-.07,1.14-.1,1.58,0,.45.02.81-.03,1.08.07,1.09.19,2.16.28,3.21.13.6.02-.31.15.29.04.13.13.83.03.52.13.36.22.72.3,1.07l.09.41c.03.13.05.25.07.38l.04.25c.03.17.06.34.1.52.02.26-.03.13-.07-.01.11.46.19.91.32,1.37.12.45.2.91.4,1.37-.1.1,0,.07.18.78.05,0,.18.32.32.65-.02.02,0,.16.06.39.36.6.73,1.89,1.52,3.07.09.23.06.24-.02.14.4.74,1.11,1.96,1.81,3.01.68,1.06,1.37,1.93,1.52,2.09.55.68.95,1.42,1.65,2.04.43.66,1.36,1.73,1.68,1.95.92.95,1.87,1.87,2.82,2.6.47.35.9.67,1.47.96.54.3,1.04.63,1.63.88,2.26,1.1,4.81,1.94,7.59,2.64.28.05.14-.01.33.01.41.16.57.18,1.25.38,3.06.58,7.33,1.42,11.07,1.6.27.06.1.07.41.13,1.43.1,2.87.19,4.28.31-.04-.05-.34-.22,1.03-.17.38.09.02.11.85.19.21.07-.86.07-1.09-.02-.59.05.98.18.9.09,1.88.25,3.91.13,5.79.33.47-.11,1.77-.04,2.61.09.33-.01.19-.04.03-.07,1.72.08,3.48.06,5.21.12.16-.03,0-.06.19-.09,2.49.06,6-.11,7.84.01.15-.02-.06-.03-.13-.05,2.77-.03,5.58-.17,8.32-.17,2-.15,5.26-.22,7.74-.33.61-.07-.1-.07.51-.14.21-.02.42-.04.62-.03-.65.22,1.89-.01,2.73,0,.32-.11-.69.02-.9-.02-.25-.06.72-.09.95-.12.97.17,3.09-.09,4.58-.09.61-.07-.1-.07.51-.15.21-.03.4,0,.62-.04.15.02-.28.07-.49.12.45.02.91-.01,1.4-.1.03-.04-.5-.04.04-.1-.3-.02-.63.06-.92.02.54-.1,1.02-.04,1.57-.17.48.07,1.01-.01,1.52-.03.11.08-1.01.04-1.41.14.97.05-.44.07-.81.14,1.46.03,1.36-.1,2.76-.1.27-.05-.4-.04-.27-.09.16-.03.31-.01.46-.01.25-.06.11-.07-.29-.05.81-.15,1.57-.16,2.38-.31.47,0,.73-.01.58.06.67-.05,1.4-.23,2.05-.22.35.01-.51.1-.66.15.5.01.95-.1.8-.14.49-.09.91,0,1.39-.08.17.02-.38.09.27.08.75-.18,3.13-.38,3.11-.25.68-.06,1.33-.04,2.04-.19.8.08,2.1-.17,2.45-.07.88-.27,2.83-.09,4.21-.35,1.28-.05,2.59-.19,3.86-.22.42.02-.79.06-.03.07,2.13-.31,4.12-.23,6.23-.47-.25-.02-.51.02-.76,0-.12-.01.22-.06.03-.07.93-.05,1.83-.03,2.76-.09.18-.05-.25-.02-.45-.02-.26-.04.7-.03.96-.13.03.04.19.05.59.03.87-.25,2.45-.1,3.76-.32.54.01.52.06-.05.14.39.04.82-.05,1.22-.04.17-.04-.24-.04-.44-.06.44-.1.85-.11,1.27-.15.22.02.06.06-.35.12,1.11-.13,2.16-.15,3.23-.26.16.02-.37.1.27.08.65-.22,3.89-.42,4.93-.63.32.05,1.54-.12.57.07.65-.06.72-.11.79-.18.64-.1.76.06,1.64-.13-.29-.02-.61.08-.9.09.21-.04.25-.07.16-.07,1.51-.19,2.99-.31,4.51-.72-.06.11.07.07.56.07.47-.14-.13-.08-.41-.08.82-.29,1.56-.2,2.37-.5.89-.13-.39.21.11.17.55-.18.27-.18.48-.29.57-.18.56-.07.86-.17.15,0-.25.12-.45.2.5-.1,1.3-.35,1.02-.34,1-.13.98-.25,1.69-.32.94-.34,1.01-.35,1.95-.63.12-.09-.38.03.28-.24l-.68.14c-.5.17-.24.18-.82.28-.29.11-.16.09,0,.07-.85.28-3.63,1.03-3.11.71-.28.03-.59.2-.88.27-.49.03-.08-.11.47-.26-.3.05-1.79.37-1.18.32-.63.17-1.26.21-1.92.43-.26,0,.63-.2.47-.21-.5.02-2.04.44-1.61.21-.37.02-.54.14-.32.12-.55.09-1.1.17-1.63.2-.15.05.01.06-.17.11-.36.08-.7.08-1.06.16-.02-.03.06-.07.18-.11-1.32.26-2.64.4-3.95.52-.34,0,.47-.06.63-.14-.44,0-.92.14-1.35.1.62-.1,1.23-.18,1.81-.17.5-.19,2.08-.23,3.04-.45-1.98.23-3.78.48-5.44.61-.38.1.47-.03.59.01-1.01.2-.96-.05-1.97.14.3-.02.6-.04.9-.06-.44.13-.81.06-1.24.19-.38,0-.06-.05.18-.1-.25.02-.51.07-.75.05-.28.14-2.88.3-4.14.33-.25-.07.69,0,.94-.09-2.12.16-4.24.31-6.35.4-.15-.02.28-.08.5-.12-.64-.04-1.17.11-1.12.16-.93.08.03-.1-.88-.08-.88.1.59.04.11.11-1.29.08-2.63.28-3.88.25-.51.16-1.07.14-1.9.24-.55,0-.16-.06-.58-.06-1.01.14-1.99.19-2.97.26-.21-.05.83-.1,1.11-.13-.63-.02-1.81.11-2.66.24-.58,0,.15-.09-.43-.09.45-.09,1.1-.09,1.12-.16-1.96.13-3.27.27-5.02.49-.85,0,.58-.14-.1-.15-1.66.13-3.32.26-4.94.28-.86.17-1.4.12-1.86.13-.32.06.2.05-.35.13-1.17-.03-4.03.35-4.15.19-1.93.15-4.6.22-6.05.4-.95-.04-1.97.13-2.9.05-.71.14-1.34.09-2.06.24-.55,0-.16-.06-.58-.07-3.61.19-7.24.42-10.8.45-.11.05-.51.1.12.08-2.96.06-5.93.12-8.95.26-.74.06-1.41-.05-2.13-.02-.14.03.19.04-.03.07-.91-.02-2.06-.05-3.39.04l-.88-.09c-3.17.1-6.27.03-9.36-.1-.1.01-.02.03-.18.05-5.38-.21-10.8-.44-16.06-1.11-.43,0-1.53-.15-2.81-.34-1.28-.2-2.72-.48-3.83-.69-1.19-.26-2.18-.36-2.99-.68l-.61-.09c-.25-.13-.71-.24-1.23-.35-.5-.13-1.05-.3-1.49-.5-2.34-.59-5.41-2.07-7.32-3.41l-.33-.36c-1.33-1.01-2.59-2.33-3.76-3.7-1.18-1.38-2.27-2.85-3.32-4.36-.77-1.36-1.74-2.73-2.3-4.15-.52-.82-.72-1.67-1.14-2.5l-.53-1.76c-.11-.58-.32-1.17-.38-1.73l-.14-.85c-.03-.22-.07-.5-.14-.76l-.08-.33-.11-.45-.23-.9-.16-.9c-.4-2.65-.22-5.28.49-7.79.73-2.51,2.06-4.87,3.84-6.94l.32-.46c.15-.19.18-.15.11-.05.96-1.11,1.9-1.98,2.9-2.79.99-.83,2.07-1.57,3.37-2.39l.49-.2c.49-.29.15-.25.96-.59.13-.03-.2.12-.36.24.34-.15.87-.44.85-.49,2.51-1.24,5.19-2.16,7.9-2.67,1.35-.25,2.71-.43,4.04-.44.66-.02,1.33-.01,1.97.04l.48.04.5.04c.17.02.43,0,.53,0l1.18-.02c6.26-.12,12.5-.23,18.74-.35,12.47-.25,24.91-.49,37.53-.55.16-.02.33-.03.49-.05,3.41.05,6.91-.12,10.29-.01.61-.02,1.15-.13,1.26-.03.49-.05,1.91-.08,2.82-.01.22-.02.43-.04.65-.06,1.19.01,2.37.04,3.6-.02,1.44.01,2.87.02,4.32.03h2.03s.19-.01.19-.01c.05,0,.18-.02.07.01,0,0-.04.01-.02.03.22.08.44.16.56.18.18.04.25.05.34.06.17.02.28.03.38.04.37.02.58.02.81.02l1.2-.04,2.2-.11c1.44-.07,2.86-.13,4.27-.15l.64-.09c.93.04,2.59-.04,3.08-.13.28.02.11.05.43.08.43-.14.94-.07,1.38-.04,1.49-.13,3.27-.12,5.22-.09.26.03.26.06.12.09.46.02.55-.11,1.39-.02.15-.01-.05-.04-.13-.05.47-.02.9.06,1.39,0,.3.03.14.05-.03.07.54-.03,1.55-.04,2.47.02.39.11-.52.02-.95.05,1.85,0,3.68.1,5.51.22l.7.16c-.17.06.43,0-.26-.1.85,0,1.6.12,2.74.22.18.1,1.23.23.53.18.49.1.53-.02,1.46.25.7.06-.34-.12-.54-.16,1.08.09,2.04.36,3.1.5.13.05-.17,0-.33,0,.27.08.6.1.83.23-.22-.15.52.08,1.06.15,2.38.75,5.14,1.41,6.79,2.66.23.05.66.26,1.11.53.43.3.89.62,1.23.87-.11.06-.95-.67-1.37-.89.16.14.34.27.49.42-.16-.1-.32-.21-.49-.31l-.53-.26c-.36-.18-.71-.36-1.05-.53.17-.14-1.81-.92-2.24-1.03.73.35,1.65.76,2.56,1.27.43.24.86.48,1.27.71.38.25.74.48,1.05.66.08.1-.23-.1-.39-.18.35.21.83.62,1.24.97.43.32.76.62.83.6.38.36.18.28.38.53,1.14,1.07,1.74,1.87,2.8,3.31,1.12,1.82,2.04,3.8,2.9,5.9.36,1.21.94,3.14,1.22,4.08.23,1.39.58,3.3.74,5.35.14,2.05.08,4.22-.26,6.03.34-.85-.21,2.19,0,2.06-.19.75-.13,1.66-.46,2.33-.61,3.1-1.81,6.03-3.54,8.45-.18.36-.38.75-.23.63-.27.41-.53.81-.87,1.12-.23.41-.52.72-.79,1.06-.05.24-.34.52-.5.81.21-.17.4-.44.58-.64-.59.77-1.44,1.73-2.44,2.58-1,.86-2.13,1.62-3.16,2.13-.17.29-.93.71-1.81,1.13-.79.55-1.76,1.13-2.77,1.72-.51.32-1.05.55-1.61.8l-1.68.74c-.28.08-.57.12-.85.17.26.04-1.27.46-1.9.72-.06,0-.13,0,.01-.07-1.04.34-2.09.52-3.07.79-.98.24-1.94.39-2.81.62-1.15.2-2.51.34-3.81.53-1.31.15-2.57.32-3.52.49-1.59.09-4.57.52-5.86.71-1.09.18-2.11.34-3.08.5-.96.2-1.84.39-2.65.59.59-.08.6-.02.9-.02-.43.11-.83.13-1.25.24.76-.07,1.09-.18,1.53-.17.76-.23,2.06-.23,2.34-.37.37-.07.7,0,1.05-.02.99-.13,1.98-.23,2.96-.3-.91.16-1.33.18-2.56.45,3.67-.42,8.74-.66,13-1.42.42-.06.82-.1,1.22-.13.04-.03-.03-.05-.13-.07.46-.07.93-.17,1.4-.26.68.09,2.43-.56,3.25-.86.44-.04-.21.16-.64.31.42-.11,1.07-.21,1.05-.14-.75.24-.9.2-1.39.42.35-.02.74-.27,1.07-.25.57-.16.2-.11.63-.24.21-.04.4-.13.6-.16,0,.06-.65.3-.64.35-.15.04-.3.07-.46.12.35-.18-.95.18-1.53.33-.29.03-.13-.03-.44,0-1.35.32-1.62.5-2.85.73-.12-.05,1.06-.29,1.45-.41-.56.08-1.73.3-1.42.34-1.48.15-3.03.46-4.57.68.91,0,1.9-.27,2.84-.42-.57.23-2.46.49-3.47.46-1.23.2-2.45.36-3.62.38-3.76.5-7.4.72-11.05,1.5.79-.04,1.62-.2,2.4-.19.87-.17,1.74-.25,2.58-.24.3-.05.13-.06.33-.1.63.06,1.33-.14,1.98-.13.3.02-.08.09-.5.16.8,0,1.65-.14,2.47-.18.62,0-.33.1.11.11,1.2-.04,1.88-.21,3.31-.35.38.07-1.23.25-1.79.34.26-.02.51-.01.76,0,.15-.03-.06-.03-.14-.04.63-.09.98-.04,1.27-.15.29,0,.11.05.44.05,1.07-.15,2.1-.21,3.15-.28.39-.09.41-.13.05-.14.33-.08.65-.13.97-.17.32.03.43.09.56.15-1.28.18-3.18.46-3.57.63-1.95.21-3.89.36-5.77.46.46.1-.95.17-1.72.21-.21-.06.81-.06,1.1-.13-.8-.02-1.66.21-2.48.32-.57.01.37-.12-.43-.04-.1.07-.67.16-1.36.24-.68.1-1.46.21-2.01.26-.91.21-1.94.34-3.16.64-.11.14,1.07-.18,1.47-.24-.51.13-1.39.35-2.37.56-.98.21-2.03.52-2.94.68-.61.19-1.94.62-3.15,1.04-1.22.38-2.29.88-2.42,1.09-1.02.37-1.38.68-2.21.96-.03-.05.54-.26.41-.29-2.17,1.07-4.2,2.36-4.28,2.62.52-.2,1.42-.58,1.21-.38,1.17-.48,2.94-1.42,3.34-1.29.52-.31,1.53-.68,1.64-.84-.18.05-.36.16-.55.26-.28.04.05-.07.41-.26.36-.08.73-.2,1.09-.36.4-.12.26-.02-.14.18.35-.14.68-.27.69-.31.44-.08,1.15-.3,1.92-.57.76-.28,1.59-.59,2.29-.77.8-.12,1.6-.34,2.42-.59.81-.22,1.69-.45,2.52-.67l.29-.02c-.68.32-2.31.61-3.12.92.27-.03.58-.12.85-.11,2.47-.68,4.02-.84,6.53-1.26.09,0-.01.04.14.04-.92.09-2.26.4-2.73.54.38,0,.79-.12,1.17-.12-.17-.05.23-.12.75-.15-.12-.03-.11-.08.04-.14.87-.05,2.84-.31,2.46-.41.38-.09.14.09.73-.02.09.02-.6.09-.34.13.61-.05,1.18-.21.97-.25.42-.06.33.06.72.07.82-.11.31-.13.82-.21.41-.07.52.01.28.05.64-.02.5-.11.65-.15.19,0,.82,0,.9.04-.39.09-.75.09-1.12.16.91,0,1.35-.16,1.29-.23,1.1-.1,2.1-.17,2.88-.37.81-.02-.11.1.27.12-.65.07-1.27.14-1.91.21.58.03.56.1-.08.21.39,0,.77-.06.8-.1.06.08.75-.05.91.03.89-.17,1.69-.21,2.9-.34.22.03-.87.18-1.12.12-.17.02-.09.03-.01.04l-.33.06c.61.02,1.27-.11,1.93-.21.3.04-.06.14.25.18.35-.11.37-.08,1.01-.21.59-.02.4.04.77.04.41-.07.34-.1.51-.15.45-.03.04.06.62,0,1-.21,1.97-.3,2.95-.52.43-.02-.39.14-.85.29.48-.03,1-.27,1.48-.28,0-.03.37-.14.19-.13.6-.11,1.2-.24,1.81-.38.6-.17,1.2-.37,1.8-.56.6-.2,1.2-.37,1.79-.58.59-.23,1.17-.45,1.75-.67.16-.09-.15,0-.31.05.37-.19.75-.38,1.12-.52.16,0,.44-.06.77-.2.32-.15.7-.36,1.1-.58.8-.45,1.67-.96,2.3-1.25-.33.44-1.93,1.16-3.1,1.85.65-.26,1.38-.76,1.63-.74l.89-.55c.37-.15.29-.08.45-.13-.4.19-.79.47-1.19.62.23-.03-.36.23-.44.35.7-.2,1.37-.87,2.08-1.07.66-.46,1.35-.87,1.95-1.35.62-.33.31-.09,0,.15.52-.22,1.02-.61,1.53-.92-.13,0,.04-.09.57-.56-.28.2-.58.46-.9.57.51-.35.98-.73,1.46-1.04.41-.39.85-.74,1.23-1.17.25-.09-.22.31.69-.5.65-.53-.26.36.31-.09.05-.17.28-.39.57-.71.28-.33.63-.73.98-1.2.75-.75,1.38-1.6,2.05-2.39.34-.81.95-1.65,1.46-2.77.43-.65-.23.58-.09.43.84-1.38,1.32-2.98,1.54-3.7-.74,1.42-.75,2.03-1.27,2.97-.17.24-.2.23-.14.07-.25.37-.52,1.04-.29.7-.41.59-.99,1.52-1.61,2.5-.67.96-1.41,1.96-2.18,2.6.8-1.02,2.41-3.16,3.37-4.61.21-.56.61-1.36,1.09-2.27.43-.93.97-1.96,1.35-2.99-.15.63-.22,1.01-.17,1.2.13-.48.33-.88.46-1.35.38-.65.53-1.17.67-1.68.13-.51.3-1,.56-1.67.33-1.58.27-1.06.54-2.55-.12.44-.03-.12-.11.11.07-.46.18-.89.22-1.37.22-.72.06.22-.05.73.05-.06.16-.58.23-1.08.05-.5.08-.99.04-.98.11-.66.15-1.37.3-1.98.05-.47.06-.97.07-1.46-.01-.49-.02-.98.02-1.45.12-.59.17.45.24.99.04-1.23-.06-1.79-.07-3.44.05-.58.09-.26.04-.98-.09-.57.02,1.04-.06.47,0,.5,0,1,.03,1.52-.09.22-.06.08-.08.98-.03.16-.04-.19-.05-.37-.03-.46.08-.85.06-1.31-.03,0-.06-.39-.09-.21-.02-.57-.02-1.12-.06-1.67.03-.24.06-.07.09.36.04.33-.02.14-.02.48.06.1.12.36.15-.1-.37-2.36-.66-4.57-1.24-6.8-.03-.24-.06-.48,0-.31-.09-.18-.58-1.88-.94-2.96.05-.15.6,1.6.62,1.49.03.46.17.87.06.17-.57-1.83-1.15-3.46-1.72-4.83-.05-.26.15.14.35.61.19.48.41,1.02.46.99-.22-.62-.26-.83-.45-1.12-.19-.52-.46-1.14-.76-1.81-.31-.66-.71-1.36-1.09-2.05-.43-.68-.86-1.36-1.28-1.98-.45-.61-.87-1.17-1.22-1.64-.25-.44.87,1.08.35.26-.25-.23-.85-.88-1.35-1.47.31.41.61.82.96,1.22.05.09-.04,0,.05.15-.72-.79-1.21-1.66-2.09-2.36-.2-.25-.04-.13-.27-.41-.63-.58-1.23-1.1-1.87-1.64-.2-.22-.2-.23-.05-.15-.3-.26-.71-.47-.97-.75-.32-.21-.2-.09-.07.04-2.68-1.89-4.67-2.77-7.58-3.72-.22-.11-.04-.09.4.03-.47-.17-.98-.3-1.45-.46-.79-.19.28.18-.42.02-.69-.28-1.46-.45-2.25-.57-.43-.14-.01-.08-.57-.24-.3-.03.07.1-.24.07-.84-.28-.74-.16-1.93-.37-.43-.12-.01-.07-.57-.21-.14,0-.16.03.11.11-1.03-.15-3.16-.57-3.09-.67-1.53-.14,1.17.26.2.23-.55-.08-.36-.1-1.07-.23-.77-.03-1.63-.19-1.99-.1-.7-.07-1.5-.13-1.71-.25l-.84.02c.55.13.23-.05.78.08-.47.08-2.79-.18-4.2-.15.25-.06.12-.12.87-.11-1.07-.15-1.33.06-2.45.04-.69-.13-1.47-.06-2.23-.03-.85-.11-1.77-.08-2.68-.05-.21-.07.84-.02,1.14-.08-.3-.05.47-.1.23-.15-.89.09-2.15.11-2.95.23-.25-.03-.64,0-1.25-.02-.32-.1,1.89-.04.69-.14.5-.07.94.01,1.45-.06-.45-.08-1.81.07-1.72-.04-.53.07-1.09.05-1.94.13.07-.14-.91.02-1.7-.04-.99.13-1.92.14-2.88.24-.03.07.75.09,1.23.02-.11.12-1.48.11-2.06.13-.14-.05.29-.12.52-.14-.1-.05-.55-.03-.57-.11-.08.16-.93.08-1.78.23.33.07.74-.05,1.07,0-.52.03-1.07.12-1.56.07-.15-.03.27-.03.49-.07-.22-.02-.66.02-.45-.03-.57-.02-.23.12-.79.06.15.05.45.09-.07.17-.75.04-.03-.06-.58-.07-.43.06-.28.09-.2.13-.26.02-.51,0-.78.05-.79-.04.5-.17-.07-.22-.18.05-.45.11-.36.15-.53.1-.99-.03-1.46.07-.23-.02-.25-.05-.26-.07h0s0-.01,0-.01v.13c-.02.2-.04.41-.07.66-.04.28-.05.49-.11.8-.04.17-.04.26-.08.42l-.03.11h0s.58-2.1.58-2.1h0s0,0,0,0h0s.03-.03.03-.03l.07-.05c.07-.06.23-.17.25-.2-.11,0-.1-.02-.04-.02h.16s.08-.06.06.03l-.05.31v.08s0,0,0,0h.03s.07.03.07.03l.07.02h.03s.02.01.02.01c-.05.11.48-.99.25-.52h0s0,0,0,0h0s0,0,0,0h-.01s-.21,0-.21,0h-.41s-1.62-.04-1.62-.04c-.93.11-1.87.07-2.73.06-.42-.04.83-.06.05-.1-.72.1-1.49.04-2.52.05-.66.03.27.08-.21.12-.91.01-.14-.1-.88-.14-.41,0-.58.02-.65.06-1.47-.2-3.16.08-4.67-.04-.56.11-.9.09-1.94.16-.28,0-.46-.07-1.07-.06-.15-.09.94-.04,1.29-.09-.95-.06-1.68,0-2.37.07-.77-.03-.4-.07-.87-.14-.63.02-.98-.03-1.28.06-.2-.02-.39-.05-.59-.07.25.09-1.42.12-2.03,0-.52.12-.95.07-1.74.04-.65.06.06.02.28.07-.38.04-.73,0-1.1.01-.58-.08-.17-.08.06-.14-.67,0-1.34-.03-1.97-.13.16-.02.32-.03.47-.01-.08-.06-1.54-.03-2.17-.04,1.62.05,1.31.16,2.88.2-1.5.14-1.65-.1-2.78-.08.02.07,1.17.15.99.22-.4-.07-1.47-.05-1.81-.14-.45.07-.48.15-.88.22.21-.12-.58-.11-1.17-.17-.29-.05.69-.09.06-.14-.29.05-.43.05-.37.13-.41,0-.98-.06-.64.03-.46,0-.91-.05-1.36-.09,0-.05,1.42,0,1.14-.12-.85.06-4.63.21-3.9.01-.46,0-.97.08-1.41.02-.7.16-2.33.04-3.52.21-.25-.11-1.23-.03-.87-.13-.52-.02-.42.09-1.14.12-1.19,0-2.37-.05-3.61.06-.11-.09-1.14-.06-1.25,0-.43-.09-.92-.03-1.37-.08.13.05.37.05.57.13-.61.01-1.29-.05-1.52-.1-.82-.01-.45.1-1.55,0-.07.03.17.06-.19.09.69-.03,1.35,0,2,.04-1.14,0-2.28.01-3.42.02-.09-.02.01-.03-.14-.05.54-.04,1.5.03,1.59-.08-.8-.05-1.55.09-2.64,0-.22.03-.44.05-.64.04-.14.03-.15.06.12.08-.7.06-1.35,0-2.05.06-.55-.03-.16-.07-.58-.1-.61.05.31.08-.51.09-.58-.04.38-.09-.43-.08-.44.03.05.06-.19.09-2.37-.18-5.34.05-7.28-.03-.25-.03.46-.07.35-.1-.87-.03-1.82.14-2.64,0-.13.03-.14.06.12.08-.34.06-.63.02-.96.08-.39-.03-.05-.06.19-.09-.45-.04-.94.02-1.4,0-.17.02.13.04.28.07-.34.06-.62,0-.95.04-.04-.03.22-.06-.12-.08-.22.02-.43.05-.65.07-.42-.03-.02-.07-.58-.1-1.52.04-3.03.08-4.53.09l.44.05c-.41,0-.86.08-1.26.04-.39-.03-.05-.06.19-.09-.9-.03-2.56.07-2.99.11-.23-.07-.59-.08-1.23-.03.78.06.07.07-.36.1,1.43-.05,2.02.05,3.57,0,.17-.03-.15-.01-.29-.03.35-.08.6.04.95-.04.47.08.48.06,1.19.13-1.8-.06-4.31.11-5.59,0-.1.02-.01.03-.18.05-.61.04.16-.07-.43-.08-.5.07-.97.09-1.44.09l-.69-.02c-.21,0-.53-.01-.55-.02-.01.01-.03.02-.05.03.08.01-.03.01-.08.01-.13,0-.27,0-.42-.01-.31-.01-.67-.07-1.02-.08.27-.07.91-.06.46-.18.27.02.61.04.9.06.07,0,.14,0,.2.01.06,0-.01,0-.01,0h.02s.05-.02.05-.04c-.02,0-.05,0-.06,0-.05,0,.08,0,.02,0-.03,0-.06,0-.08,0-.1-.01-.17-.02-.24-.03-.13-.02-.21-.05-.37-.1-.32.05-.77,0-.94.05-.59.02-1.14-.09-1.74,0-.65-.12-2.2.03-3.4.25-.01-.1-.62-.03-1.51.21-.12,0-.11-.04.19-.12-1.1.14-2.24.51-3.32.76-.29.12.41-.05-.02.11-.33.15-.63.09-.97.28-.28.05-.29.03-.15-.05-.52.14.03.07-.81.31-.4.1-.55.12-.3,0-.81.31-2.24.79-2.53,1.02-.44.15-.05-.06-.61.16,0,.11-.8.38-.77.36-1.07.53-1.39.83-2.55,1.37-.18.2-1.39.86-2.01,1.3-.06,0,.17-.18-.16,0-.41.39-1.11.77-1.78,1.39-.19.22.73-.42.97-.63.25-.16-.61.53-.81.66-.23.26.62-.42.83-.55.15-.07-.22.22-.39.38-.22.16-.81.47-1.33,1.02-.36.23-.69.45-.43.19-.49.34-.93.85-1.42,1.18-.1.15.06.08-.45.58.2-.39,1.11-1.35,2.08-2.22-.45.33-.88.67-1.32,1.03-.17.2-.2.31-.62.63-.11.15.04.04-.09.21-.52.58-.33.27-.88.75.13,0-1.86,2.3-2.15,2.5.05.07-.46.57-.68,1.06.35-.42.67-.95,1.06-1.34.02.06-.92,1.17-1.24,1.66-.01.08-.1.26-.34.67-.19.39-.25.3-.04-.06-.34.49-.28.62-.03.26.2-.37.46-.65.65-1.05.12-.11.14-.09.25-.19-.44.7-.95,1.27-1.32,2.02-.14.11.49-1.19-.12-.19.17-.11-.1.25-.39.83-.11.02.24-.56-.38.53.02.11,0,.19-.31.89-.24.16-.48,1.24-.87,1.88.76-1.99,1.44-3.56,2.8-5.46-.56.62.87-1.36.6-1.18-.2.19-.35.46-.53.66-.06.18-.31.56-.57.91-.25.37-.5.72-.6.82.33-.36-.36.78.02.32-.25.39-.43.86-.67,1.24-.2.28.65-1.26.02-.24.11-.39.35-.59.49-.96-.19.26-.11.08-.32.38-.39,1.01-.58,1.2-.76,1.38.08.11-.9,2.12-1.17,3.22-.06.4.06-.03.24-.44-.15.6-.38,1.35-.53,2.05-.19.69-.29,1.32-.29,1.65-.15.69-.06-.14-.14.1.12-.95.37-1.88.62-2.78.06-.34.03-.37-.11-.1-.04.25-.11.48-.18.69,0,.1,0,.19.06.05-.4.9-.71,3.62-.61,4.28-.14-.51-.19,1.25-.28,1.67.03.32.03.61.02.9.09.36.02-.8.07-1.04.08-.28.09.77.25,1.7-.04.78-.16-.77-.2-.78-.06.87.04.7.14,1.61.02-.29.07-.08.11-.13.07.42,0,.8.13,1.23-.03-.72-.21-1.55-.14-2.25-.06-.91-.18-1.83-.07-2.71.07-.3-.05.82-.02,1.08.05.35.08-.9.02-.71.16-.06.11,1.2.18,2.82.05.81.1,1.7.25,2.55.11.86.31,1.67.49,2.32-.03-.25-.07-.49,0-.32-.03-.38-.25-.8-.24-1.17,0-.08.4,1.25.42,1.69,0-.09.03-.06.07.04.02.06.05.12.07.19.03.08.06.2.05.13,0-.01,0-.02,0-.03h0s.02.07.02.07c.02.11.04.23.06.34.03.22.06.43.06.59,0,.1-.05-.16-.12-.5-.03-.17-.06-.35-.09-.51,0,0,.03.11.02.02-.05.22-.19-.36-.32-.55.07.36.08.49.1.63,0,.04-.02-.03-.04-.04-.03-.1,0,.08.02.3-.01-.08-.03-.16-.04-.23l-.02-.09v.03s.02.07.02.07l-.04-.17c-.06-.26-.12-.51-.18-.76-.12-.51-.28-1.06-.45-1.83.04.72-.1-.07.03,1,.06-.02-.03-.65.26.38l.19.85c.06.25.16.72.1.46l.12.8c.05.3.1.59.15.89-.04-.44-.03-.6.05-.32-.06-.46-.13-.91-.19-1.36.01,0,.02-.02.03-.04.01,0,.04.16.07.25.05.23.1.48.14.67.03.35-.02.18-.07-.02.13,1,.1.3.33,1.41-.04.06-.19-.37-.21-.21.4,1.23.92,3.49,1.58,4.65.05.23-.15-.17.06.46.26.59.49,1.14.85,1.7-.15-.4-.19-.56-.17-.61.37.71.67,1.43,1.11,2.1.12.34-.48-.45-.72-1.18.11.35-.21-.22-.1.15.43.6.73,1.29,1.51,2.5-.13-.34-.42-.67-.55-1.02.1.02.48.86.83,1.29.13.28.01.13.16.44.36.29,1.03,1.64,1.61,2.35.13.43-.79-1.03-.91-1.08.07.14.19.28.29.41.37.63-.3-.33.07.29.37.49.85,1.22.75.94.41.43.6.91.97,1.34.04.12-.22-.09-.47-.52-.06.16,1.4,1.66,1.34,1.86l.75.74c-.24-.33-.15-.26-.23-.41.45.47.4.51.57.78.81.72,1.34,1.52,2.59,2.83.81.64,2.34,2.23,3.88,3.1.09-.02-.63-.45-1.01-.76.15.04.59.36,1.09.67.49.29,1.04.61,1.4.81.19.21-.95-.55-.84-.39.44.3.8.53.82.59.39.21,1.15.45,1.72.64.72.31.48.32.98.59.37.19,1.63.54,1.4.57,1.32.43,2.47.8,3.67,1.19.7.27-.65-.1.05.18.95.23-.2-.16.59.01.74.14.72.27,1.17.44.45.08.83.23,1.27.33-.15,0-.03.1.54.26.04-.02.24-.02.51.06.4.04-.49-.11-.59-.19.46.04.85.17,1.27.27.36.03-.57-.18-.76-.21-.03-.05.16-.05.24-.07.61.12.59.18.97.17.65.21-.2.02-.23.07.63.18.61.09.85.09.76.14,1.48.27,2.22.4.02.06-.52.01-.57.06.69.14,1.29.39,2.16.47.58.18.69.26,2.13.47-.4-.09-.95-.17-.9-.23.51.02.97.11,1.44.18.33.01-.19-.09.37-.05-.62-.08-1.74-.32-1.91-.26-.07-.05-.22-.11.23-.09.55.07.33.14,1.12.14.69.13-.43,0,.26.14-.07-.11.79,0,1.46.12.42-.02-.17-.1-.6-.13.28,0,.54.04.82.04.16.06,1.08.2.73.2.28.04,1.4.06,1.1.14.51.09.87-.07,1.64.04.15.04-.3.03-.52.04.79.08,2.19.29,2.53.21.24.01,1.34.1.6.11,1.39.07,3.25.09,3.8-.09.37.01.73.04,1.11.03.6.08-.6.09.23.18-.77.03-.76-.01-1.26-.05-.76.02-.94.06-.4.15.16-.01-.06-.04-.14-.06.49,0,.99-.03,1.43.05.35.06-.49-.02-.67.04.39.09.87,0,1.25.09.35-.15,2.05.05,3.14.15.54-.05,1.01-.15-.07-.19.22.09-.42.05-.96,0-.15-.03.28-.02.48,0-.23-.07-1.88-.09-2.66-.16,2.59.02,6.42.17,9.5.13.15.02-.17.04-.34.06.41.03.82.05,1.27-.02.21.11.63.01,1.23.07.45.04-1.06.08-.21.12.61-.11.91-.05,2.05-.02.5-.08,1.12-.15,1.9-.05.56-.09,1.06-.04,1.61-.12,1.58.22,4.63-.03,7.45,0-.05-.07.69-.16.96-.06.65-.06.49-.1.52-.14.21-.01.42-.03.62-.02-.09.05.08.1-.53.17.88.04.28-.15,1.27-.08.29-.13.55-.1,1.44-.14.3.03-.09.08-.52.14,1.52-.15,3.79-.16,4.93-.43.75-.07.74-.02,1.24-.02.41.03-.43.12.1.15.58-.07.48-.11.36-.15.76-.02.58-.06,1.28-.13.43.07-.61.24-1.33.27.31.01.15.04-.01.03,1.03.05,2.5.07,4.21-.2.55.02-.75.13-.05.14.58-.12,2.09-.1,3.12-.17.31-.05.16-.07.5-.11.04.03-.22.07.12.08.57-.04.2-.03.65-.11.12.02-.22.06-.03.07.65.03,1.35-.07,1.27-.14.15.01.3,0,.46-.01.15.01-.17.06-.34.09,1.45-.09,3.69-.1,4.67-.29,1.38,0,1.05-.1,1.86-.09.84-.19,1.33-.2,2.41-.34-.35-.02-.72.02-1.07.02.49-.09.92-.03,1.41-.11.15.01-.17.06-.33.09.97-.04,1.95-.08,2.92-.11.15.01-.17.06-.34.09.46-.02.92-.03,1.41-.11.55-.22,3.59-.18,5.15-.41-1.8.1-3.61.19-5.41.29.64-.09,1.25-.09,1.87-.13.26-.1-.8.04-1.07.02.32-.06.64-.11.97-.17.29,0,.12.05.43.06,1.32-.14,1.3-.29,2.85-.33.12.05-1.05.15-1.44.22.04.04.4.05.11.11.32-.05,1.16-.32,2.39-.32.22.02.06.06-.35.13.63.02,1.26-.24,2.21-.26.63,0-.47.12.26.12.17-.02.09-.03.01-.03-.02-.05.83-.07.66-.15.27,0,1.31-.06,1.1-.13.36-.01.74-.08,1.08-.06.02.06-1.09.2-.84.25.39-.05.93-.12,1.43-.19.42,0,.03.07.58.06.94-.09,1.86-.13,2.79-.2.31.02-.6.06-.81.14,1.18-.03,1.51-.29,2.65-.24.32-.04.66-.15.96-.14.38-.07-.48.03-.59-.03l.48-.08c.91,0,1.86-.13,2.76-.12.01.09-1.27.19-1.71.14-.43.07-.85.13-1.27.16.51-.04,1.68,0,2.48-.17.61,0-.21.12.41.13.63-.17,2.47-.28,3.92-.38.34.04-.49.05-.64.11.66-.05.34.03.89.04.84-.11,1.65-.12,2.51-.23,1.12.03,1.14-.1,2.86-.32-.68.05-1.37.14-2.04.15-.33.04-.19.06-.03.07-.43.05-.84.08-1.25.08-.36,0,.5-.08.64-.07-.2-.04-1.69-.1-2.45.06-.47-.07-2.2.05-3.23.17-.35-.02-.15-.08-.77.04-1.56,0-3.15.08-4.78.25-.02-.12-1.69.09-1.19-.05-.26.05-.78.09-1.42.15.25.01.51-.02.76,0-.32.03-.62.07-.94.1-.11-.02-.1-.05.18-.1-.39-.03-.82.04-1.21.02-.3.04-.14.06-.34.09-.35-.02-.69-.04-1.08.06-.25,0-.49-.04-.76,0-.42,0,.82-.13.04-.11-.65.18-3.32.31-3.88.26-.55,0-.2.07-.65.11-.16.02-.31.02-.47.05-.57,0-.16-.07-.73-.07-1.05.18-3.03.23-4.5.3-.39.09-.74.09-1.12.16.76.02.63-.1,1.41-.11-.39.08-.28.06.11.11-1.03.18-1.91.18-2.16.11.44-.09.8.02,1.25-.08-.69.05-.99-.03-.41-.13-.98.05-1.96.1-2.93.15.31-.12.16-.07-.59-.06.53-.06,1.04-.07,1.53-.03.29-.05-.38-.04.04-.1-.58.06-1.13.05-1.71.1-.4.07.18.08.57.1-.89.08-1.75.09-2.66.22-.13.05.17.08-.05.14-.94.09.01-.09-.73-.07-.15-.02.26-.03.48-.08-.87-.06-2.96.15-3.99.08-1.29.19-2.5.19-3.75.26-.4-.06.88-.13,1-.23-.93-.01-1.21.18-1.39.03-.3.07-.32.13-.06.17-1.11.11-2.19.15-3.27.16-.38.15-1.44.16-2.21.18-.15-.02.17-.05.34-.09.27-.03.51,0,.76.01.21-.03.26-.05.18-.06l.33-.05c-.56-.01-1.16.12-1.69.04.38-.07.73-.04,1.1-.07.22-.1-.9,0-1.22,0,1.06-.2-1.2.04-1.99.01.04.05-.19.16-.84.19.45-.11-.37-.07-.4-.17-.17.03-.32.04-.48.04.26.08-.79.12-1,.22-.42,0-1.71-.04-2.65.09-.55-.02-.01-.09.06-.14-.86,0-1.68.02-2.15-.02-.21.03-.43.06-.65.09l.6.05c.61-.12,1.14-.03,1.71-.05-.76.1-1.44.03-2.2.12.09-.21-1.67-.03-2.89-.09.46,0,.95-.06,1.4-.03.07-.09-1.22-.01-1.7,0-.16.05-.12.09-.37.15-.86.05-.4-.08-.73-.1-.22.04-.42.03-.63.01-.06.11-.8.12-1.56.04.43.1-.25.04-1,.16-.86-.07,1.15-.11.07-.17-.31.13-.89.11-1.32.19-.74-.07.92-.09.69-.14-.76,0-.92.01-1.45.1-.68-.06.54-.05.36-.11-1.33-.1-1.8.05-3.16.11-.35-.04-.16-.08-.73-.12-.72.08-1.36,0-2.06.05-.18-.05.16-.09.06-.14.22-.03.42-.01.64-.03.51.03-.05.07-.04.1.95-.02,1.26-.08,2.37-.06-.67-.02-1.32-.08-2.02-.05-.51-.05.86,0,.35-.07.71.03,1.45.02,2.18.02.14-.02-.18-.04.03-.07.61-.04.16.06.75.08.27-.03.54-.04.79-.03.14-.22,1.51.03,2.38-.12.55.03-.17.11.58.09.47-.08-.1-.13.4-.21-.4-.04-.84.03-1.24,0-.17.03.14.04.29.06-.55.07-1.05.03-1.56.03-.08-.06.51-.04.67-.11.63-.02,1.24-.01,1.89-.07.55.03-.17.11.58.09,1.09-.26,4.44-.19,6.44-.27.09.04-.65.11-.37.15-1.86.03-3.72.06-5.59.1-.31.07.68.05.94-.02.46.05,1.1.02.42.11.53-.03,1.05-.05,1.58-.08.12.04-.47.11.26.13.52-.11.68-.09,1.43-.1.58.02-.16.08.42.11,1.09,0,2.49-.13,3.16-.22-.02.03.31.04.12.08-.46.07-.02-.09-.62.02.91.03,1.87-.07,2.78-.04l1.14-.17c.3.03.3.08.88.1.67-.15-.37-.09-.56-.14.6-.09,1.1.07,1.71-.06.71.04-.67.17.23.19.16-.02-.05-.03-.13-.04,1.22-.11,2.39-.13,3.58-.17.66-.11-.32-.13-.88-.09.59-.06,1.22-.26,1.76-.21.26.05-.65.05-.5.11.28.06.64-.08.92-.01.37-.09-.03-.09.83-.16.35.01.34.05-.04.1.84.02.81-.18,1.59-.16.22.04-.88.15-.22.17.6-.07.44-.1.82-.17.21-.02.42-.04.62-.04.01.05-.85.1-.67.17.79-.05.6.01,1.36.04,1.44-.02,3.01-.21,4.06-.28-.92.18,2.48-.09,3.54-.11-.1.1-1.44.08-2.06.22,1.24,0,2.4-.25,3.26-.2.16-.03-.14-.04-.29-.05.45-.11.83-.06,1.27-.15,1.11.09,2.7-.17,3.37-.09,1.45-.18,2.27-.14,3.46-.34-.56.03-.17-.01-.59-.03,1.75-.23,2.18-.07,2.25.06.41-.1.11-.14.39-.23.67-.03,1.34-.08,2-.09.22.03-.82.1-1.12.16-.15-.03,2.33-.1,2.78-.16.36,0,.33.08-.03.07,0,.08.62-.04.93-.07.17-.03-.14-.04-.28-.05,1.27-.1,3.18-.03,4.93-.25l.74.03c.32-.06.61-.02.94-.1,1.28.09,2.69-.19,3.97-.11,1.43-.19,2.8-.21,4.15-.2-.87.11-.93.15-1.6.24,1.55-.11,3.15-.34,3.88-.28,0-.14,1.14-.29.77-.42.77-.02,1.54-.04,2.31-.06-.03-.15-2.84.13-2.72-.07.33-.06.6.01.91.01.15-.12,1.27-.09,1.91-.22-.12.06-.22.13.56.13-.04-.08.47-.14,1.16-.25.47.02,1.35.03,1.41-.07.56,0,.24.08.91.02.3.03-.07.05-.5.14.68-.05,1.36-.1,2.05-.22.52,0-.61.17-.06.18.29-.06.54-.21,1.13-.2.1-.05.51-.14-.12-.11.9-.14.76-.11,1.14-.25.33-.1.6.02.94-.07.74-.15-.38-.02-.6-.03.42-.06.83-.06,1.26-.15.31,0-.68.18-.04.14.21-.1,1.13-.18.79-.09.98-.25,2.59-.44,3.95-.54.06-.05.45-.16.51-.21-.67.08-.36.04-.92.06-.42.09-.09.07.13.07-1.33.24-2.62.34-3.92.46,1.13-.2,2.19-.22,3.32-.46-.57.07-1.15.14-1.71.18.64-.14,1.25-.15,1.92-.37.31,0-.28.14.28.09.27-.07.53-.11.81-.19.4-.05.06.05-.18.12.31-.02.64-.14.94-.14.18-.13,1.2-.26,1.31-.39.85-.12-.04.13.59.05.66-.18,2.11-.46,2.22-.44,1-.32.98-.19,1.92-.51.36-.04-.5.17-.65.26.9-.19,1.81-.51,2.71-.79.35-.18.42-.22.5-.33.53-.14,1.55-.63,1.6-.73.71-.25-.4.23.31-.02.48-.16.95-.49,1.42-.64.59-.34.19-.17.78-.49.52-.21-.72.52-.63.51-.37.23-.73.23-1.1.51.15,0,1.41-.56,2.05-1,.57-.28.19-.03.63-.24.79-.49,2.31-1.66,2.56-1.8.26-.18.26-.24.14-.17.54-.42,1.02-.93,1.55-1.31.31-.36.6-.66.87-1.05-.5.69-1.15,1.06-1.71,1.71-.43.27.15-.25-.89.52.8-.76,1.03-.9,1.25-1.07.5-.59-.56.44-.58.36-.25.31-.55.52-.84.69-.36.36-.71.59-.7.65.49-.31.87-.69.74-.46-.33.3-.68.45-1.03.74-.27.1.39-.37-.47.17.33-.09-.66.46-1.21.74-.1.03.05-.17.45-.35-.43.23-1.41.71-2.16,1.08-.59.14-1.55.66-2.02.69-.8.36-.71.4-1.58.7-.16.03.27-.15.48-.26-.67.11-1.36.44-2.04.58-.25.12-.1.09.31-.02-.45.22-1.12.33-1.12.42-.05,0-.2-.05-.62.11-.31.01.07-.06.49-.23-.83.18-1.69.46-2.5.54-.32.25-1.15.16-1.91.48.18-.14-.66.09-.76.03.58-.11,1.16-.27,1.72-.3.54-.24,2-.49,2.99-.66.06-.07.13-.14.81-.4-1.54.64-4.47.89-5.99,1.46-.99.17-2,.36-2.97.45-.25.08-.11.08.29.02-.33.09-.65.17-.97.26-.32.05-.63.08-.93.09.49-.12.94-.12,1.44-.29-.46.03-.93.1-1.39.11l-.65.16c-.26.04-.52.06-.78.09-.31,0,.08-.09.51-.19-1.16.13-.67.26-1.92.34-.13.04-.14.07.13.07-.33.07-.64.12-.95.14.66-.22-1.76,0-2.58.01.93-.12,3.21-.27,3.15-.4.94-.1,1.86-.16,2.81-.32.12-.11-1.13.12-1.55.14.75-.14.75-.11,1.29-.27.35.1.91-.11,1.2.01.8-.18.46-.2.21-.22.61-.13.6-.02.91-.04.38-.1.74-.14,1.12-.26.57-.06.17.04.6,0,.72-.22.41-.08,1.1-.18.74-.18,1.47-.3,2.21-.52.63-.1-.1.1.13.09-.77.2-2.17.4-2.06.51.42-.06.85-.21,1.28-.32.04.02.08.03.3,0,.7-.23.84-.25,1.42-.33.91-.29-.08-.11.82-.4.16-.05.31-.08.48-.14.56-.09.03.09-.03.15.4-.01.84-.21,1.24-.27.33-.12.18-.1,0-.07.94-.3,1.86-.45,2.81-.95,1.68-.59,2.95-1.22,4.27-1.85.5-.36.99-.6,1.47-.94.15-.2-.05-.09.41-.46-.69.37-.69.4-1.16.61-.3.29-.04.1-.57.49-.32.19-.64.37-.96.54-.33.16-.65.32-.98.53-.39.12.64-.45.75-.57-.37.13-1.49.73-1.36.55-1.01.41-2.05.95-3.06,1.14.62-.27,1.24-.43,1.85-.75-.4.15-.82.33-1.22.39-.17.13-.31.18-.61.21-1.2.53-2.36.68-3.56,1.01-.62.12.09-.09.33-.19-.4.04-.83.21-1.23.27.26,0,.26.06,1.05-.07.03.02-.06.07-.17.13-.37.1-.73.18-1.09.25-.17,0,.37-.15-.29-.04-.4.11-.32.13-.49.19-.21.06-.41.07-.62.13-.37,0,.34-.11.34-.18.47-.15.92-.13,1.4-.32-4.81,1.03-9.65,1.63-14.45,1.97-.36.18-1.91.24-2.18.16-.35.1.13.14-.24.24-.91.11-.79-.03-1.7.08-.15-.01.17-.06.34-.09-.77.03-1.58.16-2.34.17.99-.25-1.82.01-3.02-.04-.64.08.05.07.27.08-1.25.08-.69.02-1.84.05-.2.04.39.03.12.08-.31.03-.62.04-.92.03-.06.04-.24.08-.66.15-.7.1-.45-.06-1.24.09-.22-.02-.06-.06.35-.13-1.84.08-1.53,0-3.86.22-.11-.02-.1-.05.18-.1-1.48.2-2.9.21-4.37.38-.06-.02-.13-.04.03-.07-.57.04-1.16.13-1.75.24-.48,0-.47-.03.04-.1-1.88.17-3.67.11-5.6.43-.58,0,.16-.09-.42-.09.32-.06.61-.02.94-.1-1.47.13-3.32.36-5.14.41-.26.09,1.2-.03.26.12-.79-.02-1.43-.03-2.13.04-.5.14.65-.04,1.07-.02-.6.12-1.15.11-1.73.17,0-.06.17-.13.38-.2-1.58.13-2.76.34-4.54.39-.12-.01.22-.06.02-.07-.24-.02-.51.02-.76,0-.59.1-.3.09-.97.17-.04-.03-.19-.06-.58-.06-.79.08-1.56.11-2.34.16-.35-.02.5-.09.64-.07-.56-.07-1.91.14-2.38.27-.79,0-.06-.09.36-.16-1.09.07-2.23.27-3.3.28-.35,0,.52-.13.64-.07-.16-.06-.75-.06-1.51-.01.24-.02.94-.08.34-.09.32-.04.61,0,.94-.09-.49-.03-1.04.06-1.54.05.19.03-.26.15-.81.13-.18.04.25,0,.45.03-.64.07-1.26.11-1.92.24-.73,0,.37-.11-.26-.12-.48.08-1.27.12-1.3.2-1.31.05-2.82.07-3.72.15-.03.04.13.07-.51.14-.47-.08.44-.17-.87-.13.44-.09.84-.06,1.26-.09-.03-.09-1.45.08-2.02.07-.07.03.17.05-.19.09-.49-.02-.84.02-1.2-.05-.6.06-.22.09-.83.15-.47.03-.85-.12-1.7.05-.43-.02-.03-.07-.58-.08.38-.06.74-.05,1.1-.06-2.27-.08-6.02.19-8.86.2-.01-.05.28-.1.68-.15-.56,0-1.15.06-1.71.01-.43.05-.28.08-.2.12-1.37.02-3.86-.11-5.33.11-.43-.08.56-.06.52-.12-1,0-1.22,0-2.02-.01-.16.03,0,.06-.19.09-1.03.03-2.68-.19-3.26-.05-.35-.04-.15-.08-.72-.13-.48.02-.98.08-1.41-.02-.79.15-2.65-.1-3.93-.04.14-.03-.55-.09-.26-.11-.8,0-1.61.03-2.33-.12-.33.03-.65.02-.97,0-.03-.02-.07-.05-.28-.09-.17.04-1.01,0-.62-.04-.51.01-1.32-.04-2.17-.14.16.09-.25.06-.82.02-.15-.03.18-.03.34-.04-.78-.07-1.54-.14-2.32-.21.65-.03.8.08,1.13.01-.46-.06-.91-.12-1.39-.13-.14-.04.29-.03.51-.04.57.05,1.08.2,1.7.16-.69-.04-.34-.14-1.04-.17-.16-.09.44-.05.98-.02.25.06-.15.07-.22.1.58.1.83.03,1.13,0,.52.05,1.05.04,1.53.14-1.14-.09-.91.06-1.75-.04-.32.04.98.11-.05.1-.62,0,.18-.09-.44-.09-.85,0-.12.03.26.12-.21-.01-.42-.02-.62-.05.64.13,2.71.17,3.88.29-.28-.12.6.02.67-.06-.73-.04-1.46-.08-2.21-.07-.27-.25,2.25-.01,3.06-.04,1.11.13-.02.17.66.28.1-.11,1.02.07,1.59,0-.49,0-1.84-.1-1.34-.18.82.15.84-.02,2.01.1.61.08-.22.09.39.17l.82-.06c-.22-.03-.45-.06-.28-.08,1.49-.05,2.93.04,4.4,0-.43-.09-.92-.03-1.38-.07.9-.03,2.48-.07,2.78.07-.41-.02-.83,0-1.27.05-.2.06.74.03.43.09.99,0,1.87-.13,2.49.03.39-.07.74-.03,1.1-.02,0-.03.36-.06.19-.09,1.12.06,3.14-.06,3.71.05.67-.03,1.36-.05,2.04-.08.02.03-.07.06-.19.09.57.03.43-.07.81-.1.61.05.22.11-.07.17.7.02,1.59-.04,1.83.07.23-.07-.34-.13.39-.21-.96-.03-.42.16-1.58.1-.18-.06.08-.11.68-.15,1.21-.06,2.33.08,3.54,0,.41.08-.53.07-.98.12.5.04,1.04-.03,1.57-.07-.03-.02-.07-.04-.29-.06.42-.03.56.02.64-.05.85.04,1.81-.17,2.62-.03.13-.08,1.44-.14,1.56-.06.56-.17,2.03-.22,2.99-.2.31-.03.14-.05.34-.08.79.02,1.71-.07,1.66.04.38-.06.76-.11,1.14-.17,1.04,0-.36.13.24.16.7-.1,1.37-.12,2.03-.11.12-.06.78-.15,1-.22.41.05-.8.18-.08.21.06-.17,2.06-.27,2.99-.24.81-.08.74-.18,1.59-.19-.06.06-.67.17.27.09.14.04-.3.12-.83.2.1.01.2,0,.31-.02l.3.02c.51-.07.16-.1.67-.17.82-.1.66.05,1.5.05.59-.1,1.13-.04,1.72-.12-.58-.06-1.21,0-1.85.08.01-.04-.34-.06-.73-.08.67-.02.61-.09,1.39-.06.71-.08-.36-.05.35-.12.65.04,2.11-.07,3.23-.11.2-.06-.9,0-1.23.04-.17-.12,1.36-.2,2.05-.21.44.05-1.09.07-.65.11.76.04.64-.1,1.41-.11-.97.23,2.39-.18,3.37-.08.38-.09,1.56-.21,2.4-.35-.13.16,2.43-.15,2.81-.23.23,0,.45.01.29.05.27-.07.9-.06,1.58-.18.46.09,1.08-.07,2.19-.19.21.02-.19.09.42.09,1.96-.23,2.98-.22,4.99-.42.21.03-.19.1.44.05.08-.14,1.09-.13,1.54-.08-.29-.08.75-.23,1.6-.25.24.07-.98.07-.81.14.25.02.51-.02.76,0,.25-.06-.13-.08.5-.12.18.02-.43.09-.18.1.97-.02,1.31-.1,1.27-.16.78-.08-.04.11.74.03-.08-.08.61-.15,1.29-.23.24.08.48-.03,1.05.01.02-.08.81-.12,1.26-.12.04.04-.33.04-.19.1.28-.13,2.66-.17,2.39-.32.55.01,1.18-.18,1.72-.17.42.05-.53.09-.98.2.56-.01,1.14-.09,1.7-.1.33-.24,2.41-.27,3.01-.35-.07.07-.84.14-1.13.19-.31,0-.15-.04.03-.07-.67,0-.5.08-1.27.15,1.03-.05,1.29-.09,2.13,0,.65-.08-.05-.08.2-.13.44.03,1.58-.04,2.78-.13,1.2-.12,2.45-.24,3.12-.29.21-.03,1.3-.2.82-.2.83-.16,1.51-.08,1.57-.22.45,0-.08.1-.05.14-.27.04-.51.02-.76.02-.51.12.34.08-.67.2.8-.08.92-.13,1.9-.3.04.02.08.04.29.03.53-.12-.32,0-.12-.11.47-.09.92-.08,1.41-.21-2.38.2-4.73.4-7.1.6-.68.02.41-.1-.27-.08-.59.05-.42.07-.81.14-.6-.03.43-.15,1.01-.28,1.32-.11,2.76-.07,4.47-.36.47-.05.91-.02,1.38-.09-.42-.03-.29-.03.63-.11.55-.1.03-.07.34-.14,1.13,0,1.42-.14,2.46-.28.42-.02.03.06.59.02-.05-.07.45-.18,1.1-.25.42-.03-.8.19-.03.11.22-.07.42-.08.62-.1.03-.03.2-.09.49-.16,1.32-.17,1.96-.29,3.03-.4.29-.21,1-.18,1.69-.41.31,0-.59.15-.78.25.56-.12,1.12-.26,1.67-.36.31-.09.63-.27.92-.3-.18-.05,0-.07.78-.37-1.15.34-1.62.33-2.56.63-.55.04.38-.14-.13-.09-.63.19-.68.25-.49.26-.36.1-.71.16-1.08.28-.02-.1-1.01.13-1.52.25-.38,0,.67-.19.8-.3-.58.09-.61.13-.94.24-.19,0-.62.03-1.51.15,0,.05-.54.18-.96.29-.18-.03.07-.13-.57-.08-.42.11-.82.11-1.23.17.18-.06-.19-.06-.12-.1-1.65.26-3.29.41-4.92.54-.96.21-1.84.14-2.79.3-1.57-.02-4.01.4-5.07.24-.33.08-.63.06-.96.13-.39-.04-.8-.01-1.2-.02.65-.08,1.14-.05,1.43-.18-.3.11.37.02.9.01.41-.1-.19-.04-.59-.03.76-.13,1.46-.13,2.18-.17.27.02-.72.1-.94.09.23.07,1.86-.12,2.63-.15-.34-.03-.73.06-1.07.02,1.43-.06,1.98-.22,3.28-.35.44,0-1.04.17-.2.14.22-.04.43-.08.64-.12,1.33-.06,2.94-.27,3.87-.45-.91.2.56,0,1.36-.07.1-.06.5-.14-.13-.07,1.1-.27,1.21-.09,2.16-.32.43,0,.19.08.11.14.42-.02,1.11-.25,1.11-.28.64-.15,1.81-.16,1.98-.33.27-.05,1.28-.19,1.04-.1.6-.18,2.27-.54,3.63-.81-.79.24-.7.2-1.38.44.5-.06.99-.15,1.48-.24.44-.13-.44-.01.17-.13.28-.16-.68.17-.9.23-.11-.1,1.65-.59,2.4-.69.99-.26,1.98-.83,2.93-1.05l.57-.3c.48-.16-.02.08,0,.11.57-.2,1.13-.57,1.68-.76.29-.07-.52.3-.69.42,1.57-.75,2.92-1.61,3.85-2.12.42-.28.8-.61,1.18-.99-.29.19-.36.21-.14,0,.26-.13.64-.54,1.1-.96.41-.45.87-.95,1.22-1.33-.17.33-.41.62-.65.85.24-.15,1.27-1.4,1.66-2.11.3-.67-.26.46-.46.56.25-.47.52-.86.75-1.34-.08.07-.09.06,0-.21-.21.31-.28.47-.34.46.1-.17.2-.34.27-.55.41-.58.53-.79.91-1.65-.11.54-.41.89-.58,1.4.19-.27.34-.6.51-.89-.18.23.33-1.08.48-1.65.06-.13,0,.18-.03.34.19-.33.24-.77.41-1.11.05-.27-.18.36-.17.22.24-1.06.54-2.05.66-3.13-.08-.05-.11.77-.23,1.18-.04.08-.03-.02-.08.12.18-.74.14-.99.25-1.84-.09,0-.19.73-.16,1.06-.16.67.02-.72-.14.24.03-.49.19-1.53-.02-.83Zm-49.29,18.48c-.6.11-1.14.08-1.7.1.59-.1,1.15-.1,1.7-.1Zm-47.21,2.21c.5-.09,1.55-.06.82-.15.9-.07,1.76-.09,2.62-.08-.46.09-.53.05-.98.18-.25-.01-.49-.05-.75-.02-.21.03.11.04-.03.07-.56-.01-1.16.1-1.68,0Zm71.04,5.67c-.56.11-.43.17-1.11.17,0-.05.7-.18,1.11-.17Zm.67,1.77c-1.01.15-1.12.18-1.99.38-.35-.04-.74.05-1.13.14-.49-.03-.6-.03-.89-.1-.84.13-.29.16-.07.21-1.29.07-1.15-.11-.37-.26,1.06.05,2.26-.31,3.37-.37.56.01-.63.11-.36.14.52-.1,1.44-.2,1.44-.14Zm3.11-68.97c-.62-.02-1.16-.16-1.76-.19.62,0,1.2.08,1.76.19Zm-48.22-.45c-.25-.06-1.31-.05-1.04-.13.4.08,1.55.02,1.04.13Zm-37.09.02c.41.01.85-.05,1.24.03-.35.05-1.45.05-1.24-.03Zm56.97,65.58c.67-.05,1.35-.1,2-.09-.57.03-1.97.17-2,.09Zm-12.79-.21c.07-.08,2.82-.25,2.31-.11-.75-.03-1.57.15-2.31.11Zm55.09-7.09c-.16.11-.08.1-.47.32-.26.08-.52.23-.79.3.43-.22.84-.5,1.26-.62Zm-72.08,5.81c1.42-.08,2.04-.11,3.26-.17-1.11.13-2.19.17-3.26.17Zm29.98-2.02c.47-.02,1.75-.14,1.69-.07-.47.04-1.76.16-1.69.07Zm15.33-.91s.57-.19.96-.15c.27.02-.74.18-.96.15Zm33.41-14.78c.13-.28.04-.17.12-.46.26-.33.25-.89.47-1.24-.04.56-.55,1.74-.6,1.7Zm-16.78,10.84c.4-.09.81-.24,1.19-.28-.65.26-1.11.26-1.19.28Zm-20.91,1.95c.07-.07,1.05-.13,1.55-.1-.54.1-1.04.09-1.55.1Zm-4.51.29c.54-.08,1.86-.14,1.84-.06-.61,0-1.25.11-1.84.06Zm30.98-.68c-1.03.32-2.07.7-3.1.9.99-.32,2.65-.81,3.1-.9Zm-44.22.45c.1-.08,1.18-.16,1.71-.14-.6.13-1.16.15-1.71.14Zm20.12.91c.52-.03,1.06-.12,1.55-.1-.44.08-1.67.19-1.55.1Zm24.06-1.03c.22-.02,1.22-.44.93-.25-.42.13-1.39.51-.93.25Zm-1.1.39c-.26-.02-.49.12-1.08.26.26-.1-.34.03-.14-.05.76-.2.55-.08,1.25-.36l.46-.08c-.17.08-.08.08-.48.23Zm-2.93.55c.52-.14,1.05-.34,1.56-.39-.54.22-1.05.33-1.56.39Zm-19.4.87c-.32.05-.64.09-.94.09.71-.1.3-.24,1.3-.25.24.06-.9.14-.36.16Zm14.53.15c.21-.06.43-.12.65-.18.15-.01.3-.02.45-.03-.38.14-.74.17-1.1.21Zm9.4-1.16c.25.04.65-.23,1.27-.4.09.09-2.32.87-1.27.4Zm-27.37,1.27c-.98,0-2.25.24-2.77.12-.12.11-1.19.18-1.73.17,1.5-.13,1.27-.23,2.72-.41.56.1.57-.05.89.04.79-.08,2.42-.26,2.65-.19-.13,0-.98.07-.63.07.53-.05,1.04-.08,1.54-.06-.44.09-.83.07-1.23.04-.5.08-1.39.12-1.44.21Zm-16.33-.91c.05-.09.93-.13,1.42-.15-.04.07-.95.16-1.42.15Zm19.66.93c-.2-.01-.4-.02-.6-.03.32-.06.64-.1.94-.09-.71.08.36.05-.35.12Zm18.5.03c.5-.19.94-.11,1.43-.34.5-.08-.07.14.77-.07-1.12.41-1.26.23-2.2.41Zm-9.01.48c.48-.1.98-.25,1.42-.23-.47.07-.98.25-1.42.23Zm6.09-.24c.54,0-1.07.42-1.78.45.01-.07.47-.19.82-.25,0,.09.62-.07.96-.2Zm-28.44.08c0,.09.61-.01.94-.1.41-.02.56-.02.6.03,1.12-.16,2.16-.11,3.28-.28.48,0-.1.16.76,0,.52.01.5.15-.36.16.18-.03.34-.07.03-.07-.18.21-1.97.27-3.02.4l-.74-.03c-.62.05-1.28.2-1.88.17.32-.13,1.75-.25,2.52-.28-.15-.01.09-.04.32-.06-.51.03-1.01,0-1.53.04-.81.15-1.62.29-2.36.25,1.25-.09.95-.14,1.44-.22Zm21.24.34c-.29.07.38.02-.03.11-.29-.04-.64.12-.93.07.49-.11.37-.16.99-.29h.45s-.49.11-.49.11Zm-44.65-1.71c-.21-.04.86-.18,1.1-.12-.37.05-.77.18-1.1.12Zm7.03.66c.4-.14,2.02-.1,1.39-.08-.46.02-.95.11-1.39.08Zm39.15,1.52l.65-.15c.16,0,.46-.02.3.03-.31.02-.37.13-.94.12Zm-5.83.24c.31-.06.23-.08-.13-.07l.81-.16c.47-.03.92-.03,1.38-.05-.67.09-1.38.19-2.06.28Zm5.51-.17c-.32.09-.21.13-.21.18-.3,0-.64.1-.93.07,1.3-.27-1.12.07-.73-.07.62-.02,2.1-.3,2.18-.18h-.3Zm-8.25.16c.21.12,1.04-.08,1.71-.09-.46.2-2.2.26-1.71.09Zm-1.23.04c-.56.02-.14-.1-.6-.03-.29.06.09.07-.2.13-.2,0-.4-.02-.6-.03.24-.04.58-.09.19-.1.38-.07.76-.13,1.11-.12-.18.03-.34.07-.03.07.58-.07.21-.08.66-.14.69.02-.36.15-.54.22Zm-4.19-.17c.7-.12,1.37-.16,2.01-.12-.69.1-1.36.12-2.01.12Zm11.31.25c-.8.12-1.55.09-2.35.22.68-.14,1.11-.17,2.06-.26-.16.04.06.04.29.04Zm-24.02-.68l.65-.11c.38.04.8.02,1.24-.09.15,0,.3.01.45.02-.8.12-1.56.14-2.34.18Zm20.62.88c.46,0,.95-.08,1.4-.08-.4.11-1.57.17-1.4.08Zm-40.77-1.66c.84-.1,1.64-.08,2.48-.16-.32.13-1.72.15-2.48.16Zm44.06,1.82c.09.03-.31.11-.51.17-.43.06-.84.1-1.26.13-.16-.04.11-.11.21-.17-.77.2-1.5.23-2.24.31-.63-.07-1.27.02-2.31.03.49-.11,2.18-.2,3.15-.26-.27,0-.26-.03-.13-.07.95-.08,1.2-.09.76.02.73-.09,2.99-.37,3.58-.29-.76.04-.57.09-1.26.14Zm-8.03-.13c.27-.1.56-.17,1.43-.18-1.04.06-.39.12-1.43.18Zm5.9.14c-.36.01-.73.06-1.09.05.47-.1,1.58-.17,1.09-.05Zm-23.95-.89c-.26,0-.51.02-.78.07l-.74-.03c-1.07.16-1.31.1-2.51.25.32-.06-.2-.05.35-.13.6.02,1.23-.06,1.86-.13-.23-.04-.27-.09.38-.2.45,0,.92-.03,1.37-.01-.49.09-.94.08-1.43.19.24.05,1.43-.07,1.51,0Zm-.43-.05c.54-.09,1.05-.11,1.54-.07-.53.08-1.03.06-1.54.07Zm20.34,1.15c-.68,0,.41-.09-.27-.08.43-.07.84-.09,1.25-.09,0,.05-.57.15-.98.17Zm-44.38-2.09c.43-.07.86-.13,1.25-.11-.43.09-.84.1-1.25.11Zm45.27,2.17c-.32,0-.15-.04-.44-.05.38-.07.74-.09,1.09-.07l-.66.12Zm-13.36-.38c-.27,0-.43-.03-.44-.05.68-.07,1.37-.16,2.01-.12-.54.12-1.03.06-1.58.18Zm10.76.4c-.81-.01-1.67.13-2.48.13.82-.04,1.7-.22,2.5-.2-.21.04.12.04-.03.07Zm-3.59-.14l-.65.11c-.17-.03-.53-.04-.42-.09.34.04.73-.06,1.07-.02Zm4.3.28c-.22.06.99.03.26.12-.78.05.02-.07-.73-.07.27-.05.54-.09.81-.14.17.03,1.1-.05.75.04-.37.04-.72.02-1.08.05Zm-24.62-1.01c.66,0,.61-.11,1.4-.12-.4.1-1.58.22-1.4.12Zm16.15.96c.57-.05,1.15-.12,1.71-.14-.6.12-1.15.11-1.71.14Zm-41.54-2c.37-.04.75-.11,1.09-.07-.01.07-.69.13-1.09.07Zm37.01,1.97c.56-.02,1.14-.09,1.69-.07-.5.1-1.75.13-1.69.07Zm-15.04-.7c-.73.06-1.44.08-2.16.11.68-.12,2.54-.27,2.16-.11Zm21.82,1.6c.64-.11-.06-.02-.29-.05.39-.1.71-.02,1.09-.09-.48-.06-1.01.01-1.51,0-.12-.02-.66-.1.2-.13-.34.09.59-.02.75.03.66-.15,1.23-.07,1.87-.16.43.05.74.05,1.51,0,.26-.05-.32-.04-.12-.08,1.35,0,.53.13-.11.31-.34,0-.08-.05-.12-.08-.27.05-.5,0-.77.03.27.01.43.03.43.06-.58.09-.98.06-.8.14-.36.02-.73.07-1.07.02.22-.05.63-.06.49-.08-.52.04-1.03.06-1.54.07Zm-4.44-.27c0,.06-.54.08-.96.14-.24-.08-1.14.05-1.84.06.74-.15-.67.05-.89-.04.69-.09,1.33-.06,2.01-.12,1.24-.19.97-.36,2.26-.4-.92.12-2.04.41-.58.36Zm-44.66-2.26c-.12-.03.83-.11.2-.13-.86.09-.47.12-.83.19-.24-.03-.51,0-.75-.02.51-.15,1.14-.2,1.65-.34,1.07.09,1.27.06,2.41.06-.68.09-1.6.21-2.68.24Zm23.55,1.18c.27-.09.8-.14,1.42-.15-.48.07-.95.1-1.42.15Zm29.04,1.3c.29-.05-.38-.04.04-.1.74-.07.69.08-.04.1Zm-10.8-.25l1.29-.23c.2,0,.41-.03.61,0,.12.07-1.19.23-1.9.24Zm-19.47-1.01c-.39-.02-.78.03-.43-.06.3.01.63-.07.92-.03-.16.03-.32.05-.48.08Zm10.21.68c-.82-.02.65-.18,1.12-.16-.39.09-.73.07-1.12.16Zm15.38.57c-.31.02-.91,0-.42-.09.39.01.75.03.42.09Zm-26.56-1.08c.09-.02.17-.03.01-.04-.27.05-.53.07-.78.07.54-.09,1.06-.14,1.57-.14-.27.04-.54.1-.79.1Zm.34.3c.5.03,1.06-.13,1.55-.1-.45.09-1.68.2-1.55.1Zm30.94,1.5c.31-.09-.63,0-.47.05-.4-.01-.21-.07-.11-.11.69-.03.56-.07,1.55-.1-.23.07-.53.13-.97.17Zm-63.11-2.96c.44-.07.83-.02,1.24-.03-.44.07-.85.08-1.24.03Zm33.38,2.3c.38-.08.74-.08,1.08-.06-.38.08-.74.08-1.08.06Zm-13.27-.66c-.7-.01.2-.16.65-.11-.46.07-.08.07-.65.11Zm10.66.75c-.7.12-2.19.19-2.31.1.64.06,1.35-.1,2.02-.15-.28.07.43-.02.29.05Zm-38.61-2.38c.68-.02,1.36-.05,2,.01-.66.04-1.89.08-2-.01Zm57.25,3.61c.32,0,1.42-.07,1.2.02-.34.05-1.41.06-1.2-.02Zm-12.7-.06c-.49-.05-1.02.02-1.52,0,.59-.1,1.13-.04,1.74-.2.3.03.62-.04.91,0-.73.11-.57.08-1.13.2Zm-21.66-1.06c-.58-.02-.8-.06-.1-.15.48,0,.6.08,1.37.02-.45.11-.83.05-1.27.13Zm23.22,1.77c.59-.1,1.18-.19,1.74-.21-.59.1-1.2.23-1.74.21Zm-12.79-.73c.38-.07.74-.08,1.08-.05-.38.07-.74.08-1.08.05Zm4.42.37c.59-.09,1.17-.16,1.72-.13-.59.09-1.15.1-1.72.13Zm-3.93-.06c-.8-.02-1.67.13-2.49.15.56-.15,1.51-.16,2.68-.25.17-.04.1-.07.47-.05-.06.04-.24.08-.66.14Zm-12.92-.53c.81-.11,1.58-.14,2.35-.16-.81.12-1.58.14-2.35.16Zm21.58,1.35c.43-.07.84-.09,1.26-.12-.32.08.04.11-.37.2-.65,0-.33-.07-.88-.08Zm2.52-.24c.22.07.61,0,1.21.02-1.07.09-1.96.34-2.51.24.9-.09.86-.16,1.31-.26Zm-2.61.09c.3.05,1.44-.12,1.22-.01-.57.04-1.15.1-1.69.06.31-.05.23-.07-.12-.08.53-.08,1.06-.13,1.57-.14-.24.05-1.23.12-.97.17Zm-10.53-.32c.4.01.85-.08,1.23-.04-.35.08-1.44.1-1.23.04Zm1.87-.11c-.47.07.45.05-.2.13-.67.01-.39-.12.2-.13Zm-3.46-.12c-.44.09-.85.09-1.27.14-.39-.05-.81,0-1.22,0,.68-.07.38-.06.97-.16.25.05.45.07,1.09-.05.27.01.43.03.43.06Zm-23.91-1.51c.46-.09,1.12-.07,1.14-.15l.3.03c.11-.01.21-.02.31,0-.29.09-1.09.16-1.75.13Zm-19.01-2.63c-.39-.04-.77-.02-.74-.08.44-.05,1.19.05.74.08Zm53.6,4.86c.47-.04.93-.05,1.38-.04-.41.12-1.53.08-1.38.04Zm-31.42-1.73c.64-.05,1.26-.07,1.87-.05-.64.06-1.26.08-1.87.05Zm25.39,2c.32,0,.18-.04.49-.08.66-.03.66.07,1.55-.06.09-.06-.91.01-.42-.09.62-.04.98-.03,1.21.02-.87.16-2.54.3-2.82.21Zm-20.97-1.52c-.66,0-1.38.12-2.02.05.6-.09,1.16-.08,1.75-.14.39.02.52.05.27.09Zm11.71,1c-.31.01-.61,0-.91-.02.45-.1,1.38-.06.91.02Zm6.93.65c.23-.04.29-.06.34-.09.31-.01.61-.01.91.01-.43.07-.85.09-1.25.08Zm-10.03-.53c.47-.03.98-.16,1.42-.12-.49.08-.96.12-1.42.12Zm-4.41-.09c.64-.11.81-.02,1.13-.13.27.02.43.04.44.06-.55.09-1.07.11-1.56.07Zm3.42-.12c-.59-.04-1.27.13-1.85.05.56-.12,1.88-.14,1.85-.05Zm8.92.65c.45-.11.84-.06,1.24-.04-.44.08-.82.03-1.24.04Zm-10.08-.41c.44-.09.84-.06,1.26-.09-.03.08-.83.13-1.26.09Zm-1.93.22c.84-.1,1.18-.13,1.32-.23.57-.03.36.04.58.08-.44.08-.85.08-1.27.13.2.01.63-.02.45.03-.96.08-1.37.03-2,0,.17-.04.1-.06.5-.1.62.02.21.07.42.1Zm-2.27-.1c1.07-.11,2.1-.14,3.14-.16-.2.17-2.09.17-3.14.16Zm14.54.8c.79-.08,1.56-.08,2.33-.12-.79.09-1.58.15-2.33.12Zm-4.48-.26c.07-.05.16-.14.81-.13-.01.02-.42.14-.81.13Zm.94.34c-.85,0,.65-.11.2-.13-.4-.01-.86.12-1.25.07.86-.13,1.69-.13,2.51-.17-.23.09-1.07.1-1.46.23Zm-12.17-1.04c-1.06.14-2.09.02-1.66-.1.45.05.34.09,1.66.1Zm-.24.23l.81-.12c.15.02.46.03.29.06-.34-.04-.78.14-1.1.06Zm5.92.57c-.44-.02-.05-.08.2-.13.2.01.41-.02.61,0-.27.04-.55.08-.81.12Zm2.5.27c-.33-.05-.29-.11.23-.2.71.03.36.16-.23.2Zm-7.71-.69c-.49.1-1.25.03-1.22-.02.8-.1.55,0,1.22.02Zm5.05.83c-.25-.02-.5-.03-.76-.02.78-.08.91-.01,1.44-.15.21.1.76-.02,1.37.02-.7.1-1.34.04-2.05.15Zm-4.31.01c.95.08,2.83-.15,3.25-.05-.91.03-3.44.24-3.25.05Zm.94-.04c.32-.05-.2-.06.35-.12.25,0,.52-.01.76.02-.7.05-.44.1-1.11.1Zm-5.5.24c-.34-.05-.74.04-1.08-.02.44-.05.86-.08,1.27-.07-.2.03-.03.06-.19.09Zm-13.61-.93c.55,0,2.18-.09,1.7.05-.44-.07-1.77.02-1.7-.05Zm-15.08-2.29c-.7-.09.22-.14.67-.06-.45,0-.09.06-.67.06Zm15.52,2.38c.39-.05.73,0,1.09.02-.43.03-.43.15-.84.12.16-.05-.22-.09-.25-.14Zm-.54.15c-.78-.06-.03-.16.53-.12-.03.04.13.08-.53.12Zm6.08.77c-.43-.09-.96.04-1.39-.03.81-.07,1.59-.07,2.37-.08l-.98.11Zm-6.14-.63l.66-.07.45.05c-.4.07-.74.03-1.11.02Zm-2.67-.37c-.84.07-.67-.06-1.54-.09.54-.01,1.52.02,1.54.09Zm-2-.12l-.59-.08c.36-.05,1.48-.04,1.25.03-.4-.05-.6.04-.66.05Zm-15.23-2.58c.37.03.71.11,1.06.17-1.09-.11-2.18-.22-3.26-.34-1.08-.15-2.15-.31-3.21-.5.69-.03,1.2.23,1.87.22-.38-.09-.77-.13-.41-.14.68.09.36.12,1.01.26.71.02,1.31.2,2.04.19-.4-.06-.83-.09-1.2-.2.34-.01.62.06.97.04.55.09-.2.11.56.16.47.01-.44-.13.22-.1.32.02.62.07.91.13-.06.04-.72.02-.55.09Zm17.12,2.94c-.69-.1-1.46-.03-2.16-.11.44-.06-.08-.13.86-.13.73.06.13.09.25.14.48-.01.94.01,1.43-.03.54.05.12.09-.38.13Zm5.33.74c.55-.06,1.1-.13,1.6-.07-.54.03-1.1.12-1.6.07Zm-11.13-1.56l.66-.04.45.06c-.39.04-.76.04-1.11-.02Zm-4.9.16c-.27,0-.53-.02-.78-.07,1.17-.02,1.67.23,2.28.3.27-.01.55-.03.82-.04,1.16.15,2.37.19,3.58.2.17-.08.65-.13,1.02-.14.02.13.6-.03,1.24.07-1.04.06-1.85.09-2.47.19-.95-.19-2.82-.1-4.1-.15.16-.02,1.03-.02.68-.07-.6.03-1.17-.04-1.77-.02.2.03.63.05.45.08-.56-.09-2.01-.07-2.02-.18.75.09,1.99.04,1.34-.09-.14.11-2.17-.08-2.2-.14.58.04,2.25.19,1.92.05Zm-.71.13s-.71.04-1.14.01c.31-.03-.7-.07-.91-.14.71,0,1.37.08,2.05.13Zm16.76,1.24c-.79.02-1.58.01-2.35-.01.76-.03,2.15-.08,2.35.01Zm-6.16-.63c.3.02.64-.03.92.04-.27.09-1.23,0-.92-.04Zm-2.96-.12c.4-.04,1.59-.03,1.4.05-.46-.04-.95-.01-1.4-.05Zm5.35.75c.02-.05.84-.08,1.27-.02-.45.06-.86.04-1.27.02Zm-25.77-4.63c.16-.05.93.15.84.02.74.18-.4.1-.84-.02Zm-1.69-.28c.04-.06.81.09,1.31.09l.43.13c-.6-.05-1.21-.06-1.74-.22Zm17.87,3.98c.39,0,1.59,0,1.41.08-.46-.04-.96,0-1.41-.08Zm2.73.65c.39-.03.77-.05,1.11.02-.39.04-.77.05-1.11-.02Zm-9.08-1.25l-1.25-.11c.54-.01.58-.08,1.31,0-.3,0,.37.1-.06.1Zm-3.21-.46c-.25-.06-.5-.1-.76-.13.11,0,.22,0,.33,0-.08-.02-.15-.04.02-.03.83.17.25-.05.68-.03.35.06.74.06,1.07.17-.77-.03-.8.03-1.35.02Zm1.71.49c-.19-.04-.6-.11-.43-.12.72.1,1.5.06,2.18.22-.83-.02-1.25-.13-1.76-.1ZM10.87,44.43c-.18-.46.02-.14.28.24.06.17.15.34.23.51-.04.02-.33-.41-.51-.74Zm16.5,18.97c-.52-.13-1.01-.28-1.45-.51.49.12.62,0,1.41.34-.48-.08-.83-.13.04.17Zm11.57,4.09c.6.08.71.15.57.18,1.14.1,3.05.3,3.56.5-1.29-.22-2.85-.33-3.78-.41.23-.01.05-.08-.24-.17-.1.06-.15.06-.83-.03-.34-.07-.06-.07-.1-.1-.37.04-.36-.02-.96-.1.41.14-.56,0-.96-.13.02-.06.69.08,1.17.07,1.07.17,1.12.22,1.58.18Zm11.18,2.52c-.8-.12-1.47,0-1.95-.02-.63-.13.34-.05.72-.13.28.09.64.03.97.03.39.06.52.1.26.12Zm-11.04-2.19c-.68-.11-1.34-.22-2.01-.33.49.04.97.08,1.44.15-.3-.02,1.27.19.57.18Zm5.5,1.51s.74-.07,1.15.01c-.38-.01-.8.05-1.15-.01Zm.77.41c.4-.03.75.04,1.15.01-.4-.07-.79-.09-.43-.12.47.06,1.79.14,1.7.22-.69,0-1.43.03-2.42-.11Zm-9.92-2.65c-.23-.12-1.36-.19-1.06-.23.45.06,1.59.22,1.06.23Zm2.92,1.1c.65.08,1.27.15,1.91.23-.08.04-1.91-.14-1.91-.23Zm5.49,1.29c.24,0,.3-.02.35-.04.36.06,1.56.15,1.38.2-.55-.1-1.19-.04-1.73-.16Zm-14.98-3.79c.99.21,2.53.61,3.78.83-.21-.08-.56-.2-.08-.14.1.17.64.17,1.49.42-.62-.06-1.08-.16-.9,0-.46-.19-1.17-.35-1.95-.51-.78-.18-1.62-.38-2.34-.6Zm-20.74-30.16c.02.11.05.22.08.33l.09.32c.04.17.07.33.1.49.06.3.09.45.09.68-.02-.09-.05-.22-.08-.36-.01-.07-.03-.15-.05-.22-.02-.14-.06-.42-.12-.63-.03-.12-.06-.23-.08-.33-.01-.06-.02-.12-.03-.17-.01-.09-.01-.14.01-.12Zm9.52,22.87c-.18-.24-.41-.44-.69-.63-.34-.47.93.59,1.57,1.14-.77-.53-.74-.5-.88-.51Zm23.05,10.7c.97.07,1.9.21,2.85.31h-.5c-.77-.13-1.58-.18-2.35-.31Zm-14.04-4.65c.61.2,2.04.62,2.09.71-.59-.19-2.06-.58-2.09-.71Zm1.28.76c-.76-.32-1.63-.51-2.4-.84.93.23,2.57.78,2.9.93-.26-.09-.46-.11-.5-.1Zm11.47,3.76c.28,0-.32-.1-.11-.1.4.09.86.1,1.25.2-.4,0-.79-.02-1.14-.1Zm-2.98-.48c.57.04,1.09.11,1.6.21-.54-.06-1.1-.07-1.6-.21Zm-8.8-3.15c-.93-.21-1.05-.33-1.63-.6.3.07.49.09.53.08.09.04.18.08.28.12-.35-.02.07.14.82.4Zm10.25,3.6c-.83-.12-1.73-.21-2.52-.44.84.13.64-.02,1.35.09.84.17-.11.15.55.22.26,0-.12-.1.55-.04.42.11.17.13.07.16Zm-3.66-.84c.07-.02.26-.02.7.02.37.15.84.15,1.23.28-.11,0-.23-.02-.34-.02-.44-.14-.81-.12-1.59-.27Zm-11.74-4.69c.69.38,2.8.94,2.42.98-.75-.38-1.7-.52-2.42-.98Zm-4.09-2.59c.41.25.77.48,1.15.71-.04.05-.81-.37-1.15-.71Zm-.32,0c.21.16.5.36.83.59.33.19.69.39,1.02.58.66.37,1.18.69,1.08.72-.84-.56-2.61-1.48-2.92-1.89Zm-3.78-4.03c.35.3.64.6.92.91-.05.02-.66-.55-.92-.91Zm.51.91c-.49-.7-1.23-1.34-1.76-2.05.44.38,1.56,1.73,2.32,2.46-.36-.31-.11-.01-.56-.42Zm-.3-.2c-.55-.73-.84-.71-1.47-1.53.64.64.34.32.66.56.32.35,1.23,1.28.8.97Zm-3.5-4.18c.37.36.67.74.94,1.13-.08,0-.73-.71-.94-1.13Zm6.36,8.4c.59.31,1.03.69,1.53.96-.52-.26-1.07-.59-1.53-.96Zm.23.25c.18.09.53.35.81.52.28.17.48.31.36.28-.36-.24-.86-.47-1.17-.8Zm-1.86-1.73c.25.18-.28-.34-.15-.27.34.25.65.5.92.78-.45-.34-.13.11-.77-.5Zm-.24.27c.08.04.64.46.55.28-.35-.25-.59-.54-.84-.82.66.56,1.44,1.06,2.07,1.63-1.11-.79-.61.02-1.77-1.09Zm-7.43-12.17c.23.24.74,1.16.55.96-.16-.32-.44-.63-.55-.96Zm5.86,10.31c.33.26.62.53.85.82-.33-.26-.62-.53-.85-.82Zm-5.28-8.61c-.4-.65-1.17-1.86-1.17-2.09-.33-.51-.76-1.49-.92-1.56l-.2-.59c.25.38.36.73.44.72.39.82.61,1.24.83,1.41.3.61,0,.13.04.29l.5.68c.3.7-.16.02.47,1.12Zm-2.62-5.12c-.27-.81.64.96.79,1.46-.11-.17-.07,0-.16-.14-.46-.95-.18-.68-.63-1.32Zm-.81-1.66c-.23-.74.14.02.39.47.07.25.23.5.28.75-.34-.55-.39-.85-.67-1.22Zm-.75-3.84c.15.48.3.96.37,1.42-.19-.48-.3-.96-.37-1.42ZM25.96,9.21c.33-.14,1.35-.46,1.22-.32-.36.03-.83.26-.82.29-.24.04-.38.05-.39.03ZM2.87,30.78c.05-.46.11-.04.13.47.04.51.1,1.11.02,1.04,0-.69-.15-.64-.15-1.51ZM28.14,8.61c.37-.1.93-.22,1.42-.32.49-.08.93-.11,1.05-.07-.98.08-.44.15-.86.25-.5.03-.3-.07-.37-.12-.45.17-1.24.34-1.24.26Zm4.27-.61c-.36.01-.74.1-1.1.09-.06-.11,1.63-.21,1.1-.09ZM1.5,30.64c.02.6.05,1.18.06,1.74-.14-.61-.12-1.17-.06-1.74Zm.09-3.19c-.05-.53.13-.83.23-1.38-.15.39-.08-.51-.04-.83.26-.79-.11,1.12.15.33.02-.2-.03-.12.05-.57.06-.25.38-1.29.34-.95-.14.47-.41,1.64-.49,2.6-.14.95-.16,1.67-.25,1.18-.02.35-.06.94-.1,1.45-.03.51-.02.94-.08.97-.11-.44.06-2.44.19-2.79Zm.02-1.15c-.04.46-.11.9-.16,1.34-.04.44-.07.88-.11,1.32.02-.46.03-.92.05-1.36.05-.45.13-.88.22-1.3ZM42.64,7.81c.66.04,2.22-.13,2.33,0-.73,0-2.15.13-2.33,0ZM2.31,23.15c.1-.2.27-.63.23-.44-.32.79-.43,1.16-.42,1.55-.21.47,0-.49.19-1.12Zm1.36-2.95c.22-.3.34-.76.58-1.04-.2.47-.77,1.56-.58,1.04Zm-.83.97c.2-.39.29-.52.21-.24-.1.2-.22.39-.3.62-.06.17-.12.35-.19.51.08-.3.18-.59.27-.89ZM50.44,7.72c-.17.03-.1.06-.5.09-.33-.07-.72-.02-1.07-.04.54-.05,1.08-.1,1.57-.05ZM6.96,14.9c-.05.12.49-.56.56-.62.12-.18-.02-.06.08-.21.6-.69.84-.82.41-.23-.63.65-1.17,1.41-1.74,2.09.37-.57.51-.79.69-1.04Zm46.22-7.07l-.59-.06c.51-.08,1.34,0,.59.06Zm-43.17,3.88c.37-.36.75-.72,1.15-.99-.36.4-.75.72-1.13,1.03.07-.07.12-.14-.01-.04Zm50.14-4.21c.35.02.72,0,1.07.04-.24.02.11.12-.5.09.34-.05-.02-.09-.45-.05.12.03.11.07-.04.1-.3-.03-.63.03-.92-.03.8-.06.05-.1.84-.16Zm-46.21.87c.62-.38,1.98-1.31,2.15-1.29-.44.21-.86.54-1.29.81.24-.11.47-.28.72-.39-.39.28-1,.7-.97.76-.33.11-.52.15-.6.11Zm49.32-.89c-.25.04-.09.08-.52.12-.35-.05-.21-.17.52-.12Zm-46.3-.86c.73-.31.67-.19.45,0-.2.07-.39.18-.58.29.31-.25-.6.2.13-.29Zm47.66.93c-.38.05-.75.07-1.1.02.38-.05.76-.07,1.1-.02Zm-45.72-1.98c-.8.42-1.58.82-2.38,1.24.83-.5,1.01-.6,1.63-.92-.08.06-.04.06.15-.02.2-.12.39-.25.6-.3Zm1.22-.48c-.18.11.16,0,.15.03-.87.46-1.72.84-2.56,1.24.47-.29.12-.16.59-.45.59-.28,1.22-.57,1.82-.81Zm48.44,2.31c-.59.05-1.02.11-.85.16-.45-.04-.94.02-1.39,0,.92-.12-.42-.06.06-.14.7.06,1.47-.04,2.18-.01Zm-47.34-2.96c.33-.1.16,0,.46-.09.16-.08.06-.06.16-.12.68-.2.29-.03-.17.19-.21.06-.41.11-.62.21.15-.04-.08.08-.32.2-.15.04-.31.08-.46.13.83-.42.69-.33.94-.52Zm2.18-.54c.53-.23,1.07-.32,1.6-.48-.55.25-1.58.56-1.6.48Zm3.59-1.12c.5-.11,1.01-.25,1.5-.3-.47.17-.89.19-1.34.29.09,0,.31-.02.15.02-.23.02-.27,0-.31,0Zm3.8-.47c-.55,0-1.13.17-1.67.17.47-.12,1.79-.28,1.67-.17Zm-.35.06c.16,0,.34-.02.51-.06.42,0,.57.02.3.08-.27,0-.56.05-.83.05.23-.04-.13-.03.02-.07Zm3.9-.15c-.96.05-1.85.09-2.74.1.93-.13,1.8-.11,2.74-.1Zm.61-.17c-.4.11-1.47.05-2.28.08.77-.12,1.55-.15,2.28-.08Zm3.65.34c.15.03.05.06.43.08-.7.07-1.39.11-2.03.03.81-.01,1.57-.07,1.6-.11Zm9.29-.32c-.38.05.48,0,.59.06-.3.06-1.32,0-1.07-.04.32.03.19-.04.48-.02Zm64.27-.31c.41.03.83.01,1.22.08-.66.07-1.28.08-1.91.09l-.44-.05c.89-.03.75-.02,1.14-.11Zm5.1.13c-.65-.09-1.6.05-1.36-.1.36.04,1.54,0,1.36.1Zm53.77,13.56c-.49-.43-.27-.18-.06.05.19.26.37.5-.15.02-.25-.36-.15-.27-.57-.72.12.06.38.16.78.65Zm-1.13-.9c-.1-.15-.21-.27-.36-.38-.18-.11-.08.14-.53-.29-.04-.09.24.11.01-.15.54.48.64.31,1.15.84.05.14.18.38-.27-.02ZM131.36,1.75c.49-.06.95-.05,1.42-.06,0,.06-.68.06-1.15.15-.53-.02.02-.07-.28-.09Zm40.97,15.35c.17.34-.03.16-.02.27-.16-.32-.49-.58-.65-.88.33.27.38.33.67.61ZM134.65,1.71c-.76-.02-.6.09-1.27.06-.14-.04,1.52-.18,1.27-.06Zm37.9,15.73c.2.22.36.45.47.69-.13-.11-.23-.21-.39-.44.1.11,0-.07-.09-.24Zm5.88-1.02c-.27-.54-.67-1.09-1-1.6.42.41,1.11,1.64,1,1.6Zm1.3,2.41c-.38-.75-.76-1.49-1.15-2.27.52.73.86,1.51,1.15,2.27Zm.56,1.09l-.34-.63c-.05-.16-.09-.31-.15-.46.24.36.34.73.49,1.09Zm-16,43.7c-.46.16-.14-.06.27-.32.64-.39,1.64-.83,2.58-1.5.14-.06.4-.2.27-.09-.59.54-2.05,1.3-3.13,1.91Zm-3.82,1.76c-.25.06-.39.08-.28,0,.48-.2.97-.4,1.45-.61.47-.24.93-.47,1.39-.7-.42.24-.84.48-1.25.71-.43.2-.86.4-1.31.6Zm20.46-15.42c.02-.17.39-1.4.62-2-.16.71-.36,1.35-.62,2Zm-24.91,17.07c1.29-.49,2.43-.81,3.01-1.2l.57-.15c-.85.41-1.89.91-3.58,1.35Zm18.69-6.37c-.2.25-.38.49-.61.68-.71.53.38-.55-.6.22.49-.44.91-.99,1.38-1.38-.79.83-.97,1.18-.16.47Zm-30.06,8.05c-.45-.01.08-.1.05-.14.35,0,.73-.08,1.07-.03-.38.07-.73.08-1.12.17Zm5.94.76c-.44.05-.76.22-.99.29-.67.04-.11-.06-.28-.07-.16.03-.31.04-.47.03.79-.09,1.47-.19,1.14-.26.39-.06.64-.04.6.01Zm6.13.44c.36-.05.76-.28,1.12-.31-.3.17-1.38.45-1.12.31Zm-4.53.95c.83-.16,1.65-.41,2.44-.52-.81.18-1.65.48-2.44.52Zm-3.22.41c.44-.08.88-.16,1.29-.16-.45.12-.87.15-1.29.16Zm.21.32c-.41-.01-.57,0-.64.07-.71.02.73-.21.99-.17-.23.05-.29.08-.34.11Zm-26.84,3.11c0-.07.73-.34,1.14-.47,0,.05-.73.39-1.14.47Z"/>
  <path class="cls-1" d="m62.23,70.42c.2-.03-.41-.02-.13-.05-1.81.14-3.48,0-5.25.03,1.44.11,2.92.12,4.39.12.17-.02-.13-.05-.28-.07.42,0,.86-.04,1.27-.02Z"/>
  <path class="cls-1" d="m167.09,53.85c-.4.2-.74.56-1.15.78.41-.21.78-.46,1.15-.78Z"/>
  <path class="cls-1" d="m141.2,60.52c.39-.06.32-.08.49-.13-.25,0-.52.07-.78.12-.03-.02-.07-.04-.28-.04-.4.1.18.05.57.05Z"/>
  <path class="cls-1" d="m163.52,58.96c.6-.26-.93.35-.88.22-.26.13-.11.12-.16.18.65-.18.39-.19,1.04-.4Z"/>
  <path class="cls-1" d="m153.75,60.46c.37-.1.38-.14.02-.11-.01.05-.38.13-.77.19-.33.1.58-.07.75-.08Z"/>
  <path class="cls-1" d="m155.48,60.56c.05.02-.21.1.13.06.41-.12.57-.19.63-.24-.3.03-.62.18-.91.19-.15.05.06.02.15-.01Z"/>
  <path class="cls-1" d="m133.97,60.5c-.53-.04-.4.07-.65.11-.45.07-.04-.05-.6-.03-.87.16-1.69.19-2.5.21-.16.05-.18.08-.35.13.7-.1,2.16-.22,3.27-.24.37-.1.8-.11.82-.17Z"/>
  <path class="cls-1" d="m156.91,60.67c-1.87.43-3.1.63-4.94,1.02.22,0,.66-.09.45-.02.67-.08.41-.08,1.09-.23-.14.11,2.31-.41,1.67-.22.38,0,1.42-.4,1.73-.55Z"/>
  <path class="cls-1" d="m125.94,60.49c-.45-.03-2.26.1-3.26.21,1.09-.07,2.17-.14,3.26-.21Z"/>
  <path class="cls-1" d="m176.05,52.01s.27-.58.44-1.09c-.54,1.04-.5,1.04-.76,1.52-.08.2.17-.25.32-.43Z"/>
  <path class="cls-1" d="m152.93,61.44c-.57.11-1.12.15-1.71.32.54,0,1.14-.21,1.71-.32Z"/>
  <path class="cls-1" d="m127.62,61.28c.44-.06-.05-.05.19-.1-.35,0-.73.06-1.09.09-.3.07.71-.07.91,0Z"/>
  <path class="cls-1" d="m161.51,61.48c-.15.06.06.02.15,0-.32.15-.63.19-.95.35.62-.16,1.25-.29,1.89-.62-.6.17-.82.28-1.09.26Z"/>
  <path class="cls-1" d="m144.25,63.5c-.82.13-.68.04-1.55.11-.39.11-.31.11-.67.19.71-.1,2.01-.22,2.22-.31Z"/>
  <path class="cls-1" d="m110.17,62.25c.26.04-.83.09-.66.15.34.03.74-.1,1.08-.06-.12-.06.74-.16.08-.21-.43.06-.85.11-1.25.12-.34.07.58-.01.76,0Z"/>
  <path class="cls-1" d="m107.41,62.37c-.7,0-1.47.17-2.16.11-.52.1.41.02.12.08.68-.06,1.35-.1,2.03-.19Z"/>
  <path class="cls-1" d="m104.12,62.67c.28,0,.11.05.43.06.9-.1,1.77-.15,2.63-.16-.11-.14-1.64.08-2.27,0-.55.12-1.05.1-1.54.07-.93.09-.93.13-1.75.23.31,0,.61-.02.92-.03.44-.06-.05-.05.19-.1.16-.02.31-.02.47-.05.16.02-.38.09.27.08.41-.03.58-.06.65-.11Z"/>
  <path class="cls-1" d="m145.32,66.24c.16-.04-.06-.02-.15,0-.23,0-.46,0-.29-.04-.26,0-.54.08-.81.13.41-.02.84-.06,1.25-.09Z"/>
  <path class="cls-1" d="m130.3,66.9c.27-.06-1.98,0-2.78.16.22,0,1.23-.13.92-.03.6,0,1.27-.18,1.86-.13Z"/>
  <path class="cls-1" d="m122.48,67.19c-.64.01-.9-.09-1.84.06.14.12,1.7-.1,1.49.06.71-.08-.36-.04.35-.13Z"/>
  <path class="cls-1" d="m92.81,66.61c.35-.09-.58,0-.76-.01-.31.04-.16.08-.49.08-.17.02-.09.03-.01.03l.3.02c-.16-.02.8-.17.48-.08.29,0,.16-.05.48-.04Z"/>
  <path class="cls-1" d="m104.97,68.25c.01-.06-1.32.04-1.84.05.21-.12-1.04-.1-1.48-.11,0,.1.41.17.67.25.17-.18.98-.04,2.02-.11.07-.05.24-.08.64-.08Z"/>
  <path class="cls-1" d="m99.96,68.25c-.19-.06-1.75.07-2.46.08-.49.09,1.08-.04.58.07.29-.04,1.19-.16,1.88-.15Z"/>
  <path class="cls-1" d="m101.41,68.43c.64-.08-.05-.06-.3-.02-.26-.01-.27-.04-.12-.08-.25,0-.52.04-.77.03.28.01.45.11-.49.08-.18.04.24.04.43.06.43-.07.85-.09,1.25-.08Z"/>
  <path class="cls-1" d="m93.5,68.82c.26,0,.52-.03.77-.03.61-.07-.1-.07.51-.15-.51.04-.53.08-1.29.18Z"/>
  <path class="cls-1" d="m86.34,69.93c.08-.07.22-.03.65-.1-.58-.01.38-.1-.42-.1l-.49.07c.28.03.54.07-.34.08-.38.07.48-.02.6.04Z"/>
  <path class="cls-1" d="m75.26,69.16c.4.01.09-.05-.15-.01-.09-.03.07-.07.35-.11-.5,0-1.21.13-.68.15.16-.03.32-.03.47-.03Z"/>
  <path class="cls-1" d="m58.07,67.13c-.2-.02-.25,0-.17.01-.49.04-.89-.11-1.41-.02.48.1,1.03.05,1.54.08.14-.02-.18-.05.03-.07Z"/>
  <path class="cls-1" d="m69.53,70.58c.6.06,1.23.05,1.87,0-.7-.08-1.44-.05-2.14-.11-.38.12-1.44.07-2.24.13.16,0,2.31.07,2.51-.03Z"/>
  <path class="cls-1" d="m67.55,70.49c-.83,0-1.71.08-2.52,0-.23.19-2.46-.03-3.64.04-.02.03.31.06.12.09.69,0,1.41-.08,2.04.03,1.02-.07,2-.02,2.99-.02.18-.03-.24-.06-.44-.08.49-.03.93.03,1.44-.06Z"/>
  <path class="cls-1" d="m69.1,70.86c-.15-.17-3.75-.13-4.52-.06,1.46.02,3.63-.08,4.52.06Z"/>
  <path class="cls-1" d="m57.38,70.62c-.63-.03-1.25-.06-1.88-.08-.02.07,1.34.09,1.88.08Z"/>
  <path class="cls-1" d="m48.87,70.18c-.97-.11-3.34-.32-4.88-.43.61.15,1.34.1,1.53.23.18-.11,1.28.13,1.94.09.57.08-.51.09.41.14-.25-.1.21-.1,1-.04Z"/>
  <path class="cls-1" d="m49.11,70.36c.04-.09-1.36-.1-1.88-.16-.36.04.59.07.75.14.58-.04.44-.06,1.14.02Z"/>
  <path class="cls-1" d="m43.68,69.72c-1.09-.17-2.19-.3-3.3-.41.4.26,2.25.33,3.3.41Z"/>
  <path class="cls-1" d="m26.61,66.43c-.46-.17-.94-.27-1.75-.55.14.07.29.15.43.21.49.07.85.26,1.32.34Z"/>
  <path class="cls-1" d="m17.48,62.54c.34.21.68.38,1.02.53-.76-.45-.9-.45-1.74-1.1-.36-.21.55.43.71.57Z"/>
  <path class="cls-1" d="m10.44,55.55c0-.28-.7-.75-1.03-1.47-.05-.03-.11-.07-.27-.26.33.61.87,1.15,1.29,1.72Z"/>
  <path class="cls-1" d="m2.76,41.56c.12.43.08.09-.03-.16-.04-.29.12.13.18.19-.17-.55-.37-1.16-.44-1.7-.18-.36-.28-.78-.34-1.24-.03-.23-.06-.46-.1-.7l-.05-.36v-.09s-.01.03-.01.03v.07c.03.09-.01-.07-.02-.09-.01-.04-.02-.06-.03-.07-.01-.01,0,.04,0,.09,0,.1.01.2-.1-.18.03.1.05.19.08.28v-.08s-.02-.07,0,.03l.11.76c.08.51.14,1.02.32,1.51.05.32-.03.14.03.5.06,0,.26.76.4,1.21Z"/>
  <path class="cls-1" d="m6.73,14.78c.59-.66,1.16-1.5,1.82-2.08.11-.16-.23.14-.38.29-.46.67-1.02,1.09-1.43,1.8Z"/>
  <path class="cls-1" d="m21.08,4.31s.5-.15,1.01-.33c.51-.17,1.03-.36,1.05-.4-.69.22-1.39.5-2.06.73Z"/>
  <path class="cls-1" d="m37.27,2.28c.25-.05.21-.09.37-.14-.2,0-.41,0-.62,0-.1,0-.21.01-.32.02-.04,0-.07.01-.11.02,0,.07.42,0,.72,0,.27.03-1.01.04-.04.1Z"/>
  <path class="cls-1" d="m97.44,1.54c-.13.09,1.12.03,1.53.08.17-.01.1-.02.01-.03-.1-.01-.19-.02-.29-.04-.44.05-.83,0-1.25,0Z"/>
  <path class="cls-1" d="m149.07,8c.84.09,1.69.16,2.52.29.39-.05,1.47.14,2.23.26.1,0,.02-.03.17-.02-.14-.03-.07-.03.02-.03-1.65-.19-3.26-.42-4.94-.5Z"/>
  <path class="cls-1" d="m181.94,23.01c.3.87.04-.19.34.68-.04-.16-.1-.33-.12-.49l-.13-.34c.21.86-.29-.71-.08.14Z"/>
  <path class="cls-1" d="m183.41,30.44c0,.91.12-.07.18.87.1.33-.02-.74-.11-1,.02.38,0,.47-.07.14Z"/>
</svg>