<?xml version="1.0" encoding="UTF-8"?>
<svg id="Layer_1" data-name="Layer 1" xmlns="http://www.w3.org/2000/svg" viewBox="0 0 258.3 89.29">
  <defs>
    <style>
      .cls-1 {
        fill: #fff;
      }

      .cls-2 {
        fill-rule: evenodd;
      }

      .cls-2, .cls-3 {
        fill: #df5605;
      }

      .cls-4 {
        font-size: 25.37px;
        letter-spacing: .02em;
      }

      .cls-4, .cls-5 {
        font-family: SegoeUI-Bold, 'Segoe UI';
        font-weight: 700;
      }

      .cls-5 {
        font-size: 10px;
        letter-spacing: .02em;
      }

      .cls-6 {
        fill: none;
      }

      .cls-7 {
        font-family: Poppins-Light, Poppins;
        font-size: 20px;
        font-weight: 300;
        letter-spacing: .02em;
      }

      .cls-3 {
        font-family: Poppins-Regular, Poppins;
        font-size: 7.9px;
        letter-spacing: -.04em;
      }
    </style>
  </defs>
  <g>
    <path class="cls-6" d="m94.46,56.38c-1.2,4.21-3.34,8.12-6.23,11.46-2.88,3.34-6.49,6.12-10.5,8.19-8.03,4.2-17.51,5.68-26.69,4.74-9.2-.97-18.22-4.29-25.67-9.69-7.44-5.36-13.37-12.92-15.85-21.47-1.24-4.26-1.62-8.72-.96-13.04.65-4.32,2.27-8.49,4.71-12.13,4.89-7.34,13.05-12.39,21.87-14.65,8.86-2.33,18.45-1.94,27.34.66,8.89,2.59,17.13,7.5,23.25,14.28l6.12-5.52c-7.27-8.04-16.83-13.68-27.05-16.67-10.21-2.99-21.28-3.47-31.73-.73-5.23,1.34-10.28,3.51-14.86,6.51-4.58,2.99-8.68,6.88-11.78,11.52C3.31,24.47,1.23,29.82.4,35.36c-.84,5.55-.35,11.25,1.2,16.55,1.55,5.31,4.11,10.26,7.39,14.58,3.27,4.34,7.18,8.14,11.54,11.27,8.72,6.3,19.04,10.09,29.65,11.21,10.61,1.08,21.67-.58,31.36-5.63,4.83-2.5,9.29-5.9,12.92-10.11,3.64-4.19,6.4-9.22,7.93-14.61l-7.94-2.24Z"/>
    <path class="cls-2" d="m86.67,19.07c-.1-.19-.26-.34-.46-.46.16.15.26.34.46.46Z"/>
    <path class="cls-2" d="m86.11,18.77c-.17-.14-.26-.34-.46-.46.14.16.23.36.46.46Z"/>
    <path class="cls-2" d="m85.08,17.4c-.15-.18-.19-.15-.47-.36.06.11.16.18.23.27.13.07.1,0,.23.09Z"/>
    <path class="cls-2" d="m80.88,12.22l-.2-.22c-.17-.04-.26-.16-.42-.21.16.19.36.33.61.43Z"/>
    <path class="cls-2" d="m85.23,17.92c.12.04-.2-.32-.34-.37-.05.04.11.13.2.29.04,0,.07,0,.14.08Z"/>
    <path class="cls-2" d="m80.05,11.6c-.24-.16-.21-.2-.3-.32-.14-.03-.12.05,0,.2l.3.11Z"/>
    <path class="cls-2" d="m82.23,14.83c.12.01-.28-.32-.47-.35.1.17.36.19.47.35Z"/>
    <path class="cls-2" d="m77.73,9.97c-.09-.06-.29-.15-.18-.13-.1-.11-.29-.12-.43-.18-.06-.11-.26-.26-.51-.43-.08.11-.52-.15-.9-.31.19.11.41.21.56.37.06-.08.15.02.46.14,0,.03,0,.06.09.13.2.07.37.18.51.31.19.07.37.13.4.1Z"/>
    <path class="cls-2" d="m81.51,14.22l-.18-.22s-.12,0-.21-.1c-.13-.03.24.29.4.32Z"/>
    <path class="cls-2" d="m80.44,14.03c-.16-.14-.36-.25-.57-.34.18.14.5.4.57.34Z"/>
    <path class="cls-2" d="m72.38,6.71c-.17-.14-.53-.29-.57-.23.19.08.36.18.57.23Z"/>
    <path class="cls-2" d="m78.67,12.77c-.2-.14-.34-.33-.61-.4.19.15.37.3.61.4Z"/>
    <path class="cls-2" d="m72.7,8.11c-.27-.16-.28-.08-.66-.21.09.05.17.09.25.15.17-.05.45.19.41.06Z"/>
    <path class="cls-2" d="m76.42,11.64c-.11,0,.33.26.4.4.24.05-.24-.27-.4-.4Z"/>
    <path class="cls-2" d="m74.29,10.29c-.22-.11-.41-.24-.67-.31.24.15.5.28.73.46.24.1-.3-.24-.06-.15Z"/>
    <path class="cls-2" d="m67.74,5.26c.14-.06-.4-.18-.55-.24-.13.04.41.16.55.24Z"/>
    <path class="cls-2" d="m67.06,5.39c.13.11.35.08.46.22.15,0,.17-.03.07-.12-.24,0-.5-.18-.54-.1Z"/>
    <path class="cls-2" d="m63.4,3.18c-.25-.11-.5-.21-.8-.23.26.08.52.18.8.23Z"/>
    <path class="cls-2" d="m75.23,11.92c-.08-.12-.24-.15-.33-.26-.25-.09-.13.03.04.18l.29.09Z"/>
    <path class="cls-2" d="m73.81,10.65c-.12-.14-.31-.22-.47-.32-.11,0,.28.31.47.32Z"/>
    <path class="cls-2" d="m73.95,11.15s-.08-.05-.13-.07c-.45-.33-1.02-.52-1.48-.84-.32-.1-.17.04-.36,0,.26.19.26.07.48.19.21.16.02.11.26.23.07-.07.42.14.65.2.11.13.27.18.39.3.3.13-.11-.14.19-.01Z"/>
    <path class="cls-2" d="m63.72,4.16c.14.06-.3-.03-.38-.06-.19.04.28.07.33.15.31.05.15-.04.27-.04-.17-.09-.36-.16-.54-.24-.22,0,.13.13.32.19Z"/>
    <path class="cls-2" d="m77.15,14.84c-.17-.15-.31-.34-.56-.4.18.14.34.31.56.4Z"/>
    <path class="cls-2" d="m77.12,14.96c.13.01-.26-.24-.39-.28.07.16.28.17.39.28Z"/>
    <path class="cls-2" d="m76.41,14.33c-.18-.07-.14,0-.26-.02.09.07.2.12.28.2.11.01.06-.07-.02-.18Z"/>
    <path class="cls-2" d="m62.84,3.94c.07-.09-.56-.18-.76-.29-.25.05.5.23.76.29Z"/>
    <path class="cls-2" d="m77.74,16.55c-.16-.13-.43-.28-.81-.41.27.13.5.31.81.41Z"/>
    <path class="cls-2" d="m60.13,3.15c-.02.05.32.2.56.19.02-.05-.31-.22-.56-.19Z"/>
    <path class="cls-2" d="m73.05,11.83c-.16-.16-.91-.47-.62-.22.24.02.4.15.62.22Z"/>
    <path class="cls-2" d="m69.22,8.81c0-.1-.6-.36-.92-.39.12.07.05.07-.04.06.27.19.68.16.96.33Z"/>
    <path class="cls-2" d="m75.02,14.15c-.18-.2-.42-.35-.69-.45.25.12.41.36.69.45Z"/>
    <path class="cls-2" d="m58.76,2.8c-.11-.03-.22-.06-.13-.06-.49-.03-.92-.2-1.42-.21.7.12.96.35,1.56.28Z"/>
    <path class="cls-2" d="m70.32,10.41c-.1-.13-.31-.12-.48-.17.08.04.16.09.23.15.02-.02.11-.01.24.02Z"/>
    <path class="cls-2" d="m57.05,2.49c.2-.03-.22-.06-.27-.12.11.12-.26-.04-.55-.01.14.12.37,0,.51.11.11,0,.22-.01.31.02Z"/>
    <path class="cls-2" d="m56.18,2.3c-.47-.11-.53-.24-.94-.23.44.12-.16.09.24.2.05-.11.45.03.7.02Z"/>
    <path class="cls-2" d="m69.7,10.93c-.28-.15-.73-.28-.51-.1.27.06.36.11.51.1Z"/>
    <path class="cls-2" d="m53.65,1.95c-.27-.12-.59-.08-.89-.13-.14-.05.05-.07.26-.09-.51-.09-.53.08-1.23-.01.13.08.15.05.42.14.35-.03-.11-.03-.2-.1.55.05,1.07.19,1.64.2Z"/>
    <path class="cls-2" d="m60.17,5.49c-.29-.11-.67-.12-.81-.09.3.08.65.15.81.09Z"/>
    <path class="cls-2" d="m64.09,7.84c-.24-.08-.07-.05-.24-.14-.14,0-.08.06-.12.09.1.05.24.04.36.06Z"/>
    <path class="cls-2" d="m57.88,6.01c-.3-.08-.6-.13-.93-.12.3.02.83.18.93.12Z"/>
    <path class="cls-2" d="m61.32,8.89c-.14-.08-.3-.11-.44-.17-.24-.03.33.16.09.13.1.05.23.03.35.04Z"/>
    <path class="cls-2" d="m64.26,10.75c-.23-.12-.51-.18-.8-.2.26.07.71.25.8.2Z"/>
    <path class="cls-2" d="m50.7,4.52l-.27-.08s-.06.05-.15.03c-.14.05.3.11.42.06Z"/>
    <path class="cls-2" d="m59.58,8.81c-.27-.12-.58-.12-.83-.27-.13.01.01.08.02.13-.2-.01-.46-.13-.48-.06.14.06.33.02.46.12.17-.09.5.09.84.08Z"/>
    <path class="cls-2" d="m49.25,4.83c-.12,0-.23-.05-.35-.04-.24.04-.03.12.18.13.33-.02-.16-.08.17-.09Z"/>
    <path class="cls-2" d="m55.69,8.08c0-.09-.87-.27-.94-.16.32.02.65.04.94.16Z"/>
    <path class="cls-2" d="m56.08,8.76c-.2-.09-.43-.11-.67-.09.23.03.44.09.67.09Z"/>
    <path class="cls-2" d="m52.4,7.35c-.22-.03-.44-.1-.68-.06.22.04.44.09.68.06Z"/>
    <path class="cls-2" d="m49.99,7.01c-.15-.04-.32,0-.47-.04-.08.02.1.06.18.09l.29-.05Z"/>
    <path class="cls-2" d="m48.95,7.01c-.17-.07-.36-.02-.54-.06-.09.03.38.14.54.06Z"/>
    <path class="cls-2" d="m39.09,5.17c-.07.02-.04.03,0,.03-.09.03-.19.01-.28.01-.17.05-.09.14-.36.14-.24.1.38-.04.14.05.22-.05.88-.22.5-.24Z"/>
    <path class="cls-2" d="m38.31,5.42c-.09-.02-.19.01-.28.05-.1,0-.21-.01-.14-.05-.12,0-.24.07-.35.11l.35.03c.14-.09.28-.07.42-.14Z"/>
    <path class="cls-2" d="m36.7,5.37c-.19.02-.37.08-.56.15.19.02.37-.06.56-.15Z"/>
    <path class="cls-2" d="m45.22,6.77c-.29-.01-.28.11-.16.14.34-.01.1-.09.16-.14Z"/>
    <path class="cls-2" d="m45.74,6.96c-.35-.02-.86-.05-1.03.09.35-.05.67.05,1.03-.09Z"/>
    <path class="cls-2" d="m44.74,6.8c-.23.02-.45,0-.69.06.23.01.46-.02.68.01.06-.02-.08-.04,0-.07Z"/>
    <path class="cls-2" d="m43.61,6.57c-.61.08-.74.03-.36.18.29-.07.26-.12.36-.18Z"/>
    <path class="cls-2" d="m34.59,5.86c-.23,0-.47.07-.7.18.23-.05.47-.06.7-.18Z"/>
    <path class="cls-2" d="m31.18,6.64c-.64.28-1.2.43-1.55.68.5-.18.99-.38,1.49-.58.07,0-.06.07-.13.11.48-.08.47-.22.19-.22Z"/>
    <path class="cls-2" d="m39.49,7.15c-.36.01-.13.15-.34.14-.02.12.45-.12.34-.14Z"/>
    <path class="cls-2" d="m39.15,7.26c-.2.01-.41.05-.61.15.2-.01.41-.06.61-.15Z"/>
    <path class="cls-2" d="m28.08,7.88l-.28.04c-.12.08-.05.08-.18.17.15-.08.32-.1.46-.21Z"/>
    <path class="cls-2" d="m34.62,7.73c-.1.07.08.06-.19.17.32-.06.68-.29.19-.17Z"/>
    <path class="cls-2" d="m26.08,12.44c-.32.05-.51.28-.51.36.18-.09.34-.23.51-.36Z"/>
    <path class="cls-2" d="m20.34,15.86c-.26.11-.16.22-.48.36-.14.02.19-.19.23-.27-.23.12-.4.29-.44.43.14-.11.21-.12.24-.1-.19.25-.47.32-.65.58.12-.1.23-.21.38-.24.24-.32.55-.47.74-.55-.03-.06-.3.06-.03-.21Z"/>
    <path class="cls-2" d="m18.38,17.43c-.08.03-.16.07-.23.11-.15.22-.18.2-.24.35.21-.11.4-.48.31-.23.15-.08.15-.21.16-.23Z"/>
    <path class="cls-2" d="m17.59,18.02s-.12.23-.22.38l.17-.09c.04-.06.08-.11.14-.15-.03-.06-.08,0,.1-.2-.11.06-.07-.01-.19.06Z"/>
    <path class="cls-2" d="m16.77,18.66c-.12.21-.3.32-.43.52.23-.17.38-.44.64-.56.05-.14-.1.03-.21.03Z"/>
    <path class="cls-2" d="m16.12,19.55c.11-.17.14-.25-.02-.15-.06.07-.12.13-.17.21.02.02.09,0,.19-.07Z"/>
    <path class="cls-2" d="m15.95,19.65c-.11.07-.08,0-.19.07-.08.11,0,.1-.11.18-.03.07.11-.03.19-.07l.11-.18Z"/>
    <path class="cls-2" d="m15.75,20.04c0-.06-.41.24-.48.43.17-.14.34-.26.48-.43Z"/>
    <path class="cls-2" d="m13.18,22.8c-.04.17-.14.28-.2.44.13-.08.17-.26.3-.34.05-.14.1-.27-.1-.1Z"/>
    <path class="cls-2" d="m12.05,24.5c-.12.12-.22.27-.28.44l.19-.17.09-.27Z"/>
    <path class="cls-2" d="m11.38,25.55c-.16.21-.29.43-.42.66-.07.21.26-.31.19-.1.09-.13.04-.13.05-.21.05-.13.17-.2.18-.36Z"/>
    <path class="cls-2" d="m11.1,26.4c-.1.11-.11.3-.2.41.07.01.16-.14.29-.35.03-.12-.13.11-.08-.07Z"/>
    <path class="cls-2" d="m10.19,27.57c-.09.41-.33.71-.5,1.07-.02.29.31-.37.45-.47-.06-.11-.1-.02.05-.44.18-.21.2-.15.36-.45-.05-.1-.15.01-.36.29Z"/>
    <path class="cls-2" d="m10.34,27.76c-.14.24-.22.52-.37.76.05,0,.35-.48.37-.76Z"/>
    <path class="cls-2" d="m9.83,29.04c-.08.08-.11.19-.17.27-.02.19.15-.1.11.15.06-.11.09-.24.12-.38-.16.22-.13.24-.06-.04Z"/>
    <path class="cls-2" d="m9.14,30.8c-.08.08-.1.19-.15.28.05-.03.04.14.13,0-.05-.05,0-.1.03-.28Z"/>
    <path class="cls-2" d="m9.16,53.05c.07.32.24.63.42.93-.08-.28-.14-.56-.23-.83-.08-.08-.12-.05-.18-.1Z"/>
    <path class="cls-2" d="m12.29,58.83c.01.16.17.27.22.41.1.07-.09-.34-.22-.41Z"/>
    <path class="cls-2" d="m16.19,64.49c-.06.04.32.48.53.62-.16-.22-.36-.41-.53-.62Z"/>
    <path class="cls-2" d="m18.4,66.98c.26.21.68.63.82.66-.23-.22-.66-.64-.82-.66Z"/>
    <path class="cls-2" d="m23.49,71.35c.16.19.4.3.58.47.06-.03-.37-.38-.58-.47Z"/>
    <path class="cls-2" d="m29.23,75.5s.22.03.26,0c-.11-.08-.24-.13-.38-.18.1.09.02.07.12.17Z"/>
    <path class="cls-2" d="m50.61,88.24c.59.1,1.25,0,1.84.1-.27-.15-1.27-.1-1.84-.1Z"/>
    <path class="cls-2" d="m52.54,88.29c.24.08.5.08.77.02-.25-.02-.51-.03-.77-.02Z"/>
    <path class="cls-2" d="m41.23,80.26c.07,0,.08-.04-.03-.1.44.14.55.19,1.07.28-.43-.15-.86-.29-1.31-.39.23.11.13.13.27.21Z"/>
    <path class="cls-2" d="m43.25,81.07s.34-.02.13-.12c-.27-.07-.32.02-.13.12Z"/>
    <path class="cls-2" d="m42.79,80.62c-.08,0,.09.08.16.13.19.02.27,0,.31-.02-.14-.07-.34-.02-.47-.11Z"/>
    <path class="cls-2" d="m59.02,82.05c.25.02.37-.06.49-.1-.13,0-.27.01-.41.05.06.01-.04.03-.08.05Z"/>
    <path class="cls-2" d="m60.07,81.78c.18.02.42-.11.42-.13-.29.02-.42.07-.42.13Z"/>
    <path class="cls-2" d="m61.27,81.8c.58,0,1.17-.12,1.76-.21-.13-.07.24-.09.48-.18-.81.1-1.34.3-2.23.39Z"/>
    <path class="cls-2" d="m63.3,81.52c.24.02.49-.09.74-.14-.25,0-.49.03-.74.14Z"/>
    <path class="cls-2" d="m64.31,81.34c.27-.04.53-.05.8-.13-.05-.05-.54,0-.8.13Z"/>
    <path class="cls-2" d="m65.04,81.34c.33-.05.47-.04.67-.04.18-.1.32-.13.13-.19-.05.12-.54.13-.8.23Z"/>
    <path class="cls-2" d="m65.45,80.31c-.08.09.39-.02.52-.08-.11-.03-.22,0-.33,0-.13.05-.06.08-.2.08Z"/>
    <path class="cls-2" d="m68.54,80.31c-.07.03-.03.03,0,.03h.13c.17-.12.85-.23,1.23-.43-.09,0-.1,0-.07-.04-.3.12-.6.19-.9.33-.33,0,.14-.1.12-.17-.15-.02-.3.18-.45.17-.1.05.3.05-.06.1Z"/>
    <path class="cls-2" d="m66.62,80.05c.41-.08.82-.18,1.23-.34-.41.08-.82.21-1.23.34Z"/>
    <path class="cls-2" d="m70.23,79.81c.21-.07.22.05.52-.05-.12-.03-.07-.09.24-.22-.26.04-.51.16-.77.27Z"/>
    <path class="cls-2" d="m70.66,79.55c.3-.05.6-.21.89-.34-.44.11-.51.19-.89.34Z"/>
    <path class="cls-2" d="m73.52,78.6c.07-.06-.18,0-.08-.06-.42.14-.81.46-1.25.51.04.18.9-.37,1.33-.45Z"/>
    <path class="cls-2" d="m72.06,79.02c.45-.1.87-.37,1.3-.58-.45.1-.87.38-1.3.58Z"/>
    <path class="cls-2" d="m73.02,78.4c-.02.1.45-.17.62-.25-.22.03-.4.21-.62.25Z"/>
    <path class="cls-2" d="m73.28,78.41c.36-.1.72-.18,1.04-.45-.33.22-.7.25-1.04.45Z"/>
    <path class="cls-2" d="m75.1,77.83c-.38.07.03-.18.28-.24.18,0-.12.14-.28.24.18.01.32-.17.5-.16.08-.19.82-.73,1.16-.96-.05-.11-.78.47-.79.55-.07-.08-.46.19-.33.02-.39.29-.8.58-1.38,1,.3-.07.57-.25.84-.45Z"/>
    <path class="cls-2" d="m76.69,76.93c-.05.06.12,0,.2,0,.16-.09.3-.22.46-.29.01-.04-.09-.02.03-.11-.13.05-.24.09-.37.13-.15.12.01.16-.33.26Z"/>
    <path class="cls-2" d="m77.45,76.73c.18-.1.57-.36.26-.27-.21.15-.13.16-.26.27Z"/>
    <path class="cls-2" d="m77.74,76.35c-.08.13.26-.13.37-.12.03-.09-.03-.06.2-.22-.21.05-.38.24-.57.34Z"/>
    <path class="cls-2" d="m88.67,21.52c.04.1-.22-.12-.06.12.11.07.18.17.29.24-.39-.44.43.02-.17-.31-.42-.47-.85-.93-1.22-1.42-.26-.16-.31-.24-.34-.37-.06-.03.03.09-.06.04-.22-.17,0-.1-.18-.31-.11,0-.21-.11-.58-.29.16.2.41.35.63.52.07.21.28.33.44.47.21.42.76.91.87,1.13.28.2-.14-.34-.24-.44.26.17.35.45.62.62Z"/>
    <path class="cls-2" d="m84.68,16.71c-.26-.28-.56-.54-.89-.76.18.19.01.1.15.25.22-.01.45.33.75.51Z"/>
    <path class="cls-2" d="m83.3,15.52c-.17-.13-.26-.16-.12,0-.09-.05-.14-.13-.2-.21-.25-.15-.21-.07-.38-.15-.34-.27-.67-.55-1.07-.77-.29-.45-.85-.65-1.25-.99.12-.08.71.44.85.39-.71-.43-1.02-.81-1.86-1.21-.13-.17-.21-.3-.59-.43-.11-.16.03-.17.32-.02-.07-.1-.21-.13-.3-.21.08.12-.35-.1-.12.12-.37-.35-.89-.53-1.32-.81.63.29,1.04.47,1.17.55-.1-.22-.95-.54-1.37-.75.03-.09-.42-.33-.66-.46-.07-.01.05.08-.05.05-.07-.03-.13-.08-.2-.1,0-.03.12,0,0-.1-.53-.3-1.12-.54-1.66-.83-.03-.03.02-.03-.03-.07.6.28.82.34,1.38.61-.4-.31-.9-.51-1.32-.79-.19-.03.19.12.22.19-.13-.03-.24-.09-.36-.13-.27-.19,0-.15-.31-.31-.14-.04-.09.02-.25-.03.05.05.14.06.21.09.13.11,0,.2.22.19.33.27-.16.07-.4-.07.36.13-.34-.24-.05-.18-.16-.11-.41-.11-.57-.21-.15-.15.34.05.53.14.19.05-.11-.15.09-.11-.21-.16-.51-.22-.71-.38.06-.05.3.09.48.09-.18-.2-.51-.22-.7-.41-.16,0,.28.17.33.28-.2-.1-.4-.19-.59-.31.26.2.07.15-.05.18-.07-.02-.13-.06-.21-.08-.28-.17.21.02-.07-.15-.36-.05-1.88-.84-1.69-.88-.22-.02-.43-.15-.47-.09-.33-.2-.06-.14-.25-.27.33.16.71.25,1.03.42-.16-.15-.95-.5-1.4-.65-.12-.09.14-.01-.08-.14-.32-.08-.66-.14-1.05-.39-.09.06-.37-.06-.23.09-.17-.14-.48-.15-.81-.35.14.18-.6-.16-.63-.08-.48-.22.35.01.01-.16-.25-.01-.46-.08-.66-.17,0-.04.09-.05.13-.08.75.2,1.41.51,1.99.65-.13-.12-.34-.09-.46-.23-1.01-.17-1.77-.75-2.77-.91-.41-.22-1.05-.41-1.63-.59-.59-.16-1.11-.3-1.29-.44-.29-.09-.56-.17-.85-.26-.21.07-.67-.13-1.04-.18-.02-.03.12-.03-.04-.1-.06.08-.58-.03-.52-.1-.84-.09-1.59-.4-2.42-.47.22.09-.2.04-.33.04-.12-.06.33-.02.27-.07-.66-.2-1.38-.23-2.08-.3.06-.12-.77-.24-.95-.18-.13-.08-.29-.06-.42-.13-.42.13-1.89-.26-2.79-.18-.62-.22-1.9.03-2.38-.19.22.03.45.01.68.02-.15-.1-.93,0-1.5-.04-.23-.02-1.07-.13-1.12-.03-.16.04-.29-.05-.44-.07-.54.08-1.06.04-1.6.14-.61-.06-1.95.06-2.92.13-6.32.49-12.64,2.08-18.43,4.97-5.78,2.87-11.06,7.04-14.99,12.38-3.91,5.34-6.38,11.78-6.94,18.4-.56,6.63.75,13.34,3.46,19.29.05.21-.06.05-.15-.05-.65-1.83-1.57-3.64-1.98-5.57-.11-.13-.13-.23-.23-.52.01-.08.05.13.11.22-.04-.3-.26-.6-.23-.91-.1-.23-.08.05-.17-.15-.01-.42-.1-.95-.23-1.52-.11-.57-.24-1.17-.38-1.72-.13-.88-.14-1.76-.34-2.66,0-.1.03-.12.05-.07-.08-.7-.14-1.54-.15-2.32,0-.78,0-1.5-.05-1.96.05-.21.06-.01.09-.3-.02-.09-.05.07-.08.14.21-1.76.12-3.23.59-5.01-.08-.2.19-1.05.27-1.48.18-.71.2-1.25.36-1.54.07-.65.28-1.25.55-1.81.08-.35-.12.15-.04-.2-.01-.09.2-.45.16-.26.04-.45.27-.8.38-1.22.08-.14.07-.06.06.04.13-.56.37-1.05.55-1.59.13.02.03-.03.26-.39-.04-.03.01-.22.1-.41.03,0,.09-.05.17-.16.04-.41.52-1.01.77-1.75.09-.1.11-.09.1-.01.37-.86,1.56-2.66,1.62-2.92.25-.4.61-.7.79-1.19.3-.31.8-.9.87-1.11,1.85-2.29,3.67-4.32,6.03-6.23.1-.11.03-.08.09-.16.21-.11.27-.18.58-.36,1.2-1.13,3.14-2.25,4.67-3.37.14-.05.08.02.23-.04.62-.38,1.22-.81,1.87-1.09-.04-.03-.25-.09.34-.45.2-.03.06.09.45-.08.12,0-.32.31-.47.3-.22.21.5-.13.42-.18.89-.34,1.75-.9,2.66-1.19.17-.21.78-.41,1.21-.48.14-.08.07-.08-.01-.07.81-.29,1.62-.62,2.45-.84.07-.05-.02-.05.06-.11,1.18-.35,2.81-.98,3.74-1.04.07-.03-.04-.03-.08-.03,1.33-.33,2.67-.67,4.01-.83.96-.25,2.55-.43,3.76-.54.29-.07-.06-.07.24-.15.1-.02.2-.04.3-.04-.3.21.93,0,1.34.03.15-.1-.34,0-.44-.03-.13-.06.35-.08.46-.1.48.18,1.51-.04,2.24.04.3-.05-.05-.08.25-.13.1-.02.2.02.3-.01.08.03-.14.06-.24.09.22.04.45.03.68-.04.02-.03-.24-.06.02-.1-.15-.03-.31.04-.45-.02.26-.08.5,0,.77-.09.23.1.5.05.74.07.05.08-.5-.02-.69.05.47.11-.22.04-.39.1.71.1.66-.02,1.35.06.13-.03-.2-.07-.13-.1.08-.02.15,0,.22.02.12-.04.06-.06-.14-.07.4-.09.77-.05,1.17-.14.23.04.36.04.28.1.33,0,.69-.11,1-.04.17.04-.25.06-.33.09.24.06.47-.02.4-.07.24-.04.44.09.68.05.08.04-.19.06.12.11.38-.13,1.54-.05,1.52.08.33.02.64.11.99.04.37.16,1.02.08,1.17.23.46-.14,1.35.29,2.04.23.6.15,1.24.21,1.84.38.19.08-.38-.06-.03.06,1.05.02,1.94.47,2.96.59-.11-.06-.24-.07-.35-.13-.05-.03.12-.02.03-.06.44.11.84.3,1.27.42.09-.02-.11-.06-.19-.1-.1-.09.32.1.47.05,0,.05.07.08.26.14.46-.07,1.13.35,1.77.42.24.12.22.16-.06.12.16.11.38.12.56.21.09,0-.09-.09-.18-.14.23,0,.41.07.61.12.09.06,0,.07-.19.05.54.09,1.01.31,1.51.47.06.06-.2,0,.09.14.37-.07,1.82.58,2.33.71.11.13.68.33.2.22.29.13.34.1.4.06.3.1.28.29.72.39-.11-.11-.28-.12-.4-.2.1.02.13.02.1-.01.69.31,1.33.66,2.09.87-.07.07,0,.09.17.27.24.06,0-.12-.11-.22.45.06.68.41,1.11.48.38.25-.25.02-.05.18.29.07.19-.05.32-.06.3.08.23.19.38.23.05.06-.15-.01-.25-.03.22.14.62.28.52.17.4.33.45.24.72.52.48.17.51.21.93.49.09,0-.12-.17.22-.03l-.27-.25c-.24-.13-.17,0-.4-.22-.15-.05-.1,0-.04.05-.41-.22-1.73-.84-1.39-.86-.11-.1-.3-.1-.45-.15-.19-.16.03-.13.3-.02-.13-.09-.83-.4-.59-.2-.31-.12-.56-.32-.92-.37-.1-.09.33.07.28,0-.2-.17-.98-.38-.7-.42-.15-.11-.28-.06-.18,0-.26-.1-.51-.22-.73-.37-.08,0-.02.05-.12.04-.18-.04-.32-.15-.5-.19,0-.03.05-.04.12-.04-.64-.21-1.25-.43-1.84-.7-.14-.1.22.08.32.05-.18-.12-.44-.14-.61-.29.3.08.59.18.83.36.29-.04.96.39,1.44.51-.89-.44-1.76-.7-2.52-1.03-.2,0,.21.1.25.17-.5-.09-.39-.3-.9-.38.15.06.27.11.41.18-.24.01-.37-.15-.61-.14-.17-.09,0-.06.12-.05-.12-.05-.25-.06-.35-.14-.18.06-1.37-.43-1.95-.62-.09-.11.31.13.45.1-1-.29-1.99-.58-2.97-.88-.06-.05.15-.02.26-.02-.28-.16-.56-.11-.55-.06-.45-.1.04-.09-.38-.24-.42-.07.26.15.02.13-.61-.18-1.27-.2-1.84-.45-.27.06-.52-.05-.93-.1-.26-.09-.06-.08-.25-.16-.5-.02-.97-.12-1.44-.21-.09-.08.41.03.54.04-.29-.12-.87-.18-1.29-.18-.27-.09.09-.06-.18-.15.23-.02.54.08.56.01-.94-.19-1.59-.19-2.46-.22-.41-.11.3-.06-.02-.16-.81-.11-1.63-.14-2.41-.32-.43.07-.69-.05-.91-.08-.16.03.09.07-.18.09-.57-.14-1.99-.03-2.04-.19-.95,0-2.27-.12-2.99,0-.47-.08-.97.04-1.44-.07-.35.11-.67.03-1.02.17-.27-.01-.08-.06-.29-.08-1.79.12-3.58.35-5.35.54-.05.05-.24.12.07.07-1.47.17-2.94.42-4.39.86-.35.13-.7.1-1.05.2-.06.04.1.02,0,.07-.45.07-1.02.2-1.64.47l-.46.03c-1.5.56-3,1.04-4.47,1.61-.04.04,0,.03-.06.08-2.56,1-5.01,2.37-7.37,3.83-.16.17-.65.48-1.22.86-.56.39-1.2.85-1.7,1.19-.52.41-.88.8-1.31,1.03l-.22.26c-.32.08-.75.72-1.23.99-.94.98-2.38,2.26-3.37,3.55l-.26.19c-1.24,1.68-2.6,3.22-3.56,5.1-.58.69-.85,1.63-1.38,2.37-.18.54-.48.96-.65,1.5-.36.66-.65,1.36-.91,2.07-.28.7-.5,1.43-.7,2.17-1.05,3.17-1.51,6.55-1.68,9.88l.06.34c.02.15-.03.14-.05.07.03,1.78.05,3.07.29,4.85l-.04.31c.05.33.14.13.14.65-.02.08-.03-.13-.08-.24,0,.22.06.57.11.56.88,6.49,3.44,12.5,6.95,17.69,3.52,5.2,8,9.63,13.05,13.29l.22.1c.66.53,1.38.99,2.11,1.43.72.46,1.45.9,2.14,1.36.27.14.56.18.55.3.23.09.85.4,1.22.67l.31.1c.51.28,1,.61,1.58.8,2.47,1.38,5.22,2.27,7.79,3.35l.32.04c.41.23,1.2.47,1.46.46.13.07.04.07.18.14.24-.06.46.09.66.19.74.12,1.58.39,2.54.62.12.06.11.09.04.1.22.07.29-.05.69.13.08,0-.02-.04-.05-.07.24.03.43.15.69.12.14.05.06.06-.03.06.27.01.78.07,1.23.17.18.13-.26,0-.49,0,.93.12,1.84.28,2.77.35l.34.15c-.09.06.22,0-.12-.09.44-.02.81.08,1.4.1.08.08.63.13.27.14.25.06.28-.07.75.1.37-.02-.17-.08-.28-.11.56-.02,1.06.13,1.62.1.07.03-.09.04-.17.05.14.04.31,0,.44.08-.12-.11.28-.01.57-.07,1.3.26,2.83-.03,3.96.2.26-.14,1.08-.12,1.56-.15-.03.11-.66.03-.93.09.12.03.25.02.37.05-.44.05-.9.15-1.34.15.06-.17-1.14-.05-1.38-.03.87.13,2.33.12,3.16-.05.07.03-.14.06-.25.08.48-.02,1.46-.02,1.48-.18.29-.04.19.06.37.07.88-.15,1.43-.15,2.4-.35,1.16-.09,2.33-.2,3.5-.54.68-.05,1.75-.32,2.18-.51,1.47-.16,3.87-1.17,5.75-1.46-.5-.07,1.05-.46.91-.61.38-.11.75-.41,1.14-.43,1.47-.72,2.92-1.31,4.4-1.81.17-.14.35-.29.23-.3.22-.13.45-.2.7-.25.19-.18.4-.23.6-.34.06-.13.25-.22.35-.38-.14.03-.26.17-.4.21.42-.29.98-.62,1.58-.93.6-.33,1.22-.66,1.77-.89.07-.18.42-.43.84-.69.33-.37.73-.75,1.16-1.14.42-.41.87-.81,1.33-1.21.14-.05.27-.11.4-.18-.16-.01.46-.49.68-.75.04,0,.07,0,.03.06.82-.7,1.51-1.44,2.05-2.12.38-.41.83-.9,1.24-1.38.4-.49.74-.99.97-1.4.53-.54,1.21-1.81,1.52-2.33.47-.93.93-1.72,1.16-2.48-.15.24-.19.2-.3.3.06-.2.19-.34.25-.54-.21.28-.24.45-.41.59-.08.38-.58.77-.55.95-.07.16-.24.23-.35.35-.24.4-.5.77-.79,1.13.19-.39.32-.53.53-1.09-.96,1.4-2.39,3.23-3.68,4.77-.12.15-.27.27-.43.37,0,.03.05.03.1.02-.16.15-.31.31-.46.48-.33.09-.78.86-1.02,1.2-.2.08.02-.15.14-.34-.14.15-.41.3-.43.25.24-.28.32-.28.43-.52-.15.07-.19.32-.37.34-.19.2-.03.11-.17.27-.07.07-.14.13-.23.18-.03-.05.18-.29.14-.33.05-.05.11-.09.16-.15-.07.19.36-.26.54-.47.12-.07.08,0,.2-.07.44-.47.42-.69.81-1.1.08.01-.28.42-.38.59.19-.17.57-.57.42-.53.52-.44.93-1.06,1.35-1.62-.33.26-.55.68-.83,1.02.07-.32.66-.94,1.01-1.23.31-.49.62-.95,1.02-1.31.89-1.49,1.96-2.77,2.65-4.35-.26.26-.41.62-.69.86-.19.35-.43.67-.72.93-.06.12,0,.08-.03.16-.26.16-.34.5-.57.69-.12.08-.04-.08.05-.25-.27.24-.45.59-.69.87-.2.19.03-.17-.12-.04-.37.39-.45.72-.86,1.21-.19.06.25-.52.36-.75-.07.09-.16.16-.26.22-.03.06.04,0,.08-.01-.15.24-.31.31-.33.47-.11.08-.08,0-.19.09-.28.39-.57.74-.92,1.04-.09.15-.07.19.08.11-.07.14-.16.25-.26.35-.15.05-.23.03-.31.02.39-.41.87-1.11.87-1.34.54-.66,1.06-1.34,1.61-1.97-.23.07.19-.39.41-.65.12-.03-.22.28-.26.41.28-.22.39-.63.58-.95.18-.18-.03.19.18-.1-.05-.15.51-.9.77-1.31.13-.41.41-.78.67-1.29-.07-.11-.28.4-.38.55.21-.43.63-1.51,1.12-2.18.13-.58,1.06-2.28.81-2.57.21-.44.14-.68.34-1.03.06.02-.06.26.03.25.26-1.06.39-2.14.2-2.28-.13.22-.31.62-.35.48-.25.51-.48,1.37-.75,1.42,0,.28-.22.71-.14.81.05-.07.05-.17.07-.26.11-.09.03.05,0,.23-.12.13-.2.28-.25.45-.1.16-.11.07-.08-.12-.07.15-.11.3-.08.33-.28.31-.56,1.2-.78,1.81-.49.55-.62,1.36-.93,2.07l-.1.09c.03-.36.37-1,.44-1.39-.1.08-.13.22-.24.3-.17.55-.41.93-.62,1.33-.21.4-.43.78-.71,1.26-.04.02-.02-.02-.08.02.22-.33.48-.88.51-1.11-.13.11-.17.3-.3.41.1-.02.01.13-.15.3.07-.02.1.01.1.1-.25.29-.69,1.02-.48.98-.05.17-.12-.01-.22.23-.05.01.12-.24,0-.18-.16.21-.22.47-.12.44-.09.16-.16.05-.29.17-.18.31,0,.17-.1.37-.08.16-.18.14-.13.05-.19.19-.08.22-.1.28-.05.06-.25.24-.31.23.05-.17.16-.27.23-.42-.28.26-.3.49-.24.52-.29.36-.57.68-.68,1.02-.26.22-.03-.1-.17-.01.17-.22.32-.43.48-.64-.21.14-.26.08-.13-.16-.14.1-.21.25-.19.28-.08-.04-.21.23-.33.21-.18.34-.39.59-.74.94-.1.03.19-.31.31-.34.04-.06.01-.04-.02-.03l.07-.12c-.21.14-.37.37-.53.58-.13.04-.08-.12-.21-.08-.05.15-.08.13-.22.36-.2.14-.17.05-.3.13-.1.14-.06.14-.09.21-.15.1-.05-.04-.25.09-.27.3-.56.55-.85.81-.17.05.09-.14.18-.32-.17.09-.26.31-.44.38.02.02-.07.14,0,.12-.77.55-1.41,1.33-2.22,1.84-.04.06.07,0,.14-.01-.1.13-.21.26-.33.35-.33-.07-1.01.81-1.51,1.06.03-.31.66-.63,1.03-1.03-.25.12-.48.41-.62.36l-.29.31c-.15.06-.13.02-.2.03.15-.09.26-.26.43-.32-.12-.01.12-.13.11-.22-.31.04-.44.49-.75.53-.21.24-.41.51-.61.73-.25.09-.15-.02-.05-.13-.22.03-.39.2-.58.3.06.02.02.09-.18.26.12-.05.21-.17.35-.17-.18.15-.37.26-.57.33-.15.15-.3.3-.46.44-.13-.04.08-.13-.32.07-.3.1.1-.15-.16-.07-.02.2-.36.32-.69.64-.36.17-.72.33-1.09.45-.22.28-.57.48-.95.76-.29.08.18-.18.09-.19-.55.26-1.06.7-1.28.93.6-.2.7-.49,1.07-.69.12-.02.13,0,.08.06.17-.04.37-.26.22-.21.55-.12,1.41-.93,2.14-1.13-.32.42-1.26.86-1.87,1.12-.3.42-1.2.75-1.99,1.1.2-.19.3-.32.31-.46-.15.14-.32.17-.48.3-.61.04-.75.38-1.34.42-.57.29-.38.21-.94.44.18-.02-.02.07.08.07-.17.08-.35.11-.51.22-.31.03.05-.12.24-.18-.08-.06-.8.27-.76.34-.26.07-.51.22-.78.2-.37.09-.73.36-1.1.4-.25-.03.13-.23.31-.38-.47.13-.65.33-1.3.46-.24-.02-.12-.06-.4.01-.21.11.41-.06.2.05.2-.04.4-.06.59-.15.11.06.05.07.4-.03.07,0-.06.06-.13.1-.17.08-.35,0-.53.06,0,.03-.14.09-.06.1-.22.07-.44.09-.66.14-.1-.02-.04-.06.13-.1.13-.04.06.02.2.01.03-.06.12-.13-.07-.14-.87.47-1.76.65-2.66.92-.1,0-.2-.01-.13-.05-.07.06-.76.29-1.22.35-.06-.08.67-.22.62-.27.19.04.36-.03.07-.03-.75.2-1.45.31-2.04.39-.22-.09.71-.17.69-.29-.26.04-.35.01-.48.11-.89.02-2.49.43-3.43.49-.2-.04.54-.11.16-.14-.13.1-.47.14-.78.18.2,0,.4.03.61,0,.04.02,0,.03.06.05-.42.08-.81-.03-1.24.11-.13-.02-.05-.05-.19-.08-.34.08-.64.02-.97.06-.11-.03-.12-.06-.05-.09-.15-.03-.33.05-.48-.02-.15.02-.09.04-.01.07-1.27-.01-2.12-.04-3.38-.07-.1-.04-.02-.07.16-.09-.2-.03-.42,0-.62-.04-.34.01.13.1-.17.12-.3-.1-.63-.1-.97-.06-.18-.05,0-.07-.25-.13-.13.03.03.08-.1.11-.36-.14-.32-.03-.83-.08-.18-.06,0-.07-.24-.14-.06.02-.07.05.04.09-.44,0-1.35-.23-1.31-.35-.65-.05.49.18.07.22-.23-.04-.15-.07-.44-.17-.33,0-.69-.12-.86-.02-.3-.05-.64-.1-.72-.21-.12,0-.25.02-.37.02.22.14.11-.05.33.08-.22.1-1.19-.21-1.81-.25.12-.04.08-.11.4-.07-.44-.19-.59,0-1.07-.08-.27-.18-.62-.17-.95-.22-.34-.19-.74-.24-1.13-.32-.07-.09.36.07.5.05-.11-.08.22-.05.14-.12-.4,0-.94-.11-1.3-.12-.09-.06-.27-.08-.51-.2-.11-.14.8.22.33-.04.23,0,.39.14.62.14-.17-.13-.77-.17-.7-.27-.24,0-.46-.11-.84-.15.07-.12-.38-.12-.68-.3-.44-.04-.81-.21-1.23-.3-.04.06.27.22.48.25-.08.1-.63-.17-.87-.26-.04-.07.16-.06.26-.03-.02-.07-.21-.13-.19-.21-.09.13-.4-.09-.79-.12.1.14.31.1.43.21-.22-.07-.47-.09-.65-.24-.05-.06.12.03.22.03-.08-.07-.26-.12-.16-.12-.21-.14-.14.06-.33-.12.04.08.14.18-.09.15-.31-.12,0-.06-.2-.19-.19-.04-.14.03-.13.08-.11-.04-.2-.11-.33-.12-.3-.2.27-.05.06-.22-.09.01-.22,0-.2.06-.26-.02-.38-.24-.66-.23-.22-.13-.12-.14-.25-.24-.31-.07-.56-.22-.82-.36-.21.03-.66-.21-.99-.36-.15-.11.36.09.06-.08-.33-.03-.61-.24-1.02-.44-.28-.1.07.12-.13.07-.37-.16-.01-.12-.28-.3-.16-.08-.24-.1-.29-.07-.5-.45-1.27-.58-1.81-.99-.27-.02-.4-.1-.83-.28-.11-.06-.14-.16-.38-.29-.01-.11.38.18.54.21-.33-.27-.64-.37-.93-.48-.27-.2-.12-.15-.26-.32-.25-.12-.35-.25-.51-.24l-.18-.2c.04.14-.59-.24-.75-.49-.26-.02-.39-.17-.66-.39-.27-.11.01.03.07.13-.17-.06-.27-.18-.41-.26-.17-.21-.01-.11.1-.1-.25-.17-.47-.37-.63-.61.07.02.13.06.18.11,0-.07-.52-.43-.74-.59.54.46.37.47.9.91-.62-.27-.53-.51-.94-.78-.04.06.33.43.22.44-.11-.16-.49-.43-.56-.58-.2-.06-.26,0-.44-.05.14-.04-.13-.25-.3-.46-.07-.12.29.12.1-.09-.13-.04-.18-.08-.21,0-.14-.11-.3-.32-.24-.15-.16-.13-.28-.29-.41-.44.03-.04.49.39.46.22-.16-.09-.59-.37-.93-.62-.33-.26-.57-.49-.39-.46-.15-.14-.37-.22-.47-.4-.34-.08-.79-.64-1.27-.89,0-.16-.36-.4-.18-.37-.15-.18-.19-.06-.44-.26-.38-.36-.69-.77-1.14-1.1.04-.1-.3-.41-.37-.4-.06-.2-.26-.31-.35-.49,0,.08.07.16.07.27-.19-.18-.33-.46-.36-.57-.22-.28-.2-.08-.44-.51-.04,0,0,.09-.12,0,.21.21.38.45.53.7l-.98-1.14s.03-.02,0-.08c.18.16.4.52.51.48-.19-.3-.52-.45-.73-.89-.08-.06-.16-.12-.2-.2-.06-.03-.08-.02-.03.09-.24-.2-.36-.47-.59-.67-.12-.21.01-.1-.08-.26-.2-.18.02.16-.2-.12-.12-.23.17.08-.04-.2-.13-.14-.03.05-.12-.02-.22-.48-.56-.95-.9-1.4-.33-.45-.63-.89-.82-1.27-.03-.11.17.13.17.07-.17-.33-.54-.59-.59-.98-.05-.04-.08-.03-.05.09-.13-.09-.15-.23-.27-.33-.06-.16.04-.05.11.03-.06-.19-.21-.35-.29-.53-.06-.05-.01.07,0,.14-.12-.1-.14-.23-.24-.34.02-.03.1.06.05-.09l-.2-.21c-.06-.18.05-.04-.03-.27-.32-.57-.66-1.14-.93-1.72l.03.2c-.07-.16-.22-.31-.25-.48-.04-.17.04-.04.11.04-.12-.37-.5-.99-.61-1.14.02-.12-.02-.27-.17-.5.06.34-.05.05-.15-.1.25.57.28.83.6,1.43.06.06-.01-.06-.02-.13.13.1.07.26.2.36,0,.22.03.22.09.53-.25-.74-.86-1.67-.94-2.24-.03-.04-.03,0-.08-.05-.13-.23.08.04.01-.2-.28-.35-.36-.74-.47-1.13-.13-.09-.21-.36-.28-.63.1.08.24.29.25.1.08.18.17.51.24.5-.09-.24-.08-.25-.06-.39-.11-.09-.15-.26-.22-.3-.1-.21-.1-.43-.25-.63.02-.27-.19-.84-.37-1.28.1-.03.03-.26-.14-.58.02-.05.04-.05.1.06-.08-.43-.27-.86-.34-1.29-.06-.11-.03.17-.1,0-.08-.13.03-.26-.09-.39,0-.12.03-.12.07-.07-.03-.21-.09.02-.12-.32,0-.17.03-.23.08-.13-.1-.33-.11-.93-.24-1.05,0-.18.07-.02.06-.26-.11,0-.07-.34-.07-.33-.08-.46-.22-.61-.17-1.12-.11-.09-.13-.63-.16-.93.03-.02.06.09.08-.06-.12-.21-.03-.52-.16-.87-.08-.11-.08.33-.03.46,0,.12-.09-.31-.09-.41-.09-.13,0,.3-.02.39-.03.07-.06-.12-.09-.21-.01-.11.09-.37-.03-.67.03-.17.06-.32.11-.18.04-.23-.03-.49.05-.72-.04-.07-.1,0-.1-.28.13.16.18.67.29,1.17,0-.22.03-.43.06-.65-.03-.1-.1-.14-.05-.34-.03-.07-.06,0-.08-.08-.04-.3.04-.16.09-.44-.15.03-.14-1.14.04-1.25-.08-.02.02-.28-.05-.48-.08.2,0,.44-.08.65-.06-.02.04-.57.06-.79-.03-.03-.06-.11-.08-.29-.03-.17.06-.14.07.02.04-.22-.07-.26-.11-.1.01.16-.04.3.02.47-.04.06-.07.05-.11.11-.02-.32.1-.6.07-.93.06-.05.15.5.2.06-.1.06-.03-.1-.04-.35.1-.02.01.23.13-.23-.06-.04-.08-.07-.07-.36.14-.08.02-.5.17-.76-.07.8-.1,1.43-.22,2.3.14-.3,0,.61.15.51.04-.1.03-.21.07-.31-.1-.14.02-.68.09-.77-.12.17-.05-.32-.17-.12.03-.17,0-.36.07-.52.07-.12-.08.52.07.09.06.15-.08.25-.02.4.05-.12.06-.04.11-.17-.06-.4.04-.49.13-.57-.13-.04.04-.85.1-1.25-.04-.15-.05,0-.12.16-.02-.46.22-1.14.15-1.39.09-.25.07.06.12-.02-.06.34-.11.69-.2,1.03.02.13.06.15.13.05-.02-.1.02-.18.05-.25-.02-.04-.03-.08-.06-.03.16-.33.26-1.32.24-1.57.12.22.2-.43.35-.55,0-.12.03-.22.07-.32-.06-.15-.09.28-.16.35-.09.08-.04-.3-.05-.67.16-.26.02.31.09.33.15-.29.04-.26.11-.59-.07.09-.09,0-.13,0,.03-.16.14-.27.13-.45-.15.24-.12.57-.3.79-.02.35-.04.69-.14,1.01-.07.1.05-.3.07-.39-.03-.14-.14.31-.07.25-.17-.01-.06-.48.1-1.06.2-.58.47-1.27.58-1.79-.05.08-.1.16-.1.09-.09.12-.05.32-.16.43-.05.01.05-.51.18-.65-.12.09,0-.48.16-.67.05-.07-.08.4-.17.51.13-.04.03.18.09.28.13-.25.13-.16.28-.44-.15.45-.28.69-.35,1.29.16-.23.07.06.24-.31-.05-.02-.18.19-.11-.21.12-.42.34-.8.47-1.23-.09.14-.14.18-.14.07-.09.17-.16.36-.23.54-.04-.03.03-.28.06-.42.07-.11.07-.04.06.04.18-.33-.05-.14.14-.53.05,0,.04.18.11.14.04-.5.52-1.25.63-1.76.07-.06.04.11.18-.11.07-.24.2-.44.25-.7-.11.13-.17.17-.21.17.11-.3.29-.55.39-.86.13-.09.06.31-.17.53.11-.1.04.15.15.04.03-.31.21-.54.41-1.08-.13.09-.12.29-.23.4-.06-.06.17-.35.22-.58.08-.09.07-.01.16-.12-.07-.24.41-.65.53-1.01.2-.08-.2.49-.15.56.05-.05.06-.12.09-.18.18-.23-.03.18.15-.04.08-.23.31-.5.18-.45.06-.24.25-.35.36-.55.07-.01.04.12-.1.26.11.03.42-.76.58-.7l.16-.4c-.12.11-.11.06-.17.1.12-.24.17-.2.28-.27.12-.43.48-.64.96-1.16.16-.38.82-.93,1.18-1.43-.05-.07-.2.19-.34.3,0-.14.46-.61.66-.84.13-.02-.28.31-.17.32.16-.12.29-.23.33-.21.07-.12.23-.43.35-.64.2-.23.22-.09.4-.23.12-.1.41-.54.43-.41.31-.43.72-.74,1.1-1.07.26-.16-.13.25.13.09.26-.3-.14-.01.07-.27.19-.24.29-.14.47-.22.12-.14.28-.21.41-.33-.02.07.05.07.27-.04,0-.03.03-.11.13-.17.1-.14-.16.12-.24.11.11-.16.27-.23.41-.33.09-.13-.23.1-.28.16-.04-.02,0-.1,0-.15.2-.16.23-.11.29-.28.26-.11-.02.1,0,.15.24-.13.17-.19.22-.28.24-.21.51-.35.76-.55.04.03-.11.21-.09.26.25-.15.54-.19.8-.45.26-.06.34-.04.84-.36-.16.06-.35.18-.37.12.15-.15.32-.24.49-.34.1-.1-.11-.01.07-.17-.21.15-.66.33-.67.43-.05-.02-.13-.01,0-.15.19-.13.18,0,.38-.27.26-.13-.11.15.15.02-.09-.07.22-.26.48-.37.11-.15-.11-.03-.25.08.08-.09.18-.14.26-.23.08,0,.43-.18.32-.07.11-.05.46-.37.41-.22.2-.08.23-.31.54-.43.07,0-.08.11-.14.18.29-.16.85-.38.92-.53.08-.06.51-.25.26-.06.51-.28,1.15-.74,1.27-1.02.14-.07.29-.12.42-.21.26-.06-.18.21.17.11-.27.2-.28.15-.49.22-.26.2-.3.28-.07.23.05-.05-.04-.02-.07-.02.17-.13.34-.24.54-.28.15-.02-.19.09-.22.18.18,0,.31-.19.49-.19.06-.21.77-.41,1.22-.52.19-.14.32-.32-.1-.16.12.04-.14.13-.36.2-.07,0,.09-.08.18-.1-.12-.03-.73.32-1.05.42.94-.58,2.48-1.14,3.7-1.64.07,0-.05.07-.12.11.17-.03.34-.08.5-.21.12.07.26-.08.52-.11.19-.03-.4.23-.05.14.21-.19.35-.18.83-.29.18-.14.41-.27.77-.27.21-.14.43-.15.63-.3.72.06,1.93-.47,3.15-.58-.03-.07.26-.2.39-.12.26-.1.19-.12.2-.16.09-.03.18-.05.26-.05-.03.06.05.09-.2.2.38,0,.09-.17.53-.14.1-.14.22-.11.6-.18.14.02-.03.08-.2.15.63-.19,1.6-.29,2.07-.53.32-.08.32-.02.53-.03.18.03-.18.12.06.15.24-.07.2-.11.14-.15.33-.02.24-.07.54-.13.19.07-.24.24-.55.27.14,0,.07.04,0,.03.45.04,1.08.08,1.81-.15.24.03-.32.11-.01.14.24-.11.9-.06,1.34-.09.13-.03.07-.06.21-.09.02.03-.09.06.05.08.25-.01.08-.03.28-.08.05.02-.09.05,0,.07.28.06.58,0,.55-.09.06.02.13.02.2.01.06.02-.07.05-.14.07.63-.03,1.59.1,2.01-.02.59.1.46-.03.8.04.37-.13.58-.09,1.05-.14-.15-.05-.31-.04-.46-.07.22-.05.4.05.61.01.06.03-.08.04-.15.06.43.03.83.12,1.26.15.06.03-.08.04-.15.06.2.01.39.06.61.03.26-.15,1.54.2,2.22.17-.77-.13-1.55-.19-2.32-.32.28-.02.54.04.81.08.12-.07-.35-.05-.46-.09l.43-.06c.12.04.04.06.18.1.57.01.59-.16,1.25-.01.04.06-.46.01-.64.05.01.04.16.09.03.12.14-.02.53-.18,1.05-.03.09.05.02.07-.17.08.26.1.57-.07.97.03.26.08-.22.06.09.15.07,0,.04-.02.01-.03,0-.05.36.04.3-.06.11.03.56.12.48.02.15.04.32.03.46.1,0,.06-.49.04-.4.12.17,0,.41.03.63.03.18.07,0,.07.23.14.41.05.8.14,1.19.21.12.06-.26-.03-.36.02.49.13.68-.04,1.14.19.14.01.31-.04.42.02.17-.01-.2-.05-.24-.12h.22c.37.15.79.16,1.16.33-.02.08-.56-.03-.73-.15-.19,0-.38-.01-.55-.05.22.04.68.27,1.05.23.25.11-.11.08.13.19.3-.05,1.07.17,1.68.33.12.1-.21-.04-.29,0,.28.07.13.09.34.2.37.04.69.19,1.06.24.43.24.47.12,1.22.23-.29-.08-.58-.13-.84-.24-.14-.02-.09.02-.03.06-.18-.03-.35-.08-.51-.16-.14-.07.22.02.27.05-.06-.07-.63-.42-.99-.4-.17-.15-.9-.34-1.35-.41-.13-.09-.04-.1-.32-.1-.63-.28-1.31-.44-2.01-.55.02-.12-.71-.18-.48-.24-.12.01-.34-.03-.62-.06.1.05.22.05.32.11-.15-.01-.26-.02-.41-.04-.04-.04-.03-.06.1-.07-.16-.08-.35-.08-.51-.16-.14,0-.07.03-.16.04-.14-.07-.28-.14-.46-.1-.1-.04-.2-.11-.32-.11-.17-.07.37,0,.03-.1-.3.08-1.45-.13-1.68-.25-.23-.07-.1.04-.29.03-.07,0-.13-.02-.21-.01-.24-.07-.06-.09-.3-.16-.47.07-1.32-.11-1.96-.2-.17.05-.33.02-.5.05.32.09.28-.05.61.03-.18.04-.13.03.04.12-.46.06-.83,0-.94-.1.2-.05.34.1.54.03-.3-.02-.42-.12-.17-.16-.43-.02-.85-.09-1.28-.12.14-.09.08-.05-.25-.11.23-.01.45.03.67.1.13-.03-.16-.08.02-.1-.26.01-.49-.05-.75-.06-.18.04.07.09.24.15-.39,0-.76-.07-1.17.01-.06.04.07.09-.03.14-.41.02,0-.09-.31-.12-.07-.03.12-.01.21-.05-.38-.12-1.29-.06-1.74-.18-.56.13-1.1.07-1.64.09-.18-.08.38-.09.43-.18-.41-.05-.53.13-.61-.03-.13.06-.14.12-.02.17-.48.06-.95.09-1.43.08-.16.14-.62.13-.96.14-.07-.02.07-.05.14-.08.12-.03.23.01.34.03.09-.02.11-.04.07-.06l.14-.04c-.25-.02-.5.09-.74,0,.16-.06.32-.03.48-.06.09-.1-.4-.02-.54-.02.45-.2-.52.04-.88.02.02.05-.06.16-.35.2.19-.11-.17-.07-.19-.16-.07.03-.14.04-.21.04.12.08-.33.12-.42.22-.18.02-.76.01-1.15.17-.24,0-.02-.09,0-.14-.38.02-.74.07-.95.05l-.27.12h.27c.25-.12.5-.05.74-.09-.31.13-.63.06-.94.2,0-.21-.73.06-1.28.08.2-.02.4-.11.61-.11.02-.09-.54.06-.74.1-.06.06-.03.1-.13.17-.36.1-.19-.05-.34-.05-.09.06-.18.06-.27.07,0,.11-.31.19-.67.17.21.06-.1.06-.39.24-.39,0,.47-.2-.01-.17-.1.15-.36.18-.52.31-.34,0,.37-.18.26-.2-.32.08-.4.09-.59.24-.31.02.21-.11.12-.14-.59.05-.75.25-1.31.47-.16,0-.09-.06-.34-.02-.28.16-.57.19-.84.33-.09-.02.04-.11-.02-.14.08-.06.17-.07.25-.13.22-.04,0,.07.01.1.39-.16.5-.24.98-.36-.29.06-.58.08-.86.21-.23.03.36-.12.12-.11.31-.06.62-.17.93-.24.05-.04-.09-.02,0-.07.25-.11.09.04.34-.01.11-.06.22-.1.33-.12,0-.23.65-.14.99-.36.25-.02-.05.12.28.03.19-.12-.08-.12.12-.24-.18,0-.36.1-.54.1-.07.04.07.03.14.03-.22.12-.45.13-.67.17-.05-.05.21-.08.26-.17.27-.08.54-.12.8-.24.25-.02-.05.12.28.04.4-.38,1.91-.5,2.77-.7.05.04-.27.15-.14.17-.81.15-1.63.23-2.44.46-.12.09.31-.01.4-.1.21,0,.49-.06.21.07.23-.06.46-.12.68-.17.06.03-.19.13.14.11.21-.14.28-.13.61-.18.26-.01-.05.09.2.08.47-.08,1.08-.22,1.36-.34,0,.03.15.03.07.08-.19.08-.02-.08-.27.04.41,0,.82-.13,1.22-.13.16-.07.32-.12.48-.18.14.03.14.07.4.09.28-.15-.17-.09-.27-.14.26-.09.5.06.75-.07.32.03-.28.17.12.19.07-.02-.03-.03-.06-.04.53-.13,1.05-.13,1.57-.14.28-.1-.15-.14-.4-.11.26-.05.53-.23.77-.18.12.06-.29.04-.22.1.13.07.28-.06.41,0,.16-.08-.02-.09.36-.15.16.02.15.06-.01.1.37.04.35-.17.7-.12.1.04-.39.12-.09.16.27-.05.19-.09.36-.13.09-.01.19-.02.28,0,0,.05-.38.07-.29.15.35-.02.26.04.6.1.64.04,1.33-.08,1.79-.07-.41.12,1.09.08,1.56.13-.05.09-.64-.02-.91.08.54.09,1.06-.09,1.44.05.07-.02-.06-.05-.12-.07.2-.07.37.01.56-.04.48.19,1.19.07,1.48.22.64-.02,1,.11,1.53.04-.25-.03-.07-.03-.25-.09.78-.04.95.17.96.31.19-.04.07-.13.2-.18.29.06.59.09.87.17.09.06-.37,0-.5.02-.06-.05,1.01.2,1.21.2.16.04.12.13-.02.07-.02.08.27.04.41.05.08-.01-.05-.05-.11-.08.56.08,1.34.44,2.12.48l.3.14c.15,0,.26.08.41.06.51.3,1.16.26,1.67.54.63.07,1.2.29,1.74.55-.38-.05-.42-.02-.72-.05.65.17,1.37.23,1.64.43.04-.14.54-.06.43-.26.3.12.64.26.94.38.04-.15-1.17-.42-1.06-.58.15,0,.24.13.36.18.1-.08.54.16.83.15-.07.04-.13.08.18.23.01-.08.22-.03.53.02.17.13.5.33.56.25.21.12.06.13.34.22.1.1-.05.03-.24,0,.27.11.55.22.84.28.19.13-.29,0-.09.15.13.02.28-.07.49.1.06-.02.24,0,0-.13.38.11.31.1.51.07.16,0,.21.18.36.18.33.06-.13-.12-.2-.19.18.05.32.16.51.2.11.09-.31-.02-.07.12.12-.03.46.16.31.15.44.05,1.06.37,1.54.71.04-.02.21.01.25-.01-.24-.15-.12-.1-.31-.26-.18-.05-.06.04.01.1-.54-.2-1-.51-1.51-.77.48.14.84.44,1.31.58-.22-.12-.44-.23-.64-.37.27.07.48.26.8.26.1.09-.15.03.05.17.12.02.22.08.34.1.15.1,0,.06-.11.04.1.09.26.1.35.2.12-.05.49.19.58.12.3.2-.07.09.15.26.28.07.81.4.82.48.41.14.35.23.73.37.1.12-.2-.08-.28-.07.3.24.69.34.99.58.16.03.2.03.28-.02.19.12.59.31.66.25.24.17-.19-.03.05.15.16.12.39.16.52.31.25.1.13-.02.35.11.15.16-.34-.08-.35-.01-.17-.04-.2-.24-.4-.25,0,.09.48.35.75.46.19.15.02.09.16.22.33.13.98.43,1.02.56.09.08.12.05.09,0,.22.13.44.25.59.44.18.04.28.16.46.2-.28-.12-.41-.41-.73-.49-.11-.17.15-.04-.22-.35.41.13.42.28.5.35.28.08-.19-.19-.13-.25-.15-.03-.27-.11-.34-.22-.19-.05-.3-.16-.35-.12.17.14.35.22.23.24-.15-.07-.22-.22-.39-.26-.06-.11.22.03-.09-.2.04.16-.26-.16-.47-.28-.02-.04.1-.08.23.04-.16-.1-.47-.41-.77-.55-.13-.24-.56-.37-.66-.58-.33-.15-.33-.07-.66-.25-.05-.06.14.01.23.03-.19-.23-.49-.33-.73-.49-.12-.01-.07.03.08.12-.22-.02-.43-.22-.48-.15,0-.02-.02-.13-.2-.18-.08-.12.05-.02.24.03-.29-.22-.67-.32-.92-.58-.22.09-.42-.29-.79-.3.12-.06-.24-.16-.24-.24.24.1.48.19.66.36.29-.03.8.37,1.14.63.05-.03.11-.06.4.03-.68-.18-1.63-1.09-2.4-1.1-.38-.21-.8-.36-1.17-.58-.12,0-.07.04.09.11l-.44-.08c-.13-.04-.25-.11-.36-.19.22.04.38.17.62.17-.16-.12-.36-.2-.53-.32l-.29-.05c-.11-.04-.21-.1-.31-.15-.11-.08.07-.06.26-.02-.46-.22-.34.04-.83-.22-.07,0-.08.03.02.1-.15-.02-.28-.06-.41-.12.33-.03-.65-.46-.97-.64.41.09,1.31.56,1.34.43.39.15.75.34,1.14.49.09-.07-.45-.23-.61-.32.33.08.31.12.57.12.08.19.37.17.42.36.35.08.24-.03.17-.13.26.08.21.17.33.25.17.03.31.11.5.12.21.13.04.09.19.2.33.06.16.07.43.22.32.09.59.27.92.36.23.15-.08.05,0,.13-.32-.12-.84-.45-.87-.31.16.09.37.11.54.18,0,.03,0,.05.08.11.32.07.38.08.57.26.39.13.03-.12.42,0,.07.02.12.06.2.08.2.15-.04.08-.08.11.11.15.33.17.45.31.14.05.1,0,.04-.05.4.15.66.48,1.12.56.62.41,1.17.63,1.61,1.04.26.05.41.22.62.33.13-.02.05-.09.28,0-.23-.23-.25-.21-.38-.39-.19-.01-.06.03-.33-.04-.27-.14-.49-.34-.81-.42-.11-.14.34.05.42.03-.11-.13-.61-.33-.49-.38-.39-.25-.88-.38-1.2-.7.28.09.5.25.78.35-.15-.1-.33-.18-.45-.33-.11.02-.17-.01-.24-.14-.55-.16-.91-.54-1.42-.75-.23-.16.07-.04.19-.02-.13-.13-.33-.17-.48-.28.07.11.04.16.32.37,0,.03-.05.04-.11.04-.15-.07-.28-.16-.43-.24-.05-.06.18.01-.07-.14-.18-.05-.16-.01-.24-.02-.09-.03-.16-.1-.25-.12-.11-.13.16.03.19-.02.22.05.35.22.58.26-1.91-1.02-3.92-1.86-5.91-2.7-.21.08-.83-.22-.91-.35-.17.02,0,.16-.18.17-.4-.1-.3-.22-.71-.29-.06-.04.09-.02.17-.02-.33-.12-.7-.15-1.02-.3.48-.04-.75-.35-1.25-.61-.29-.04,0,.07.09.13-.55-.15-.3-.11-.79-.28-.1,0,.16.1.03.1-.14-.03-.27-.08-.39-.14-.04.03-.12.04-.32.02-.32-.03-.17-.14-.55-.14-.09-.05,0-.07.18-.06-.81-.24-.66-.25-1.7-.43-.04-.04-.03-.07.1-.06-.68-.06-1.29-.26-1.97-.32-.02-.03-.05-.05.02-.06-.25-.05-.53-.04-.81-.02-.21-.07-.2-.1.04-.1-.85-.11-1.64-.38-2.54-.33-.25-.07.08-.07-.17-.14.15-.01.27.06.43.02-.67-.08-1.53-.02-2.34-.19-.13.06.54.1.1.15-.35-.1-.64-.19-.96-.18-.24.1.29.02.48.08-.28.05-.53,0-.79,0,0-.06.09-.11.19-.16-.72,0-1.27.08-2.08,0-.06-.02.1-.04.01-.07-.11-.03-.23-.02-.34-.05-.27.06-.14.07-.45.1-.02-.03-.08-.07-.26-.1-.36.03-.71,0-1.07.01-.16-.04.23-.07.29-.03-.26-.11-.88.04-1.09.15-.36-.03-.03-.09.16-.14-.5.02-1.02.18-1.51.14-.16-.02.23-.11.29-.04-.08-.07-.35-.09-.7-.06.11-.01.43-.06.15-.08.14-.03.28.02.43-.06-.23-.06-.47.03-.71,0,.09.04-.11.14-.37.11-.08.04.12,0,.21.04-.29.05-.57.08-.87.2-.33-.02.16-.1-.13-.13-.21.07-.58.1-.58.18-.6.05-1.29.08-1.69.17,0,.04.07.07-.22.15-.22-.07.18-.17-.41-.12.19-.1.38-.07.57-.1-.02-.09-.66.09-.92.11-.03.03.09.04-.07.1-.23,0-.38.05-.56-.01-.27.08-.09.1-.35.18-.21.05-.41-.08-.77.11-.2,0-.02-.06-.28-.05.16-.08.33-.09.49-.11-1.05.02-2.71.54-3.97.83-.02-.04.1-.12.27-.21-.26.04-.51.16-.76.18-.18.09-.1.11-.06.14-.6.19-1.75.35-2.31.78-.21,0,.22-.14.19-.19-.44.15-.53.19-.88.29-.06.05.02.05-.05.11-.43.19-1.22.25-1.41.5-.16.02-.1-.05-.35.01-.2.1-.38.26-.6.26-.27.29-1.15.43-1.62.8.04-.06-.26.04-.15-.04-.32.19-.63.39-.98.44-.12.11-.24.19-.36.26-.02-.01-.05-.03-.15,0-.04.08-.39.26-.26.13-.18.15-.52.31-.89.46.1.03-.06.12-.29.26-.07.01.05-.08.1-.14-.32.16-.62.37-.94.53.21-.22.33-.17.41-.34-.19.09-.39.18-.57.31-.07,0,.09-.12.16-.19.23-.13.49-.16.69-.38-.27.18-.2-.02-.46.17-.11-.03.13-.17.34-.32.12-.03-.02.1-.02.15.26-.1.31-.23.41-.33.21-.11.42-.25.65-.3-.48.23-.32.29-.68.45-.1.12.42-.19.03.1-.22.19.02-.13-.2.06-.3.26-.03.06.16.03-.08.06-.16.11-.25.15.28-.11,1.09-.62,1.59-.83-.16-.03.24-.15.23-.23-.3.16-.59.33-.88.53-.23-.14.85-.62,1.15-.85.51-.14.07.15.39.1-.01-.12.44-.17.64-.37-.2.11-.78.34-.62.15.4-.06.33-.22.86-.38.28-.07-.05.13.23.06l.31-.24c-.1.02-.21.05-.15,0,.59-.37,1.23-.57,1.85-.87-.22,0-.41.14-.61.19.37-.21,1.03-.54,1.22-.44-.18.05-.36.14-.53.28-.06.1.33-.11.22,0,.42-.18.76-.44,1.08-.39.15-.13.31-.14.47-.18,0-.03.14-.11.06-.11.5-.13,1.37-.5,1.66-.46.29-.1.6-.22.89-.32.02.02-.02.06-.06.11.26-.04.17-.12.34-.18.29-.01.13.08.01.17.32-.05.71-.19.84-.11.09-.09-.19-.09.13-.24-.44.06-.15.19-.69.25-.1-.04,0-.11.27-.21.54-.17,1.08-.14,1.61-.31.21.05-.23.1-.42.2.23-.01.47-.12.7-.19-.02-.02-.04-.04-.14-.04.19-.06.26-.01.28-.09.4-.01.8-.28,1.2-.2.04-.09.64-.22.71-.13.23-.19.91-.29,1.35-.31.14-.04.06-.06.15-.09.37,0,.79-.1.78.01l.51-.18c.48,0-.15.13.13.16.31-.11.62-.13.93-.13.05-.06.35-.16.45-.22.19.05-.36.16-.02.21.02-.17.94-.23,1.37-.19.37-.06.34-.16.73-.16-.02.06-.3.15.13.1.07.05-.14.1-.38.18.04.01.09,0,.14-.01l.14.02c.23-.05.07-.09.31-.15.37-.06.31.08.7.11.27-.08.52.01.79-.04-.27-.09-.56-.05-.85,0,0-.04-.16-.07-.34-.11.31,0,.28-.07.64,0,.33-.05-.17-.06.16-.11.3.07.97.02,1.49.06.1-.04-.41-.06-.57-.04-.08-.13.63-.11.95-.08.2.08-.5,0-.3.07.35.09.3-.06.65-.01-.45.17,1.11-.03,1.55.17.18-.06.73-.07,1.12-.13-.07.14,1.12.08,1.3.06.1.03.2.06.12.08.13-.04.41.05.73,0,.19.15.5.04,1.01.07.09.05-.1.07.18.14.91.04,1.37.16,2.3.25.09.06-.1.07.18.12.06-.13.51.03.69.16-.11-.13.38-.11.76,0,.09.1-.45-.08-.39.02.11.05.23.06.33.11.12-.02-.04-.09.24-.04.07.04-.21.02-.1.07.43.12.59.11.59.04.36.05-.04.1.32.16-.02-.09.3-.05.61,0,.08.12.22.05.46.19.03-.07.38.02.57.09,0,.04-.15-.01-.11.06.16-.09,1.19.31,1.11.12.23.11.55.04.78.16.17.12-.25-.01-.48.01.24.09.51.13.75.22.21-.18,1.11.19,1.38.24-.05.05-.4-.03-.54-.04-.13-.06-.05-.06.03-.06-.28-.13-.23-.02-.58-.1.45.14.57.17.9.41.3.05,0-.08.12-.09.18.12.68.27,1.21.42.52.17,1.08.34,1.36.46.09.02.59.13.4.01.39.05.63.31.71.19.18.12-.07.07-.07.12-.12-.03-.21-.11-.31-.17-.25-.02.11.15-.34.02.34.12.41.11.86.22,0,.03.02.05.1.11.25.03-.12-.09,0-.13.22.05.39.18.63.19-.98-.48-2.01-.85-3.05-1.22-.29-.13.2,0-.09-.14-.26-.09-.2-.02-.38-.03-.25-.14.24-.08.51-.05.58.21,1.16.56,1.95.74.2.07.37.21.58.28-.15-.14-.1-.11.29.07.25.06.04-.06.19-.04.44.31.61.26,1.05.46.17.11-.01.07.21.2.01-.08.25-.03.51.13.17.11-.38-.09-.06.09.11,0,.19.06.26.11.02-.02.11-.01.25.01.55.28.81.43,1.23.71.2-.07.41.23.75.29.1.12-.26-.1-.38-.08.24.11.49.21.7.36.14.05.32.04.43.14-.03-.11.04-.07.42.04-.5-.23-.64-.43-1.08-.57-.2-.18.2.03,0-.13-.3-.08-.34-.05-.29.03-.17-.05-.31-.14-.49-.17.05-.1-.4-.25-.63-.33-.13-.14.32.08.42.03-.24-.13-.27-.11-.43-.13-.07-.06-.22-.22-.6-.38-.02.04-.27-.02-.48-.06-.05-.08.08-.09-.17-.26-.21-.03-.35-.16-.53-.23.09,0-.05-.11,0-.13-.73-.27-1.44-.56-2.14-.88-.47-.05-.8-.32-1.25-.4-.63-.42-1.82-.48-2.22-.84-.17.01-.29-.07-.45-.07-.16-.12-.34-.16-.51-.25.3.04.51.16.67.1-.16.05.15.09.38.19.21-.01-.07-.08-.25-.15.36.03.67.17.99.27.11.07-.34-.05-.43-.1.08.12.84.25,1.17.38-.13-.11-.33-.09-.46-.2.63.21.9.24,1.5.41.18.11-.49-.09-.13.08l.31.04c.57.26,1.3.49,1.74.59-.44-.07.22.16.57.31.06-.02.26,0-.02-.1.54.07.5.28.96.36.16.13.04.13-.02.16.17.1.53.13.54.1.3.08.74.43.88.36.12.06.54.3.41.29.3.06,1.05.36,1.6.73-.36-.14-.32-.14-.66-.19.2.13.4.26.59.4.2.08-.12-.2.12-.04.17-.01-.3-.15-.39-.2,0-.12.82.21,1.08.47.43.22,1,.28,1.35.61l.3.09c.19.15-.05.05-.07.08.24.16.58.2.79.4.09.12-.27-.1-.38-.11.74.36,1.44.72,1.8,1.09.21.12.4.26.66.34-.12-.11-.14-.16,0-.1.19.22.93.57,1.29.93-.17-.06-.34-.12-.46-.24.09.12.72.55,1.03.79.34.13-.21-.14-.24-.27.24.1.4.28.65.37-.03-.05,0-.07.12-.02-.12-.14-.22-.16-.19-.22.08.05.17.11.26.14.21.31.33.34.65.66-.25-.09-.35-.33-.61-.4.09.14.26.21.35.35-.07-.14.5.23.73.4.04.06-.09-.01-.17-.04.09.17.3.24.41.4.12.05-.11-.17-.04-.16.46.26.79.64,1.21.94.07-.06-.3-.22-.42-.39-.02-.04.03-.02-.02-.08.26.26.39.28.73.51.06-.08-.24-.28-.41-.31-.23-.24.33.14-.03-.16.21.11.62.42.4.13ZM58.48,3.08c-.29,0-.54-.1-.8-.17.29,0,.55.07.8.17Zm-22.79-.7c.23-.13.75-.17.38-.2.42-.14.85-.18,1.28-.21-.21.11-.26.07-.46.21-.12,0-.25-.03-.37,0-.1.04.06.04,0,.07-.27.02-.55.17-.82.12Zm52.93,69.24c.14-.21.05-.22.31-.39.03.04-.15.3-.31.39Zm-1.42-1.17c.26-.32.29-.37.46-.7.15-.05.24-.19.32-.34.2-.09.23-.12.38-.14.18-.31-.02-.18-.12-.17.38-.37.46-.22.31.09-.38.25-.59.75-.94,1.03-.21.11.16-.21.04-.18-.12.18-.39.46-.43.41Zm-38.96,11.52c-.27.01-.49-.1-.75-.12.27-.02.52.03.75.12Zm-20.36-7.19c-.06-.11-.47-.34-.33-.34.11.16.57.37.33.34Zm-12.23-10.68c.1.15.26.27.31.44-.14-.08-.42-.48-.31-.44ZM56.9,8.64c.29.04.58.11.84.22-.24-.07-.84-.15-.84-.22Zm-5.38-1.87c.04-.07,1.25.06,1.01.15-.32-.12-.7-.02-1.01-.15Zm22.74,7.43c-.08-.01-.07.03-.23-.04-.08-.08-.19-.12-.26-.21.19.05.38.1.5.24Zm-30.34-9.94c.66-.03.95-.04,1.51-.03-.51.08-1.01.08-1.51.03Zm13.81.99c.21.04.8.16.75.21-.21-.05-.8-.14-.75-.21Zm6.82,1.9s.3-.05.44.08c.1.08-.36-.01-.44-.08Zm16.57,7.03c.11.11.08.03.21.1.09.21.39.23.49.43-.27-.09-.74-.49-.7-.53Zm-8.56-5.64c.18.08.39.12.53.26-.34-.07-.49-.24-.53-.26Zm-9.23-4.12c.05-.05.5.08.71.22-.27-.01-.49-.12-.71-.22Zm-2.08-.57c.26.03.87.22.83.29-.27-.12-.59-.13-.83-.29Zm12.01,8.37c-.4-.23-.85-.39-1.24-.64.44.13,1.1.49,1.24.64ZM55.22,1.48c.06-.07.59,0,.83.1-.31.04-.57-.01-.83-.1Zm8.84,4.34c.23.07.49.1.7.21-.22-.01-.78-.15-.7-.21Zm9.01,6.64c.06.09.49.24.32.26-.15-.1-.56-.27-.32-.26Zm-.46-.18c-.05-.13-.18-.12-.4-.26.12.03-.1-.12,0-.1.3.16.18.17.49.25l.15.14c-.08-.01-.07.03-.24-.03Zm-1.04-.78c.21.1.46.15.62.32-.26-.04-.45-.16-.62-.32Zm-7.48-4.82c-.15-.02-.3-.04-.43-.1.33.04.2-.17.63.02.08.11-.43-.05-.2.08Zm5.5,3.94l.29.06.16.13c-.19-.01-.31-.12-.45-.19Zm3.15,2.7c.02.15.25.13.46.29-.03.11-.9-.43-.46-.29Zm-10.18-7.07c-.42-.19-1.03-.18-1.22-.4-.08.08-.56-.05-.79-.16.68.16.61.01,1.28.11.21.2.26.05.37.2.37.06,1.11.21,1.19.32-.06-.03-.44-.13-.29-.05.24.05.47.13.67.24-.21,0-.38-.1-.54-.2-.24-.02-.62-.16-.68-.08Zm-7.04-3.61c.04-.08.46,0,.68.06-.03.06-.46,0-.68-.06Zm8.45,4.29l-.24-.15c.16,0,.3.03.43.1-.32-.06.14.11-.19.05Zm6.74,5.19c.23.02.33.24.56.26.17.14-.09.09.23.25-.49-.11-.43-.33-.8-.51Zm-3.18-2.45c.22.03.46.04.61.19-.2-.08-.45-.06-.61-.19Zm2.19,1.63c.17.18-.52,0-.78-.18.03-.06.24-.02.39.03-.04.08.23.14.4.14Zm-11.37-6.36c-.02.08.27.09.44.06.18.05.25.08.26.13.53.04.97.25,1.5.29.21.1-.08.13.33.14.22.11.17.24-.2.09.09,0,.16,0,.03-.06-.13.15-.93-.08-1.41-.14l-.32-.16c-.28-.05-.6-.02-.86-.16.17-.07.83.05,1.17.15-.06-.04.05-.02.15,0-.23-.06-.44-.18-.68-.22-.39.02-.77,0-1.1-.14.57.1.45.02.68.02Zm8.7,4.59c-.13-.02.13.12-.06.09-.09-.12-.28-.06-.37-.18.23.03.2-.04.48,0l.17.12-.22-.03ZM47.59.76c-.1-.05.43-.12.55-.05-.18.02-.39.12-.55.05Zm3.35,1.26c.21-.1.97.12.67.08-.22-.04-.46,0-.67-.08Zm16.46,8.33l.29.04c.05.05.17.12.09.11-.12-.08-.18.01-.38-.15Zm-2.27-1.24c.14.02.12-.02-.02-.1l.37.04c.19.08.37.19.55.28-.29-.09-.6-.14-.9-.22Zm2.12,1.22c-.15,0-.13.06-.15.11-.11-.08-.27-.08-.37-.18.58.09-.43-.23-.24-.26.23.14.89.28.86.41l-.11-.08Zm-3.19-1.84c.05.14.44.15.7.29-.24.07-.95-.24-.7-.29Zm-.52-.2c-.24-.09-.03-.12-.23-.14-.14,0,.01.09-.12.09l-.24-.14c.11,0,.27.02.11-.06.18,0,.35.02.49.1-.09,0-.16,0-.03.06.26.04.11-.04.32,0,.28.15-.2.07-.29.11Zm-1.68-.96c.33.01.62.09.87.26-.31-.05-.6-.14-.87-.26Zm4.42,2.64c-.34-.09-.61-.3-.96-.37.31.03.49.1.87.26-.08,0,0,.05.09.11Zm-9.8-5.19h.31c.16.09.35.12.57.09l.19.09c-.38,0-.72-.1-1.07-.17Zm8.43,4.55c.18.1.39.14.56.25-.19,0-.66-.2-.56-.25ZM47.21,1.77c.41-.04.79.04,1.2.01-.16.11-.83.03-1.2-.01Zm18.88,8.48c.02.05-.16.03-.25.03-.18-.06-.35-.11-.52-.19-.05-.07.08-.08.14-.11-.36,0-.65-.13-.96-.22-.22-.2-.48-.28-.9-.46.24-.03.91.28,1.3.44-.1-.07-.09-.09-.02-.1.39.13.49.2.28.19.31.07,1.26.38,1.44.62-.29-.16-.24-.08-.51-.2Zm-3.07-1.88c.14-.05.28-.05.64.11-.45-.14-.2.04-.64-.11Zm2.27,1.38c-.14-.07-.3-.11-.43-.2.21,0,.66.2.43.2Zm-9.81-5.15c-.11-.03-.23-.04-.36-.03l-.33-.13c-.51.01-.61-.07-1.17-.09.15-.01-.08-.08.17-.08.27.1.56.11.86.12-.1-.07-.11-.13.2-.14.21.05.42.09.62.17-.23.03-.43-.05-.67,0,.1.08.66.12.68.19Zm-.18-.11c.26-.02.49.04.7.15-.25,0-.47-.1-.7-.15Zm8.37,4.56c-.28-.12.2-.01-.08-.13.2.02.37.07.53.17-.02.04-.27.02-.44-.03ZM44.06,1.37c.21-.05.42-.1.61-.06-.21.07-.41.06-.61.06Zm19.94,7.92c-.12-.07-.04-.07-.15-.14.18,0,.32.07.45.17l-.29-.03Zm-5.42-2.78c-.11-.05-.18-.1-.17-.13.31.05.62.07.89.21-.26.02-.45-.12-.72-.09Zm4.38,2.3c-.32-.16-.71-.2-1.04-.35.35.11.76.11,1.08.29-.1,0,.04.06-.03.06Zm-1.43-.8h-.3c-.06-.07-.21-.15-.15-.17.13.1.32.07.45.17Zm1.67,1.07c-.11.01.39.21.07.16-.33-.1.03-.07-.27-.21l.37.03c.06.06.46.16.29.18-.16-.03-.3-.12-.45-.16Zm-10.33-4.91c.3.07.29-.05.65.06-.19.04-.75.02-.65-.06Zm6.87,3.31c.25.04.51.09.75.18-.28.01-.51-.11-.75-.18ZM40.81,1.53c.18-.05.36-.11.53-.07,0,.06-.33.12-.53.07Zm17.01,5.18c.24.08.51.1.73.22-.24.01-.77-.17-.73-.22Zm-6.54-2.69c-.34-.02-.67-.08-1-.11.32-.07,1.19,0,1,.11Zm9.15,4.71c.29.01-.02-.03-.1-.1.18-.02.29.11.47.11-.18-.15-.42-.17-.62-.27-.04-.04-.24-.21.12-.09-.16.02.25.09.3.17.31-.02.52.16.81.18.16.13.29.18.62.27.12,0-.12-.09-.03-.1.54.26.18.22-.14.28-.14-.07-.02-.06-.03-.1-.12,0-.2-.09-.32-.1.11.06.17.1.16.13-.26-.01-.41-.12-.37,0-.15-.04-.32-.07-.44-.17.1-.01.28.05.22,0-.22-.06-.43-.13-.65-.21Zm-1.77-1.02c-.02.06-.24-.01-.43-.03-.08-.12-.49-.14-.78-.24.35-.04-.29-.06-.37-.17.31.01.57.14.88.19.56.02.49-.19,1.04-.01-.42-.03-.95.06-.33.26ZM38.24,1.97c-.06-.03.39-.14.08-.13-.41.12-.21.14-.38.22-.12-.02-.25.02-.37,0,.23-.17.53-.25.77-.4.54.04.64.03,1.2,0-.32.1-.77.22-1.29.3Zm11.31,1.95c.13-.06.38-.07.66-.02-.23.02-.45.01-.66.02Zm12.32,5.4c.13,0-.14-.11.05-.09.32.08.25.21-.05.09Zm-4.4-2.08h.59c.08.03.18.03.26.08.04.09-.55.03-.85-.08Zm-8.49-3.37c-.18-.05-.36-.04-.2-.1.14.04.29-.01.43.06l-.23.04Zm4.54,1.75c-.36-.13.31-.09.52-.02-.18.04-.33-.02-.52.02Zm6.44,2.87c-.13-.03-.37-.17-.15-.16.16.08.3.16.15.16Zm-11.44-4.54s.08-.02,0-.03c-.13.02-.25.02-.37,0,.25-.06.5-.05.73,0-.13.02-.26.06-.37.03Zm.14.33c.23.07.49-.04.72.04-.21.05-.78.05-.72-.04Zm13.01,5.74c.15-.04-.25-.1-.2-.04-.16-.08-.07-.1-.01-.13.29.09.24.03.65.19-.11.02-.25.02-.43-.03Zm-28.51-7.11c.19-.11.4-.11.59-.15-.2.11-.39.16-.59.15Zm16,2.31c.18-.04.34-.02.49.04-.18.04-.34.02-.49-.04Zm-6.11-1.41c-.33-.03.09-.15.3-.09-.21.06-.03.07-.3.09Zm4.93,1.28c-.32.07-1,.04-1.05-.06.29.1.62,0,.92,0-.13.05.2,0,.13.07Zm-18.58-1.18c.31-.14.63-.25.95-.28-.3.13-.87.35-.95.28Zm26.54,4.49c.13.05.6.14.5.19-.15,0-.6-.15-.5-.19Zm-5.4-1.63c-.21-.1-.45-.07-.66-.14.27-.05.5.06.78-.04.13.06.27.03.39.11-.33.03-.26.01-.51.07Zm-9.79-2.15c-.27-.02-.38-.06-.06-.15.22-.01.29.07.64,0-.2.11-.38.05-.58.14Zm10.39,3.02c.26-.03.53-.06.77-.01-.26.03-.54.1-.77.01Zm-5.57-1.73c.17-.06.33-.04.48,0-.17.06-.33.04-.48,0Zm1.96.64c.26-.05.52-.08.76-.01-.26.05-.51.02-.76.01Zm-1.74-.31c-.36-.06-.74.05-1.11.04.25-.13.67-.1,1.19-.12.08-.03.04-.06.21-.02-.03.03-.11.07-.29.11Zm-5.87-.79c.36-.11.71-.15,1.06-.18-.36.12-.71.15-1.06.18Zm9.63,2.24c.19-.03.37,0,.55,0-.14.05,0,.11-.18.16-.28-.06-.14-.1-.37-.15Zm1.1,0c.09.09.26.07.51.15-.47-.03-.87.13-1.09-.01.39,0,.38-.08.58-.14Zm-1.13-.15c.12.08.63,0,.52.09-.25-.01-.5,0-.73-.09.14-.02.1-.05-.05-.09.24-.03.46-.03.69,0-.11.03-.54,0-.43.08Zm-4.6-1.03c.18.03.37-.04.55.02-.15.06-.64.04-.55-.02Zm.83-.03c-.21.05.2.07-.09.12-.3-.02-.17-.14.09-.12Zm-1.54-.27c-.19.07-.38.05-.56.1-.18-.06-.36-.03-.55-.03.3-.06.17-.05.43-.13.12.06.2.07.48-.01.12.02.19.05.2.08Zm-11.14-.77c.19-.13.5-.17.49-.25h.14s.09-.04.14-.04c-.12.11-.46.25-.77.28Zm-9.5.95c-.19.06-.34.18-.36.12.16-.16.54-.25.36-.12Zm25.32,1.2c.2,0,.4.03.6.08-.18.08-.66-.06-.6-.08Zm-14.24-1.96c.28-.12.56-.17.85-.19-.28.11-.57.15-.85.19Zm11.62,1.79c.14.02.08-.02.21-.05.29.02.29.12.67.04.04-.06-.4-.05-.18-.12.27,0,.43.03.52.11-.38.09-1.11.13-1.23.02Zm-9.51-1.62c-.3.04-.6.2-.91.17.25-.12.51-.15.77-.25.18,0,.24.02.14.08Zm5.41.77c-.14,0-.27,0-.41-.04.19-.09.61-.03.41.04Zm3.08.86c.1-.03.12-.05.15-.07.13,0,.27.01.4.05-.19.05-.37.05-.54.02Zm-4.45-.75c.21-.03.42-.17.62-.13-.21.08-.42.12-.62.13Zm-1.98-.03c.27-.13.36-.04.48-.17.12,0,.2.03.2.05-.23.1-.46.14-.69.11Zm1.51-.18c-.27-.04-.56.13-.83.06.24-.13.83-.15.83-.06Zm4,.78c.19-.09.36-.02.54.02-.19.06-.36,0-.54-.02Zm-4.49-.53c.19-.09.37-.06.55-.1,0,.08-.35.14-.55.1Zm-.83.26c.36-.13.51-.16.55-.26.25-.03.17.04.27.07-.19.08-.37.09-.55.15.09,0,.28-.04.2.02-.41.11-.6.07-.88.06.07-.04.03-.06.21-.12.27,0,.1.06.2.09Zm-1.02-.02c.46-.14.91-.21,1.37-.26-.07.17-.9.24-1.37.26Zm6.47.82c.34-.04.67-.01,1.01-.02-.34.05-.68.08-1.01.02Zm-1.97-.38s.06-.14.35-.11c0,.02-.18.13-.35.11Zm.43.36c-.37-.01.28-.1.08-.13-.18-.02-.37.1-.54.04.37-.11.73-.1,1.08-.12-.1.08-.46.08-.62.2Zm-5.48-.91c-.44.19-.92.14-.75,0,.21.03.17.06.75,0Zm-.07.24l.34-.14c.07.01.21.01.14.05-.16-.02-.32.16-.48.1Zm2.7.4c-.2-.02-.03-.08.07-.13.09.01.18-.02.27,0l-.34.13Zm1.12.26c-.15-.05-.14-.11.08-.2.31.02.17.16-.08.2Zm-3.48-.53c-.2.11-.54.08-.54.03.33-.15.24-.03.54-.03Zm2.33.68c-.11-.02-.22-.02-.33-.01.33-.08.4-.02.61-.16.1.1.33-.02.6.01-.29.1-.58.05-.88.16Zm-1.87.12c.42.05,1.2-.24,1.4-.14-.39.06-1.45.34-1.4.14Zm.4-.07c.13-.06-.1-.05.13-.13.11,0,.22-.03.33,0-.3.07-.18.11-.47.13Zm-2.33.49c-.16-.03-.31.08-.47.04.18-.07.35-.13.53-.14-.08.05,0,.06-.06.1Zm-6.03.54c.23-.09.88-.4.73-.2-.21,0-.73.28-.73.2Zm-6.99,1.15c-.31.11.01-.18.23-.23-.17.13,0,.08-.23.23Zm7.19-1.13c.14-.1.3-.12.46-.14-.17.09-.13.2-.31.23.05-.07-.12-.05-.15-.09Zm-.17.22c-.34.07-.07-.15.18-.19,0,.04.08.06-.18.19Zm2.77-.06c-.21-.04-.39.15-.59.12.32-.16.64-.25.97-.35l-.38.22Zm-2.75.19l.25-.16.2-.02c-.14.12-.3.13-.45.18Zm-1.23.08c-.31.22-.3.06-.65.19.21-.12.62-.25.65-.19Zm-.85.25l-.27.04c.12-.11.58-.32.51-.21-.18.03-.23.15-.24.17Zm-6.96,1.61c.14-.1.3-.14.45-.2-.87.52-1.69,1.11-2.56,1.6.18-.29.5-.27.7-.51-.17.07-.31.18-.22.04.27-.18.18-.03.47-.16.23-.25.54-.3.77-.56-.17.09-.32.21-.51.25.1-.12.24-.16.34-.3.23-.12,0,.16.28-.06.16-.15-.22.05.02-.15.12-.08.25-.14.39-.19,0,.06-.23.25-.13.25Zm7.86-1.63c-.32.03-.6.23-.91.29.15-.14-.08-.1.29-.28.31-.08.09.06.15.08.19-.1.38-.15.57-.28.24-.05.08.06-.1.19Zm2.43-.11c.21-.12.42-.26.64-.27-.21.09-.42.25-.64.27Zm-5.06.51l.24-.18.2-.04c-.14.12-.28.2-.44.22Zm-1.76,1.31c-.1.07-.2.12-.31.14.42-.32.72-.23.96-.33.09-.08.19-.16.28-.24.51-.12.98-.36,1.46-.61.03-.11.2-.26.34-.34.06.12.23-.14.52-.17-.39.25-.7.44-.89.66-.44.04-1.12.52-1.61.79.04-.07.37-.26.22-.22-.21.16-.44.26-.65.43.09-.03.25-.12.2-.05-.24.06-.75.45-.81.36.31-.11.73-.47.44-.42,0,.14-.82.48-.86.44.23-.11.9-.41.71-.45Zm-.19.29s-.23.22-.4.3c.09-.11-.28.13-.38.13.24-.21.52-.3.79-.43Zm7.01-2.14c-.32.14-.64.24-.96.32.3-.14.85-.38.96-.32Zm-2.73.36c.13-.03.25-.14.39-.12-.08.13-.49.21-.39.12Zm-1.22.44c.14-.11.62-.33.58-.21-.2.05-.38.17-.58.21Zm2.41-.26c-.01-.05.31-.2.51-.21-.16.12-.33.17-.51.21Zm-11.51,3.05c.01-.1.34-.27.24-.32.31-.17-.04.24-.24.32Zm-.63.48c-.04-.07.27-.26.41-.46l.2-.08c-.19.21-.37.44-.61.54Zm8.04-2.52c.15-.08.6-.36.57-.24-.19.07-.37.2-.57.24Zm1.31-.02c.13-.12.27-.2.43-.22-.13.12-.27.2-.43.22Zm-3.87,1.15c-.16.09-.31.18-.48.28.17-.17.15-.23.44-.38-.1.09.18-.03.03.1Zm-1.31.58c-.11.03-.21.08-.31.14l.1-.11s-.07.02-.01-.03c.35-.13.05-.12.2-.24.15-.06.27-.18.44-.2-.26.22-.24.27-.42.44Zm.82-.12c-.09.02-.26.09-.21.02.29-.13.53-.39.84-.45-.29.23-.48.26-.64.43ZM4.92,24.04c-.17.22-.11.01-.03-.23.07-.08.12-.17.18-.26.04.02-.05.3-.15.48Zm10.47-8.34c-.16.19-.35.34-.55.45.13-.2.07-.32.42-.54-.12.2-.2.35.13.08Zm5.3-2.1c.22-.15.3-.12.27-.06.38-.33,1.09-.78,1.37-.77-.54.22-1.07.65-1.38.92.06-.09-.04-.08-.17-.05,0,.08,0,.1-.26.27-.14.06-.06-.03-.09-.04-.08.16-.11.11-.32.27.19-.05-.15.21-.32.27-.03-.05.22-.21.34-.39.4-.26.45-.22.56-.42Zm4.97-1.21c-.33.09-.51.37-.68.47-.28.05.09-.13.19-.29.14,0,.24-.13.35-.22.16-.05.23-.04.15.04Zm-4.73,1.42c-.26.13-.51.29-.76.45.15-.16.31-.29.49-.4-.1.09.47-.29.27-.05Zm2.52-.53s.2-.27.38-.32c-.13.1-.23.27-.38.32Zm.46.12c.11-.14.26-.18.37-.32-.17.05-.3.15-.2.02.18-.09.66-.38.67-.27-.24.17-.46.41-.85.57Zm-4.41,1.19c-.14,0-.46.39-.41.24.15-.13.53-.45.41-.24Zm1.44-.25c.22-.17.45-.31.67-.48,0,.06-.62.54-.67.48Zm2.35-.74c.07-.07.08-.1.09-.13.15-.05.58-.32.55-.22-.23.08-.4.3-.64.35Zm-6.05,2.8c.3-.32.84-.74,1.25-1.1-.1.03-.25.1-.11-.06.14.08.24-.16.59-.33-.18.21-.33.34-.19.38-.44.12-1,.76-1.54,1.12ZM2.85,28.75c.12-.23.13-.53.29-.74-.06.22-.24.82-.29.74Zm8.98-9.37c-.13.07-.22.18-.27.34-.24.15.13-.55.45-.8-.24.37-.22.36-.18.46Zm10.31-5.1c.32-.26.67-.44,1.02-.63l-.16.15c-.31.12-.57.35-.87.48Zm-6.06,2.43c.21-.18.68-.64.76-.59-.23.15-.66.66-.76.59Zm.7-.17c-.31.18-.55.48-.86.68.25-.33.84-.8.99-.86-.1.06-.13.15-.13.18Zm4.93-1.94c.08-.09-.15.03-.09-.04.16-.06.29-.22.46-.26-.11.13-.23.25-.37.3Zm-1.07.67c.15-.19.33-.32.53-.42-.18.14-.33.33-.53.42Zm-3.8,1.51c-.25.33-.35.31-.61.43.08-.11.12-.18.11-.21l.12-.06c-.05.16.11.05.38-.16Zm4.44-1.68c-.3.18-.55.46-.88.59.27-.22.13-.25.37-.44.31-.18.06.15.27-.03.06-.09-.09-.03.11-.23.18-.06.12.04.12.1Zm-1.4.72s.04-.11.17-.25c.18-.03.29-.2.46-.25l-.09.11c-.19.06-.26.21-.54.39Zm-4.76,2.53c.23-.22.77-1,.78-.78-.31.19-.47.59-.78.78Zm-1.58,1.28c.1-.16.21-.32.35-.44.03.04-.18.33-.35.44Zm.07.2c.31-.28.92-1.17,1.02-1-.36.24-.82.93-1.02,1Zm-1.82,1.54c.07-.19.2-.33.33-.46.04.04-.17.33-.33.46Zm.48-.19c-.34.2-.51.59-.77.87.05-.27.59-.81.88-1.17-.1.18.03.07-.11.29Zm-.04.16c-.31.25-.2.44-.51.75.18-.35.08-.19.12-.37.12-.16.46-.61.39-.38Zm-1.41,1.87c.07-.22.19-.39.32-.55.04.05-.14.43-.32.55Zm3.65-2.63c.09-.24.27-.36.42-.52-.14.18-.25.39-.42.52Zm.13-.05c.06-.14.39-.48.38-.37-.14.1-.2.31-.38.37Zm-.78.6c.05-.12-.16.09-.15.03.06-.16.15-.3.29-.37-.12.19.1.09-.14.35Zm.28.23s.13-.29.03-.27c-.08.14-.2.24-.33.32.17-.3.33-.63.6-.82-.28.44.16.36-.3.78Zm-4.84,3.83c0-.16.25-.55.25-.41-.11.12-.12.32-.25.41Zm4.05-3.25c.06-.16.15-.29.28-.38-.06.16-.15.29-.28.38Zm-3.35,2.78c-.17.28-.43.84-.55.87-.07.25-.38.61-.3.72l-.19.2c.03-.2.15-.31.1-.36.22-.32.32-.5.28-.65.17-.24.08,0,.15-.05l.1-.36c.24-.24.11.09.41-.36Zm-1.28,2.11c-.25.29.06-.52.24-.68-.02.09.04.04.03.11-.2.4-.26.2-.27.56Zm-.23.76c-.2.27-.1-.08-.07-.3.07-.09.07-.23.16-.3-.01.29-.13.38-.1.6Zm-1.03,1.36c.05-.21.09-.43.22-.59-.03.23-.1.42-.22.59ZM1.77,48.91c.08.18.24.76.13.69,0-.2-.13-.47-.17-.46,0-.14,0-.22.04-.23Zm4.68-16.26c-.19.35-.05-.74.09-.64-.13.27,0,.29-.09.64Zm-4.37,17.48c.11.42.42,1.2.32,1.36-.1-.55-.15-.22-.26-.45-.02-.29.08-.19.13-.23-.16-.23-.28-.67-.19-.68Zm.65,2.34c-.04-.2-.15-.4-.17-.6.09-.06.33.87.17.6Zm5.04-19.41c.02-.23.07-.45.17-.64,0,.25-.08.44-.17.64Zm-.21,1.2c.08.22-.06.31-.11.52.12-.13.12.21.14.34-.13.29-.06-.44-.2-.15.01.08.05.05.04.23-.02.1-.15.48-.17.35.12-.35.11-1.84.3-1.43.07-.26.15-.88.27-.88.02.18-.15.91-.27,1.02Zm.08.45c0-.35.1-.66.18-.98-.04.34-.08.68-.18.98Zm-2.85,22.52c.1.32.56.96.46,1.06-.14-.33-.54-.93-.46-1.06Zm2.68-21.34c-.04.08-.11.24-.12.16.11-.3.13-.45.07-.6.13-.17.07.19.05.44Zm-.37,1.18c-.08.13,0,.32-.11.44-.01-.2.07-.66.11-.44Zm.43-.4c-.05.15-.1.21-.12.1.03-.08.07-.16.07-.25,0-.07-.01-.14,0-.2l.04.35Zm-1,24.02c-.07-.06-.08-.02-.19-.18-.02-.18-.14-.33-.2-.5.17.21.32.43.39.67Zm.37-21.24c-.03-.05-.06.28-.08.32.02.09.06.02.08.09,0,.35-.08.45-.16.17.02-.35.04-.71.1-1.05.02.26.06.36.05.48Zm.19,22.48l-.09-.29c.2.18.32.58.09.29Zm-.31-20.77c.03.2.03.4-.02.59-.06-.21-.04-.41-.01-.6.01.04.02.07.03,0Zm2.39,23.53c.08.16.2.29.26.46-.09-.08-.07.11-.21-.15.13.11.06-.06-.09-.21,0,.07-.02.08-.1.04-.06-.14-.2-.24-.23-.39.27.29.1-.04.37.25Zm-2.17-21.52c-.04.29.11.92.03.99,0-.2-.06-.4-.08-.6-.03.11,0,.22-.02.33-.05-.19-.1-.47-.16-.48.07-.14.15-.21.23-.24Zm3.06,22.77c-.1-.08-.09.01-.24-.14-.06-.17.08-.18.24.14Zm-3.02-21.39c-.04.32-.12.29-.2.18.02-.09.01-.18,0-.26.08.15.1-.26.2.08Zm3.36,21.97c-.16-.12-.28-.25-.34-.42.15.13.28.26.34.42Zm-3.22-21.11c-.06-.35-.12-.71-.11-1.06.06.38.1.45.13.73-.02-.04-.04-.02-.04.06.03.09.05.18.03.26Zm.02.52c-.04-.08-.05.07-.08.06-.14-.37-.18-.75-.17-1.13.07.21.1.06.16.27,0,.26.07.53.08.79Zm4.5,22.04c-.22-.19-.39-.33-.38-.23-.1-.2-.29-.36-.41-.55.37.29-.08-.2.12-.06.16.31.47.55.66.84Zm-4.23-21.58c0,.14-.05.07-.05.2.03.07.04.02.06.07,0,.28-.06.12-.13-.07,0-.09.02-.17,0-.26-.01.06-.05-.03-.09-.13l.02-.2c.13.35.1.29.2.4Zm-.09.92c.09.22.09.44.14.65-.13-.22-.24-.64-.14-.65Zm.45,1.43c.05.2.14.39.16.58-.13-.17-.12-.34-.17-.52,0,.04,0,.13-.04.07,0-.09.02-.12.04-.13Zm.27,1.5c-.02-.22-.15-.43-.14-.65.1.17.24.68.14.65Zm-.07-.13c0,.07.03.13.07.19.01.17,0,.24-.07.14,0-.11-.06-.22-.07-.33.05.08.03-.06.07,0Zm.43,1.48c-.19-.33-.31-.67-.36-1.02.16.34.22.68.36,1.02Zm.25.16c-.16-.11-.28-.51-.36-.82.17.27.32.53.36.82Zm.35,1.62c0,.07-.04.04-.01.21-.17-.26-.31-.53-.34-.82.14.33.3.61.35.61Zm1.88,3.57c-.12-.13.09.19.06.26-.11-.09-.26-.51-.17-.44.04.14.07.05.11.18Zm19.89,19.35c.14.11.32.17.45.31-.3-.06-.55-.18-.79-.31l-.15-.14c.36.16.3.14.5.14Zm1.97,1.1c-.22-.2-.66-.27-.5-.35.12.11.61.3.5.35Zm25.7,10.46c-.72.15.74,0-.04.21-.25-.06-.17-.07-.52-.07.07-.05.21-.18.55-.14Zm-.8.23c-.1-.02-.19-.05-.3-.04-.11.03.02.16-.33.13-.05-.04.14-.08-.05-.12.41-.01.39-.15.79-.17.08.06.23.12-.11.19Zm-18.57-8.26c.22.03.4.12.6.18-.02.05-.3-.04-.52-.05-.21-.11.03-.06-.08-.14Zm20.5,7.98c.21.05.07.11.12.17-.2-.03-.41.09-.61.02.22-.1.27-.09.48-.19Zm-19.15-7.49c-.31-.13-.28,0-.54-.13-.05-.05.68.06.54.13Zm19.37,7.5c.16-.05.31-.05.45-.02-.09.05-.16.08-.31.08.08-.03-.03-.04-.14-.06Zm.67-5.58c-.24-.04-.51.1-.75.07.22-.1.78-.16.75-.07Zm1.09-.12c-.34.02-.69.09-1.02.06.35-.1.69-.12,1.02-.06Zm.48-.13c-.09.04-.18.07-.28.09l-.2-.04c.17-.08.32-.05.48-.06Zm21.62-4.72c.22-.08.1.07-.06.24-.27.22-.69.52-1.12.85-.07.02-.2.07-.15,0,.28-.25.87-.74,1.33-1.1Zm1.59-1.12c.11-.04.19-.05.16,0-.39.3-.74.65-1.15.9.34-.3.66-.6.99-.91Zm-11.24,2.69c-.03.09-.49.32-.75.37.24-.18.5-.26.75-.37Zm12.87-4.16c-.44.46-.83.85-1,1.14l-.26.11c.34-.28.6-.79,1.27-1.25Zm-8.74,1.72c.09-.08.18-.15.28-.2.33-.08-.14.25.31.11-.21.13-.41.32-.64.35.39-.2.45-.36.06-.26Zm12.63-5.33c.17-.12.04.09.08.11-.13.1-.21.27-.37.33.09-.16.21-.27.29-.44Zm-2.83.91c.16-.11.18-.31.22-.4.23-.18.08.02.15-.01.04-.06.09-.1.16-.13-.23.26-.45.46-.28.44-.12.12-.25.15-.26.1Zm-2.94.42c-.14.05-.22.24-.37.28.06-.14.42-.4.37-.28Zm1.41-1.21c-.22.27-.44.53-.71.71.24-.23.44-.54.71-.71Zm.98-.88c-.11.15-.21.31-.37.38.1-.16.23-.28.37-.38Zm-.29-.19c.15-.08.2-.13.19-.19.24-.17-.13.31-.24.34.05-.09.05-.12.05-.15Zm7.22-9.15c.05.04-.06.37-.14.54-.04-.03.02-.39.14-.54Z"/>
    <path class="cls-2" d="m30.4,10.4c.07-.06-.17.04-.07-.03-.67.39-1.36.58-2.04.92.59-.17,1.16-.43,1.75-.66.06-.04-.07-.02-.14-.02.17-.06.33-.17.5-.21Z"/>
    <path class="cls-2" d="m78.33,10.41c-.18-.16-.45-.23-.67-.36.21.14.4.29.67.36Z"/>
    <path class="cls-2" d="m65.91,5.03c.19.04.17,0,.25,0-.11-.06-.25-.06-.38-.08,0-.03-.02-.05-.11-.11-.21,0,.06.09.23.19Z"/>
    <path class="cls-2" d="m74.53,11.55c.27.13-.39-.23-.31-.29-.13-.03-.09.04-.14.06.24.19.2.03.45.23Z"/>
    <path class="cls-2" d="m70.92,8.59c.18.04.2.02.06-.08-.03.04-.19-.02-.36-.11-.16-.02.24.14.3.2Z"/>
    <path class="cls-2" d="m71.46,9.3s-.12,0,.01.1c.19.05.28.06.32.04-.11-.09-.29-.09-.39-.18-.07-.01.01.04.06.04Z"/>
    <path class="cls-2" d="m62.72,3.53c-.23-.14-.2,0-.32-.02-.22-.02,0-.06-.26-.14-.43-.01-.81-.14-1.18-.28-.08.01-.1.04-.19.06.34.03,1.03.2,1.53.38.2-.03.39.04.42-.01Z"/>
    <path class="cls-2" d="m71.87,9.93c-.81-.34-1.31-.63-2.14-.87.08.07.27.13.17.13.27.15.19.05.49.16-.1.05.97.47.66.4.13.13.65.19.83.18Z"/>
    <path class="cls-2" d="m59.07,2.06c-.2-.12-1.07-.28-1.56-.32.52.1,1.04.19,1.56.32Z"/>
    <path class="cls-2" d="m78.07,16.88s.21.11.41.16c-.33-.28-.36-.22-.54-.31-.08-.02.08.08.13.15Z"/>
    <path class="cls-2" d="m70.18,9.15c-.25-.09-.47-.23-.75-.27.2.17.5.18.75.27Z"/>
    <path class="cls-2" d="m59.66,3.12c.21.02-.01-.06.11-.06-.16-.07-.35-.07-.52-.1-.15.02.34.05.41.16Z"/>
    <path class="cls-2" d="m72.68,12.51c-.07-.02,0,.04.03.07-.15-.02-.25-.12-.41-.13.23.15.46.29.76.36-.21-.16-.32-.16-.37-.29Z"/>
    <path class="cls-2" d="m66.09,8.53c-.37-.08-.28-.13-.65-.26-.19.02-.16.03-.34.03.32.06.87.26.99.23Z"/>
    <path class="cls-2" d="m51.36,1.61c.12.07-.4,0-.33.07.16.06.36-.02.52.06-.05-.08.37-.07.06-.2-.21.01-.42.02-.61-.02-.17.03.28.05.36.08Z"/>
    <path class="cls-2" d="m50.02,1.45c-.34-.07-.72.04-1.05-.09-.26.05.2.05.05.09.33,0,.66.02.99,0Z"/>
    <path class="cls-2" d="m48.42,1.46c.14.03.05.06.21.09.44-.02.86.01,1.28.08-.04-.14-.79-.07-1.09-.21-.27.07-.51.01-.75-.05-.45.02-.46.06-.86.11.16.01.29.02.45.04.22-.03-.02-.06.09-.08.08,0,.15,0,.23-.02.08.03-.19.07.13.1.2,0,.28-.02.32-.07Z"/>
    <path class="cls-2" d="m65.46,11.32c.07,0-.01-.03-.05-.04-.08-.06-.17-.11-.09-.11-.1-.05-.23-.05-.34-.07.16.08.33.13.49.21Z"/>
    <path class="cls-2" d="m59.42,9c.13-.02-.81-.31-1.18-.3.09.04.53.07.38.12.25.1.57.03.79.18Z"/>
    <path class="cls-2" d="m56.13,8.06c-.27-.08-.36-.22-.78-.21.03.14.73.15.61.28.31.02-.14-.09.17-.07Z"/>
    <path class="cls-2" d="m43.06,4.82c.16-.08-.27,0-.35-.02-.14.04-.07.08-.22.07-.08.02-.04.03,0,.03l.14.02c-.08-.02.36-.15.22-.07.14.01.07-.05.22-.03Z"/>
    <path class="cls-2" d="m48.52,7.09c0-.07-.58-.06-.8-.08.1-.1-.45-.18-.65-.21,0,.1.18.19.29.29.08-.17.43.03.88.02.03-.04.11-.06.28-.02Z"/>
    <path class="cls-2" d="m46.32,6.74c-.08-.08-.77-.02-1.09-.04-.22.07.48.01.26.09.13-.02.52-.11.83-.05Z"/>
    <path class="cls-2" d="m46.96,7.02c.28-.04-.02-.06-.13-.04-.11-.03-.12-.06-.05-.09-.11-.02-.23,0-.34-.02.12.03.2.14-.21.05-.08.03.1.06.19.09.19-.04.37-.04.55,0Z"/>
    <path class="cls-2" d="m43.49,7.04c.11,0,.23-.02.34,0,.26-.06-.05-.08.22-.13-.22.01-.23.06-.56.14Z"/>
    <path class="cls-2" d="m40.45,8.08c.03-.07.09-.03.27-.1-.25,0,.15-.1-.2-.1l-.2.08c.13.03.24.07-.14.08-.16.07.21-.02.26.04Z"/>
    <path class="cls-2" d="m35.5,7.73c.18-.02.03-.05-.07,0-.05-.03.02-.07.13-.13-.22.02-.5.22-.26.2.06-.04.13-.06.2-.06Z"/>
    <path class="cls-2" d="m27.47,8.07c-.09.02-.1.05-.06.04-.19.14-.42.08-.6.26.24,0,.45-.16.67-.24.05-.05-.1-.01-.01-.07Z"/>
    <path class="cls-2" d="m33.42,9.62c.26-.01.52-.08.78-.18-.31-.02-.61.09-.92.11-.12.16-.57.23-.89.37.06-.03.97-.19,1.02-.31Z"/>
    <path class="cls-2" d="m32.58,9.75c-.34.09-.68.27-1.02.32-.03.21-1,.31-1.44.56,0,.03.15,0,.08.06.27-.11.53-.29.82-.27.39-.21.79-.31,1.2-.42.06-.05-.12-.02-.2-.03.19-.09.39-.09.57-.23Z"/>
    <path class="cls-2" d="m33.33,9.93c-.11-.15-1.58.28-1.85.49.58-.2,1.45-.52,1.85-.49Z"/>
    <path class="cls-2" d="m28.59,11.4c-.25.08-.5.16-.74.28.02.06.54-.18.74-.28Z"/>
    <path class="cls-2" d="m25.32,12.85c-.4.11-1.27.6-1.82.95.27-.05.48-.29.61-.24,0-.14.47-.26.67-.45.24-.07-.13.2.21.02-.14-.03.02-.13.32-.28Z"/>
    <path class="cls-2" d="m25.49,12.96c-.03-.09-.51.25-.72.33-.1.12.23-.1.32-.07.18-.17.12-.16.4-.26Z"/>
    <path class="cls-2" d="m23.39,13.87c-.43.18-.82.42-1.2.69.26.08.83-.45,1.2-.69Z"/>
    <path class="cls-2" d="m17.56,17.96c-.15.12-.29.26-.53.5l.18-.09c.09-.19.26-.24.36-.41Z"/>
    <path class="cls-2" d="m15.05,20.81l.2-.37c-.24.23-.15.34-.45.58-.06.14.18-.17.25-.2Z"/>
    <path class="cls-2" d="m12.65,23.73c-.18-.02-.16.38-.48.53,0,.03.01.06-.02.16.21-.18.33-.46.5-.69Z"/>
    <path class="cls-2" d="m9.65,29.16c.09-.14-.03-.06-.04.05-.08.09-.05-.09-.08-.13-.09.2-.1.45-.24.61.05.34-.18.61-.29.96-.08.29.12-.11.04.17.1-.37.3-.67.37-1.06.07-.1.07-.02.15-.14-.05-.02.03-.3.09-.47Z"/>
    <path class="cls-2" d="m7.15,39.46c-.11.33.06.72-.04,1.05.03.07.06-.1.09-.18-.11-.31.03-.56-.05-.87Z"/>
    <path class="cls-2" d="m7.64,46.35c-.06,0,.06.83.12.85-.04-.28-.12-.57-.12-.85Z"/>
    <path class="cls-2" d="m8.99,52.81c.08.08.12.05.19.1-.04-.17-.13-.33-.22-.5-.02.14.09.26.14.38.01.12-.19-.39-.1.02Z"/>
    <path class="cls-2" d="m25.41,72.78c-.1.04.39.29.52.43.07.03.05,0,.02-.02l-.09-.1c-.19-.07-.3-.21-.45-.31Z"/>
    <path class="cls-2" d="m45.8,87.67c.42.09.86.14,1.27.24.21-.07.75.09,1.15.13.05,0,.01-.03.09-.04-.07-.02-.03-.03.01-.03-.86-.03-1.67-.24-2.53-.31Z"/>
    <path class="cls-2" d="m63.44,81.36c.36-.09-.08-.08.28-.17-.07,0-.13.02-.2,0l-.14.05c.35,0-.29.11.06.11Z"/>
    <path class="cls-2" d="m66.44,80.98c.38.02-.05-.12.33-.16.12-.09-.3,0-.4.08.15,0,.19.02.07.07Z"/>
  </g>
  <text class="cls-1" transform="translate(16.35 53.02) scale(1.5 1.6)"><tspan class="cls-4" x="0" y="0">Delizia</tspan><tspan class="cls-5" x="83.41" y="0"> </tspan><tspan class="cls-7" x="86.37" y="-.95">Pizzeria</tspan></text>
  <text class="cls-3" transform="translate(22.34 67.36) scale(1.5 1.6)"><tspan x="0" y="0">Four  Bois</tspan></text>
</svg>