<?xml version="1.0" encoding="UTF-8"?>
<svg id="Layer_1" data-name="Layer 1" xmlns="http://www.w3.org/2000/svg" viewBox="0 0 87.37 82.45">
  <defs>
    <style>
      .cls-1 {
        fill: #df5605;
        fill-rule: evenodd;
      }

      .cls-2 {
        fill: none;
      }
    </style>
  </defs>
  <path class="cls-2" d="m15.35,26.1c-2.41,2.25-4.38,4.78-5.99,7.61-1.59,2.83-2.79,5.94-3.33,9.22-.56,3.27-.51,6.63.1,9.87.61,3.24,1.82,6.34,3.41,9.14,1.6,2.79,3.55,5.32,5.77,7.54,1.1,1.12,2.26,2.16,3.48,3.14,1.19.99,2.49,1.82,3.81,2.72,5.31,3.36,11.22,5.39,17.25,6.45,6.05.99,12.3.86,18.37-.49,6.07-1.31,11.91-4.19,16.74-8.29,1.26-.97,2.31-2.18,3.42-3.31.57-.55,1.03-1.21,1.52-1.84.48-.64.98-1.26,1.44-1.91l1.24-2.05.61-1.03c.18-.36.34-.72.51-1.08l1-2.17c.3-.74.53-1.5.79-2.25,2.07-6.05,2.29-12.51,1.3-18.64-.09-.78-.27-1.53-.45-2.29l-.54-2.27-.71-2.21c-.23-.74-.48-1.47-.79-2.18l-.89-2.14c-.31-.71-.69-1.38-1.04-2.08-.67-1.4-1.52-2.7-2.33-4.01-.39-.67-.88-1.27-1.33-1.9-.47-.62-.92-1.25-1.4-1.86l-1.53-1.75-.77-.87-.83-.81-1.66-1.61-1.77-1.48c-1.16-1.02-2.45-1.85-3.69-2.76-5.11-3.4-10.8-5.86-16.77-7.27-1.51-.28-3-.66-4.54-.81-.77-.09-1.53-.2-2.3-.27l-2.32-.11c-.39-.02-.77-.04-1.16-.05l-1.16.03-2.33.08-2.33.26c-.39.05-.78.08-1.16.14l-1.15.23c-.77.16-1.54.3-2.31.48l-2.27.67c-.76.2-1.5.5-2.23.79-.73.31-1.49.55-2.19.92-2.89,1.32-5.56,3.11-7.99,5.13-4.87,4.09-8.51,9.33-11.03,14.96-.31.71-.61,1.42-.88,2.14-.27.68-.52,1.43-.76,2.17-.53,1.47-.88,3-1.25,4.51C.27,35.59-.03,38.71,0,41.82c.08,6.21,1.39,12.3,3.8,17.99l7.58-3.25c-1.98-4.66-3.08-9.79-3.14-14.83-.02-2.52.21-5.03.72-7.49.31-1.21.57-2.44,1.01-3.61.19-.59.38-1.19.63-1.81.23-.6.48-1.18.73-1.76,2.07-4.63,5.04-8.85,8.81-12.01,1.89-1.57,3.93-2.95,6.17-3.96.54-.3,1.13-.47,1.7-.71.57-.23,1.14-.47,1.74-.62l1.78-.53c.6-.14,1.22-.25,1.83-.38l.91-.19c.31-.05.62-.07.93-.11l1.87-.21,1.89-.06.94-.03c.32,0,.63.03.95.04l1.9.09,1.89.23c1.27.11,2.51.44,3.77.67,4.98,1.18,9.78,3.25,14.04,6.09,4.21,2.9,7.97,6.45,10.7,10.71.66,1.08,1.37,2.13,1.91,3.28.28.57.6,1.12.85,1.7l.73,1.75c.26.58.47,1.18.65,1.78l.58,1.8.43,1.84c.15.61.3,1.23.37,1.85,1.76,9.91-1.38,20.41-9.07,26.67-3.74,3.16-8.28,5.47-13.22,6.52-4.92,1.09-10.12,1.22-15.18.39-5.03-.88-9.96-2.6-14.17-5.28-4.23-2.68-7.92-6.35-10.31-10.53-2.41-4.16-3.34-8.94-2.55-13.51.37-2.28,1.22-4.5,2.38-6.57,1.16-2.07,2.7-4.03,4.4-5.61l-5.59-6.06Z"/>
  <path class="cls-1" d="m6.67,54.29c-.01-.23-.08-.46-.19-.69.06.23.06.47.19.69Z"/>
  <path class="cls-1" d="m6.31,53.69c-.08-.23-.06-.47-.18-.7.04.23.03.47.18.7Z"/>
  <path class="cls-1" d="m6.12,51.81c-.02-.25-.08-.26-.19-.62-.01.13.03.26.04.39.07.15.07.07.14.23Z"/>
  <path class="cls-1" d="m6.45,44.75l.05-.3c-.07-.16-.04-.31-.09-.47-.05.25-.04.5.04.77Z"/>
  <path class="cls-1" d="m5.96,52.36c.08.11,0-.41-.08-.55-.07,0,.02.19,0,.39.03.02.06.05.07.16Z"/>
  <path class="cls-1" d="m6.42,43.68c-.02-.3.04-.3.08-.44-.06-.13-.12-.07-.16.13l.09.32Z"/>
  <path class="cls-1" d="m5.46,47.65c.08.1.01-.46-.1-.63-.05.21.13.43.1.63Z"/>
  <path class="cls-1" d="m6.51,40.79c0-.11,0-.33.02-.22.05-.14-.03-.32-.04-.47.07-.11.11-.35.16-.66-.14-.03-.09-.55-.11-.96-.02.23,0,.46-.09.67.09.02.05.15.07.49-.02.02-.05.03-.08.14.03.21.02.42-.04.61.02.21.06.4.1.41Z"/>
  <path class="cls-1" d="m5.38,46.63l.04-.31s-.08-.1-.08-.24c-.06-.13-.05.4.04.55Z"/>
  <path class="cls-1" d="m4.79,45.62c0-.24-.06-.48-.12-.73,0,.25.04.71.12.73Z"/>
  <path class="cls-1" d="m7.61,34.59c.09-.2.15-.58.08-.61-.03.2-.08.39-.08.61Z"/>
  <path class="cls-1" d="m4.66,43.22c-.01-.27.08-.52-.02-.8-.02.26-.05.53.02.8Z"/>
  <path class="cls-1" d="m6.32,35.27c.09-.32.01-.31.05-.72-.02.1-.05.2-.09.29.09.16-.07.51.04.43Z"/>
  <path class="cls-1" d="m4.42,40.43c-.06-.11-.08.46-.15.61.08.26.09-.39.15-.61Z"/>
  <path class="cls-1" d="m4.74,37.65c.03-.27.09-.52.06-.81-.06.31-.1.63-.18.94,0,.29.12-.41.12-.13Z"/>
  <path class="cls-1" d="m8.47,29.8c.06.14.16-.41.23-.56-.04-.13-.16.41-.23.56Z"/>
  <path class="cls-1" d="m8.34,29.1c-.11.13-.08.36-.22.48,0,.15.04.18.12.07,0-.25.18-.51.1-.55Z"/>
  <path class="cls-1" d="m10.91,25.59c.15-.22.31-.44.39-.73-.13.24-.29.46-.39.73Z"/>
  <path class="cls-1" d="m3.63,39.39c.07-.15.04-.32.1-.47-.03-.31-.08-.11-.14.12l.05.35Z"/>
  <path class="cls-1" d="m4.23,37.31c.1-.19.1-.41.14-.62-.04-.12-.2.43-.14.62Z"/>
  <path class="cls-1" d="m3.81,37.68s.02-.11.02-.16c.17-.62.15-1.31.32-1.93.01-.38-.08-.17-.1-.39-.12.35,0,.31-.06.59-.08.29-.09.07-.13.38.09.04,0,.51.03.78-.09.17-.09.37-.15.55-.01.38.09-.18.08.2Z"/>
  <path class="cls-1" d="m9.89,25.75c-.09.13.08-.3.12-.38,0-.2-.11.27-.21.32-.1.31.01.15,0,.28.12-.16.22-.34.32-.51.05-.22-.15.11-.23.29Z"/>
  <path class="cls-1" d="m2.09,43.14c.02-.28.11-.55.02-.85-.01.28-.08.55-.02.85Z"/>
  <path class="cls-1" d="m1.97,43.2c.06.14.04-.43,0-.6-.09.18,0,.4,0,.6Z"/>
  <path class="cls-1" d="m2.1,42.04c-.04-.23-.08-.15-.12-.28-.02.14,0,.29-.02.43.05.12.09.02.14-.14Z"/>
  <path class="cls-1" d="m10.27,24.9c.07.09.31-.52.46-.69,0-.26-.34.45-.46.69Z"/>
  <path class="cls-1" d="m1.1,45.02c0-.26-.07-.66-.18-1.16.06.39.07.76.18,1.16Z"/>
  <path class="cls-1" d="m11.76,22.41s-.29.25-.36.48c.04.04.3-.24.36-.48Z"/>
  <path class="cls-1" d="m2.87,37c.1-.25.16-1.22,0-.79.06.29-.02.52,0,.79Z"/>
  <path class="cls-1" d="m4.99,31.73c.1-.02.29-.75.29-1.11-.07.15-.07.06-.06-.04-.18.33-.09.8-.23,1.15Z"/>
  <path class="cls-1" d="m1.54,40.43c.1-.32.12-.67.09-1.03,0,.35-.13.66-.09,1.03Z"/>
  <path class="cls-1" d="m12.57,21.22c.07-.09.13-.19.11-.1.2-.46.57-.77.79-1.22-.4.59-.77.72-.9,1.33Z"/>
  <path class="cls-1" d="m3.53,33.36c.11-.16.05-.4.08-.6-.03.11-.07.21-.11.31.02.02.03.12.03.29Z"/>
  <path class="cls-1" d="m13.56,19.77c-.06.19.15-.18.22-.2-.16.04.14-.23.26-.49-.17.07-.17.33-.33.41-.04.1-.08.21-.15.28Z"/>
  <path class="cls-1" d="m14.13,19.06c.32-.36.48-.34.67-.7-.33.32,0-.19-.3.1.07.1-.26.37-.37.6Z"/>
  <path class="cls-1" d="m2.9,32.79c.12-.38.21-.95.04-.64-.03.34-.08.46-.04.64Z"/>
  <path class="cls-1" d="m15.78,17.09c.25-.16.41-.44.63-.64.13-.08.03.09-.08.27.38-.36.26-.47.78-.95-.15.04-.14.08-.38.23-.2.28.1-.06.21-.09-.4.38-.82.72-1.16,1.18Z"/>
  <path class="cls-1" d="m9.49,21.78c.21-.27.36-.68.39-.83-.2.29-.39.65-.39.83Z"/>
  <path class="cls-1" d="m6.13,25.78c.13-.28.06-.08.19-.26.03-.16-.04-.1-.06-.15-.07.12-.09.27-.13.41Z"/>
  <path class="cls-1" d="m9.93,19.17c.21-.29.43-.57.59-.93-.17.31-.61.79-.59.93Z"/>
  <path class="cls-1" d="m5.74,22.41c.13-.15.21-.34.32-.51.11-.29-.27.37-.16.08-.08.12-.11.28-.16.42Z"/>
  <path class="cls-1" d="m3.12,25.99c.17-.3.27-.65.34-1.02-.12.33-.38.92-.34,1.02Z"/>
  <path class="cls-1" d="m15.77,13.03l.27-.17s0-.08.1-.14c.08-.15-.31.17-.37.31Z"/>
  <path class="cls-1" d="m6.46,20.3c.23-.29.37-.67.64-.93.06-.16-.09,0-.13-.01.11-.23.36-.51.29-.56-.13.16-.18.39-.34.51,0,.22-.31.58-.46.99Z"/>
  <path class="cls-1" d="m16.75,11.64c.11-.09.23-.14.33-.25.18-.21-.06-.11-.25.05-.27.27.19-.07-.08.2Z"/>
  <path class="cls-1" d="m9.21,15.97c.07.04.81-.85.77-.97-.25.33-.48.69-.77.97Z"/>
  <path class="cls-1" d="m8.35,16.16c.21-.2.36-.46.51-.75-.18.25-.36.47-.51.75Z"/>
  <path class="cls-1" d="m12.22,12.82c.2-.21.43-.39.61-.64-.23.18-.44.38-.61.64Z"/>
  <path class="cls-1" d="m14.55,10.7c.17-.11.31-.28.48-.38.06-.09-.14.04-.24.09l-.24.29Z"/>
  <path class="cls-1" d="m15.54,9.8c.21-.1.36-.3.56-.42.07-.1-.45.23-.56.42Z"/>
  <path class="cls-1" d="m26.98,5.91c.08-.04.04-.04,0-.04.1-.06.21-.06.31-.08.18-.08.08-.17.38-.22.26-.15-.43.11-.17-.02-.24.1-.95.45-.52.36Z"/>
  <path class="cls-1" d="m27.83,5.49c.11,0,.21-.04.32-.09.12-.01.24-.02.16.02.13-.02.26-.1.39-.17l-.4.03c-.16.11-.32.11-.47.21Z"/>
  <path class="cls-1" d="m29.67,5.3c.21-.04.42-.12.63-.21-.21,0-.42.1-.63.21Z"/>
  <path class="cls-1" d="m19.55,7.16c.33-.18.26-.28.11-.22-.38.23-.07.14-.11.22Z"/>
  <path class="cls-1" d="m18.88,7.33c.41-.21.99-.51,1.12-.74-.37.26-.78.39-1.12.74Z"/>
  <path class="cls-1" d="m20.07,6.83c.25-.17.51-.29.74-.49-.26.13-.5.3-.77.42-.06.06.11-.02.02.07Z"/>
  <path class="cls-1" d="m21.43,6.35c.68-.37.86-.4.35-.35-.32.21-.26.24-.35.35Z"/>
  <path class="cls-1" d="m32.06,4.72c.27,0,.53-.05.8-.15-.27.04-.53.04-.8.15Z"/>
  <path class="cls-1" d="m36,4.33c.77-.2,1.43-.12,1.89-.26-.6.01-1.2.03-1.8.17-.08-.01.09-.05.17-.09-.55,0-.58.14-.27.18Z"/>
  <path class="cls-1" d="m26.19,4.05c.44-.12.13-.19.4-.24,0-.12-.54.26-.4.24Z"/>
  <path class="cls-1" d="m26.59,3.84c.24-.08.5-.15.74-.29-.25.05-.51.14-.74.29Z"/>
  <path class="cls-1" d="m39.76,4.04c.1.02.21.04.31.07.16-.02.09-.05.27-.07-.19,0-.37-.05-.57,0Z"/>
  <path class="cls-1" d="m32.22,2.84c.13-.06-.09-.06.26-.17-.4.06-.88.28-.26.17Z"/>
  <path class="cls-1" d="m44.48,1c.39.15.76.08.82.02-.26-.03-.54-.02-.82-.02Z"/>
  <path class="cls-1" d="m53.08,2.87c.33.17.36,0,.76.21.14.11-.34-.07-.46-.06.32.12.62.2.79.17-.21-.08-.29-.13-.29-.18.4.05.69.29,1.09.34-.19-.07-.39-.12-.55-.25-.51-.1-.92-.27-1.16-.38-.04.05.32.22-.18.14Z"/>
  <path class="cls-1" d="m56.22,3.93l.29.18c.35.06.34.09.55.1-.26-.17-.8-.2-.47-.21-.19-.11-.33-.06-.37-.06Z"/>
  <path class="cls-1" d="m57.39,4.48s.32.04.56.1l-.21-.15c-.09-.02-.18-.05-.25-.09-.04.05.06.07-.29-.03.13.09.04.08.19.18Z"/>
  <path class="cls-1" d="m58.62,5.1c.31.06.54.23.84.3-.32-.18-.71-.27-1-.5-.19,0,.1.09.16.2Z"/>
  <path class="cls-1" d="m59.99,5.52c-.26-.07-.36-.08-.16.06.11.04.22.08.34.12.01-.03-.06-.09-.18-.18Z"/>
  <path class="cls-1" d="m60.2,5.67c.13.1.03.08.18.19.17.06.12-.02.26.08.1.02-.09-.11-.17-.19l-.26-.08Z"/>
  <path class="cls-1" d="m60.75,5.81c-.07,0,.47.4.72.46-.23-.16-.46-.34-.72-.46Z"/>
  <path class="cls-1" d="m65.01,8.43c.22.06.38.18.58.26-.12-.15-.36-.21-.48-.36-.18-.06-.36-.12-.1.1Z"/>
  <path class="cls-1" d="m67.29,9.9c.16.16.34.3.56.41l-.23-.25-.33-.16Z"/>
  <path class="cls-1" d="m68.61,10.88c.27.22.54.42.8.66.25.16-.35-.4-.1-.24-.15-.15-.15-.1-.24-.13-.16-.09-.25-.23-.45-.29Z"/>
  <path class="cls-1" d="m69.65,11.46c.13.15.35.23.48.39.02-.07-.15-.23-.4-.45-.15-.08.12.19-.08.06Z"/>
  <path class="cls-1" d="m70.97,12.92c.48.28.8.67,1.16,1.05.33.18-.35-.53-.46-.71-.14,0-.05.1-.51-.26-.23-.29-.14-.29-.5-.58-.14.01,0,.16.31.51Z"/>
  <path class="cls-1" d="m71.22,12.84c.26.26.6.46.84.76.03-.06-.5-.62-.84-.76Z"/>
  <path class="cls-1" d="m72.64,14.04c.08.12.19.21.27.34.22.14-.07-.21.2-.02-.11-.13-.25-.24-.4-.35.22.29.25.27-.06.04Z"/>
  <path class="cls-1" d="m74.46,15.82c.06.13.16.24.24.36-.01-.07.17.07.05-.13-.07.01-.1-.08-.29-.23Z"/>
  <path class="cls-1" d="m85.83,43.1c-.03.42.03.87.11,1.32.01-.37.04-.74.03-1.12-.05-.14-.1-.12-.15-.2Z"/>
  <path class="cls-1" d="m85.67,51.68c-.1.17-.04.41-.12.6.03.15.17-.41.12-.6Z"/>
  <path class="cls-1" d="m82.92,60.24c-.06-.04-.38.65-.46.96.17-.3.3-.64.46-.96Z"/>
  <path class="cls-1" d="m80.83,64.03c-.19.39-.59,1.06-.62,1.22.22-.35.62-1.03.62-1.22Z"/>
  <path class="cls-1" d="m75.43,70.84c-.24.21-.49.43-.74.62,0,.05.6-.34.74-.62Z"/>
  <path class="cls-1" d="m67.92,75.92c-.01.05-.19.19-.2.24.16-.07.31-.16.46-.27-.16.05-.08-.02-.25.04Z"/>
  <path class="cls-1" d="m40.75,74.36c-.57-.17-1.23-.14-1.8-.31.24.18,1.24.25,1.8.31Z"/>
  <path class="cls-1" d="m38.86,74.08c-.22-.1-.48-.13-.75-.13.24.07.49.11.75.13Z"/>
  <path class="cls-1" d="m52.43,80.84c-.07.04-.07.06.07.08-.58.07-.71.08-1.39.16.57.02,1.15-.07,1.73-.16-.32,0-.22-.06-.41-.08Z"/>
  <path class="cls-1" d="m49.72,80.75c0,.05-.4.11-.12.16.35-.01.38-.11.12-.16Z"/>
  <path class="cls-1" d="m50.43,81.06c.1-.03-.13-.05-.24-.08-.23.04-.33.08-.37.11.2.03.42-.08.61-.03Z"/>
  <path class="cls-1" d="m30.09,77.97c-.29-.13-.45-.15-.61-.17.15.08.32.15.5.18-.07-.04.06-.01.11-.01Z"/>
  <path class="cls-1" d="m28.75,77.61c-.19-.12-.53-.16-.54-.14.34.16.51.19.54.14Z"/>
  <path class="cls-1" d="m27.39,76.86c-.67-.33-1.36-.68-2.04-1.05.09.15-.31-.1-.62-.22.94.5,1.58.84,2.66,1.26Z"/>
  <path class="cls-1" d="m25.02,75.67c-.25-.19-.58-.3-.88-.44.26.19.54.34.88.44Z"/>
  <path class="cls-1" d="m23.83,75.05c-.31-.16-.57-.41-.89-.58.01.07.52.49.89.58Z"/>
  <path class="cls-1" d="m23.1,74.43c-.36-.25-.48-.38-.68-.55-.25-.09-.4-.19-.28.02.14-.04.63.38.95.54Z"/>
  <path class="cls-1" d="m21.94,74.79c.15,0-.41-.33-.6-.41.09.12.22.2.33.29.16.08.12,0,.26.12Z"/>
  <path class="cls-1" d="m19.08,71.88c.08.05.06.02.03-.02l-.11-.13c-.26-.1-.89-.75-1.37-1.04.07.09.07.11.02.09.35.25.65.53,1.02.76.27.34-.21-.09-.25-.03.11.17.41.2.52.37.12.08-.21-.33.14,0Z"/>
  <path class="cls-1" d="m20.57,73.88c-.48-.33-.89-.65-1.41-.97.46.36.89.67,1.41.97Z"/>
  <path class="cls-1" d="m17.29,70.4c-.22-.19-.12-.26-.43-.55.06.15-.03.12-.38-.17.22.27.52.49.8.72Z"/>
  <path class="cls-1" d="m16.74,70.03c-.27-.3-.61-.57-.95-.85.41.45.53.5.95.85Z"/>
  <path class="cls-1" d="m13.97,67.11c-.1-.07.1.21-.02.11.38.46.95.81,1.25,1.31.16-.11-.92-.93-1.23-1.42Z"/>
  <path class="cls-1" d="m15.26,68.7c-.37-.49-.9-.9-1.36-1.35.36.51.9.91,1.36,1.35Z"/>
  <path class="cls-1" d="m14.05,67.76c.11,0-.44-.49-.61-.68.15.25.44.44.61.68Z"/>
  <path class="cls-1" d="m13.91,67.44c-.31-.41-.58-.82-1.02-1.17.4.36.62.81,1.02,1.17Z"/>
  <path class="cls-1" d="m12.39,65.33c.24.47-.21-.02-.38-.32-.08-.22.21.14.38.32-.07-.23-.32-.37-.4-.6-.26-.05-1.07-1.02-1.44-1.46-.1.07.77,1.01.87,1.02-.07.1.37.58.14.42.51.5.95.93,1.7,1.58-.22-.34-.53-.66-.86-.96Z"/>
  <path class="cls-1" d="m10.82,63.38c.08.07-.03-.15-.07-.26-.15-.2-.34-.38-.45-.6-.04-.02,0,.12-.13-.05.09.17.16.32.24.49.18.19.17-.01.4.43Z"/>
  <path class="cls-1" d="m10.37,62.4c-.15-.24-.51-.78-.34-.37.21.29.2.19.34.37Z"/>
  <path class="cls-1" d="m9.9,61.98c.16.12-.2-.36-.2-.5-.11-.06-.06.04-.28-.3.1.28.34.53.49.8Z"/>
  <path class="cls-1" d="m7.61,57.67c0,.12-.17-.22-.09.09.08.12.12.25.2.37-.24-.61.41.19-.07-.39-.25-.65-.53-1.3-.67-1.98-.18-.29-.19-.39-.17-.54-.04-.06-.01.11-.07,0-.13-.29.04-.1-.04-.39-.1-.06-.14-.22-.4-.6.06.28.23.56.36.84-.03.24.12.46.22.69.01.52.39,1.27.42,1.54.2.33-.02-.41-.08-.55.2.29.17.62.39.9Z"/>
  <path class="cls-1" d="m6.17,50.95c-.06-.41-.14-.83-.26-1.25.02.29-.05.09-.04.31.18.14.15.59.3.94Z"/>
  <path class="cls-1" d="m5.79,49c-.04-.23-.09-.31-.1-.08-.03-.11-.02-.21-.01-.31-.09-.3-.11-.21-.18-.4-.06-.47-.13-.94-.24-1.42.11-.57-.1-1.16-.12-1.74.14.05.15.89.27.97-.16-.88-.07-1.4-.25-2.38.06-.23.11-.37,0-.79.08-.2.15-.08.2.27.04-.12-.02-.26,0-.39-.06.15-.11-.37-.17-.03.09-.54-.04-1.12-.02-1.67.08.72.14,1.23.15,1.38.12-.21-.05-1.17-.09-1.68.08-.02.1-.57.1-.85-.02-.07-.05.09-.07-.02,0-.08,0-.16,0-.24.03-.02.05.12.09-.06.04-.65,0-1.33.08-1.99.02-.04.03.01.06-.06-.06.71-.02.95-.01,1.61.09-.53.09-1.09.2-1.63-.04-.2-.05.23-.1.29-.03-.14,0-.27,0-.41.09-.34.14-.06.19-.42,0-.16-.05-.09-.05-.26-.03.07-.01.16-.01.24-.06.17-.19.08-.1.29-.15.43-.12-.13-.07-.43,0,.41.11-.43.15-.11.06-.2-.04-.45.01-.65.09-.21.06.37.05.59.02.21.11-.16.13.05.08-.27.02-.58.14-.85.07.04,0,.33.06.51.12-.25.06-.58.19-.83-.03-.16-.09.33-.18.42.05-.23.08-.46.15-.68-.13.32-.13.12-.19,0,0-.08.03-.15.03-.24.1-.33.03.22.13-.11-.02-.19.07-.73.18-1.19.13-.46.3-.84.34-.75,0-.23.09-.47.03-.5.15-.37.13-.09.24-.31-.11.37-.15.78-.28,1.13.13-.2.37-1.06.46-1.55.07-.13.03.14.13-.1.02-.34.09-.69.34-1.11-.06-.08.05-.39-.1-.23.14-.18.14-.51.33-.86-.18.15.16-.63.08-.66.24-.51-.02.37.16.01.02-.26.11-.49.21-.69.05,0,.05.09.07.14-.27.79-.54,1.48-.67,2.09.12-.14.08-.36.22-.49.14-1.05.78-1.86,1.04-2.86.51-.81,1.18-2.53,1.55-2.83.15-.27.3-.54.47-.79-.02-.23.32-.63.49-.98.04,0,0,.12.1,0-.06-.09.24-.55.27-.47.37-.79.94-1.39,1.4-2.12-.17.16.05-.21.11-.33.11-.08-.13.32-.05.28.46-.53.85-1.15,1.29-1.72.07.11.61-.55.67-.72.14-.06.22-.21.35-.28.07-.21.41-.56.79-.95.41-.36.86-.76,1.12-1.13.56-.33,1.38-1.34,1.86-1.53-.18.13-.34.3-.51.45.19-.01.67-.66,1.18-.95.2-.13.94-.53.92-.64.11-.13.27-.13.39-.2.39-.39.89-.56,1.31-.92.28-.13.69-.38,1.16-.63.48-.23,1-.48,1.43-.7,2.87-1.29,5.94-2.13,9.08-2.57,3.15-.41,6.36-.35,9.53.02,3.18.35,6.32,1.15,9.34,2.24,3.03,1.08,5.95,2.47,8.65,4.21,5.46,3.39,10.06,8.04,13.28,13.53,1.57,2.77,2.86,5.71,3.76,8.77.84,3.07,1.32,6.23,1.38,9.39-.05.21-.08.02-.11-.1.03-.93-.06-1.89-.13-2.83-.1-.95-.31-1.88-.38-2.82-.09-.13-.09-.23-.16-.52.02-.08.04.12.08.22,0-.3-.21-.59-.18-.88-.1-.22-.08.05-.17-.15-.04-.8-.3-2.07-.76-3.05-.25-.81-.4-1.65-.82-2.42-.02-.1,0-.11.02-.08-.3-.6-.6-1.35-.88-2.04-.28-.69-.64-1.28-.88-1.65-.05-.2.05-.04-.07-.29-.06-.06-.01.08,0,.15-.33-.78-.69-1.45-1.14-2.09-.43-.64-.83-1.31-1.27-2.06-.19-.07-.61-.81-.86-1.15-.42-.56-.79-.9-.92-1.19-.46-.42-.86-.86-1.18-1.36-.25-.24.06.17-.19-.06-.08-.03-.26-.39-.13-.26-.34-.26-.53-.6-.87-.85-.09-.12-.02-.08.06-.04-.45-.32-.78-.72-1.19-1.06.06-.12-.02-.04-.26-.36-.04.03-.2-.08-.34-.21.02-.02-.02-.1-.1-.2-.37-.14-.81-.74-1.46-1.11-.08-.1-.06-.13,0-.1-.67-.59-2.37-1.78-2.59-1.86-.38-.25-.66-.61-1.14-.75-.3-.28-.92-.72-1.13-.75-1.17-.82-2.43-1.37-3.64-2.03-.63-.28-1.27-.55-1.91-.84-.32-.14-.65-.29-.98-.44-.34-.13-.68-.25-1.02-.38-.15-.03-.08.02-.18,0-.2-.12-.28-.13-.6-.31-.39-.1-.79-.26-1.23-.39-.44-.13-.9-.26-1.37-.4-.47-.14-.94-.28-1.42-.41-.48-.09-.96-.17-1.42-.22-.13-.06-.04-.07-.19-.13-.7-.13-1.41-.24-2.1-.35.02.05.14.22-.53.17-.18-.09,0-.11-.4-.19-.1-.07.43-.06.54.02.3-.04-.47-.18-.44-.09-.45-.12-.93-.18-1.41-.22-.48-.01-.96-.02-1.42-.12-.24.1-.87.03-1.28-.09-.16.01-.09.04-.02.07-.84-.06-1.7.02-2.55-.03-.08.03,0,.06-.09.09-.61-.04-1.33.11-2.01.17-.68.08-1.33.11-1.78.14-.07.03.03.03.07.04-.66.12-1.32.25-1.98.37-.67.1-1.29.34-1.95.45-.45.19-1.08.3-1.69.56-.62.23-1.27.46-1.83.67-.26.14.07.06-.18.2-.09.05-.17.1-.27.13.21-.31-.85.32-1.23.45-.1.15.31-.13.42-.13.14.01-.29.2-.38.26-.25,0-.6.14-.96.33-.35.2-.71.44-1.04.59-.23.18.08.04-.15.23-.08.06-.18.08-.25.15-.08.01.09-.12.16-.19-.21.07-.4.19-.57.36,0,.04.24-.06.04.1.14-.04.25-.18.39-.2-.18.2-.44.22-.6.46-.24.05-.42.24-.63.37-.09-.04.4-.27.52-.44-.43.18.14-.17.27-.29-.65.29-.52.39-1.12.71-.09.11.2-.06.16,0-.05.06-.12.08-.19.11-.07.11,0,.08.15-.02-.26.31-.58.49-.84.79-.19.12-.29.2-.27.1-.25.21-.42.54-.7.7-.15.08.14-.21.18-.28-.21.12-.33.33-.24.31-.14.19-.38.23-.52.41-.08.03.1-.17-.17,0-.18.34-.97,1.17-1.06,1.06-.22.24-.51.4-.66.73-.36.19-.66.77-.87.81-.15.44-.97.98-1.27,1.6-.44.45-.75,1.01-1.16,1.48-.16.14.22-.32-.05-.05-.25.46-.53.88-.81,1.29-.29.41-.59.81-.8,1.29.09-.09.14-.21.23-.29.05-.04-.01.12.05.05-.24.38-.53.72-.76,1.12,0,.1.09-.09.15-.16.12-.08-.18.29-.17.44-.05,0-.1.05-.19.22-.03.47-.61,1.03-.76,1.68-.16.22-.19.19-.11-.08-.14.15-.18.37-.29.53,0,.09.1-.09.16-.16-.03.23-.12.4-.19.6-.07.09-.07,0-.02-.2-.16.52-.42.99-.61,1.49-.06.06,0-.2-.14.09.01.4-.6,1.86-.7,2.38-.13.12-.31.71-.22.22-.12.3-.09.35-.05.4-.08.31-.25.31-.3.77.09-.12.08-.29.15-.43,0,.11,0,.13.03.1-.19.73-.49,1.42-.54,2.22-.09-.06-.09,0-.22.23,0,.25.11-.04.19-.16.06.45-.23.76-.19,1.21-.15.43-.08-.23-.19,0,0,.3.09.17.13.3,0,.31-.12.27-.12.44-.04.07-.03-.15-.04-.26-.08.25-.09.68-.01.55-.17.49-.07.52-.24.86,0,.52-.03.56-.13,1.06.04.08.11-.18.11.19l.13-.35c.04-.27-.07-.16.06-.45,0-.16-.03-.1-.07-.02.06-.47.21-1.93.35-1.61.07-.13,0-.32.02-.47.11-.23.13,0,.1.28.05-.15.18-.91.05-.62.04-.33.17-.62.13-.99.06-.12.02.34.07.27.1-.23.15-1.04.25-.78.09-.17.02-.28-.02-.17.07-.27.14-.53.26-.78,0-.08-.06-.01-.06-.11.02-.18.1-.33.12-.52.03,0,.05.05.06.11.08-.67.32-1.28.56-1.88.1-.14-.07.22-.04.32.12-.19.12-.44.26-.61-.06.3-.16.59-.32.84.03.14-.06.38-.17.65-.09.27-.18.57-.2.82.26-.95.57-1.78.85-2.55,0-.2-.09.21-.16.25.07-.5.29-.39.36-.89-.06.14-.11.26-.17.41-.01-.24.14-.36.14-.61.1-.17.06,0,.04.12.05-.12.08-.26.16-.35-.06-.19.5-1.36.78-1.9.12-.08-.17.29-.15.43.38-.97.84-1.9,1.36-2.77.06-.05-.01.15-.04.25.22-.23.23-.52.18-.52.2-.41.08.06.33-.3.18-.39-.21.21-.13-.01.32-.53.54-1.16.97-1.6.03-.27.22-.47.41-.83.17-.21.1-.03.23-.18.22-.44.51-.81.79-1.2.11-.04-.2.35-.27.47.24-.2.51-.71.71-1.06.21-.19.02.11.22-.08-.09.2-.32.42-.27.47.59-.72.92-1.26,1.41-1.95.31-.27-.11.27.14.07.53-.58,1.02-1.21,1.65-1.65.22-.36.46-.48.63-.61.08-.13-.11.01.05-.19.46-.3,1.4-1.29,1.54-1.21.68-.61,1.79-1.2,2.27-1.7.43-.14.79-.48,1.22-.59.24-.25.53-.33.76-.6.25-.08.1.03.29-.03.76-.35,1.5-.78,2.28-1.09.79-.28,1.57-.61,2.38-.81.04-.06.21-.14-.08-.07.68-.16,1.36-.32,2.03-.51.67-.2,1.38-.28,2.06-.46.33-.11.67-.04,1-.12.06-.03-.09-.03,0-.07.43-.03.98-.03,1.6-.17l.43.06c.74-.15,1.49-.16,2.24-.16.75,0,1.48-.03,2.23.07.05-.01,0-.03.09-.05.65.05,1.3.1,1.94.14.65.07,1.29.17,1.94.25,1.3.12,2.58.47,3.85.73.43,0,2.13.58,3.22.91.58.21,1.07.32,1.46.55l.32.04c.22.21.94.27,1.34.6.6.2,1.3.52,2.02.84.71.35,1.42.77,2.11,1.07l.22.19c1.74.85,3.25,1.98,4.85,3.04.62.54,1.36,1,1.92,1.6.45.26.74.64,1.17.92.9,1.02,1.97,1.91,2.87,2.95,1.02,1.12,1.89,2.36,2.82,3.56.8,1.29,1.69,2.53,2.31,3.92l.2.24c.08.11.03.13-.02.08.2.36.38.69.55,1.01.16.33.28.65.42.97.28.64.55,1.28.88,2.04l.02.29c.1.29.16.09.24.55,0,.08-.05-.11-.12-.2.04.19.15.5.2.48.51,1.41.8,2.86,1.15,4.3.14.72.22,1.46.34,2.18.14.73.18,1.46.22,2.19.16,1.46.08,2.91.05,4.36-.05.72-.16,1.43-.23,2.15-.05.36-.06.72-.14,1.07l-.23,1.05-.22,1.05c-.06.36-.15.7-.28,1.04l-.66,2.05c-.25.67-.58,1.31-.86,1.97-.15.32-.27.66-.45.98l-.55.93c-.38.61-.68,1.27-1.12,1.84l-1.29,1.73c-.42.59-.98,1.07-1.46,1.61-.5.53-.98,1.08-1.57,1.53l-.14.18c-.64.47-1.2,1.05-1.85,1.53-.66.46-1.32.92-2,1.32-.22.18-.38.42-.48.34-.18.15-.76.48-1.16.63l-.24.2c-.51.24-.99.52-1.5.79-1.29.44-2.5,1.08-3.84,1.43-.66.2-1.31.43-1.98.59-.68.13-1.35.25-2.03.34l-.29.13c-.45.03-1.25.14-1.48.24-.14-.01-.06-.05-.22-.06-.19.15-.45.1-.67.09-.71.19-1.58.28-2.55.28-.13-.03-.13-.05-.06-.08-.23,0-.26.13-.68.07-.07.02.03.03.07.05-.23.04-.44-.02-.69.07-.15-.02-.07-.04.01-.07-.26.05-.77.14-1.22.09-.2-.1.26-.03.47-.07-.95.02-1.84.03-2.76.05l-.35-.1c.09-.07-.22.03.13.07-.43.07-.81-.03-1.39-.03-.09-.08-.63-.12-.27-.14-.25-.06-.27.07-.75-.1-.37.02.17.08.28.1-.56,0-1.06-.1-1.62-.12-.07-.04.09-.03.17-.03-.14-.05-.31-.03-.43-.13.11.12-.27-.02-.56,0-.63-.19-1.33-.27-2.01-.36-.67-.14-1.32-.28-1.84-.53-.29.07-1.08-.14-1.54-.29.06-.08.63.19.92.19-.11-.06-.24-.08-.34-.15.44.07.9.1,1.33.19-.1.15,1.09.31,1.32.35-.81-.33-2.21-.63-3.04-.74-.06-.05.15,0,.26,0-.45-.14-1.36-.47-1.44-.34-.29-.07-.15-.13-.31-.21-.86-.19-1.38-.38-2.31-.68-.53-.24-1.06-.48-1.6-.71-.54-.23-1.05-.51-1.62-.72-.58-.34-1.58-.82-1.99-1.01-.58-.46-1.47-.89-2.38-1.52-.89-.6-1.78-1.3-2.4-2.04.19.47-.92-.7-.98-.51-.27-.3-.74-.48-.91-.85-1.28-1.06-2.3-2.35-3.07-3.72-.16-.15-.33-.31-.33-.19-.16-.2-.27-.43-.35-.66-.21-.16-.28-.37-.4-.57-.14-.05-.23-.24-.39-.34.03.15.18.26.22.4-.63-.81-1.41-2.3-1.68-3.49-.17-.1-.36-.5-.52-.97-.53-.84-1.05-2.01-1.35-3.23v-.45c-.09.14-.17-.67-.26-1,.02-.03.04-.07.07,0-.21-1.1-.24-2.15-.41-3.06-.02-.59.04-1.28.03-1.95.03-.67.08-1.31.05-1.8.17-.79.33-2.31.49-2.96.09-.56.23-1.08.36-1.56.12-.49.23-.95.35-1.37-.13.28-.19.25-.3.38.05-.23.18-.4.23-.63-.2.35-.22.54-.38.72-.05.43-.45,1-.39,1.19-.04.2-.2.31-.28.48-.14.51-.28,1.01-.44,1.51.07-.48.13-.7.2-1.37-.63,1.86-1.16,4.53-.98,6.81,0,.22-.03.43-.06.64.03.02.06,0,.08-.06,0,.24.04.5.06.74-.15.35.11,1.3.3,1.73-.03.23-.13-.11-.21-.35.05.23.04.57-.03.55-.12-.4-.06-.48-.2-.75-.03.18.15.4.08.57.07.3.08.11.14.34.02.11.04.22.03.33-.06,0-.15-.35-.21-.35-.02-.08-.02-.16-.04-.25.13.19-.04-.51-.08-.82.03-.15.06-.06.08-.23-.07-.72-.24-.87-.29-1.54.06-.06.13.57.2.78,0-.3-.05-.92-.13-.77.08-.78,0-1.62,0-2.45-.12.48,0,1.02,0,1.53-.13-.32-.16-1.34.05-1.85.02-.66,0-1.34.23-1.93.19-2.05.94-3.9,1.66-5.8-.26.36-.41.79-.69,1.14-.15.47-.33.91-.59,1.31-.04.16.01.09,0,.2-.21.29-.23.7-.39,1.02-.09.15-.06-.07-.03-.3-.19.4-.29.87-.4,1.31-.12.32-.03-.2-.13.02-.19.64-.19,1.03-.29,1.81-.14.19-.05-.71,0-1.02-.04.14-.09.27-.15.4,0,.09.04-.02.07-.06-.05.35-.14.53-.07.71-.05.15-.07.05-.12.22-.02.6-.16,1.15-.21,1.73.03.22.07.24.13.05.03.19.04.36.03.54-.08.16-.15.22-.23.28.01-.35,0-.79-.02-1.18,0-.38-.02-.71-.07-.83.09-1.09.31-2.17.62-3.19-.21.21.08-.55.22-.96.1-.09-.14.44-.14.61.21-.4.22-.93.34-1.39.15-.29,0,.23.17-.2-.06-.15.36-1.28.66-1.84.14-.52.41-1.06.73-1.72-.07-.13-.33.54-.43.75.2-.58.81-1.97,1.49-2.81.13-.36.6-1.03,1.02-1.66.44-.61.83-1.18.79-1.36.44-.47.49-.77.89-1.13.05.04-.21.29-.11.3.85-1.15,1.79-2.26,1.72-2.52-.28.19-.76.57-.69.39-.62.48-1.43,1.41-1.72,1.42-.19.34-.63.83-.61.97.09-.08.15-.2.21-.31.16-.09,0,.06-.12.28-.19.13-.36.3-.5.5-.19.18-.16.07-.02-.17-.15.18-.27.36-.25.4-.44.36-1.12,1.48-1.54,2.27-.67.75-1.02,1.82-1.39,2.82l-.11.14c.01-.5.52-1.38.67-1.91-.13.13-.18.32-.32.43-.35.81-.58,1.36-.81,1.91-.26.58-.48,1.17-.71,1.91-.04.04-.03-.02-.08.06.19-.53.41-1.36.48-1.66-.15.19-.2.45-.33.66.1-.07.03.17-.13.46.07-.05.11-.02.11.08-.12.24-.27.65-.37.98-.08.34-.11.59,0,.5-.02.24-.13.05-.19.41-.05.04.08-.37-.03-.23-.13.35-.1.72-.02.62-.05.25-.14.16-.25.38-.1.49.04.21.01.52-.02.25-.12.29-.11.15-.12.37,0,.32,0,.41-.03.11-.16.46-.22.49,0-.24.06-.44.08-.67-.19.51-.13.8-.05.79-.15.64-.21,1.23-.15,1.7-.12.46-.08-.08-.16.13.04-.39.07-.75.11-1.12-.12.33-.19.3-.19-.09-.07.22-.07.46-.03.48-.09.02-.07.44-.19.51.02.54-.09,1-.12,1.71-.06.12-.05-.52.04-.66,0-.1-.01-.06-.03-.01v-.2c-.13.35-.07.75-.08,1.13-.08.17-.13-.06-.21.12.06.21.02.22.06.6-.06.34-.1.22-.15.43.01.24.04.2.07.31-.03.26-.07.01-.1.35.05.58.05,1.14.06,1.7-.07.24-.05-.23-.13-.5-.04.27.07.58,0,.85.03,0,.08.21.1.11.04.68.14,1.37.24,2.06.1.69.31,1.36.41,2.03.04.09.03-.09.03-.18.09.22.17.43.22.65-.21.39.58,1.75.75,2.51-.31-.18-.54-1.16-.85-1.87.06.4.32.84.24.99l.26.54c.04.23,0,.18,0,.28-.07-.24-.22-.48-.25-.72-.04.14-.11-.22-.2-.27-.01.43.43.84.41,1.27.25.37.49.75.73,1.11.09.36-.03.18-.14.02.03.3.2.58.3.88.02-.07.09,0,.29.32-.06-.17-.19-.33-.19-.52.15.29.29.56.38.85l.51.72c-.03.16-.15-.13.11.43.15.41-.18-.16-.06.2.21.07.42.52.83.98.24.49.51.97.78,1.43.38.28.69.72,1.13,1.19.2.35-.26-.2-.24-.1.5.66,1.2,1.21,1.53,1.44-.47-.69-.82-.78-1.18-1.2-.07-.14-.04-.16.03-.1-.11-.2-.4-.45-.31-.26-.3-.69-1.49-1.74-1.81-2.75.25.24.55.66.84,1.11.32.44.63.92.87,1.3.53.37,1.25,1.4,2,2.27-.29-.19-.47-.29-.62-.28.22.15.34.35.55.51.35.72.78.8,1.17,1.45.65.58.44.4,1.01.92-.14-.19.08,0,.01-.11.19.16.34.33.55.47.23.32-.15,0-.34-.2,0,.11.79.77.84.69.25.25.57.45.74.75.36.34.89.57,1.22.92.18.27-.31,0-.57-.12.49.41.81.49,1.47,1.05.2.24.05.15.36.37.27.13-.41-.35-.14-.22-.2-.17-.4-.33-.63-.49-.04-.14.02-.09-.35-.38-.05-.07.1.03.19.07.21.13.28.36.49.49.02-.02.19.08.14,0,.25.16.45.37.68.54.07.11-.01.07-.19-.06-.14-.09-.04-.06-.16-.19-.07,0-.21-.04-.06.15,1.11.53,2.13,1.18,3.18,1.76.09.09.18.18.1.15.1.03.95.41,1.47.68.01.11-.84-.32-.82-.25-.16-.18-.38-.26-.09-.03.91.42,1.71.83,2.38,1.2.19.24-.85-.39-.9-.28.3.16.38.25.57.27.47.34,1.23.64,1.99.92.77.28,1.56.58,2.09.78.21.14-.67-.19-.24.05.19-.02.62.1.98.21-.23-.11-.46-.22-.72-.29-.04-.03.02-.03-.05-.07.52.13.94.41,1.5.49.14.08.04.07.19.16.43.07.77.26,1.17.36.13.08.12.1.04.1.18.09.4.1.56.21.18.03.12-.01.04-.06.77.23,1.41.4,2.05.57.64.17,1.28.34,2.06.46.11.06.02.07-.22.06.25.06.52.08.77.14.42.04-.14-.12.23-.09.36.15.77.2,1.19.21.23.08,0,.07.3.17.16,0-.03-.09.13-.09.44.19.39.06,1.03.12.23.06,0,.07.3.14.08-.02.09-.05-.05-.09.55.02,1.69.28,1.65.39.82.04-.62-.18-.1-.22.29.04.19.07.57.16.41,0,.88.09,1.07-.04.38.02.81.03.92.14l.45-.06c-.3-.11-.13.07-.42-.04.25-.12,1.5.04,2.27-.02-.13.07-.06.13-.47.14.58.13.72-.13,1.32-.16.38.1.8,0,1.21-.06.47.08.96.02,1.46-.02.12.07-.45.04-.62.1.17.05-.25.11-.12.16.24-.06.53-.09.82-.14.28-.06.56-.12.77-.2.14.02.35-.03.68-.04.18.08-1.03.13-.36.17-.27.1-.51.04-.78.13.25.05.98-.17.94-.05.28-.09.59-.1,1.05-.21-.02.14.5-.05.94-.02.53-.14,1.03-.25,1.55-.4,0-.07-.43-.04-.68.06.04-.13.79-.21,1.11-.26.08.04-.14.14-.26.17.06.04.31,0,.33.07.02-.16.5-.14.94-.34-.2-.05-.4.09-.59.06.28-.06.57-.18.85-.16.09.02-.14.04-.26.1.13,0,.36-.06.25,0,.32-.01.1-.13.43-.1-.09-.04-.27-.06,0-.17.41-.08.03.05.34.04.22-.1.13-.12.08-.15.14-.05.28-.06.42-.14.45-.05-.24.22.09.2.09-.07.23-.16.16-.19.28-.16.56-.08.83-.27.32-.05.22.02.42,0,.36-.18.72-.24,1.09-.33.19-.16.8-.34,1.22-.52.23-.05-.41.23.01.1.34-.25.76-.35,1.29-.58.33-.17-.17-.02.06-.15.47-.21.11.06.51-.05.21-.09.29-.14.31-.2.86-.11,1.55-.87,2.36-1.14.23-.25.4-.32.89-.65.14-.08.26-.06.56-.23.12.04-.44.28-.59.42.51-.19.83-.46,1.11-.73.38-.21.23-.06.48-.15.28-.21.47-.28.57-.45l.32-.13c-.17,0,.59-.54.95-.64.17-.26.41-.34.76-.62.25-.28-.04,0-.17.05.14-.17.32-.26.47-.4.3-.14.12,0,.06.13.29-.24.6-.47.94-.61-.06.08-.12.14-.2.18.08.02.69-.53.97-.75-.74.55-.68.35-1.38.89.56-.65.78-.51,1.26-.94-.06-.05-.61.31-.58.19.22-.1.67-.49.88-.55.15-.22.11-.28.23-.48,0,.17.3-.15.58-.35.15-.09-.21.34.07.12.08-.16.13-.21.05-.25.16-.17.43-.35.23-.28.18-.19.39-.33.6-.49.04.03-.56.58-.37.55.3-.39,1.67-2.03,1.54-1.6.2-.18.3-.46.5-.62.12-.42.79-1.07,1.07-1.7.18-.05.46-.53.41-.31.2-.22.08-.24.3-.58.37-.56.76-1.11,1.04-1.76.11,0,.39-.52.37-.6.2-.16.3-.43.48-.62-.09.04-.16.15-.29.21.18-.29.41-.6.5-.7.21-.41.02-.27.38-.8,0-.05-.09.06-.03-.14-.15.36-.33.69-.53,1l.83-1.75s.03.02.08-.05c-.1.29-.4.75-.32.84.24-.39.3-.83.66-1.35.03-.12.06-.25.12-.34,0-.08-.02-.1-.11.03.13-.38.29-.7.38-1.09.14-.28.09-.06.2-.27.07-.34-.14.14.02-.3.15-.29,0,.23.16-.2.06-.25-.06,0-.04-.13.3-.6.59-1.31.76-2.01.16-.71.29-1.39.46-1.91.07-.13,0,.27.05.22.14-.47.12-1.02.36-1.45-.02-.08-.04-.09-.09.05-.03-.2.03-.36.01-.55.06-.21.06-.02.07.12.08-.24.06-.53.13-.78,0-.1-.06.07-.09.15-.03-.2.05-.35.04-.53.03-.02.04.13.09-.05l-.02-.37c.07-.23.07,0,.15-.31.04-.43.1-.85.12-1.28.02-.43.03-.85.04-1.27l-.06.25c.01-.23-.05-.49,0-.71.04-.22.06-.03.08.11.06-.51,0-1.44-.02-1.69.08-.13.08-.33.01-.69-.05.44-.07.04-.11-.2.09.8-.04,1.13-.03,2,.03.1.02-.08.04-.16.07.2-.06.34.01.53-.09.26-.07.27-.16.66.11-1,.05-2.41.09-3.12-.02-.06-.03,0-.06-.1-.05-.34.07.09.07-.24-.17-.55-.11-1.05-.11-1.57-.11-.15-.1-.52-.13-.88.09.13.17.44.23.2.04.26.03.7.1.71-.03-.34-.01-.35.04-.51-.08-.15-.08-.38-.16-.45-.07-.29-.04-.57-.15-.87.08-.34-.1-1.12-.23-1.73.1-.02.05-.33-.1-.78.01-.06.05-.06.1.09-.07-.57-.32-1.14-.41-1.7-.07-.15-.02.22-.1,0-.09-.17.01-.34-.11-.51,0-.15.02-.16.07-.08-.05-.27-.09.02-.15-.43-.01-.22,0-.3.07-.17-.13-.43-.27-1.2-.43-1.34-.04-.24.06-.03,0-.34-.11.01-.15-.43-.15-.41-.2-.58-.39-.75-.49-1.41-.12-.1-.31-.79-.48-1.14.02-.03.1.1.05-.09-.21-.23-.26-.64-.54-1.03-.12-.11.08.43.18.57.04.15-.23-.35-.26-.47-.14-.13.13.37.16.49,0,.09-.11-.12-.18-.23-.06-.13-.08-.48-.32-.8-.05-.22-.08-.42.02-.26-.06-.3-.26-.59-.31-.89-.08-.06-.1.04-.26-.29.22.13.57.71.88,1.3-.1-.27-.17-.55-.26-.82-.08-.11-.16-.13-.23-.39-.07-.07-.05.02-.13-.06-.22-.34-.06-.21-.19-.56-.11.1-.82-1.26-.76-1.48-.08.03-.17-.33-.36-.52.07.27.29.51.36.78-.07.01-.34-.67-.47-.93-.05-.01-.11-.09-.27-.28-.15-.16-.05-.19.07-.02-.13-.27-.25-.24-.16-.04.14.16.18.35.34.52,0,.09-.03.1-.02.18-.22-.35-.33-.73-.59-1.05.01-.1.49.45.2-.06-.03.12-.11-.09-.31-.35.07-.08.2.24-.08-.33-.08,0-.12-.02-.34-.33.05-.17-.38-.54-.48-.91.56.89,1.1,1.54,1.62,2.59-.09-.43.41.7.46.5-.03-.14-.12-.26-.15-.4-.16-.12-.47-.77-.49-.92.04.25-.3-.32-.23-.02-.12-.2-.29-.38-.36-.6-.04-.17.36.6.13.05.17.13.14.31.31.44-.06-.15.02-.08-.05-.25-.37-.39-.37-.55-.36-.69-.14.05-.63-.94-.95-1.39-.16-.13-.02.04.06.25-.41-.45-.91-1.26-1.17-1.45-.17-.31.1,0,.06-.12.28.38.58.74.82,1.13.14.11.18.09.13-.05-.1-.08-.16-.18-.21-.28-.05-.02-.09-.05-.07.02-.19-.44-1.07-1.46-1.33-1.66.28.09-.3-.55-.33-.79-.11-.11-.22-.21-.3-.33-.19-.08.25.3.27.44.03.15-.32-.23-.71-.51-.18-.35.33.23.39.19-.23-.37-.23-.26-.56-.57.06.13-.04.08-.05.12-.16-.14-.22-.33-.42-.46.18.32.56.54.69.88.36.29.67.62.92.98.05.14-.26-.31-.34-.41-.15-.1.21.4.21.28-.17.22-1.63-1.89-2.62-2.86.06.11.13.22.05.16.09.18.31.28.38.47-.01.06-.51-.42-.6-.64.06.17-.54-.3-.7-.56-.06-.08.43.32.52.47,0-.15.21.08.34.1-.22-.31-.12-.24-.39-.56.48.41.64.75,1.26,1.25-.17-.32.09-.02-.22-.46-.04.04.13.32-.27-.05-.37-.45-.76-.87-1.2-1.26.13.18.16.25.03.18.17.19.35.38.54.56-.05.01-.32-.2-.46-.31-.11-.14-.03-.09.06-.04-.32-.38-.17-.03-.55-.45.02-.05.21.07.2-.02-.55-.35-1.27-1.27-1.86-1.62-.06-.11.14.01-.1-.24-.28-.18-.48-.42-.8-.57.15.17.19.25.18.29-.34-.24-.62-.52-.98-.74-.1-.17.37.06.61.38-.11-.16.18.02.06-.15-.36-.15-.63-.44-1.25-.86.1.17.34.24.45.4-.08.04-.4-.32-.66-.45-.11-.12-.01-.09-.14-.21-.29.01-.81-.6-1.25-.81-.11-.23.6.33.69.3-.06-.06-.15-.1-.22-.14-.29-.25.23.08-.06-.17-.29-.15-.63-.46-.56-.3-.29-.12-.44-.36-.7-.51-.02-.07.15-.03.33.16.03-.12-.97-.59-.94-.75l-.52-.2c.16.14.1.13.16.2-.31-.15-.27-.2-.39-.32-.54-.18-.9-.55-1.65-1.09-.48-.22-1.41-.83-2.15-1.15-.06.06.31.19.5.32-.17.01-.91-.4-1.27-.59-.08-.14.48.25.44.14-.22-.16-.39-.28-.39-.32-.21-.07-.6-.17-.9-.24-.37-.14-.22-.2-.48-.34-.18-.09-.84-.27-.7-.33-.67-.19-1.26-.48-1.85-.76-.34-.19.35.03,0-.16-.5-.13.08.14-.34.04-.39-.09-.35-.22-.57-.35-.24-.05-.43-.17-.65-.24.09-.02.04-.08-.25-.23-.02.02-.14.03-.28-.05-.22-.03.25.1.29.18-.25-.03-.44-.15-.65-.24-.2-.02.28.17.38.19,0,.05-.1.05-.15.07-.31-.11-.29-.17-.51-.15-.32-.2.12-.02.15-.07-.32-.16-.32-.07-.45-.07-.39-.12-.77-.25-1.16-.35,0-.05.29-.02.33-.06-.36-.13-.65-.35-1.12-.43-.29-.19-.34-.26-1.09-.49.21.09.49.18.46.24-.28-.03-.52-.12-.77-.2-.18-.02.09.09-.22.05.33.08.9.34,1.01.28.03.05.1.11-.14.08-.29-.07-.16-.14-.59-.15-.36-.14.24,0-.12-.14.02.1-.44,0-.79-.13-.24.02.08.1.31.13-.16,0-.29-.05-.45-.04-.08-.06-.57-.2-.37-.2-.15-.04-.77-.06-.59-.14-.27-.09-.49.05-.9-.08-.08-.05.17-.02.29-.03-.42-.1-1.17-.36-1.37-.26-.13,0-.73-.11-.32-.11-.77-.09-1.79-.12-2.11.04-.2-.02-.4-.07-.61-.06-.33-.1.34-.07-.12-.18.43-.02.42.03.69.09.42,0,.52-.04.23-.14-.09,0,.03.04.07.06-.27,0-.55,0-.79-.09-.19-.07.27.03.37-.02-.21-.09-.48-.03-.69-.11-.2.15-1.14-.02-1.75-.14-.3.04-.56.15.03.19-.12-.09.23-.04.54,0,.08.03-.16.02-.27,0,.13.08,1.04.08,1.47.14-1.44.04-3.56-.22-5.28-.05-.08-.02.1-.05.19-.07-.23-.02-.46-.03-.71.05-.13-.11-.35,0-.69-.05-.25-.03.59-.09.11-.12-.34.11-.51.07-1.15.11-.28.11-.61.21-1.06.14-.3.11-.59.08-.89.2-.46-.09-1.11.02-1.84.16-.73.15-1.55.3-2.35.43.04.07-.35.24-.52.18-.35.14-.25.15-.26.2-.11.04-.23.08-.34.1.04-.06-.07-.09.25-.23-.5.07-.12.18-.69.23-.13.16-.28.16-.77.31-.18.01.03-.09.25-.2-.82.29-2.06.7-2.6,1.14-.39.19-.4.14-.67.23-.24.04.2-.19-.11-.12-.3.16-.22.18-.14.2-.41.15-.3.14-.65.35-.26.02.23-.35.63-.49-.18.04-.1-.01,0-.03-.6.1-1.39.42-2.21,1.01-.31.1.35-.28-.03-.14-.26.24-1.11.5-1.6.85-.14.12-.05.1-.21.22-.04-.01.08-.12-.1-.04-.28.18-.09.08-.29.26-.07.02.09-.11-.02-.07-.36.13-.68.4-.6.44-.08.02-.16.07-.24.12-.08.03.06-.09.13-.16-.75.4-1.84,1.11-2.25,1.54-.71.4-.49.38-.89.62-.29.42-.52.58-.96,1.05.18-.09.33-.25.51-.36-.18.23-.43.32-.61.54-.08.04.05-.1.11-.18-.44.37-.92.66-1.33,1.06-.08.04.04-.1.1-.19-.2.18-.41.35-.58.58-.05.18-.44.53-.88.93-.43.41-.89.89-1.15,1.26l1.08-1.14c.38-.35.77-.7,1.16-1.06-.24.29-.51.51-.77.75-.05.17.35-.31.48-.39l-.33.47c-.14.1-.09,0-.24.11-.51.57-.37.69-1.02,1.3-.09,0,.35-.5.47-.7-.04-.01-.21.12-.13-.04-.11.16-.28.66-.81,1.13-.11.07-.07-.02.06-.22-.29.23-.39.64-.75,1.04-.26.25.1-.27-.2.03-.05.08-.02.06.02.03.04.02-.29.38-.16.36-.11.11-.5.56-.36.53-.14.15-.24.35-.4.48-.05-.03.29-.57.16-.5-.12.19-.31.46-.43.71-.17.18-.06-.03-.27.21-.29.46-.62.87-.93,1.31-.13.12.18-.3.2-.43-.44.52-.33.83-.8,1.31-.08.16-.11.38-.24.5-.08.21.15-.23.24-.25l-.11.26c-.34.4-.54.92-.86,1.32-.08-.04.28-.68.47-.86.09-.24.2-.46.33-.65-.16.24-.61.76-.73,1.22-.22.28-.03-.16-.25.12-.09.37-.6,1.29-.97,2.04-.14.14.11-.26.11-.36-.17.34-.14.15-.33.41-.18.46-.41.86-.57,1.33-.37.53-.25.6-.54,1.55.15-.36.27-.74.45-1.07.06-.18,0-.12-.05-.04.07-.23.18-.45.3-.64.11-.17-.08.28-.13.34.1-.08.6-.77.69-1.22.22-.19.66-1.08.91-1.61.14-.15.12-.03.23-.37.53-.72,1.02-1.48,1.49-2.29.1.06.54-.8.48-.49.06-.14.23-.38.43-.69-.11.1-.18.23-.29.32.1-.16.18-.3.28-.46.06-.04.08-.01,0,.14.17-.15.28-.37.46-.52.08-.16,0-.09.06-.2.16-.13.29-.27.38-.49.11-.1.23-.17.31-.31.18-.17-.24.41.06.08.14-.37,1.11-1.54,1.41-1.7.24-.21.04-.12.2-.32.05-.07.12-.13.17-.21.25-.22.12-.01.37-.23.31-.54,1.18-1.27,1.81-1.83.12-.2.27-.33.4-.51-.36.25-.22.3-.57.57.13-.2.09-.14-.12-.04.35-.5.75-.81.92-.84-.15.21-.38.26-.52.49.29-.28.47-.32.27-.05.39-.4.87-.7,1.3-1.07-.08.19-.04.1.32-.14-.22.21-.45.38-.71.51-.1.13.21-.09.05.09.24-.23.51-.4.75-.61.15-.18-.13,0-.33.1.38-.34.77-.63,1.14-1.01.04-.08-.13-.02-.06-.13.42-.34.05.08.41-.15.09-.02-.11.1-.2.2.47-.2,1.4-.96,1.94-1.19.56-.49,1.2-.78,1.81-1.14.24-.04-.39.32-.4.44.48-.21.53-.45.7-.36.12-.14.1-.19-.05-.17.51-.38,1.08-.61,1.65-.85.14-.21.7-.44,1.1-.62.08-.02-.07.08-.14.15-.13.08-.27.1-.41.14-.1.07-.12.1-.07.09l-.15.11c.3-.1.57-.34.88-.38-.18.14-.37.18-.55.29-.08.14.48-.19.65-.24-.48.39.61-.28,1.07-.36-.04-.04.04-.18.38-.31-.21.17.23,0,.27.09.08-.05.16-.09.24-.11-.17-.04.38-.24.47-.36.23-.07.93-.25,1.41-.47.31-.04.03.09,0,.14.48-.09.92-.21,1.18-.23l.33-.17-.34.03c-.3.19-.62.16-.93.25.39-.19.79-.19,1.18-.37,0,.23.91-.2,1.6-.23-.26.02-.51.13-.76.17-.02.08.67-.13.93-.16.08-.06.05-.1.17-.17.46-.12.23.05.42.04.12-.06.23-.06.34-.07.01-.11.42-.19.85-.16-.26-.07.13-.06.52-.24.48,0-.61.2-.01.18.15-.15.47-.19.7-.28.42.03-.5.13-.36.18.42-.06.51-.06.78-.18.39.03-.29.07-.18.12.74.04.98-.12,1.73-.25.2.02.09.07.41.08.39-.12.74-.09,1.12-.13.1.04-.08.09-.03.14-.12.04-.23.02-.35.04-.28-.01.02-.07.02-.1-.52.06-.68.14-1.29.18.37-.01.73.01,1.11-.06.28.02-.47.05-.18.09-.39,0-.79.06-1.19.09-.08.03.11.03,0,.07-.33.07-.1-.06-.42-.04-.15.05-.29.06-.43.06-.05.23-.83,0-1.28.25-.3.01.08-.12-.33-.04-.25.12.07.12-.18.24.22,0,.45-.1.67-.09.09-.04-.08-.03-.16-.04.28-.12.57-.11.85-.12.05.06-.27.06-.35.14-.34.06-.67.11-1.01.22-.3.01.07-.12-.33-.04-.27.18-.86.31-1.52.43-.66.09-1.37.31-1.9.45-.06-.03.32-.19.16-.19.5-.12.99-.27,1.5-.35.51-.08,1.01-.17,1.52-.27.16-.09-.38.01-.5.1-.26,0-.6.07-.25-.07-.28.07-.57.13-.84.2-.07-.03.24-.14-.17-.11-.26.17-.35.16-.75.26-.32.05.07-.1-.25-.05-.59.14-1.32.42-1.66.58,0-.03-.18,0-.09-.06.23-.12.03.08.33-.1-.51.07-1,.28-1.49.42l-.55.34c-.17.02-.19-.03-.51.05-.31.24.23.03.35.05-.29.18-.61.11-.89.33-.39.08.3-.26-.19-.14-.07.05.04.02.09.02-.66.3-1.22.55-1.83.82-.3.23.23.05.5-.09-.28.17-.53.48-.83.54-.16,0,.32-.18.21-.2-.17,0-.3.2-.48.2-.16.15.05.07-.36.31-.19.06-.2.02-.03-.1-.45.14-.34.33-.74.49-.13.02.38-.34.03-.2-.27.21-.17.2-.34.34-.1.07-.19.13-.3.18-.03-.04.38-.29.26-.31-.38.24-.31.13-.71.29-.36.18-.72.41-1.05.63-.31.24-.61.47-.84.65.36-.4-1.19.74-1.67,1.09-.02-.12.65-.48.88-.77-.63.33-1.03.89-1.46,1.12-.06.08.09-.01.17-.05-.14.23-.36.31-.51.52-.6.27-1.16.98-1.51,1.16-.53.63-.94.88-1.32,1.44.22-.23.08-.06.28-.19-.59.8-.88.85-1.01.78-.11.22.06.14,0,.3-.26.27-.51.55-.79.8-.12.06.28-.38.35-.53.07-.05-.9.96-1.03,1.18-.14.15-.2.07-.04-.06-.06-.06-.22.27-.33.41-.04.09.08-.03.15-.08-.46.55-1.24,1.3-1.73,2.17l-.31.3c-.07.17-.21.28-.26.47-.54.51-.82,1.28-1.32,1.82-.34.74-.76,1.39-1.2,2.02.18-.46.16-.51.3-.87-.41.78-.71,1.65-.98,1.98.13.07-.09.67.15.56-.19.37-.41.77-.6,1.14.14.05.69-1.43.84-1.28-.04.18-.19.28-.28.43.06.12-.28.65-.34,1.02-.02-.08-.06-.16-.28.22.08.01,0,.28-.1.65-.16.22-.41.62-.33.69-.15.26-.14.07-.27.42-.11.14-.03-.06.02-.29-.14.34-.28.7-.36,1.09-.15.26,0-.37-.15-.1-.03.16.05.35-.13.63.02.07-.02.3.13-.02-.13.49-.11.41-.1.65,0,.2-.19.28-.2.48-.07.41.13-.18.2-.28-.06.23-.19.42-.22.67-.09.15.02-.4-.12-.07.04.14-.13.62-.13.42-.01.57-.3,1.41-.6,2.11.03.04.01.27.05.31.11-.35.08-.18.22-.47.03-.23-.04-.07-.1.05.16-.72.44-1.38.66-2.07-.1.62-.38,1.15-.48,1.77.1-.3.2-.6.32-.89-.05.36-.22.65-.2,1.05-.09.15-.05-.18-.17.11,0,.16-.06.29-.06.45-.07.21-.06.01-.06-.12-.07.16-.04.35-.13.5.07.13-.09.67,0,.75-.14.44-.1-.06-.22.27-.02.37-.23,1.14-.29,1.18,0,.56-.11.52-.13,1.05-.08.18.01-.28-.02-.38-.13.47-.12.99-.23,1.47.03.21.04.25.12.31-.06.29-.04.86.04.91-.06.38-.05-.24-.11.14-.04.26.01.54-.06.79.02.34.08.13.06.46-.07.27-.09-.44-.15-.4-.04-.22.13-.38.05-.61-.08.06-.11.76-.08,1.14-.05.31-.07.08-.12.32.06.46.13,1.38.05,1.51-.02.15.03.17.05.1.02.33.03.65-.04.96.08.22.04.41.12.63-.08-.39.07-.73-.02-1.14.08-.24.12.13.17-.49.12.53,0,.65-.02.78.08.36.06-.34.13-.32-.05-.19-.06-.36,0-.52-.06-.24-.02-.44-.09-.46-.04.28,0,.53-.08.42-.03-.21.07-.39.02-.61.07-.14.09.26.12-.23-.11.15,0-.39,0-.7.02-.05.11.06.08.28-.01-.24.15-.78.12-1.2.16-.29.1-.85.25-1.07,0-.45-.08-.42-.02-.9.04-.08.04.16.05.29.15-.34.13-.73.22-1.09-.03-.15-.05-.07-.09.15-.05-.27.07-.61,0-.63.02-.02.12-.08.11-.32.08-.15.04.05.05.29.11-.44.09-.93.3-1.33-.14-.22.2-.6.13-1.05.08.13.11-.34.19-.37-.05.32-.08.64-.22.91.09.33-.19,1.09-.31,1.6.05.05.09.1.1.48-.09-.89.62-2.35.48-3.26.1-.53.25-1.07.43-1.57,0-.15-.04-.08-.11.13l.04-.55c.03-.17.09-.33.16-.49-.02.28-.14.5-.12.79.11-.23.17-.48.27-.71l.03-.37c.03-.14.08-.28.13-.41.09-.15.06.07.04.31.19-.6-.05-.41.22-1.04,0-.08-.03-.09-.1.04.03-.18.07-.35.14-.51.02.4.49-.85.7-1.24-.13.5-.63,1.64-.5,1.66-.17.49-.38.95-.48,1.46.08.1.17-.59.29-.79-.09.41-.1.4-.1.71-.19.13-.14.48-.33.58-.05.44.05.28.15.17-.06.33-.16.29-.22.45-.01.21-.08.4-.07.62-.11.29-.09.07-.18.29,0,.41-.04.22-.13.58-.03.41-.14.79-.16,1.21-.1.33-.07-.08-.13.04.05-.42.27-1.15.13-1.13-.05.22-.04.47-.06.71-.03.01-.05.03-.1.14,0,.4,0,.48-.13.77-.03.51.12,0,.1.5,0,.09-.02.17-.01.26-.08.29-.09,0-.13-.05-.11.2-.06.45-.15.66,0,.18.03.11.07.02-.02.52-.24.98-.15,1.55-.12.91-.08,1.64-.24,2.37.07.31.02.58.02.87.08.12.1,0,.15.29.07-.39.05-.39.14-.65-.08-.21-.06-.05-.13-.38,0-.38.08-.73.01-1.13.07-.2.1.4.16.48.06-.19.03-.85.13-.74.06-.56-.04-1.17.17-1.68.01.35-.07.68-.03,1.04.03-.22.02-.45.12-.66-.06-.11-.05-.19.04-.34-.04-.69.22-1.27.25-1.93.09-.32.05.06.08.2.08-.2.07-.44.14-.65-.08.12-.15.1-.28.51-.03,0-.05-.05-.07-.12.03-.2.08-.39.13-.58.05-.08.03.22.13-.13.01-.22-.02-.19-.03-.29,0-.12.06-.21.06-.33.11-.18,0,.19.06.21,0,.27-.15.48-.13.76.48-2.56,1.22-5.09,2.2-7.48-.06-.24.3-.97.45-1.06,0-.2-.16,0-.15-.21.15-.47.25-.35.4-.82.05-.06,0,.1-.01.2.19-.37.28-.81.5-1.16-.06.57.5-.85.92-1.35.13-.32-.07-.01-.16.08.32-.6.19-.32.52-.84.03-.11-.15.16-.1.02.07-.16.16-.29.26-.42-.01-.05,0-.15.09-.36.14-.36.2-.16.33-.58.09-.09.07,0,0,.22.54-.84.49-.67,1.12-1.75.06-.03.08-.01.02.13.33-.74.86-1.3,1.27-1.98.04-.01.08-.03.05.05.18-.24.31-.55.46-.84.19-.18.21-.16.07.08.6-.82,1.32-1.46,1.9-2.34.24-.2,0,.12.24-.08-.09.15-.24.23-.31.4.5-.61,1.1-1.42,1.87-2.03.05-.15-.5.41-.19,0,.35-.25.64-.44.89-.72.12-.27-.25.24-.45.36.18-.28.42-.47.64-.68.04.04,0,.14-.04.26.63-.57,1.04-1.07,1.81-1.64.06-.02-.06.11.03.06.12-.06.23-.15.35-.2.22-.24.09-.15.36-.39.04.02.12,0,.31-.1.32-.28.67-.5,1.01-.74.17-.07-.19.21-.26.23.29-.1.84-.59,1.01-.8.39-.18.07.06-.1.22.5-.3.95-.74,1.47-.98.17-.07-.19.23-.28.21.11.02.39-.12.74-.32-.11.06-.42.28-.12.15-.14.1-.3.13-.41.29.26-.07.46-.3.72-.38-.11,0,.07-.18.35-.27.07-.07-.13.05-.24.06.29-.18.58-.33.86-.58.37-.13-.14.17.18.06.21-.16.59-.35.57-.43.63-.32,1.42-.51,1.85-.73,0-.04-.09-.05.21-.21.27,0-.17.22.49,0-.2.15-.41.18-.61.27.04.08.71-.29,1.01-.37.03-.04-.1-.02.07-.12.25-.07.42-.14.64-.1.3-.13.09-.11.39-.24.24-.08.48.02.88-.23.23-.03.03.06.32.01-.18.1-.37.13-.56.18.61-.07,1.35-.34,2.17-.5.82-.17,1.67-.36,2.41-.48.01.04-.13.12-.33.2.29-.03.59-.16.89-.12.22-.06.14-.09.09-.13.72-.08,2.03-.06,2.79-.35.23.06-.29.08-.26.14.53-.04.64-.02,1.06-.02.08-.03,0-.06.1-.09.55-.04,1.42.13,1.72-.02.19.04.08.08.38.11.25-.03.52-.08.74.01.42-.15,1.39.12,2.07.03-.07.03.28.08.13.11.42-.03.85-.01,1.21.15.18-.02.34-.02.51,0,.01.02.03.05.14.09.09-.04.53.02.32.04.27-.01.69.05,1.13.15-.08-.08.14-.07.44-.02.07.04-.1.02-.19.03.39.1.8.16,1.19.26-.34.01-.41-.1-.59-.04.23.07.46.14.71.17.07.04-.16.02-.27.03-.29-.06-.54-.23-.87-.2.36.05.16.15.52.2.07.09-.24.04-.52,0-.12-.07.08-.06.13-.1-.29-.11-.43-.04-.59-.02-.27-.04-.55-.04-.79-.14.59.1.48-.04.92.04.17-.04-.5-.1.04-.1.33,0-.11.09.22.09.44.02.07-.03-.12-.13.11,0,.22.03.32.06-.32-.15-1.41-.16-2.01-.31.14.12-.31-.02-.36.05.38.05.76.09,1.15.09.12.24-1.18,0-1.61,0-.57-.16.02-.17-.32-.3-.06.1-.53-.1-.83,0,.26-.02.96.1.69.17-.42-.16-.44.03-1.05-.09-.32-.07.12-.1-.2-.16l-.43.06c.12.03.23.06.14.08-.78.06-1.53-.07-2.3,0,.22.08.48,0,.72.06-.47.03-1.29.12-1.45-.02.21,0,.43-.01.66-.08.11-.07-.39-.01-.22-.08-.52.03-.97.17-1.3.03-.2.07-.39.04-.57.03,0,.03-.18.06-.1.09-.59-.07-1.62.21-1.93.09-.34.05-.71.11-1.06.16-.01-.03.03-.06.09-.09-.3,0-.22.09-.41.13-.32-.02-.13-.1.01-.17-.37,0-.82.15-.96.05-.11.09.2.1-.17.24.5-.04.19-.19.8-.22.1.05-.02.11-.33.2-.61.15-1.22.1-1.84.26-.23-.05.26-.11.48-.2-.27,0-.54.11-.8.19.02.02.05.04.16.04-.21.06-.3.02-.32.1-.46,0-.89.34-1.34.29-.05.09-.7.29-.79.22-.24.23-.99.4-1.48.53-.14.08-.05.07-.14.13-.4.09-.84.32-.85.2l-.51.33c-.53.14.14-.17-.18-.11-.32.21-.66.3-.98.42-.03.08-.33.29-.4.39-.22.03.32-.31-.04-.21.04.17-.9.62-1.38.77-.36.22-.3.28-.69.48,0-.07.24-.3-.17-.02-.09,0,.09-.17.31-.36-.05.01-.1.05-.14.08l-.15.05c-.21.18-.03.12-.24.3-.34.27-.34.1-.75.29-.24.22-.53.28-.77.48.32-.08.59-.27.86-.48.01.04.19-.02.39-.09-.31.17-.25.22-.64.36-.3.22.2-.04-.11.18-.17.05-.41.18-.68.34-.26.18-.53.36-.78.54-.06.1.41-.23.55-.35.14.06-.52.51-.83.7-.23.07.46-.34.24-.26-.37.16-.24.25-.59.45.16-.22-.09-.03-.45.24-.36.26-.77.66-1.03.75-.11.19-.56.62-.85.96-.06-.18-.93.87-1.04,1.05-.1.07-.2.13-.15.05-.07.14-.34.32-.55.63-.25.09-.38.42-.75.88-.1.06.01-.13-.23.08-.64.82-1.01,1.2-1.63,2.07-.1.06,0-.13-.21.13.07.11-.3.5-.51.63.17-.06-.09.43-.38.77-.14.05.3-.42.18-.4-.1.09-.17.21-.27.3-.04.13.11,0-.08.26-.08.06.09-.22-.01-.13-.34.39-.38.57-.32.59-.2.37-.08-.08-.28.28.09.01-.08.34-.25.65-.15.05-.14.21-.37.42.05.05-.16.41-.3.59-.05,0,.07-.16-.02-.13.02.18-.71,1.22-.5,1.17-.18.23-.2.6-.38.83-.17.16.08-.27.12-.53-.16.25-.27.54-.43.79.1.25-.45,1.2-.56,1.5-.04-.06.11-.44.15-.59.09-.14.08-.05.05.04.19-.3.07-.26.23-.63-.25.48-.29.61-.6.95-.11.33.08.01.06.15-.32.37-.96,2.21-1.23,2.85-.03.11-.16.68-.03.45-.07.44-.32.73-.21.81-.12.21-.07-.07-.12-.07.03-.14.11-.24.18-.36.02-.28-.16.13-.01-.39-.14.4-.11.48-.23.99-.03.01-.05.02-.11.12-.04.29.09-.14.13-.02-.05.25-.19.45-.19.73.48-1.15.87-2.33,1.37-3.48.17-.32-.02.23.15-.09.12-.28.05-.22.09-.42.19-.26.03.26-.02.57-.27.63-.69,1.27-.88,2.17-.08.23-.22.43-.28.67.14-.18.11-.12-.08.33-.06.28.06.04.04.21-.32.51-.27.7-.41,1.23-.09.2-.07,0-.18.27.08,0,.06.27-.07.59-.09.2.04-.43-.09-.05,0,.12-.04.22-.08.32.02.02.03.12.02.28-.23.66-.27,1-.47,1.53.11.19-.13.52-.12.9-.09.14.04-.31,0-.43-.05.3-.09.6-.18.88-.02.17.06.36,0,.51.1-.07.08.02.1.46.05-.63.19-.85.22-1.36.13-.27.02.22.13-.03.01-.34-.03-.38-.1-.3.01-.2.07-.38.06-.58.11.02.15-.51.18-.79.11-.17,0,.37.07.46.07-.3.05-.32.03-.51.04-.09.16-.3.29-.74-.04-.01-.01-.3,0-.53.08-.07.1.07.24-.23,0-.23.11-.41.16-.63.01.1.1-.07.13-.02.17-.85.54-1.63.83-2.43.06-.52.35-.89.47-1.38.47-.69.71-1.97,1.16-2.36.02-.18.12-.3.15-.48.15-.15.23-.34.36-.51-.12.31-.28.52-.25.7-.02-.18-.12.15-.26.39-.03.22.09-.07.19-.25-.1.39-.29.69-.44,1.04-.09.11.1-.37.17-.46-.13.07-.39.88-.56,1.24.12-.14.14-.35.26-.48-.32.66-.34.97-.57,1.61-.12.2.12-.54-.07-.14l-.06.34c-.3.62-.51,1.44-.61,1.92.06-.48-.16.25-.31.64.02.07,0,.27.1-.03-.06.58-.23.58-.27,1.09-.1.2-.12.06-.16,0-.08.2-.06.59-.03.6-.05.34-.35.88-.25,1.01-.04.14-.17.65-.19.51.02.34-.12,1.21-.33,1.9.04-.43.05-.38.02-.75-.09.26-.16.49-.25.75-.02.24.16-.2.07.11.06.17.06-.36.09-.47.1-.03.03.92-.12,1.29-.07.53.08,1.13-.09,1.62l.05.34c-.05.26-.07-.03-.1-.03-.05.31.07.67-.02.97-.07.15-.03-.32-.06-.42-.02.91.01,1.76-.1,2.32,0,.27,0,.53.07.82.03-.18.06-.22.08-.06-.1.31.05,1.19,0,1.75-.06-.19-.11-.39-.08-.57-.05.15,0,1,.01,1.43.11.38-.01-.28.06-.39.07.28.03.54.13.81.02-.06.05-.05.09.09.03-.2-.03-.29.04-.31.02.11.03.21.07.32-.09.39-.04.51-.05,1.02-.11-.27,0-.53-.12-.8-.05.18.02.37-.03.55.05-.16.19.58.21.89-.01.08-.06-.08-.09-.17-.07.21.05.42.02.63.06.14.04-.21.08-.15.15.56.14,1.11.28,1.67.09,0-.08-.4-.07-.63,0-.05.03,0,.04-.08.03.4.1.51.23.95.09-.02-.02-.4-.12-.55-.01-.36.16.35.08-.15.08.25.21.79.22.4Zm6.62-28.16c.1-.29.32-.46.49-.68-.12.27-.32.47-.49.68Zm18.46-12.63c-.21.14-.71.22-.35.22-.4.16-.8.25-1.21.33.19-.13.24-.09.42-.26.12-.01.24,0,.36-.05.09-.05-.06-.03,0-.07.26-.04.52-.21.79-.17ZM8.51,46.63c-.03-.31-.1-.25,0-.61.05,0,.08.39,0,.61Zm-1.85.18c0-.58-.01-.65-.09-1.16.09-.19.06-.42.03-.65.09-.28.11-.34.23-.49,0-.5-.11-.19-.19-.08.15-.75.3-.63.32-.16-.24.59-.02,1.32-.14,1.94-.1.31-.01-.36-.09-.22.02.3-.01.83-.08.82Zm36.75,33.86c.33-.02.62.1.95.08-.34.06-.65,0-.95-.08Zm26.14-5.81c.15-.03.64-.36.55-.22-.23.06-.74.46-.55.22Zm13.55-15.48c-.11.2-.16.46-.33.62.04-.2.32-.76.33-.62ZM7.95,17.16c-.23.31-.43.64-.68.92.17-.28.59-.97.68-.92Zm5.45-4.86s-.27.33-.52.57c-.24.26-.48.47-.42.32.33-.26.57-.67.94-.9ZM1.15,39.61c-.02-.1-.05-.06-.07-.29.04-.13.04-.29.08-.42.04.25.07.5,0,.71ZM22.09,8.61c-.63.39-.92.56-1.47.87.47-.35.97-.63,1.47-.87Zm-11.38,10.69c-.16.19-.49.78-.53.72.13-.21.47-.8.53-.72Zm-3.95,7.04s.02.34-.13.49c-.09.11.05-.41.13-.49Zm-1.62,19.96c0,.17.04.09.08.24-.08.23.1.48.03.71-.14-.27-.17-.96-.11-.95Zm.74-11.04c-.03.21-.02.44-.12.62-.02-.36.1-.58.12-.62Zm3.83-9.94c.04.06-.17.51-.33.7.06-.28.2-.49.33-.7Zm1.05-1.99c-.11.25-.43.83-.5.78.18-.24.26-.57.5-.78Zm-8.18,14.1c.08-.56.1-1.14.2-1.69.02.56-.11,1.46-.2,1.69Zm12.75-18.77c.03.09-.29.49-.5.65.11-.28.3-.48.5-.65Zm-7.14,7.25c-.11.24-.17.52-.32.73.05-.23.27-.83.32-.73Zm-5.9,11.42c-.06.11-.06.67-.13.49.04-.23.06-.77.13-.49Zm.02-.61c.11-.12.05-.26.12-.58.01.15.08-.17.09-.05-.06.41-.11.28-.08.68l-.08.24c-.02-.1-.05-.06-.05-.29Zm.43-1.53c-.05.28-.03.59-.13.84-.05-.32.01-.59.13-.84Zm4.58-9.33c.04-.17.09-.33.17-.47-.1.37.13.24-.12.7-.12.08.12-.47-.05-.23Zm-4.11,6.71l-.02.36-.1.23c-.03-.23.06-.4.12-.59Zm-1.85,4.79c-.13.1-.03.36-.12.69-.11.02.09-1.29.12-.69Zm6.69-13.15c.29-.43.46-1.09.73-1.26-.07-.11.21-.6.4-.82-.38.69-.21.65-.49,1.36-.26.19-.12.27-.3.36-.18.38-.46,1.18-.59,1.25.04-.06.22-.47.11-.32-.1.26-.23.49-.37.72.04-.24.17-.4.3-.57.07-.26.29-.67.22-.74Zm6.13-5.89c.05.07-.24.4-.4.58-.04-.06.22-.42.4-.58Zm-7.09,7.38l.19-.26c-.03.18-.08.34-.17.47.12-.36-.14.14-.02-.21Zm-5.16,8.69c.02.29-.17.48-.13.78-.09.26-.12-.07-.18.39-.02-.64.21-.66.31-1.16Zm2.09-4.49c-.04.27-.05.55-.18.76.05-.25.03-.55.18-.76Zm-1.48,3.01c-.16.26-.07-.64.1-1,.06.03.04.29,0,.48-.08-.03-.12.32-.09.52Zm8.2-12.87c-.07-.05-.2.25-.24.43-.12.18-.18.23-.22.22-.25.53-.62.94-.83,1.49-.16.2-.1-.12-.24.32-.18.21-.29.13-.02-.23-.03.09-.05.18.05.05-.11-.18.39-.97.64-1.46l.28-.28c.17-.28.27-.63.5-.85,0,.2-.39.85-.63,1.17.06-.05,0,.05-.06.16.15-.22.35-.4.48-.63.15-.41.3-.82.61-1.08-.38.53-.21.46-.32.69Zm-6.58,9.27c.02-.16-.13.17-.09-.06.12-.12.07-.35.2-.47-.03.27.04.23-.02.58l-.13.22.04-.27Zm16.55-15.68c.11-.01-.26.33-.39.34.12-.12.22-.31.39-.34Zm-3.28,1.3c-.06.22-.73.66-.5.46.17-.14.3-.36.5-.46ZM3.32,29.86c-.02.12-.03.24-.04.37-.04.07-.11.23-.11.13.07-.16-.04-.23.15-.5Zm1.4-2.88c-.03.17,0,.14.1-.03l-.08.44c-.1.23-.22.45-.33.68.11-.36.19-.74.3-1.09Zm-1.37,2.69c.01-.19-.06-.15-.11-.16.09-.15.09-.34.2-.48-.12.72.25-.56.27-.33-.16.3-.32,1.12-.45,1.11l.09-.15Zm2.14-3.96c-.16.06-.22.52-.4.83-.05-.29.38-1.13.4-.83Zm.3-.6c.14-.27.13-.03.19-.27.03-.16-.09,0-.06-.15l.2-.27c-.03.13-.09.31.03.13-.05.2-.09.41-.2.57.02-.1.03-.19-.06-.04-.1.3.02.13-.05.37-.21.32-.03-.23-.05-.35Zm1.37-1.85c-.12.36-.26.69-.49.97.12-.36.28-.68.49-.97Zm-3.4,5.17c.11-.43.34-.79.44-1.22-.06.38-.15.6-.32,1.09,0-.09-.05.02-.11.13Zm8.03-10.21l-.14.32c-.17.12-.3.3-.38.53l-.18.16c.19-.38.45-.68.69-1.01Zm-7.28,8.51c-.12.22-.19.46-.31.68.01-.24.28-.79.31-.68Zm15.91-14.15c-.3.28-.68.42-.97.72.04-.21.64-.54.97-.72ZM3.45,28.25c-.05.03-.02-.19-.02-.31.06-.23.14-.45.23-.66.08-.06.07.1.1.17.03-.46.21-.79.34-1.18.24-.27.34-.6.63-1.11-.04.29-.44,1.11-.65,1.59.08-.12.1-.11.1-.03-.18.47-.26.59-.23.34-.12.38-.47,1.6-.73,1.85.18-.38.09-.31.23-.66Zm2.35-3.75c.01.17,0,.34-.24.75.23-.52,0-.24.24-.75Zm-1.77,2.71c.09-.17.15-.36.26-.52-.04.25-.28.8-.26.52Zm8.44-9.89c.09-.1.18-.2.24-.33l.31-.25c.28-.5.42-.54.8-1.04-.09.15.12-.03-.05.2-.26.19-.45.46-.63.74.12-.05.17-.03,0,.26-.17.17-.32.35-.51.5.11-.23.29-.39.4-.64-.13.05-.49.56-.57.55Zm.21-.12c-.13.25-.31.45-.53.61.14-.24.35-.41.53-.61Zm-7.7,8.03c.18-.33-.03.24.15-.1-.06.23-.15.44-.27.63-.04-.02.02-.33.12-.54Zm18.29-13.97c-.16.14-.31.28-.5.34.15-.16.32-.25.5-.34ZM4.66,25.63c.09-.15.08-.05.17-.19-.04.21-.13.39-.24.54l.07-.36Zm4.49-5.86c.1-.11.17-.16.2-.15-.18.32-.34.66-.6.91.09-.29.31-.46.4-.76Zm-3.78,4.61c.25-.37.37-.85.62-1.22-.21.41-.31.9-.56,1.26.03-.12-.07.04-.06-.04Zm1.2-1.61l.1-.35c.08-.07.21-.22.21-.15-.14.13-.17.36-.32.49Zm-1.52,1.89c0-.13-.3.46-.18.07.17-.4.06.04.27-.32l-.1.45c-.07.07-.26.55-.24.34.07-.2.18-.35.26-.54Zm9.42-9.54c-.26.23-.16.29-.48.56.09-.2.47-.69.48-.56Zm-6.76,5.67c-.15.28-.28.57-.45.82.09-.33.29-.57.45-.82Zm18.4-10.89c-.15.1-.29.22-.46.25-.02-.06.26-.23.46-.25Zm-16.82,8.97c-.18.25-.33.53-.54.75.09-.27.51-.81.54-.75Zm6.42-5.02c.26-.27.55-.51.83-.76-.2.3-.88.99-.83.76Zm-9.51,7.49c-.11.35.03-.02.14-.11-.05.23-.21.34-.27.55.21-.19.31-.48.49-.7.06-.04.31-.25.05.16.04-.2-.18.27-.27.32-.08.38-.33.6-.46.95-.18.18-.28.32-.47.71-.04.15.13-.14.1-.02-.41.64-.28.2-.24-.2.11-.16.07-.01.11-.02.04-.15.16-.24.21-.38-.1.12-.16.19-.19.18.1-.32.26-.49.13-.44.1-.18.18-.38.32-.51-.03.13-.15.33-.08.27.13-.26.28-.51.43-.75Zm1.74-1.84s.13-.28.23-.49c.16-.06.36-.52.61-.82-.15.4.21-.31.37-.35-.2.33-.45.58-.64.92-.29.64-.05.62-.47,1.19.22-.46.39-1.1-.1-.45Zm20.5-10.62c.06.02-.34.22-.05.15.36-.2.17-.18.33-.28.12,0,.24-.05.36-.05-.2.19-.48.3-.67.5-.51.06-.6.11-1.13.25.28-.17.67-.4,1.15-.57Zm-11.3,3.66c-.06.14-.26.33-.53.51.17-.19.35-.35.53-.51Zm-12,10.46c-.04.16.15-.16.08.07-.16.39-.28.29-.08-.07Zm3.85-4.72l-.27.68c-.08.08-.12.19-.21.26-.1.02.23-.64.48-.94Zm8.67-6.13c.18-.1.32-.24.22-.08-.14.07-.23.23-.39.28l.16-.2Zm-4.8,2.75c.35-.27-.14.35-.34.51.09-.2.25-.31.34-.51Zm-6.2,5.92c.09-.15.32-.41.22-.14-.14.17-.28.32-.22.14Zm11.32-9.08s-.05.07.02.03c.09-.12.19-.2.3-.28-.18.22-.38.41-.6.55.09-.11.17-.24.29-.31Zm-.33-.14c-.24.12-.39.41-.63.53.14-.2.62-.64.63-.53Zm-13.14,11.08c-.01.19.18-.31.1-.25.14-.19.12-.07.13,0-.19.35-.11.3-.38.8,0-.14.04-.32.15-.55Zm28.85-14.93c-.2.1-.39.08-.58.11.2-.1.39-.14.58-.11Zm-16.77,3.54c-.13.17-.28.28-.46.36.13-.17.28-.28.46-.36Zm6.58-2.68c.35-.11-.03.18-.27.21.19-.14,0-.07.27-.21Zm-5.45,1.85c.27-.28.93-.73,1.04-.68-.33.12-.58.44-.87.65.09-.13-.19.13-.16.04Zm19.39-3.08c-.33.05-.65.11-.96.08.31-.08.9-.17.96-.08Zm-28.32,8.74c-.13.13-.5.64-.48.5.09-.18.5-.64.48-.5Zm5.46-4.75c.25-.12.44-.37.69-.5-.22.25-.49.4-.66.73-.15.08-.25.24-.41.3.25-.33.2-.25.38-.53Zm11.03-4.43c.3-.06.43-.06.1.12-.24.08-.34,0-.69.2.18-.18.39-.19.58-.33Zm-12.21,4.45c-.2.28-.41.55-.66.76.2-.28.39-.59.66-.76Zm6.54-3.26c-.16.15-.33.24-.51.31.14-.17.32-.25.51-.31Zm-2.37.87c-.24.24-.49.45-.76.6.22-.26.5-.41.76-.6Zm1.96-1.02c.42-.17.78-.5,1.19-.72-.2.27-.68.5-1.23.84-.06.08-.01.08-.2.17.01-.05.07-.14.25-.29Zm6.8-2.1c-.38.22-.77.36-1.16.5.37-.23.77-.36,1.16-.5Zm-11.51,3.97c-.16.19-.36.33-.53.5.1-.17-.09-.07.05-.27.32-.21.21-.06.48-.23Zm-1.03,1.03c-.15.03-.28.21-.57.41.43-.44.68-.94,1-1.06-.36.38-.29.42-.43.65Zm1.17-.95c-.18.06-.62.56-.58.4.25-.21.49-.45.78-.59-.12.14-.07.13.11.02-.21.23-.43.43-.67.61.08-.12.51-.48.36-.44Zm5.38-2.72c-.21.09-.39.27-.61.33.14-.15.68-.43.61-.33Zm-.9.54c.21-.17-.26.06.03-.16.34-.17.26.01-.03.16Zm1.81-.72c.18-.18.38-.28.57-.42.22-.04.43-.15.64-.24-.32.2-.17.13-.44.33-.16,0-.26.04-.53.29-.14.05-.23.07-.25.05Zm12.75-1.82c-.22.12-.56.15-.55.23h-.16c-.05.01-.11.03-.16.02.13-.11.53-.23.87-.25Zm9.59,2.23c.19.05.38.03.36.1-.22.04-.58-.08-.36-.1Zm-28.05,1.89c-.2.18-.42.34-.64.48.12-.22.69-.55.64-.48Zm16.75-4.38c-.32.1-.64.16-.96.18.32-.1.64-.16.96-.18Zm-13.92,2.38c-.16.09-.07.08-.2.21-.31.21-.37.13-.74.49,0,.08.45-.27.26-.04-.29.21-.47.3-.62.32.35-.37,1.11-.97,1.3-.98Zm11.52-2.45c.35-.07.69-.28,1.04-.27-.29.14-.58.2-.87.33-.2.02-.28,0-.16-.06Zm-6.47.77c.16-.07.32-.13.48-.16-.19.18-.69.32-.48.16Zm-3.91.97c-.1.09-.12.12-.13.16-.15.09-.31.16-.48.21.19-.16.4-.29.61-.37Zm5.5-1.65c-.24.11-.47.29-.71.35.22-.17.47-.27.71-.35Zm2.37-.61c-.3.2-.42.14-.55.3-.15.03-.24.03-.25,0,.26-.17.53-.27.8-.31Zm-1.77.65c.33-.05.63-.32.96-.34-.26.2-.95.42-.96.34Zm-4.97,1.16c-.18.21-.4.26-.62.33.19-.18.41-.23.62-.33Zm5.51-1.57c-.21.15-.43.19-.64.28-.01-.08.4-.25.64-.28Zm.95-.51c-.41.24-.59.31-.63.42-.29.11-.21.02-.33.02.21-.15.42-.21.64-.32-.11.02-.33.12-.25.04.49-.23.72-.26,1.07-.29-.08.05-.04.07-.24.16-.33.08-.13-.04-.26-.03Zm1.26-.18c-.55.22-1.1.37-1.64.57.03-.1.29-.22.62-.34.34-.09.73-.17,1.02-.23Zm-8.1,1.89c-.38.26-.78.46-1.17.69.37-.27.76-.52,1.17-.69Zm2.5-.76c-.02.06-.03.16-.38.28,0-.02.16-.21.38-.28Zm-.65-.11c.46-.18-.3.24-.05.16.22-.07.41-.28.64-.32-.41.29-.85.47-1.28.67.09-.13.53-.31.69-.51Zm6.92-.99c.53-.26,1.12-.27.91-.1-.25,0-.21-.05-.91.1Zm.07-.25l-.41.21c-.09,0-.25.03-.17-.02.2,0,.38-.23.58-.18Zm-3.38.26c.25-.05.05.07-.07.15-.11.02-.22.08-.33.09l.4-.25Zm-1.47.15c.2-.01.2.06-.05.22-.4.1-.26-.09.05-.22Zm4.42-.48c.24-.15.67-.17.67-.12-.4.2-.3.07-.67.12Zm-3.01-.09c.14-.02.28-.06.42-.11-.4.2-.5.16-.74.38-.15-.06-.41.14-.76.21.35-.21.72-.26,1.08-.47Zm2.37-.63c-.27.02-.66.14-1,.25-.34.13-.64.26-.78.24.48-.22,1.83-.7,1.78-.49Zm-.51.15c-.16.08.13.03-.16.15-.14.03-.29.07-.43.08.37-.15.21-.15.59-.23Zm2.99-.88c.2.03.4-.09.61-.07-.23.08-.46.15-.7.17.1-.05,0-.06.09-.1Zm7.62.16c-.3.01-1.18.11-.93-.03.25.07.97-.04.93.03Zm7.95,2.25c.36.09-.13.13-.36.05.24,0,.05-.06.36-.05Zm-8.19-2.33c-.21.05-.4.02-.59,0,.23-.04.23-.15.45-.13-.08.05.12.09.14.13Zm.29-.16c.43.04.02.17-.28.12.01-.04-.07-.08.28-.12Zm-3.42-.55c.25.07.53-.08.78-.03-.44.1-.88.14-1.31.19l.53-.16Zm3.44.41l-.36.08-.25-.05c.21-.07.41-.04.61-.03Zm1.47.31c.46-.09.37.04.83.06-.29.01-.82,0-.83-.06Zm1.08.09l.32.09c-.19.05-.8.04-.68-.04.21.05.33-.03.36-.05Zm7.9,2.68c-.19-.03-.36-.11-.54-.16.56.11,1.12.22,1.68.33.55.14,1.09.32,1.62.51-.37.02-.6-.23-.96-.24.19.1.38.13.19.14-.35-.1-.17-.12-.49-.26-.38-.03-.67-.2-1.05-.19.21.06.43.08.61.2-.18.01-.32-.06-.51-.04-.28-.08.12-.11-.27-.16-.25-.01.21.13-.13.09-.16-.02-.32-.07-.46-.13.04-.04.39-.02.3-.09Zm-8.92-3.01c.38.08.8,0,1.18.09-.24.06.04.13-.47.13-.39-.05-.07-.09-.14-.14-.26.03-.51,0-.78.07-.3-.04-.07-.09.2-.14Zm-2.97-.63c-.3.09-.6.19-.88.16.29-.06.6-.18.88-.16Zm6.09,1.43l-.36.05-.24-.06c.21-.04.41-.04.59.02Zm2.65-.12c.15,0,.28.03.41.07-.64,0-.88-.24-1.21-.32l-.45.03c-.61-.21-1.27-.19-1.93-.21-.1.08-.36.13-.56.14,0-.13-.33.03-.67-.07.56-.06,1.01-.09,1.35-.18.51.17,1.53.07,2.22.17-.09.02-.56,0-.37.05.33,0,.63.05.96.04-.11-.03-.34-.05-.24-.08.29.1,1.09.09,1.08.2-.4-.1-1.08-.06-.74.07.09-.11,1.17.1,1.18.16-.31-.05-1.2-.22-1.03-.07Zm.4-.12s.39-.03.62,0c-.17.03.38.06.48.13-.39,0-.74-.07-1.1-.13Zm-9.15-1.16c.44-.07.87-.04,1.3-.03-.42.05-1.19.09-1.3.03Zm3.42.5c-.17-.02-.35.05-.51-.02.15-.09.67-.02.51.02Zm1.61.13c-.22.03-.86.02-.76-.06.25.04.52.02.76.06Zm-2.94-.7c-.01.05-.46.1-.7.05.24-.07.47-.06.7-.05Zm13.41,4.64c-.1.05-.47-.12-.45,0-.37-.15.24-.11.45,0Zm.87.24c-.03.06-.42-.07-.69-.07l-.21-.11c.31.04.64.03.9.18Zm-9.04-4.01c-.21-.03-.87,0-.76-.09.25.03.52,0,.76.09Zm-1.46-.64c-.22.04-.42.04-.61-.02.22-.04.42-.04.61.02Zm4.84,1.32c.22.05.44.09.66.14-.29,0-.32.06-.71-.04.16,0-.19-.11.04-.09Zm1.67.51c.13.06.25.1.39.13h-.18s.08.04-.02.03c-.42-.17-.15.04-.37.03-.18-.06-.39-.06-.55-.17.41.03.44-.02.73-.02Zm-.86-.49c.1.05.31.12.21.13-.37-.11-.8-.1-1.15-.27.45.04.66.16.94.14Zm18.26,14.24c.17.2-.01.11-.22-.01-.06-.08-.13-.15-.2-.22.03-.03.27.1.42.23Zm-9.96-9.69c.27.08.51.2.72.36-.27-.05-.36.05-.74-.2.26.04.45.06.02-.16Zm-5.57-3.57c-.31-.09-.36-.16-.28-.18-.6-.11-1.61-.31-1.86-.51.67.22,1.51.33,2,.42-.13.01-.04.08.1.17.06-.06.09-.06.45.04.17.08.02.07.04.1.21-.04.19.02.51.11-.2-.13.31,0,.5.11-.02.05-.37-.06-.63-.06-.55-.18-.57-.23-.83-.2Zm-5.78-2.61c.43.13.82.02,1.08.04.34.13-.2.05-.41.12-.15-.09-.35-.04-.53-.04-.21-.06-.28-.11-.14-.12Zm5.76,2.28c.34.13.69.23,1.04.35-.26-.04-.52-.09-.76-.16.16.02-.66-.2-.28-.18Zm-2.78-1.53s-.41.05-.63-.04c.21.02.45-.03.63.04Zm-.37-.42c-.23.02-.4-.06-.63-.04.21.08.42.11.22.13-.25-.09-.97-.13-.91-.23.39,0,.8-.04,1.32.14Zm5.01,2.67c.1.11.72.16.54.21-.24-.05-.84-.18-.54-.21Zm-1.4-1.05c-.34-.07-.67-.17-1.01-.25.05-.04,1.02.17,1.01.25Zm-2.82-1.31c-.13,0-.17.01-.2.03-.19-.07-.84-.19-.73-.24.29.11.65.08.93.21Zm7.59,3.49c-.52-.13-1.31-.42-1.94-.63.1.08.27.18.01.13-.02-.16-.32-.15-.74-.38.33.05.56.13.5-.02.43.35,1.45.56,2.17.89Zm13.87,15.07c-.13-.21-.42-.32-.52-.54.17.12.63.52.52.54Zm-8.33-10.51c.11.12.25.19.42.24.21.24-.6-.1-.97-.34.47.17.45.15.55.1Zm-11.44-7.67c-.53-.07-1.02-.22-1.53-.32h.28c.41.14.85.19,1.25.32Zm6.89,4.12c-.3-.15-1.03-.42-1.04-.5.3.13,1.05.38,1.04.5Zm-.56-.62c.37.24.81.37,1.19.6-.49-.12-1.29-.55-1.45-.64.13.07.24.06.27.04Zm-5.64-3.35c-.15-.01.16.1.04.1-.21-.09-.46-.11-.65-.21.22,0,.43.03.61.11Zm1.56.5c-.31-.02-.59-.1-.85-.21.29.06.59.09.85.21Zm4.28,2.71c.49.13.52.24.8.45-.16-.04-.26-.05-.28-.03l-.13-.1c.19,0,0-.13-.38-.32Zm-5-3.16c.44.14.92.2,1.32.41-.44-.11-.36.03-.74-.07-.44-.16.09-.14-.27-.22-.14,0,.05.1-.31.04-.21-.11-.07-.13,0-.16Zm1.88.78s-.15.03-.39,0c-.18-.14-.44-.13-.63-.25l.18.02c.22.13.43.1.83.24Zm5.72,3.57c-.36-.16-1.46-.47-1.23-.55.37.24.87.3,1.23.55Zm2.06,1.37c-.22-.08-.43-.17-.61-.29.03-.04.43.13.61.29Zm.2-.11c-.43-.27-1.65-.77-1.5-.89.41.32,1.35.7,1.5.89Zm2.23,1.79c-.23-.07-.41-.2-.59-.33.04-.04.41.17.59.33Zm-.31-.5c.3.36.79.52,1.15.82-.31-.07-1.04-.63-1.5-.92.22.1.07-.03.36.1Zm.19.04c.35.33.55.19.96.54-.43-.2-.23-.09-.44-.14-.21-.13-.8-.47-.52-.4Zm2.36,1.58c-.26-.1-.46-.25-.65-.41.06-.04.5.19.65.41Zm-3.92-3.91c-.32-.06-.53-.24-.78-.38.27.12.56.21.78.38Zm-.11-.13c-.19-.04-.72-.34-.59-.35.17.14.44.17.59.35Zm1.01.75c-.15-.04.16.16.08.16-.21-.06-.4-.14-.54-.27.26.11.08-.12.46.11Zm.18-.31c-.05,0-.39-.11-.34,0,.2.07.36.19.49.33-.4-.19-.86-.3-1.19-.55.63.24.37-.22,1.04.23Zm5.1,5.64c-.17-.06-.59-.41-.44-.38.14.13.35.21.44.38Zm-4.17-4.78c-.21-.07-.39-.16-.52-.31.2.07.39.16.52.31Zm3.68,3.92c.34.21.92.68.94.82.28.16.64.59.77.54l.2.26c-.22-.1-.33-.26-.39-.22-.33-.34-.52-.5-.69-.5-.25-.25,0-.09-.05-.17l-.39-.22c-.25-.32.12-.1-.4-.51Zm2.25,1.99c.27.36-.56-.25-.72-.48.1.05.05-.03.13,0,.43.35.19.33.59.48Zm.8.53c.24.33-.1.06-.35-.06-.08-.11-.24-.16-.3-.28.32.13.4.28.65.34Zm1.15,1.69c-.21-.16-.42-.31-.55-.52.23.14.41.32.55.52Zm7.16,20.87c.07.17.23.72.13.66,0-.19-.12-.44-.17-.44,0-.13.01-.21.04-.22Zm-3.89-17.65c.22.41-.73-.5-.57-.53.2.3.27.21.57.53Zm4.18,18.82c.06.2.15.49.21.75.04.26.05.5,0,.57-.02-.53-.12-.23-.2-.45.02-.28.1-.17.15-.22-.14-.23-.26-.65-.17-.66Zm.39,2.28c-.01-.2-.09-.4-.08-.59.1-.04.2.87.08.59Zm-3.45-21.91c-.23-.2-.41-.42-.56-.66.26.18.41.42.56.66Zm1.02,1.21c.26.13.25.33.41.56-.05-.22.26.1.4.2.18.37-.44-.36-.26.01.08.06.08.01.24.18.08.1.34.57.21.46-.24-.43-1.61-1.77-1.12-1.54-.21-.28-.75-.9-.69-.99.18.13.78.92.82,1.12Zm.47.35c-.31-.33-.56-.68-.82-1.03.3.33.62.66.82,1.03Zm2.54,25.29c-.06.31.06,1.06-.07,1.11.02-.35-.07-1.03.07-1.11Zm-1.55-24.04c.03.11.13.32.06.25-.17-.39-.31-.52-.49-.63-.07-.26.23.13.43.38Zm.68,1.47c.04.19.25.33.27.53-.16-.2-.47-.73-.27-.53Zm0-.72c.08.2.09.29,0,.18-.04-.1-.07-.22-.15-.31-.05-.07-.12-.14-.15-.22l.31.34Zm.62,26.99c-.02-.09-.05-.06-.05-.25.09-.15.07-.33.12-.5.01.26.02.52-.07.75Zm.95-23.57c-.06-.04.14.35.14.4.07.09.06,0,.12.06.22.4.2.56-.04.27-.19-.42-.42-.82-.59-1.25.19.29.29.38.36.52Zm-1.26,24.84l.1-.27c.04.25-.1.63-.1.27Zm2.2-22.81c.14.23.24.47.28.72-.16-.23-.23-.48-.32-.71.03.04.06.07.03,0Zm-2.67,26.09c-.07.15-.12.32-.21.46.02-.11-.13.01,0-.25-.01.16.09.02.12-.18-.05.04-.08.03-.09-.05.06-.13.05-.3.13-.41-.04.38.09.05.05.43Zm3.83-23.71c.11.36.49,1.12.42,1.22-.04-.25-.2-.49-.29-.73.02.14.09.27.11.41-.12-.22-.28-.56-.35-.55,0-.19.05-.3.11-.36Zm-4.32,25.11c0-.12-.06-.07-.03-.27.1-.14.19-.04.03.27Zm4.86-23.38c.05.41-.03.38-.15.27,0-.11-.04-.22-.07-.33.12.18.02-.34.22.06Zm-5.15,23.96c.01-.19.05-.36.16-.49-.01.19-.06.36-.16.49Zm5.54-22.89c-.16-.44-.32-.88-.41-1.33.17.47.23.56.34.91-.03-.04-.04-.02-.03.09.05.11.1.22.1.33Zm.14.67c-.06-.09-.03.09-.06.09-.22-.46-.35-.93-.46-1.4.13.26.11.06.24.32.07.33.21.66.27,1Zm-6.28,23.99c.07-.27.12-.48.03-.42.13-.17.19-.4.29-.59-.06.45.14-.16.12.08-.19.28-.27.64-.44.93Zm6.65-23.41c.02.18-.03.09-.01.25.04.08.05.03.08.08.04.37-.04.16-.15-.08-.02-.11-.02-.22-.07-.33,0,.08-.06-.04-.12-.16l-.02-.25c.21.44.17.37.29.49Zm.05,1.19c.11.28.12.56.19.85-.15-.28-.29-.82-.19-.85Zm.56,1.87c.07.25.17.51.19.76-.13-.23-.12-.45-.18-.68,0,.05,0,.16-.03.08,0-.12.01-.14.03-.17Zm.21,1.96c0-.28-.11-.57-.08-.86.08.24.17.92.08.86Zm-.06-.17c0,.08.02.17.05.26,0,.22-.03.3-.08.16,0-.14-.04-.29-.04-.43.04.11.04-.07.07,0Zm.25,1.97c-.15-.47-.2-.92-.22-1.38.14.46.12.91.22,1.38Zm.23.28c-.14-.18-.2-.72-.24-1.13.13.38.23.76.24,1.13Zm-.1,2.13c-.02.08-.06.03-.07.24-.08-.39-.13-.77-.07-1.13.03.45.1.87.14.88Zm.17,5.2c-.02-.22-.04.27-.11.32-.02-.17.08-.74.12-.59-.04.18.04.11,0,.27Zm-19.88,28.33c-.21.09-.42.2-.65.22.31-.19.62-.38.92-.55l.24-.07c-.43.26-.36.21-.52.4Zm-2.68.99c.37-.05.81-.38.74-.2-.2.04-.8.32-.74.2Zm-30.23-5.16c.72.14-.68-.29.11-.18.2.15.13.13.45.26-.08.02-.26.08-.56-.08Zm.82.09c.09.05.16.12.27.14.12,0,.03-.16.36-.01.04.06-.16.02,0,.13-.39-.13-.41.01-.8-.12-.05-.09-.17-.19.17-.14Zm21.21,7.37c-.26.08-.52.08-.77.1,0-.06.37-.08.61-.19.29,0,0,.07.16.08Zm-23.11-7.85c-.16-.14-.01-.13-.04-.21.16.12.41.1.56.23-.24,0-.29-.01-.52-.03Zm21.31,8c.42-.01.32-.11.69-.11.08.03-.81.23-.69.11Zm-21.51-8.11c-.16-.03-.3-.1-.41-.19.1,0,.18,0,.31.07-.08-.01,0,.05.1.12Zm-3.29,4.55c.25.18.61.22.88.39-.3-.04-.95-.33-.88-.39Zm-1.28-.56c.39.19.81.34,1.17.57-.44-.13-.84-.31-1.17-.57Zm-.6-.21c.12.04.23.08.35.11l.2.15c-.23-.03-.39-.15-.56-.26Zm-15.57-21.13c-.02-.26.09-.09.22.14.13.37.37.88.64,1.42,0,.08.04.23-.01.16-.21-.36-.65-1.11-.85-1.72Zm-.58-2.12c0-.14.03-.21.07-.16.11.53.31,1.05.46,1.56-.21-.46-.38-.92-.53-1.41Zm3.51,13.48c.11.02.58.5.78.77-.32-.22-.53-.51-.78-.77Zm-4.07-15.9c.08.36.15.67.22.96.09.28.19.51.29.67v.32c-.14-.47-.5-1.02-.51-1.94Zm.02,10.87c-.11-.13-.2-.25-.28-.39-.14-.44.29.23.07-.38.16.3.41.56.5.87-.29-.52-.48-.63-.29-.1Zm.1-16.88c.08-.22.08.06.13.05-.05.18-.04.38-.14.54,0-.2.04-.38,0-.59Zm-1.62,3c.02-.24-.11-.43-.13-.55.06-.36.07-.06.11-.14,0-.09,0-.17.04-.25-.02.43-.04.8.08.63,0,.21-.05.35-.1.32Zm-1.44,3.33c-.03.21.1.43.05.64-.09-.17-.13-.79-.05-.64Zm-.16-2.56c.07.47.1.94.09,1.39-.06-.45-.14-.94-.09-1.39Zm.06-1.83c.02.25.02.51-.04.73-.04-.26-.01-.5.04-.73Zm-.35.08c.07-.23.08-.32.03-.37.08-.4.1.44.03.58-.01-.14-.03-.17-.05-.21Zm6-14.76s-.19.45-.34.66c-.03-.03.16-.48.34-.66Z"/>
  <path class="cls-1" d="m38.19.9c-.11.04.23.01.08.05,1.01-.19,1.95-.09,2.93-.09-.4-.05-.81-.09-1.22-.11l-1.24.04c-.09.02.08.04.16.06-.24.01-.48.06-.71.05Z"/>
  <path class="cls-1" d="m6.44,41.54c.04-.25-.04-.52-.03-.77,0,.25-.04.5.03.77Z"/>
  <path class="cls-1" d="m8.75,27.91c-.05.2,0,.17-.02.26.06-.11.07-.25.1-.39.03,0,.06-.02.12-.1.02-.21-.1.06-.2.23Z"/>
  <path class="cls-1" d="m3.66,38.48c0,.34.04-.52.14-.46-.02-.16-.07-.08-.11-.12-.09.35.03.23-.04.58Z"/>
  <path class="cls-1" d="m5.43,33.55c0,.2.03.22.1.04-.04-.02-.02-.21.05-.41,0-.18-.11.28-.14.37Z"/>
  <path class="cls-1" d="m4.87,34.32s-.03-.12-.09.05c0,.23,0,.32.04.36.06-.15.02-.34.09-.48,0-.08-.03.03-.03.07Z"/>
  <path class="cls-1" d="m10.71,24.86c.19-.19.05-.2.09-.31.07-.22.05,0,.19-.23.1-.43.33-.76.57-1.09.01-.09-.01-.11,0-.2-.13.32-.47.95-.76,1.41-.02.2-.13.38-.08.42Z"/>
  <path class="cls-1" d="m4.34,34.96c.17-.97.27-1.55.46-2.61-.06.1-.1.33-.11.22-.12.34-.03.22-.1.58-.08-.1-.25,1.21-.25.85-.1.18-.04.78,0,.96Z"/>
  <path class="cls-1" d="m13.14,21.78c.16-.15.64-.87.9-1.28-.3.42-.62.83-.9,1.28Z"/>
  <path class="cls-1" d="m1.06,45.61c.06,0,.06.3.16.54-.02-.56-.09-.54-.13-.79-.04-.1,0,.14-.03.25Z"/>
  <path class="cls-1" d="m4.76,32.87c.06-.3.17-.57.18-.9-.15.25-.12.6-.18.9Z"/>
  <path class="cls-1" d="m11.95,21.97c-.09.2.06,0,.02.12.12-.13.18-.31.28-.46.04-.15-.17.31-.3.34Z"/>
  <path class="cls-1" d="m2.09,36.9c0-.09-.04.03-.06.07-.03-.19.04-.34,0-.54-.06.33-.14.67-.09,1.04.08-.32.05-.45.15-.57Z"/>
  <path class="cls-1" d="m5.21,28.1c.1-.43.15-.33.31-.76,0-.22-.01-.19,0-.39-.1.36-.35,1.01-.32,1.15Z"/>
  <path class="cls-1" d="m17.47,15.51c-.13.04.27-.3.16-.3-.15.08-.22.29-.39.35.09.01-.18.32.11.18.12-.17.26-.33.41-.45.09-.15-.22.18-.3.22Z"/>
  <path class="cls-1" d="m18.49,14.65c.29-.17.5-.51.82-.64.15-.21-.18.09-.1-.03-.24.23-.49.42-.72.67Z"/>
  <path class="cls-1" d="m19.65,13.56c-.12.07-.08,0-.21.07-.3.31-.64.57-.99.81.13.08.63-.49.94-.59.15-.24.36-.35.59-.45.35-.28.33-.31.62-.59-.13.08-.25.15-.38.23-.16.15.05.03-.02.12-.06.05-.12.09-.17.15-.09.02.11-.16-.17,0-.15.13-.2.2-.2.26Z"/>
  <path class="cls-1" d="m2.4,27.56c0,.09.04-.02.04-.07.06-.12.13-.23.12-.13.06-.13.07-.3.1-.46-.1.21-.17.44-.26.66Z"/>
  <path class="cls-1" d="m6.34,20.07c-.04.15.67-.91.85-1.34-.08.1-.34.62-.31.42-.22.27-.29.67-.54.91Z"/>
  <path class="cls-1" d="m8.97,16.49c.24-.27.41-.32.68-.79-.16-.03-.6.76-.64.57-.21.35.17-.12-.04.23Z"/>
  <path class="cls-1" d="m22.74,7.69c-.14.14.29-.11.38-.13.14-.09.05-.1.21-.16.07-.05.03-.04,0-.03l-.16.04c.09-.02-.33.3-.21.16-.15.05-.06.08-.22.13Z"/>
  <path class="cls-1" d="m15.9,9.36c.03.06.6-.46.86-.6-.04.15.58-.2.8-.33-.06-.08-.3-.02-.47-.02.02.2-.48.29-.93.68,0,.06-.07.13-.26.26Z"/>
  <path class="cls-1" d="m18.37,7.93c.06,0,.27-.14.5-.3.25-.14.52-.31.7-.4.21-.2-.54.29-.33.08-.13.1-.53.42-.87.62Z"/>
  <path class="cls-1" d="m17.55,8.18c-.27.25.06.03.16-.07.14-.06.15-.04.1.03.13-.07.24-.17.37-.24-.14.07-.29.03.2-.2.07-.08-.14.03-.25.07-.18.18-.37.32-.58.41Z"/>
  <path class="cls-1" d="m21.39,5.86c-.14.05-.26.13-.39.19-.28.21.08.04-.19.25.25-.15.23-.21.59-.45Z"/>
  <path class="cls-1" d="m24.81,3.47c-.02.07-.11.07-.33.2.33-.08-.17.15.27.02l.24-.15c-.17.02-.32.02.16-.13.19-.12-.26.09-.34.06Z"/>
  <path class="cls-1" d="m31.12,2.82c-.22.02-.04.05.08,0,.06.02-.02.07-.17.14.27-.03.64-.22.34-.2-.08.04-.17.06-.25.07Z"/>
  <path class="cls-1" d="m40.48,4.12c.1.02.13,0,.09-.01.26-.04.47.11.74.03-.25-.1-.54-.05-.8-.08-.07.02.09.05-.02.07Z"/>
  <path class="cls-1" d="m34.08,1.01c-.35-.03-.7,0-1.06.09.4.03.82-.03,1.22,0,.2-.14.8-.14,1.25-.23-.09.01-1.31.04-1.42.15Z"/>
  <path class="cls-1" d="m35.21,1.01c.47-.04.95-.17,1.41-.14.12-.19,1.38,0,2.04-.1.01-.03-.18-.05-.07-.08-.39.02-.79.12-1.15,0-.29.04-.57.05-.85.05l-.84.07c-.1.04.14.04.25.06-.27.06-.53.02-.8.13Z"/>
  <path class="cls-1" d="m34.29.71c.11.18,2.13-.08,2.57-.16-.83.03-2.04.26-2.57.16Z"/>
  <path class="cls-1" d="m40.91.64c.35.04.7.07,1.05.09.02-.07-.74-.09-1.05-.09Z"/>
  <path class="cls-1" d="m45.62,1.13c.26.07.72.15,1.21.22.49.1,1.02.2,1.44.28-.32-.16-.72-.14-.81-.27-.11.1-.69-.16-1.06-.11-.31-.09.29-.08-.21-.15.13.11-.13.09-.56.03Z"/>
  <path class="cls-1" d="m45.51.95c-.03.09.75.12,1.03.17.21-.04-.32-.06-.4-.14-.33.03-.25.06-.63-.03Z"/>
  <path class="cls-1" d="m48.44,1.68c.58.17,1.17.31,1.77.42-.18-.25-1.2-.34-1.77-.42Z"/>
  <path class="cls-1" d="m57.35,4.53c.23.12.47.2.88.37l-.21-.15c-.26-.03-.43-.18-.68-.22Z"/>
  <path class="cls-1" d="m61.98,6.46l-.53-.17c.38.23.47.12.88.41.19.05-.28-.18-.35-.24Z"/>
  <path class="cls-1" d="m66.27,9.09c0,.2.48.24.71.62.04,0,.08,0,.19.06-.25-.27-.61-.45-.9-.68Z"/>
  <path class="cls-1" d="m72.73,14.29c-.14-.17-.07,0,.05.07.08.13-.11,0-.17,0,.2.21.48.37.62.61.4.16.64.55,1,.88.3.27-.08-.2.21.08-.38-.34-.68-.72-1.1-1.03-.09-.13,0-.09-.11-.23-.04.04-.34-.21-.51-.38Z"/>
  <path class="cls-1" d="m81.17,25.68c.13.43.51.81.63,1.25.07.08,0-.14-.03-.25-.28-.32-.32-.68-.6-1Z"/>
  <path class="cls-1" d="m84.65,34.17s.21,1.08.26,1.1c-.09-.36-.16-.68-.26-1.1Z"/>
  <path class="cls-1" d="m85.74,42.74c.05.14.1.11.15.2.01-.23-.02-.47-.07-.7-.05.16.02.35.03.52-.03.15-.06-.56-.1-.02Z"/>
  <path class="cls-1" d="m73.06,72.84c0-.12-.51.38-.71.49-.07.07-.03.05.01.03l.15-.08c.16-.2.37-.29.55-.45Z"/>
  <path class="cls-1" d="m45.5,74.8c-.42-.05-.85,0-1.27-.11-.2.07-.75-.05-1.13-.1-.05.01-.01.03-.09.04.07.02.03.03-.01.03.84.04,1.65.2,2.5.13Z"/>
  <path class="cls-1" d="m24.77,75.68c-.44-.2.03.12-.41-.08.07.05.15.09.22.14l.18.06c-.38-.26.38.13,0-.13Z"/>
  <path class="cls-1" d="m21.48,73.45c-.34-.35-.05.12-.43-.2-.18-.05.28.27.44.31-.15-.14-.17-.19,0-.11Z"/>
</svg>