<?xml version="1.0" encoding="UTF-8"?>
<svg id="Layer_1" data-name="Layer 1" xmlns="http://www.w3.org/2000/svg" viewBox="0 0 200.26 65.92">
  <defs>
    <style>
      .cls-1 {
        fill: #4285f4;
      }

      .cls-2 {
        fill: #fbbc05;
      }

      .cls-3 {
        fill: #34a853;
      }

      .cls-4 {
        fill: #ea4335;
      }
    </style>
  </defs>
  <path class="cls-4" d="m85.7,34.69c0,9.48-7.42,16.47-16.52,16.47s-16.52-6.99-16.52-16.47,7.42-16.47,16.52-16.47,16.52,6.92,16.52,16.47Zm-7.23,0c0-5.93-4.3-9.98-9.29-9.98s-9.29,4.06-9.29,9.98,4.3,9.98,9.29,9.98,9.29-4.12,9.29-9.98Z"/>
  <path class="cls-2" d="m121.35,34.69c0,9.48-7.42,16.47-16.52,16.47s-16.52-6.99-16.52-16.47,7.42-16.47,16.52-16.47,16.52,6.92,16.52,16.47Zm-7.23,0c0-5.93-4.3-9.98-9.29-9.98s-9.29,4.06-9.29,9.98,4.3,9.98,9.29,9.98,9.29-4.12,9.29-9.98Z"/>
  <path class="cls-1" d="m155.51,19.21v29.57c0,12.17-7.17,17.13-15.66,17.13-7.98,0-12.79-5.34-14.6-9.71l6.3-2.62c1.12,2.68,3.87,5.84,8.3,5.84,5.43,0,8.79-3.35,8.79-9.65v-2.37h-.25c-1.62,2-4.74,3.74-8.67,3.74-8.24,0-15.78-7.17-15.78-16.41s7.55-16.53,15.78-16.53c3.93,0,7.05,1.75,8.67,3.68h.25v-2.68h6.87Zm-6.36,15.53c0-5.8-3.87-10.04-8.79-10.04s-9.17,4.24-9.17,10.04,4.18,9.92,9.17,9.92,8.79-4.18,8.79-9.92Z"/>
  <path class="cls-3" d="m166.83,1.88v48.27h-7.06V1.88h7.06Z"/>
  <path class="cls-4" d="m194.33,40.11l5.61,3.74c-1.81,2.68-6.18,7.3-13.72,7.3-9.36,0-16.35-7.23-16.35-16.47,0-9.8,7.05-16.47,15.54-16.47s12.73,6.8,14.1,10.48l.75,1.87-22.02,9.12c1.69,3.3,4.31,4.99,7.98,4.99s6.24-1.81,8.11-4.56h0Zm-17.28-5.93l14.72-6.11c-.81-2.06-3.25-3.49-6.11-3.49-3.68,0-8.79,3.25-8.61,9.6Z"/>
  <path class="cls-1" d="m25.94,30.41v-6.99h23.55c.23,1.22.35,2.66.35,4.22,0,5.24-1.43,11.73-6.05,16.35-4.49,4.68-10.23,7.17-17.84,7.17-14.1,0-25.95-11.48-25.95-25.58S11.85,0,25.95,0c7.8,0,13.35,3.06,17.53,7.05l-4.93,4.93c-2.99-2.81-7.05-4.99-12.6-4.99C15.65,6.99,7.6,15.28,7.6,25.58s8.05,18.59,18.34,18.59c6.68,0,10.48-2.68,12.92-5.12,1.98-1.98,3.28-4.8,3.79-8.65h-16.7Z"/>
</svg>