<?xml version="1.0" encoding="UTF-8"?>
<svg id="Layer_1" data-name="Layer 1" xmlns="http://www.w3.org/2000/svg" viewBox="0 0 200 65.91">
  <path d="m85.49,34.63c0,9.48-7.42,16.47-16.52,16.47s-16.52-6.99-16.52-16.47,7.42-16.47,16.52-16.47,16.52,6.92,16.52,16.47Zm-7.23,0c0-5.92-4.3-9.98-9.29-9.98s-9.29,4.05-9.29,9.98,4.3,9.98,9.29,9.98,9.29-4.12,9.29-9.98Z"/>
  <path d="m121.12,34.63c0,9.48-7.42,16.47-16.52,16.47s-16.52-6.99-16.52-16.47,7.42-16.47,16.52-16.47,16.52,6.92,16.52,16.47Zm-7.23,0c0-5.92-4.3-9.98-9.29-9.98s-9.29,4.05-9.29,9.98,4.3,9.98,9.29,9.98,9.29-4.12,9.29-9.98Z"/>
  <path d="m155.25,19.15v29.58c0,12.2-7.25,17.19-15.81,17.19-8.06,0-12.92-5.36-14.75-9.74l6.36-2.63c1.13,2.69,3.91,5.86,8.38,5.86,5.48,0,8.88-3.36,8.88-9.68v-2.38h-.26c-1.64,2-4.79,3.75-8.76,3.75-8.32,0-15.94-7.2-15.94-16.46s7.62-16.58,15.94-16.58c3.97,0,7.12,1.75,8.76,3.69h.26v-2.6h6.94Zm-6.33,15.54c0-5.8-3.87-10.04-8.79-10.04s-9.17,4.24-9.17,10.04,4.18,9.92,9.17,9.92,8.79-4.18,8.79-9.92Z"/>
  <path d="m166.74,1.81v48.36h-7.16V1.81h7.16Z"/>
  <path d="m194.08,40.05l5.61,3.74c-1.81,2.68-6.18,7.3-13.72,7.3-9.35,0-16.34-7.23-16.34-16.47,0-9.79,7.05-16.47,15.53-16.47s12.72,6.8,14.09,10.47l.75,1.87-22.01,9.12c1.69,3.3,4.31,4.99,7.98,4.99s6.24-1.81,8.11-4.56h0Zm-17.27-5.92l14.71-6.11c-.81-2.06-3.24-3.49-6.11-3.49-3.67,0-8.79,3.24-8.6,9.6Z"/>
  <path d="m25.79,30.22v-6.95h23.41c.23,1.21.35,2.64.35,4.19,0,5.21-1.42,11.66-6.02,16.25-4.47,4.65-10.17,7.13-17.73,7.13-14.01,0-25.79-11.41-25.79-25.42S11.78,0,25.79,0c7.75,0,13.27,3.04,17.42,7.01l-4.9,4.9c-2.98-2.79-7.01-4.96-12.53-4.96C15.55,6.95,7.55,15.19,7.55,25.42s8,18.48,18.23,18.48c6.64,0,10.42-2.66,12.84-5.09,1.96-1.96,3.26-4.77,3.76-8.6h-16.6Z"/>
</svg>