<?xml version="1.0" standalone="no"?>
<!DOCTYPE svg PUBLIC "-//W3C//DTD SVG 20010904//EN"
 "http://www.w3.org/TR/2001/REC-SVG-20010904/DTD/svg10.dtd">
<svg version="1.0" xmlns="http://www.w3.org/2000/svg"
 width="588.000000pt" height="588.000000pt" viewBox="0 0 588.000000 588.000000"
 preserveAspectRatio="xMidYMid meet">
<metadata>
Created by potrace 1.14, written by Peter Selinger 2001-2017
</metadata>
<g transform="translate(0.000000,588.000000) scale(0.100000,-0.100000)"
fill="#000000" stroke="none">
<path d="M2508 5455 c-2 -1 -46 -5 -98 -9 -94 -6 -142 -11 -210 -22 -19 -3
-51 -7 -70 -10 -107 -13 -385 -86 -530 -138 -737 -266 -1293 -823 -1495 -1496
-14 -47 -27 -94 -29 -105 -2 -11 -9 -38 -14 -60 -6 -22 -13 -58 -17 -80 -3
-23 -7 -50 -9 -60 -13 -67 -20 -190 -20 -320 2 -374 77 -684 248 -1030 60
-121 227 -393 255 -415 3 -3 33 -39 66 -80 103 -128 285 -314 400 -407 33 -26
65 -53 70 -59 16 -17 144 -107 240 -169 50 -32 103 -67 118 -77 110 -75 603
-296 757 -339 25 -7 50 -14 55 -15 39 -11 132 -37 140 -39 6 -1 17 -5 25 -8
19 -7 187 -38 218 -40 12 -1 22 -4 22 -8 0 -3 12 -4 28 -2 21 4 24 2 12 -6
-13 -9 -13 -11 2 -11 9 0 19 4 22 8 2 4 23 6 46 4 24 -3 38 -7 32 -11 -5 -3
36 -7 92 -8 55 0 112 -2 126 -3 23 -1 23 -2 5 -10 -16 -7 -17 -9 -3 -9 9 -1
20 4 23 9 3 6 11 10 16 10 6 0 8 -4 5 -8 -3 -5 1 -9 9 -9 8 0 12 4 9 9 -3 4
14 7 38 7 41 -1 41 -2 13 -9 -33 -9 234 -4 275 5 14 3 43 8 65 10 52 4 146 15
165 19 209 39 490 116 585 161 130 61 180 82 245 105 36 13 72 29 80 35 8 7
34 22 57 34 22 11 43 24 45 29 1 5 42 30 91 56 76 42 149 98 222 171 11 11 36
32 55 47 42 31 128 115 190 183 103 113 242 335 256 407 6 30 -4 21 -41 -37
-19 -30 -40 -55 -45 -55 -6 0 -8 -5 -4 -12 4 -7 3 -8 -4 -4 -6 4 -19 -6 -29
-21 -43 -69 -262 -330 -237 -283 5 8 22 30 38 48 17 18 36 41 43 50 7 9 30 40
52 68 86 112 208 304 193 304 -4 0 -22 -21 -39 -48 -39 -56 -242 -268 -223
-232 7 14 39 57 70 95 55 68 160 235 160 256 0 5 13 36 29 67 40 78 61 130 67
170 3 18 12 48 20 67 16 38 20 125 5 109 -14 -14 -61 -105 -61 -118 0 -6 -10
-29 -21 -51 -12 -22 -28 -57 -35 -79 -8 -22 -25 -53 -38 -70 -13 -17 -33 -51
-46 -76 -12 -25 -28 -48 -35 -52 -7 -4 -20 -28 -29 -53 -10 -25 -22 -45 -27
-45 -5 0 -9 -7 -9 -15 0 -8 -4 -15 -10 -15 -5 0 -10 -7 -10 -15 0 -8 -5 -15
-10 -15 -6 0 -16 -11 -22 -25 -6 -14 -17 -25 -23 -25 -7 0 -20 -10 -31 -22
-10 -11 -53 -48 -94 -81 -41 -33 -108 -89 -148 -126 -41 -36 -85 -71 -98 -77
-13 -5 -22 -13 -19 -15 3 -3 -2 -6 -10 -6 -8 0 -15 4 -15 8 0 4 -17 -8 -37
-26 -21 -19 -41 -35 -44 -35 -4 0 -22 -14 -40 -30 -19 -17 -44 -33 -56 -36
-13 -4 -20 -11 -16 -18 3 -6 1 -6 -8 1 -10 11 -19 8 -43 -15 -16 -15 -26 -21
-22 -14 4 6 2 12 -4 12 -7 0 -14 -9 -17 -19 -3 -11 -20 -27 -39 -36 -33 -16
-48 -33 -19 -21 22 8 18 -2 -6 -15 -15 -8 -19 -8 -15 0 12 19 -10 12 -29 -9
-10 -11 -21 -17 -26 -14 -8 5 -139 -43 -149 -55 -3 -3 -9 -7 -15 -8 -5 -1 -41
-13 -80 -27 -64 -23 -68 -23 -46 -5 l25 20 -30 -7 c-16 -3 -38 -15 -50 -25
-11 -11 -23 -17 -26 -13 -4 3 -20 -2 -38 -11 -25 -13 -34 -14 -46 -4 -12 10
-13 9 -9 -3 4 -10 -1 -17 -14 -21 -12 -3 -19 -1 -15 4 3 5 1 9 -5 9 -5 0 -11
-6 -14 -12 -3 -10 -8 -10 -21 1 -14 12 -16 12 -10 -3 5 -12 0 -16 -17 -17 -13
0 -33 -2 -44 -4 -42 -8 -61 -8 -82 -1 -13 4 -28 4 -35 0 -7 -5 -19 -9 -28 -10
-8 -1 -28 -5 -45 -9 -41 -9 -57 -9 -77 0 -12 5 -18 3 -18 -7 0 -12 -27 -14
-157 -12 -198 3 -381 11 -392 18 -12 8 -58 14 -144 21 -44 3 -87 10 -97 15
-10 6 -29 10 -41 10 -24 0 -82 16 -111 31 -10 5 -25 9 -33 9 -10 0 -13 5 -9
13 5 7 0 6 -11 -3 -17 -14 -18 -13 -12 2 5 13 0 16 -21 16 -25 -1 -117 23
-167 42 -36 14 -60 22 -85 27 -13 2 -28 10 -32 16 -4 7 -8 9 -8 5 0 -16 -365
164 -452 223 -32 22 -60 39 -64 39 -10 0 -78 53 -108 85 -16 16 -26 23 -22 15
4 -8 0 -6 -8 4 -9 11 -16 16 -16 10 0 -5 -5 -1 -11 9 -5 9 -15 17 -20 17 -6 0
-7 -6 -3 -12 5 -9 2 -9 -9 1 -19 15 -23 26 -5 15 7 -4 8 -3 4 4 -4 7 -12 12
-18 12 -6 0 -20 10 -32 23 -12 12 -44 40 -71 62 -27 22 -64 55 -83 72 -19 18
-39 33 -44 33 -5 0 -7 4 -3 9 3 6 -11 21 -30 34 -20 14 -64 58 -98 98 -33 41
-67 77 -73 82 -15 9 -143 191 -151 216 -4 9 -23 41 -42 71 -20 30 -65 114
-100 185 -35 72 -67 138 -72 147 -5 10 -9 28 -9 41 0 13 -4 27 -9 33 -5 5 -23
63 -39 129 -28 112 -41 185 -63 330 -18 128 -19 141 -10 120 7 -14 9 -3 7 40
-1 33 1 74 5 90 5 17 11 48 14 70 2 22 8 60 11 84 3 25 13 77 21 115 8 39 17
97 20 129 3 36 9 55 15 51 6 -4 8 -1 6 7 -3 8 2 22 10 32 8 9 15 32 15 50 0
17 2 26 5 19 3 -9 9 -7 19 8 12 16 13 24 4 29 -8 5 -4 16 14 35 14 15 23 31
20 36 -3 5 -1 11 5 15 5 3 10 11 10 16 0 6 -4 7 -10 4 -5 -3 -10 -1 -10 4 0 6
4 11 8 11 5 0 19 25 31 55 13 30 27 55 33 55 14 0 38 26 31 34 -4 3 -1 6 6 6
7 0 21 20 32 45 11 25 22 45 25 45 3 0 2 -5 -2 -12 -5 -7 -3 -8 5 -4 7 5 10
14 7 22 -3 7 0 17 7 21 7 5 23 21 37 36 21 24 22 30 10 38 -12 9 -11 10 4 5
11 -4 24 0 33 11 8 10 11 12 7 4 -4 -9 -3 -12 4 -7 6 4 8 14 5 23 -4 9 -2 14
3 11 5 -2 20 7 34 20 14 14 18 22 10 17 -8 -4 5 11 30 33 25 23 51 41 59 42 7
0 11 6 7 15 -3 10 1 15 14 15 10 0 22 5 26 12 4 7 3 8 -4 4 -7 -4 -12 -5 -12
-2 0 3 19 15 43 26 53 25 90 56 82 70 -3 6 3 10 15 10 12 0 19 4 15 9 -3 5 0
13 6 17 8 5 9 3 4 -6 -6 -9 -2 -10 16 -5 30 10 90 61 81 70 -4 4 -2 6 3 4 14
-3 65 22 65 33 0 4 3 7 8 7 20 -4 71 15 65 24 -4 6 0 8 10 4 11 -4 14 -2 11 8
-3 8 1 12 13 12 10 -1 22 8 28 21 5 12 13 22 18 22 4 0 5 -5 1 -11 -4 -7 -3
-10 2 -7 5 2 24 11 42 18 17 8 32 19 32 25 0 5 4 4 9 -4 8 -12 12 -12 25 2 9
9 25 19 36 22 11 4 18 11 15 16 -3 5 1 6 9 3 9 -3 16 -2 16 4 0 5 12 7 26 4
18 -3 25 -1 20 6 -9 15 25 23 69 16 24 -4 35 -2 31 5 -4 5 2 15 13 20 29 16
39 13 17 -4 -11 -8 -16 -15 -10 -15 14 1 44 26 38 33 -7 6 17 14 70 22 21 3
42 7 46 10 4 3 25 7 46 11 22 3 55 9 74 14 19 5 55 12 80 15 24 4 48 9 52 11
4 3 126 7 270 10 282 6 283 6 372 -1 33 -2 68 1 78 6 14 7 16 6 12 -6 -5 -11
0 -15 17 -15 19 0 21 2 9 10 -13 8 -13 10 1 10 9 0 19 -3 23 -7 4 -4 29 -9 57
-11 28 -2 63 -8 77 -14 15 -6 32 -12 39 -14 6 -1 35 -7 63 -13 28 -6 56 -9 61
-5 5 3 9 1 9 -5 0 -5 19 -12 43 -16 23 -4 58 -14 77 -22 19 -8 42 -16 50 -18
8 -2 30 -9 49 -14 19 -6 36 -9 38 -7 5 5 -151 61 -194 71 -37 7 -49 20 -32 31
8 5 9 3 4 -6 -5 -9 -2 -10 13 -6 20 7 71 -11 84 -28 3 -5 35 -9 71 -10 36 0
64 -3 62 -7 -2 -3 14 -5 35 -5 22 1 40 -3 40 -7 0 -5 10 -5 23 -2 14 4 18 3 9
-3 -11 -7 -11 -11 0 -19 20 -15 50 -26 80 -28 15 -1 33 -6 40 -11 22 -17 87
-36 98 -29 6 4 9 1 8 -6 -2 -6 13 -16 31 -21 19 -5 66 -29 103 -54 38 -24 74
-44 81 -44 7 0 31 -13 53 -29 77 -57 144 -92 144 -75 0 8 -8 17 -17 21 -25 8
-63 44 -58 53 3 5 -2 11 -11 14 -10 4 -13 2 -7 -7 8 -14 -50 31 -89 69 -16 15
-28 22 -28 15 0 -6 -4 -11 -10 -11 -5 0 -10 6 -10 14 0 17 25 15 42 -2 7 -7
16 -12 20 -12 5 0 32 -15 61 -33 29 -18 67 -41 86 -50 34 -17 34 -17 16 3 -10
11 -22 20 -26 20 -5 0 -37 23 -71 50 -34 28 -68 50 -76 50 -7 0 -11 4 -8 8 3
5 -14 17 -37 27 -23 9 -71 32 -107 50 -36 17 -105 49 -155 70 -49 21 -96 42
-102 48 -7 5 -27 10 -45 12 -50 5 -78 16 -71 28 4 6 0 8 -11 4 -9 -4 -28 0
-41 9 -13 9 -29 13 -35 9 -5 -3 -10 -2 -10 4 0 5 -21 13 -47 17 -27 3 -82 18
-123 31 -69 23 -119 34 -177 37 -13 0 -23 3 -23 6 0 3 -9 6 -21 7 -11 1 -53 7
-92 12 -63 9 -160 19 -237 25 -14 1 -30 5 -37 9 -6 4 -15 2 -18 -4 -4 -5 -14
-8 -22 -4 -9 3 -61 5 -117 5 -55 -1 -108 -1 -116 0 -8 0 -34 2 -57 3 -23 1
-40 -1 -37 -4 2 -4 -11 -7 -30 -7 -19 0 -39 -3 -45 -7 -6 -3 -45 -6 -86 -6
-41 0 -75 -4 -75 -8 0 -4 -13 -6 -30 -3 -18 2 -30 0 -30 -7 0 -6 -6 -8 -13 -5
-12 4 -57 -3 -182 -31 -22 -5 -26 -4 -14 4 8 5 27 12 42 15 15 3 37 8 48 11
12 4 31 8 42 10 12 1 42 8 67 15 56 15 78 19 160 25 36 2 94 9 130 14 36 5 69
6 73 2 4 -5 30 -4 56 0 27 4 61 6 75 5 14 -2 26 1 26 6 0 5 5 6 10 3 6 -4 79
-8 163 -11 84 -2 170 -6 192 -8 82 -9 191 -27 230 -38 22 -6 56 -13 75 -15 50
-6 228 -50 270 -67 89 -36 196 -62 213 -52 12 8 20 7 28 -1 9 -9 7 -11 -10 -6
-11 3 -21 1 -21 -5 0 -12 51 -23 77 -16 22 6 103 -30 103 -46 0 -14 95 -60
125 -60 15 0 23 -4 20 -10 -3 -5 17 -21 45 -35 27 -14 50 -23 50 -20 0 2 -17
13 -37 24 -28 15 -33 20 -18 21 17 0 15 3 -10 20 -19 13 -39 18 -55 15 -16 -4
-20 -3 -12 3 10 7 4 15 -23 31 -20 11 -45 21 -56 21 -10 0 -19 4 -19 8 0 11
-71 46 -188 92 -53 22 -88 39 -76 39 11 1 23 -2 27 -5 7 -7 122 -49 180 -66
20 -6 37 -14 37 -19 0 -5 7 -9 15 -9 8 0 32 -9 52 -20 21 -11 43 -20 50 -20 6
0 25 -12 42 -26 17 -14 35 -23 40 -19 6 3 19 -3 31 -15 11 -11 20 -17 20 -13
0 4 7 -2 16 -13 8 -10 12 -13 8 -5 -13 25 33 0 204 -111 15 -10 34 -21 42 -25
8 -3 17 -9 20 -13 3 -3 22 -19 43 -35 32 -24 40 -26 48 -14 7 12 9 12 9 -2 0
-14 24 -36 95 -84 49 -34 53 -36 59 -27 3 5 -17 24 -45 42 -28 18 -53 39 -56
46 -3 8 -11 14 -19 14 -7 0 -17 7 -22 16 -4 8 -34 32 -65 53 -32 21 -54 41
-50 44 3 4 -1 7 -10 7 -9 0 -17 4 -17 9 0 5 -15 15 -32 22 -37 15 -95 51 -119
73 -8 9 -31 22 -51 31 -21 8 -48 26 -61 39 -26 26 -73 54 -63 38 10 -16 -97
38 -110 56 -7 9 -18 13 -28 9 -9 -4 -15 -3 -12 2 9 14 -95 58 -123 52 -8 -1
-10 2 -5 10 5 9 1 10 -16 6 -14 -3 -28 0 -37 9 -8 8 -19 11 -25 8 -7 -4 -8 -2
-4 4 4 7 1 12 -9 12 -9 0 -14 4 -11 9 3 5 -1 12 -10 15 -9 4 -13 2 -8 -5 4 -8
-1 -9 -17 -4 -69 22 -94 34 -92 44 2 6 -4 11 -13 11 -8 0 -13 -4 -10 -9 4 -5
-3 -7 -14 -4 -11 3 -20 9 -20 14 0 5 -7 6 -16 2 -14 -5 -14 -3 -3 14 11 19 15
19 43 8 17 -7 76 -28 131 -46 55 -19 102 -37 103 -41 2 -5 13 -8 24 -8 12 0
44 -11 72 -24 28 -13 77 -34 109 -47 31 -12 57 -27 57 -31 0 -5 4 -7 8 -4 9 5
84 -31 152 -72 19 -12 42 -22 50 -22 8 0 -14 16 -49 35 -36 19 -68 40 -71 46
-4 5 -14 11 -22 13 -8 1 -26 9 -39 17 -13 8 -44 24 -69 34 -25 11 -51 25 -58
32 -16 15 -26 17 -17 3 3 -6 -1 -7 -9 -4 -9 3 -13 10 -10 15 3 5 -2 6 -10 3
-9 -3 -16 -2 -16 3 0 8 -85 44 -115 49 -18 3 -200 65 -216 74 -9 4 -63 18
-120 30 -57 11 -117 26 -133 32 -32 13 -54 17 -103 19 -18 0 -30 5 -27 10 3 5
-10 9 -28 10 -37 1 -51 2 -158 19 -41 6 -102 13 -135 16 -75 5 -423 13 -427 9z
m148 -53 c1 -7 0 -8 -3 -2 -2 5 -9 8 -14 4 -5 -3 -9 0 -9 6 0 15 23 7 26 -8z
m138 3 c3 -8 1 -15 -4 -15 -6 0 -10 5 -10 10 0 6 -8 10 -17 10 -15 0 -16 -2
-3 -10 12 -8 10 -10 -8 -10 -13 0 -20 4 -17 10 3 6 1 10 -4 10 -6 0 -11 -5
-11 -11 0 -5 -5 -7 -11 -3 -17 10 5 21 46 22 21 1 35 -4 39 -13z m56 -15 c0
-5 -10 -6 -22 -2 -12 3 -17 7 -10 10 7 2 9 9 5 15 -4 7 1 6 10 -2 9 -7 17 -17
17 -21z m118 15 c7 -3 15 -4 18 -4 4 0 11 -5 15 -13 7 -10 9 -10 9 0 0 6 5 12
11 12 5 0 7 -4 4 -10 -3 -5 1 -10 10 -10 10 0 13 5 9 13 -5 8 -2 8 9 -2 9 -7
17 -9 17 -4 0 13 104 -5 108 -18 5 -11 32 -12 32 0 0 4 11 6 25 3 14 -2 22 -8
19 -13 -3 -5 9 -6 26 -3 16 4 30 2 30 -3 0 -5 14 -8 30 -5 19 3 30 0 30 -7 0
-7 4 -10 8 -7 5 3 30 -1 58 -8 43 -11 46 -14 25 -20 -15 -5 -26 -4 -31 4 -4 7
-12 10 -18 6 -5 -3 -24 -3 -42 0 -22 5 -28 9 -18 15 8 5 -2 8 -27 7 -34 -1
-124 10 -200 26 -11 2 -62 7 -114 11 -51 4 -101 9 -110 10 -9 2 -22 4 -29 4
-7 1 -11 5 -8 10 4 5 0 11 -6 14 -16 5 92 -3 110 -8z m-368 -5 c0 -4 -36 -8
-79 -9 -44 -1 -90 -4 -103 -6 -12 -2 -62 -6 -109 -10 -48 -4 -103 -10 -123
-15 -20 -4 -36 -4 -36 0 0 13 41 22 110 26 110 6 170 11 174 15 8 7 166 6 166
-1z m90 6 c0 -3 -4 -8 -10 -11 -5 -3 -10 -1 -10 4 0 6 5 11 10 11 6 0 10 -2
10 -4z m-565 -36 c-3 -5 0 -10 7 -11 17 -1 -152 -38 -172 -38 -23 1 82 29 108
29 13 0 20 4 17 10 -3 5 0 7 8 4 8 -3 18 -1 22 5 3 6 8 11 11 11 3 0 2 -4 -1
-10z m-186 -54 c-4 -3 -130 -37 -189 -51 l-25 -6 25 12 c47 21 203 58 189 45z
m1598 -11 c12 1 19 -3 16 -8 -4 -6 3 -8 15 -5 12 4 22 3 22 -2 0 -15 -30 -19
-58 -9 -15 6 -28 10 -29 10 -2 -1 -10 -1 -18 -1 -13 0 -14 2 -3 14 7 8 18 11
23 6 6 -4 20 -6 32 -5z m-1832 -55 c-27 -12 -43 -12 -25 0 8 5 22 9 30 9 10 0
8 -3 -5 -9z m-98 -36 c-3 -3 -12 -4 -19 -1 -8 3 -5 6 6 6 11 1 17 -2 13 -5z
m1826 -31 c-7 -2 -19 -2 -25 0 -7 3 -2 5 12 5 14 0 19 -2 13 -5z m-1933 -7 c0
-2 -7 -7 -16 -10 -8 -3 -12 -2 -9 4 6 10 25 14 25 6z m1977 -2 c-3 -3 -12 -4
-19 -1 -8 3 -5 6 6 6 11 1 17 -2 13 -5z m88 -24 c13 -6 15 -9 5 -9 -8 0 -22 4
-30 9 -18 12 -2 12 25 0z m110 -8 c-3 -3 -11 0 -18 7 -9 10 -8 11 6 5 10 -3
15 -9 12 -12z m-2265 -6 c0 -2 -7 -7 -16 -10 -8 -3 -12 -2 -9 4 6 10 25 14 25
6z m2307 -2 c-3 -3 -12 -4 -19 -1 -8 3 -5 6 6 6 11 1 17 -2 13 -5z m-1817 -8
c0 -3 -39 -17 -87 -31 -49 -15 -92 -31 -97 -36 -6 -5 -17 -9 -25 -9 -13 0 -80
-26 -198 -77 -7 -3 -13 0 -13 6 0 6 7 11 15 11 8 0 23 4 33 9 9 5 32 16 50 23
17 7 32 16 32 20 0 5 9 8 20 8 11 0 28 4 38 8 9 5 58 23 107 40 85 29 125 38
125 28z m584 -17 c-3 -5 -1 -9 5 -9 5 0 12 4 15 9 3 4 16 7 28 6 13 -1 31 -3
41 -4 9 0 17 -6 17 -11 0 -6 -11 -8 -25 -4 -14 3 -31 2 -38 -4 -12 -10 -155
-7 -165 3 -5 5 51 9 77 6 7 -2 11 1 8 6 -3 4 6 9 19 9 13 1 21 -2 18 -7z m236
-6 c0 -1 -10 -7 -21 -14 -12 -6 -19 -7 -15 -1 3 6 -12 8 -42 5 -28 -3 -42 -1
-35 4 11 8 113 13 113 6z m27 -25 c-3 -7 -5 -2 -5 12 0 14 2 19 5 13 2 -7 2
-19 0 -25z m-1460 8 c0 -8 -12 -19 -25 -26 l-25 -11 24 25 c13 14 24 26 25 26
0 0 1 -6 1 -14z m43 10 c0 -2 -7 -7 -16 -10 -8 -3 -12 -2 -9 4 6 10 25 14 25
6z m1020 -8 c0 -6 -11 -8 -25 -6 -14 3 -28 1 -31 -3 -7 -12 -24 -11 -24 0 0
10 17 15 57 17 13 1 23 -3 23 -8z m505 1 c11 -16 -3 -23 -19 -10 -9 7 -24 10
-37 6 -14 -5 -19 -4 -15 4 9 14 63 14 71 0z m91 0 c20 -1 31 -6 31 -16 0 -10
-7 -13 -25 -8 -17 4 -28 0 -38 -12 -13 -17 -14 -17 -8 0 5 13 1 17 -15 17 -12
0 -21 6 -21 14 0 10 7 13 23 10 12 -3 36 -5 53 -5z m-687 -14 c-3 -2 -32 -7
-64 -10 -69 -6 -69 3 1 12 27 3 51 7 53 9 6 6 15 -5 10 -11z m776 5 c4 -6 10
-8 15 -5 5 3 28 1 52 -5 24 -6 58 -13 77 -16 19 -2 38 -7 42 -10 5 -3 19 -7
31 -9 44 -8 113 -28 121 -35 19 -17 -133 10 -155 27 -7 6 -31 10 -53 10 -36 1
-140 17 -173 29 -7 2 -10 8 -7 14 8 13 42 13 50 0z m745 0 c11 -8 7 -9 -15 -4
-37 8 -45 14 -19 14 10 0 26 -5 34 -10z m-1694 -14 c6 14 44 6 44 -8 0 -6 -7
-8 -15 -4 -8 3 -26 1 -39 -4 -28 -10 -40 -3 -23 15 9 9 14 10 20 1 6 -8 10 -8
13 0z m-62 -26 c-5 -5 -38 -15 -74 -24 -55 -12 -62 -12 -46 0 11 8 30 14 42
14 13 0 25 4 29 10 3 5 13 6 22 3 10 -4 14 -2 10 4 -4 6 -1 13 5 16 16 5 24
-11 12 -23z m-864 -34 c0 -2 -12 -11 -27 -20 l-28 -17 24 20 c23 21 31 25 31
17z m706 -11 c-11 -8 -24 -15 -30 -15 -5 0 -1 7 10 15 10 8 24 14 29 14 6 0 1
-6 -9 -14z m1669 -15 c3 -5 -1 -10 -10 -10 -9 0 -13 5 -10 10 3 6 8 10 10 10
2 0 7 -4 10 -10z m525 -15 c17 -9 30 -18 30 -20 0 -5 -70 22 -79 30 -10 11 22
4 49 -10z m-2621 -8 c-2 -1 -12 -9 -22 -16 -15 -12 -17 -12 -11 3 3 9 13 16
22 16 8 0 13 -1 11 -3z m-389 -21 c0 -2 -8 -10 -17 -17 -16 -13 -17 -12 -4 4
13 16 21 21 21 13z m2830 -16 c18 -12 2 -12 -25 0 -13 6 -15 9 -5 9 8 0 22 -4
30 -9z m-89 -18 c-7 -2 -18 1 -23 6 -8 8 -4 9 13 5 13 -4 18 -8 10 -11z m201
-24 c26 -11 45 -25 42 -30 -4 -5 -13 -3 -22 5 -10 7 -38 21 -64 31 -27 10 -48
20 -48 23 0 6 34 -5 92 -29z m-3042 -11 c0 -2 -10 -12 -22 -23 l-23 -19 19 23
c18 21 26 27 26 19z m710 -7 c-8 -5 -19 -10 -25 -10 -5 0 -3 5 5 10 8 5 20 10
25 10 6 0 3 -5 -5 -10z m2480 -60 c0 -5 -7 -7 -15 -4 -8 4 -12 10 -9 15 6 11
24 2 24 -11z m-3270 6 c0 -2 -8 -10 -17 -17 -16 -13 -17 -12 -4 4 13 16 21 21
21 13z m-120 -110 c0 -2 -8 -10 -17 -17 -16 -13 -17 -12 -4 4 13 16 21 21 21
13z m-40 -39 c0 -2 -17 -19 -37 -38 l-38 -34 34 38 c33 34 41 42 41 34z m-294
-355 c-17 -16 -18 -16 -5 5 7 12 15 20 18 17 3 -2 -3 -12 -13 -22z m-115 -195
c-10 -9 -11 -8 -5 6 3 10 9 15 12 12 3 -3 0 -11 -7 -18z m-20 -44 c-12 -20
-14 -14 -5 12 4 9 9 14 11 11 3 -2 0 -13 -6 -23z m-48 -108 c-3 -9 -8 -14 -10
-11 -3 3 -2 9 2 15 9 16 15 13 8 -4z m-61 -157 c-8 -8 -9 -4 -5 13 4 13 8 18
11 10 2 -7 -1 -18 -6 -23z m-21 -69 c-5 -13 -10 -19 -10 -12 -1 15 10 45 15
40 3 -2 0 -15 -5 -28z m286 -221 c-3 -8 -6 -5 -6 6 -1 11 2 17 5 13 3 -3 4
-12 1 -19z m-19 -633 c-3 -3 -9 2 -12 12 -6 14 -5 15 5 6 7 -7 10 -15 7 -18z
m4637 -1385 c-10 -11 -20 -18 -23 -15 -7 6 18 35 31 35 5 0 2 -9 -8 -20z m5
-234 c0 -3 -4 -8 -10 -11 -5 -3 -10 -1 -10 4 0 6 5 11 10 11 6 0 10 -2 10 -4z
m-590 -166 c-12 -16 -25 -30 -30 -30 -4 0 4 14 18 30 15 17 28 30 30 30 2 0
-6 -13 -18 -30z"/>
<path d="M2948 5393 c7 -3 16 -2 19 1 4 3 -2 6 -13 5 -11 0 -14 -3 -6 -6z"/>
<path d="M3860 5169 c0 -5 5 -7 10 -4 6 3 10 8 10 11 0 2 -4 4 -10 4 -5 0 -10
-5 -10 -11z"/>
<path d="M3930 5000 c8 -5 20 -10 25 -10 6 0 3 5 -5 10 -8 5 -19 10 -25 10 -5
0 -3 -5 5 -10z"/>
<path d="M4371 4967 c28 -21 59 -36 59 -29 0 5 -11 14 -25 20 -24 11 -44 16
-34 9z"/>
<path d="M1938 4943 c7 -3 16 -2 19 1 4 3 -2 6 -13 5 -11 0 -14 -3 -6 -6z"/>
<path d="M4470 4906 c0 -2 7 -7 16 -10 8 -3 12 -2 9 4 -6 10 -25 14 -25 6z"/>
<path d="M1778 4893 c7 -3 16 -2 19 1 4 3 -2 6 -13 5 -11 0 -14 -3 -6 -6z"/>
<path d="M4217 4889 c7 -7 15 -10 18 -7 3 3 -2 9 -12 12 -14 6 -15 5 -6 -5z"/>
<path d="M3667 4879 c7 -7 15 -10 18 -7 3 3 -2 9 -12 12 -14 6 -15 5 -6 -5z"/>
<path d="M4298 4813 c7 -3 16 -2 19 1 4 3 -2 6 -13 5 -11 0 -14 -3 -6 -6z"/>
<path d="M4610 4806 c0 -2 7 -7 16 -10 8 -3 12 -2 9 4 -6 10 -25 14 -25 6z"/>
<path d="M4412 4646 c7 -8 15 -12 17 -11 5 6 -10 25 -20 25 -5 0 -4 -6 3 -14z"/>
<path d="M4390 4596 c0 -8 4 -17 9 -20 5 -4 7 3 4 14 -6 23 -13 26 -13 6z"/>
<path d="M4825 4560 c10 -11 20 -20 23 -20 3 0 -3 9 -13 20 -10 11 -20 20 -23
20 -3 0 3 -9 13 -20z"/>
<path d="M4430 4556 c0 -2 7 -7 16 -10 8 -3 12 -2 9 4 -6 10 -25 14 -25 6z"/>
<path d="M4485 4520 c3 -5 8 -10 11 -10 2 0 4 5 4 10 0 6 -5 10 -11 10 -5 0
-7 -4 -4 -10z"/>
<path d="M4867 4499 c7 -7 15 -10 18 -7 3 3 -2 9 -12 12 -14 6 -15 5 -6 -5z"/>
<path d="M5004 4339 c69 -76 79 -86 75 -73 -7 20 -83 105 -104 116 -11 6 2
-13 29 -43z"/>
<path d="M5090 4250 c0 -5 5 -10 11 -10 5 0 7 5 4 10 -3 6 -8 10 -11 10 -2 0
-4 -4 -4 -10z"/>
<path d="M640 4000 c-6 -11 -8 -20 -6 -20 3 0 10 9 16 20 6 11 8 20 6 20 -3 0
-10 -9 -16 -20z"/>
<path d="M630 3959 c0 -5 5 -7 10 -4 6 3 10 8 10 11 0 2 -4 4 -10 4 -5 0 -10
-5 -10 -11z"/>
<path d="M1069 3864 c0 -25 0 -1144 0 -1167 1 -16 18 -17 252 -17 210 1 262 4
324 20 194 50 325 172 391 365 23 68 27 99 30 210 3 150 -12 238 -56 331 -57
119 -154 199 -295 245 -64 20 -93 23 -357 27 -275 4 -288 3 -289 -14z m523
-229 c61 -21 133 -85 162 -144 73 -145 54 -363 -40 -474 -68 -80 -137 -107
-285 -114 l-106 -5 0 382 0 382 111 -5 c66 -3 130 -12 158 -22z"/>
<path d="M3008 3733 c-3 -4 -4 -242 -4 -528 l1 -520 105 -3 105 -3 0 528 0
528 -102 3 c-56 1 -103 -1 -105 -5z"/>
<path d="M3453 3730 c-29 -12 -63 -67 -63 -103 0 -68 54 -117 129 -117 80 0
135 85 104 163 -23 56 -104 83 -170 57z"/>
<path d="M4534 3731 c-48 -21 -76 -99 -54 -151 19 -45 60 -70 114 -70 109 0
159 131 77 204 -24 21 -104 31 -137 17z"/>
<path d="M2421 3398 c-63 -24 -138 -93 -171 -158 -29 -56 -49 -173 -43 -247
12 -152 65 -242 176 -301 48 -25 61 -27 172 -27 126 0 220 21 232 52 5 13 7
73 4 130 l-1 21 -51 -19 c-99 -38 -216 -33 -273 12 -26 21 -34 34 -50 87 l-7
22 222 0 222 0 -5 108 c-5 130 -35 209 -103 271 -76 70 -215 91 -324 49z m186
-149 c22 -19 42 -64 45 -101 l3 -33 -122 -3 c-68 -1 -123 -1 -123 1 0 3 7 24
15 48 17 47 48 86 80 100 25 11 82 4 102 -12z"/>
<path d="M5016 3398 c-108 -29 -104 -25 -105 -123 l-1 -85 53 29 c101 56 218
65 262 20 30 -31 43 -88 21 -90 -9 -1 -19 -2 -23 -3 -5 -2 -39 -6 -78 -10
-209 -25 -297 -100 -297 -256 0 -70 18 -122 58 -162 43 -45 97 -62 176 -55 66
5 99 23 145 75 l33 37 -1 -35 c-2 -62 -6 -60 99 -60 l98 0 -2 253 c-1 272 -4
299 -40 367 -60 110 -215 149 -398 98z m244 -410 c0 -53 -18 -102 -48 -131
-58 -56 -155 -40 -168 27 -13 72 18 102 125 122 95 17 91 18 91 -18z"/>
<path d="M3405 3043 l0 -358 105 0 105 0 0 357 0 358 -105 0 -105 0 0 -357z"/>
<path d="M3779 3390 c0 -5 0 -35 0 -65 0 -30 0 -62 0 -70 1 -12 27 -15 149
-17 l148 -3 -166 -234 c-156 -219 -166 -236 -166 -277 l1 -44 303 0 302 0 0
80 0 80 -161 0 -161 0 48 68 c264 374 270 384 270 437 l-1 50 -282 3 c-186 1
-283 -1 -284 -8z"/>
<path d="M4485 3043 l0 -358 105 0 105 0 0 357 0 358 -105 0 -105 0 0 -357z"/>
<path d="M2950 2395 c0 -19 13 -32 69 -65 38 -22 72 -40 75 -40 3 0 6 10 6 23
0 17 -16 33 -69 65 -37 23 -71 42 -75 42 -3 0 -6 -11 -6 -25z"/>
<path d="M4230 2390 c-15 -27 -4 -56 21 -63 30 -8 46 1 51 27 10 49 -50 78
-72 36z"/>
<path d="M1345 2360 c-1 -3 -3 -117 -2 -253 l0 -248 31 3 31 3 -1 107 c0 124
-6 118 99 115 l67 -2 0 30 0 30 -82 0 -83 0 0 78 c0 43 4 81 9 85 6 3 52 5
104 4 l93 -1 -3 27 -3 27 -128 0 c-71 0 -130 -2 -132 -5z"/>
<path d="M3442 2113 l1 -253 106 0 c126 0 179 19 207 72 31 58 12 136 -41 175
l-26 19 25 13 c47 25 62 101 32 160 -27 51 -66 64 -192 66 l-112 1 0 -253z
m228 179 c33 -26 35 -88 5 -118 -21 -21 -33 -24 -97 -24 l-74 0 0 80 1 80 71
0 c54 0 77 -4 94 -18z m15 -227 c33 -32 33 -84 2 -120 -19 -23 -31 -27 -87
-29 -95 -4 -95 -5 -96 92 l0 82 78 0 c70 0 82 -3 103 -25z"/>
<path d="M1772 2257 c-54 -11 -116 -70 -131 -124 -31 -112 10 -224 98 -262
160 -69 308 82 254 259 -30 99 -116 149 -221 127z m112 -72 c51 -34 71 -129
42 -199 -18 -43 -74 -78 -118 -73 -70 8 -107 53 -113 139 -9 118 98 193 189
133z"/>
<path d="M2608 2255 c-21 -7 -46 -23 -56 -36 l-19 -22 2 31 c2 29 0 31 -30 30
l-32 -1 -1 -199 -1 -199 32 3 32 3 0 130 c1 82 6 138 13 152 11 19 61 54 77
53 27 -1 31 3 30 29 -1 40 -4 41 -47 26z"/>
<path d="M2975 2260 c-65 -14 -117 -63 -135 -128 -45 -164 68 -310 211 -272
22 6 49 22 61 35 25 29 37 25 33 -10 -2 -22 2 -25 30 -25 l33 0 -1 200 0 200
-28 0 c-29 0 -33 -5 -31 -50 1 -21 -1 -23 -11 -9 -33 43 -109 70 -162 59z
m102 -72 c60 -29 85 -136 49 -207 -45 -86 -162 -91 -210 -10 -25 42 -29 98
-11 148 28 80 94 107 172 69z"/>
<path d="M3942 2257 c-57 -11 -117 -70 -133 -129 -28 -104 12 -212 93 -252
123 -61 264 23 272 162 9 150 -94 247 -232 219z m119 -78 c68 -48 66 -191 -2
-240 -59 -42 -137 -30 -174 28 -26 39 -26 137 0 180 35 60 117 75 176 32z"/>
<path d="M4480 2260 c-78 -10 -120 -47 -120 -105 0 -59 31 -90 118 -119 94
-31 110 -45 96 -84 -19 -55 -127 -52 -153 4 -8 19 -17 24 -41 22 -16 -1 -30
-4 -30 -5 0 -15 31 -71 46 -84 55 -48 154 -47 208 1 27 25 31 35 31 78 0 61
-21 82 -115 113 -36 12 -71 27 -79 35 -18 17 -21 55 -6 71 36 35 120 21 131
-23 5 -19 13 -24 40 -24 27 0 32 3 29 19 -13 70 -76 111 -155 101z"/>
<path d="M2062 2105 c3 -143 4 -154 28 -188 50 -73 162 -83 224 -21 15 14 16
13 16 -10 0 -22 4 -26 30 -26 17 0 30 5 31 13 1 12 0 365 0 380 -1 4 -14 7
-31 7 l-30 0 -1 -127 c-1 -156 -1 -160 -33 -192 -37 -37 -106 -36 -143 2 -28
27 -28 29 -31 172 l-3 144 -30 -1 -30 -1 3 -152z"/>
<path d="M4237 2253 c-3 -5 -5 -95 -5 -201 l0 -193 32 3 31 3 0 194 0 194 -27
4 c-14 2 -29 0 -31 -4z"/>
<path d="M4328 1047 c-15 -15 -49 -31 -60 -29 -13 3 -9 -5 9 -19 9 -8 14 -9
10 -3 -4 7 5 17 23 24 32 13 60 40 42 40 -6 0 -17 -6 -24 -13z"/>
<path d="M4188 987 c-42 -25 -51 -41 -13 -24 14 7 25 16 25 20 0 5 5 5 10 2 6
-3 10 -2 10 4 0 5 8 12 18 14 12 3 12 5 2 5 -8 1 -32 -9 -52 -21z"/>
<path d="M4060 929 c-19 -10 -28 -19 -20 -19 8 0 26 9 40 20 31 25 25 24 -20
-1z"/>
<path d="M3838 903 c7 -3 16 -2 19 1 4 3 -2 6 -13 5 -11 0 -14 -3 -6 -6z"/>
<path d="M3635 820 c-3 -5 1 -10 9 -10 8 0 18 5 21 10 3 6 -1 10 -9 10 -8 0
-18 -4 -21 -10z"/>
<path d="M3605 810 c3 -5 8 -10 11 -10 2 0 4 5 4 10 0 6 -5 10 -11 10 -5 0 -7
-4 -4 -10z"/>
<path d="M2948 423 c7 -3 16 -2 19 1 4 3 -2 6 -13 5 -11 0 -14 -3 -6 -6z"/>
</g>
</svg>
