<?xml version="1.0" encoding="UTF-8"?>
<svg id="Layer_1" data-name="Layer 1" xmlns="http://www.w3.org/2000/svg" viewBox="0 0 232.84 42.08">
  <defs>
    <style>
      .cls-1 {
        fill: #000a12;
      }

      .cls-2 {
        fill: #00b087;
      }

      .cls-3 {
        fill: #fcc40f;
      }

      .cls-4 {
        fill: #fff;
        stroke-width: 3.32px;
      }

      .cls-4, .cls-5 {
        stroke: #000a12;
        stroke-miterlimit: 2.27;
      }

      .cls-5 {
        fill: none;
        stroke-width: 2.9px;
      }

      .cls-6 {
        fill: #ef6a45;
      }
    </style>
  </defs>
  <path d="m231.74,29.01c-.61,0-1.1.49-1.1,1.1s.49,1.1,1.1,1.1,1.1-.49,1.1-1.1-.49-1.1-1.1-1.1Zm0,2.04c-.51,0-.93-.42-.93-.93s.42-.93.93-.93.93.42.93.93-.42.93-.93.93Zm.33-1.13c0-.2-.14-.32-.35-.32h-.35v.99h.18v-.35h.19l.18.35h.17l-.2-.4c.11-.05.17-.15.17-.28h.01Zm-.34.23h-.18v-.35h.18c.12,0,.2.06.2.17,0,.12-.08.18-.2.18Zm-133.25-12.35v-2.63h-4.04v15.9h4.04v-9.56c0-1.43,1.15-2.58,2.58-2.58h2.53v-3.81h-1.93c-1.51,0-2.82.78-3.18,2.69h0Zm8.95-8.95c-1.41,0-2.48,1.1-2.48,2.51s1.07,2.48,2.48,2.48,2.48-1.1,2.48-2.48-1.07-2.51-2.48-2.51Zm-2.03,22.21h4.1v-15.9h-4.1v15.9Zm15.21.29c-1.79-.03-3.41-.62-4.72-1.62v6.02h-4.1V15.16h4.1v1.34c1.33-1.01,3-1.62,4.85-1.62,4.63,0,8.36,3.78,8.25,8.42-.1,4.51-3.87,8.1-8.38,8.03h0v.02Zm4.24-8.24c0-2.47-2-4.47-4.47-4.47s-4.47,2-4.47,4.47,2,4.47,4.47,4.47,4.47-2,4.47-4.47Zm75.25-1.37l-2.39-.66c-1.58-.41-2.18-.89-2.18-1.73s.86-1.39,2.09-1.39,2.09.77,2.09,1.76v.09h3.75v-.09c0-2.9-2.36-4.85-5.86-4.85s-5.99,1.95-5.99,4.63c0,2.09,1.37,3.66,3.78,4.32l2.29.62c1.74.48,2.38,1.02,2.38,1.98,0,1.01-.93,1.7-2.32,1.7s-2.42-.92-2.42-2.29v-.09h-3.98v.09c0,3.28,2.63,5.57,6.39,5.57s6.26-2.24,6.26-5.32c0-1.52-.67-3.49-3.88-4.35h0,0Zm-56.63-6.53h4.1v15.9h-4.1v-1.34c-1.26.96-2.83,1.55-4.56,1.61-4.64.16-8.54-3.55-8.54-8.2s3.69-8.23,8.25-8.23c1.84,0,3.5.6,4.85,1.62v-1.36Zm.01,7.93h0c0-2.47-2-4.47-4.47-4.47s-4.47,2-4.47,4.47,2,4.47,4.47,4.47,4.47-2,4.47-4.47Zm18.86-13.62h4.1v21.58h-4.1v-1.34c-1.34,1.02-3.03,1.63-4.89,1.62-4.38-.02-8.01-3.48-8.2-7.86-.21-4.71,3.56-8.59,8.25-8.59,1.84,0,3.5.6,4.85,1.62v-7.06h0v.03Zm0,13.62c0-2.47-2-4.47-4.47-4.47s-4.47,2-4.47,4.47,2,4.47,4.47,4.47,4.47-2,4.47-4.47Zm23.05,7.96h4.1v-15.93h-4.1v15.93Zm2.08-22.21c-1.41,0-2.48,1.1-2.48,2.51s1.07,2.48,2.48,2.48,2.48-1.1,2.48-2.48-1.07-2.51-2.48-2.51Zm34.16,14.25c0,4.55-3.68,8.22-8.22,8.22s-8.22-3.68-8.22-8.22,3.68-8.22,8.22-8.22,8.22,3.68,8.22,8.22Zm-3.75,0c0-2.47-2-4.47-4.47-4.47s-4.47,2-4.47,4.47,2,4.47,4.47,4.47,4.47-2,4.47-4.47Zm-121.46-13.65h-15.72v3.63h5.81v17.94h4.1V13.11h5.81v-3.63h-.01.01Zm79.36,17.23l-3.63-11.54h-4.3l5.45,15.9h4.92l5.49-15.9h-4.3l-3.63,11.54h0Zm51.85-8.91v-2.63h-4.1v15.9h4.1v-9.56c0-1.43,1.15-2.58,2.58-2.58h2.53v-3.81h-1.93c-1.51,0-2.82.78-3.18,2.69h0Z"/>
  <g>
    <path class="cls-1" d="m35.06,0c-9.19,0-17.49,2.32-24.02,6.58H.04s2.59,3.47,3.44,6.98l27.86,21.38,3.73,5.6,3.78-5.63,27.92-21.34c.83-3.53,3.46-7.03,3.46-7.03h-11.73C51.91,2.26,43.91.02,35.06.02h0v-.02Z"/>
    <path class="cls-3" d="m52.1,6.46c-1.88.05-3.77.41-5.53,1.05-4.39,1.61-7.93,4.91-9.88,9.14-.88,1.92-1.38,3.96-1.56,6.01-.66-8.99-8.07-16.1-17.16-16.3,5.03-2.16,10.82-3.32,17.09-3.32s12.01,1.14,17.04,3.39"/>
    <g>
      <circle class="cls-4" cx="17.4" cy="24.68" r="15.74"/>
      <circle class="cls-5" cx="17.4" cy="24.68" r="7.08"/>
    </g>
    <circle class="cls-6" cx="17.4" cy="24.68" r="2.92"/>
    <g>
      <circle class="cls-4" cx="52.81" cy="24.64" r="15.74"/>
      <circle class="cls-5" cx="52.81" cy="24.64" r="7.08"/>
    </g>
    <circle class="cls-2" cx="52.81" cy="24.64" r="2.92"/>
  </g>
</svg>